<svg width="30" height="30" viewBox="0 0 30 30" fill="none" xmlns="http://www.w3.org/2000/svg">
<g clip-path="url(#clip0_1051_6777)">
<path d="M17.5 11.3625L28.5125 13.55C29.4 13.7375 30 14.4875 30 15.375V28.125C30 29.1625 29.1625 30 28.125 30H16.875C17.225 30 17.5 29.725 17.5 29.375V28.75H28.125C28.4625 28.75 28.75 28.475 28.75 28.125V15.375C28.75 15.0875 28.55 14.825 28.2625 14.7625L17.5 12.6375V11.3625Z" fill="#652DBF"/>
<path d="M24.375 17.5C24.725 17.5 25 17.775 25 18.125C25 18.475 24.725 18.75 24.375 18.75H21.875C21.525 18.75 21.25 18.475 21.25 18.125C21.25 17.775 21.525 17.5 21.875 17.5H24.375Z" fill="black"/>
<path d="M24.375 21.25C24.725 21.25 25 21.525 25 21.875C25 22.225 24.725 22.5 24.375 22.5H21.875C21.525 22.5 21.25 22.225 21.25 21.875C21.25 21.525 21.525 21.25 21.875 21.25H24.375Z" fill="black"/>
<path d="M24.375 25C24.725 25 25 25.275 25 25.625C25 25.975 24.725 26.25 24.375 26.25H21.875C21.525 26.25 21.25 25.975 21.25 25.625C21.25 25.275 21.525 25 21.875 25H24.375Z" fill="black"/>
<path d="M17.5 29.375C17.5 29.725 17.225 30 16.875 30C16.525 30 16.25 29.725 16.25 29.375V28.75V11.875C16.25 11.6875 16.3375 11.5125 16.475 11.3875C16.625 11.275 16.8125 11.225 17 11.2625L17.5 11.3625V12.6375V28.75V29.375Z" fill="#652DBF"/>
<path d="M16.25 28.75V29.375C16.25 29.725 16.525 30 16.875 30H11.875C12.225 30 12.5 29.725 12.5 29.375V28.75H16.25Z" fill="#652DBF"/>
<path d="M13.125 6.25C13.475 6.25 13.75 6.525 13.75 6.875C13.75 7.225 13.475 7.5 13.125 7.5H10.625C10.275 7.5 10 7.225 10 6.875C10 6.525 10.275 6.25 10.625 6.25H13.125Z" fill="black"/>
<path d="M13.75 10.625C13.75 10.975 13.475 11.25 13.125 11.25H10.625C10.275 11.25 10 10.975 10 10.625C10 10.275 10.275 10 10.625 10H13.125C13.475 10 13.75 10.275 13.75 10.625Z" fill="black"/>
<path d="M13.125 13.75C13.475 13.75 13.75 14.025 13.75 14.375C13.75 14.725 13.475 15 13.125 15H10.625C10.275 15 10 14.725 10 14.375C10 14.025 10.275 13.75 10.625 13.75H13.125Z" fill="black"/>
<path d="M13.125 17.5C13.475 17.5 13.75 17.775 13.75 18.125C13.75 18.475 13.475 18.75 13.125 18.75H10.625C10.275 18.75 10 18.475 10 18.125C10 17.775 10.275 17.5 10.625 17.5H13.125Z" fill="black"/>
<path d="M7.5 18.125C7.5 18.475 7.225 18.75 6.875 18.75H4.375C4.025 18.75 3.75 18.475 3.75 18.125C3.75 17.775 4.025 17.5 4.375 17.5H6.875C7.225 17.5 7.5 17.775 7.5 18.125Z" fill="black"/>
<path d="M6.875 6.25C7.225 6.25 7.5 6.525 7.5 6.875C7.5 7.225 7.225 7.5 6.875 7.5H4.375C4.025 7.5 3.75 7.225 3.75 6.875C3.75 6.525 4.025 6.25 4.375 6.25H6.875Z" fill="black"/>
<path d="M6.875 10C7.225 10 7.5 10.275 7.5 10.625C7.5 10.975 7.225 11.25 6.875 11.25H4.375C4.025 11.25 3.75 10.975 3.75 10.625C3.75 10.275 4.025 10 4.375 10H6.875Z" fill="black"/>
<path d="M6.875 13.75C7.225 13.75 7.5 14.025 7.5 14.375C7.5 14.725 7.225 15 6.875 15H4.375C4.025 15 3.75 14.725 3.75 14.375C3.75 14.025 4.025 13.75 4.375 13.75H6.875Z" fill="black"/>
<path d="M11.25 23.125C11.25 22.775 10.9625 22.5 10.625 22.5H6.875C6.525 22.5 6.25 22.775 6.25 23.125V28.75H5V23.125C5 22.0875 5.8375 21.25 6.875 21.25H10.625C11.6625 21.25 12.5 22.0875 12.5 23.125V28.75H11.25V23.125Z" fill="black"/>
<path d="M6.25 28.75H11.25H12.5V29.375C12.5 29.725 12.225 30 11.875 30H5.625C5.275 30 5 29.725 5 29.375V28.75H6.25Z" fill="#652DBF"/>
<path d="M2.1875 0.249983L15.925 2.33748C16.8375 2.48748 17.5 3.26248 17.5 4.18748V11.3625L17 11.2625C16.8125 11.225 16.625 11.275 16.475 11.3875C16.3375 11.5125 16.25 11.6875 16.25 11.875V4.18748C16.25 3.87498 16.025 3.61248 15.725 3.56248L1.9875 1.48748C1.95 1.47498 1.9125 1.47498 1.875 1.47498C1.725 1.47498 1.5875 1.52498 1.475 1.62498C1.325 1.74998 1.25 1.91248 1.25 2.09998V28.125C1.25 28.475 1.5375 28.75 1.875 28.75H5V29.375C5 29.725 5.275 30 5.625 30H1.875C0.8375 30 0 29.1625 0 28.125V2.09998C0 1.54998 0.2375 1.02498 0.6625 0.674983C1.0875 0.312483 1.6375 0.162483 2.1875 0.249983Z" fill="#652DBF"/>
</g>
<defs>
<clipPath id="clip0_1051_6777">
<rect width="30" height="30" fill="white"/>
</clipPath>
</defs>
</svg>
