<svg width="89" height="89" viewBox="0 0 89 89" fill="none" xmlns="http://www.w3.org/2000/svg">
<rect x="9" y="8.88965" width="79" height="79" rx="14.5" stroke="#652DBF" stroke-dasharray="3 2"/>
<rect x="0.5" y="0.389648" width="80" height="80" rx="15" fill="white"/>
<g clip-path="url(#clip0_1571_5364)">
<path d="M61.3282 61.3282C61.1676 61.3304 61.0116 61.275 60.8884 61.1721C60.7651 61.0692 60.6828 60.9255 60.6563 60.7672C59.494 53.7326 57.6094 42.902 57.1894 41.8841L57.0584 41.5683C56.5344 40.2851 56.0506 39.0723 55.0193 38.649C53.6755 38.0947 48.8078 36.4554 48.7574 36.4386C48.5948 36.3771 48.4624 36.2551 48.3879 36.0981C48.3134 35.9411 48.3026 35.7614 48.3578 35.5966C48.413 35.4318 48.5299 35.2948 48.684 35.2144C48.8381 35.134 49.0173 35.1164 49.184 35.1654C49.3856 35.2326 54.1526 36.8451 55.5333 37.4094C57.0685 38.0443 57.7236 39.6468 58.3014 41.0611L58.429 41.3735C59.0438 42.8583 61.6809 58.7448 61.9799 60.5488C61.9943 60.6359 61.9914 60.7251 61.9713 60.8111C61.9513 60.8971 61.9144 60.9783 61.863 61.0501C61.8115 61.1218 61.7463 61.1827 61.6713 61.2293C61.5963 61.2759 61.5128 61.3072 61.4256 61.3215L61.3282 61.3282Z" fill="#652DBF"/>
<path d="M51.643 62C51.5379 61.9994 51.4343 61.974 51.3407 61.9261C50.2906 61.3591 49.367 60.5841 48.6263 59.6484C47.5345 58.2106 47.1079 56.7627 46.8055 55.0326C46.7043 54.2338 46.6863 53.4266 46.7518 52.624C46.7988 51.5691 46.8459 50.4807 46.5401 49.8424C46.2916 49.3284 45.2804 47.4707 44.1113 45.324C43.5637 44.3162 42.9826 43.2513 42.4316 42.2233C40.7956 39.1999 39.9659 37.6076 39.7441 37.0633C39.2201 35.7935 39.4384 34.8697 39.7139 34.3221C40.1104 33.5969 40.756 33.0396 41.5313 32.7533C42.4854 32.3602 43.9501 32.3065 45.5189 34.2851L53.6251 44.4909L52.5736 45.3274L44.4607 35.1048C43.6175 34.0433 42.8045 33.6637 42.0386 33.9794C41.5646 34.1487 41.1643 34.4777 40.9065 34.91C40.7988 35.1697 40.7493 35.4499 40.7615 35.7308C40.7737 36.0117 40.8472 36.2865 40.977 36.5359C41.2424 37.1809 42.6063 39.7172 43.6074 41.575C44.1617 42.5996 44.7429 43.6679 45.2871 44.6723C46.4662 46.8358 47.4808 48.7036 47.7462 49.2478C48.203 50.1884 48.1459 51.4515 48.0821 52.6744C48.0226 53.3792 48.0339 54.0882 48.1157 54.7908C48.3912 56.373 48.7506 57.5992 49.6812 58.822C50.2978 59.6016 51.0628 60.2512 51.9319 60.7335C52.0661 60.8022 52.1732 60.9141 52.2362 61.051C52.2991 61.188 52.3141 61.3422 52.2788 61.4887C52.2435 61.6353 52.16 61.7657 52.0416 61.859C51.9233 61.9524 51.777 62.0032 51.6262 62.0033L51.643 62Z" fill="#652DBF"/>
<path d="M47.1012 51.922H47.0508C46.8459 51.922 43.6914 51.2501 43.0767 50.1516C42.949 49.9198 42.6937 49.5536 42.4249 49.1707C41.9073 48.4869 41.4572 47.7545 41.0812 46.9837C41.0474 46.9021 41.0301 46.8146 41.0302 46.7263C41.0302 46.638 41.0477 46.5506 41.0815 46.469C41.1153 46.3874 41.1649 46.3133 41.2274 46.2509C41.2899 46.1885 41.3641 46.139 41.4457 46.1052C41.5273 46.0715 41.6148 46.0541 41.7031 46.0542C41.7914 46.0543 41.8788 46.0717 41.9604 46.1055C42.042 46.1394 42.1161 46.189 42.1785 46.2515C42.2409 46.3139 42.2904 46.3881 42.3242 46.4697C42.6651 47.1504 43.0665 47.7991 43.5235 48.4081C43.8258 48.8414 44.0878 49.2177 44.2491 49.51C44.5313 49.8862 46.6342 50.5379 47.1516 50.5782C47.3288 50.5936 47.4927 50.6787 47.6073 50.8147C47.7219 50.9507 47.7779 51.1266 47.763 51.3039C47.7496 51.4709 47.6743 51.6268 47.5519 51.7412C47.4294 51.8555 47.2687 51.92 47.1012 51.922Z" fill="#652DBF"/>
<path d="M45.8749 55.0864C45.0317 55.0864 44.0878 55.036 43.5973 54.8311C42.5492 54.3944 39.6433 50.8502 39.2099 50.2052C38.8773 49.7231 38.7323 49.1361 38.8022 48.5545C38.8721 47.973 39.1521 47.437 39.5896 47.0474C39.9313 46.7156 40.3605 46.4879 40.8269 46.3909C41.2932 46.294 41.7776 46.3317 42.2233 46.4999C42.3092 46.5304 42.388 46.578 42.4549 46.64C42.5218 46.7019 42.5754 46.7768 42.6124 46.8601C42.6495 46.9434 42.6692 47.0334 42.6703 47.1245C42.6715 47.2157 42.654 47.3061 42.6191 47.3903C42.5842 47.4746 42.5325 47.5508 42.4672 47.6144C42.4019 47.678 42.3243 47.7276 42.2392 47.7603C42.1541 47.7929 42.0632 47.8079 41.9721 47.8044C41.881 47.8008 41.7916 47.7787 41.7093 47.7395C41.5037 47.6708 41.283 47.6606 41.0719 47.7098C40.8608 47.759 40.6675 47.8658 40.5134 48.0183C40.3049 48.189 40.1693 48.4327 40.1343 48.6999C40.0994 48.9671 40.1677 49.2375 40.3253 49.4561C40.8796 50.2859 43.5167 53.3194 44.1113 53.5881C44.5144 53.7561 46.1067 53.7729 47.3497 53.6923C47.4379 53.6865 47.5264 53.6982 47.6101 53.7267C47.6939 53.7552 47.7711 53.7998 47.8376 53.8582C47.904 53.9165 47.9583 53.9874 47.9974 54.0667C48.0365 54.146 48.0595 54.2322 48.0653 54.3205C48.071 54.4087 48.0593 54.4972 48.0308 54.5809C48.0024 54.6646 47.9577 54.7419 47.8993 54.8084C47.841 54.8748 47.7702 54.9291 47.6908 54.9682C47.6115 55.0072 47.5253 55.0303 47.4371 55.036C47.2187 55.0495 46.5938 55.0864 45.8749 55.0864Z" fill="#652DBF"/>
<path d="M41.3432 47.4441C40.8807 47.4439 40.4268 47.3185 40.0297 47.0813L20.2766 35.3234C19.6894 34.9726 19.2648 34.4038 19.0955 33.741C18.9262 33.0783 19.0259 32.3755 19.3729 31.786L26.226 20.2634C26.5781 19.6747 27.149 19.2494 27.8139 19.0807C28.4787 18.9119 29.1834 19.0135 29.7735 19.363L49.5267 31.1209C50.1124 31.4722 50.5356 32.0407 50.7043 32.7026C50.8729 33.3645 50.7732 34.0662 50.427 34.6549L48.2971 38.2427C48.2584 38.3284 48.2022 38.405 48.132 38.4676C48.0618 38.5301 47.9793 38.5772 47.8898 38.6059C47.8002 38.6346 47.7057 38.6441 47.6122 38.634C47.5187 38.6238 47.4285 38.5941 47.3472 38.5469C47.2659 38.4996 47.1955 38.4358 47.1404 38.3596C47.0853 38.2835 47.0468 38.1966 47.0275 38.1046C47.0081 38.0126 47.0082 37.9175 47.0278 37.8256C47.0475 37.7337 47.0862 37.6469 47.1415 37.5709L49.2747 33.983C49.4421 33.6995 49.4905 33.3612 49.4093 33.0421C49.3281 32.7229 49.1239 32.4489 48.8414 32.2798L29.0782 20.5187C28.7969 20.3591 28.4648 20.3148 28.1516 20.395C27.8384 20.4752 27.5684 20.6736 27.3985 20.9487L20.5285 32.4747C20.3611 32.7582 20.3127 33.0965 20.3939 33.4157C20.4751 33.7348 20.6793 34.0088 20.9619 34.1779L40.715 45.9357C40.9988 46.1022 41.3368 46.1501 41.6557 46.069C41.9745 45.9879 42.2486 45.7843 42.4182 45.5023L43.426 43.8227C43.4648 43.737 43.521 43.6604 43.5912 43.5978C43.6614 43.5353 43.7439 43.4881 43.8334 43.4595C43.923 43.4308 44.0175 43.4213 44.111 43.4314C44.2044 43.4416 44.2947 43.4713 44.376 43.5185C44.4573 43.5658 44.5277 43.6296 44.5828 43.7057C44.6379 43.7819 44.6763 43.8688 44.6957 43.9608C44.7151 44.0528 44.715 44.1478 44.6953 44.2398C44.6757 44.3317 44.637 44.4185 44.5817 44.4945L43.5739 46.1742C43.4008 46.4663 43.1715 46.7212 42.8994 46.9241C42.6272 47.1271 42.3175 47.2741 41.9882 47.3567C41.7777 47.4125 41.561 47.4419 41.3432 47.4441Z" fill="#652DBF"/>
<path d="M29.6324 31.6178C29.3958 31.6154 29.1641 31.5505 28.9606 31.4297L26.4948 29.9617C26.1889 29.7793 25.9679 29.483 25.8804 29.1378C25.7928 28.7926 25.8459 28.4268 26.0278 28.1207L27.1364 26.2563C27.3188 25.9504 27.6151 25.7294 27.9603 25.6418C28.3055 25.5543 28.6713 25.6073 28.9774 25.7893L31.4297 27.254C31.7356 27.4364 31.9566 27.7327 32.0441 28.0778C32.1317 28.423 32.0787 28.7888 31.8967 29.0949L30.7881 30.9594C30.606 31.2652 30.31 31.4863 29.965 31.5742C29.8564 31.6026 29.7447 31.6172 29.6324 31.6178ZM29.6324 30.2741L30.7578 28.4063L28.2921 26.9382L27.1835 28.8027L29.6492 30.2707L29.6324 30.2741Z" fill="#652DBF"/>
<path d="M32.2326 37.8794C32.1143 37.8782 31.9984 37.8458 31.8967 37.7854L23.8342 32.9882C23.6997 32.8904 23.6062 32.7461 23.5719 32.5834C23.5376 32.4206 23.5649 32.2509 23.6485 32.1071C23.7321 31.9633 23.8661 31.8557 24.0245 31.8049C24.1829 31.7542 24.3545 31.7641 24.5061 31.8326L32.5686 36.6298C32.6947 36.7046 32.7929 36.8186 32.8481 36.9544C32.9034 37.0902 32.9127 37.2404 32.8746 37.382C32.8366 37.5236 32.7532 37.6489 32.6373 37.7387C32.5214 37.8285 32.3793 37.878 32.2326 37.8794Z" fill="#652DBF"/>
<path d="M36.2268 40.2548C36.1085 40.2535 35.9926 40.2211 35.8909 40.1607L33.5393 38.7665C33.4537 38.7278 33.3771 38.6716 33.3145 38.6014C33.252 38.5312 33.2048 38.4487 33.1762 38.3592C33.1475 38.2696 33.1379 38.1751 33.1481 38.0816C33.1583 37.9882 33.1879 37.8979 33.2352 37.8166C33.2825 37.7353 33.3462 37.6649 33.4224 37.6098C33.4986 37.5547 33.5855 37.5162 33.6775 37.4969C33.7695 37.4775 33.8645 37.4776 33.9565 37.4973C34.0484 37.5169 34.1352 37.5556 34.2112 37.6109L36.5628 39.0051C36.6889 39.0799 36.7871 39.1939 36.8423 39.3297C36.8976 39.4655 36.9069 39.6157 36.8688 39.7573C36.8308 39.8989 36.7474 40.0242 36.6315 40.114C36.5156 40.2038 36.3735 40.2533 36.2268 40.2548Z" fill="#652DBF"/>
</g>
<defs>
<clipPath id="clip0_1571_5364">
<rect width="43" height="43" fill="white" transform="translate(19 19)"/>
</clipPath>
</defs>
</svg>
