<svg width="20" height="20" viewBox="0 0 20 20" fill="none" xmlns="http://www.w3.org/2000/svg">
<g clip-path="url(#clip0_836_2672)">
<path d="M2.08398 4.58325H5.00065V6.24992H2.08398V4.58325Z" fill="#010E21"/>
<path d="M19.25 7.91667L17.5 6.47083V1.66667C17.5 1.22464 17.3244 0.800716 17.0118 0.488155C16.6993 0.175595 16.2754 0 15.8333 0L10 0C9.55797 0 9.13405 0.175595 8.82149 0.488155C8.50893 0.800716 8.33333 1.22464 8.33333 1.66667V2.5H1.25C0.918479 2.5 0.600537 2.6317 0.366117 2.86612C0.131696 3.10054 0 3.41848 0 3.75L0 10.4167C0 10.7482 0.131696 11.0661 0.366117 11.3006C0.600537 11.535 0.918479 11.6667 1.25 11.6667H8.33333V13.3333C8.33333 13.7754 8.50893 14.1993 8.82149 14.5118C9.13405 14.8244 9.55797 15 10 15H13.4C13.5 15.4958 13.6458 15.7208 14.1667 16.7667V18.3333C14.1667 18.4438 14.2106 18.5498 14.2887 18.628C14.3668 18.7061 14.4728 18.75 14.5833 18.75C14.6938 18.75 14.7998 18.7061 14.878 18.628C14.9561 18.5498 15 18.4438 15 18.3333C15 16.5375 15 16.6042 14.9542 16.4792C14.6783 16.008 14.4454 15.5129 14.2583 15H16.25V15.4167C16.25 15.5272 16.2939 15.6332 16.372 15.7113C16.4502 15.7894 16.5562 15.8333 16.6667 15.8333C16.7772 15.8333 16.8832 15.7894 16.9613 15.7113C17.0394 15.6332 17.0833 15.5272 17.0833 15.4167V14.5833C17.0715 14.4853 17.0341 14.3921 16.9749 14.3131C16.9156 14.2341 16.8366 14.1721 16.7458 14.1333C16.5105 13.972 16.3345 13.7379 16.2449 13.467C16.1554 13.196 16.1572 12.9032 16.25 12.6333C16.2734 12.5632 16.2788 12.4882 16.2657 12.4154C16.2526 12.3426 16.2214 12.2743 16.175 12.2167L14.8208 10.5958C14.714 10.463 14.6618 10.2944 14.6747 10.1245C14.6877 9.95449 14.7649 9.79582 14.8906 9.6807C15.0163 9.56558 15.1812 9.50264 15.3516 9.50468C15.5221 9.50672 15.6854 9.57357 15.8083 9.69167L17.225 11.1125C17.3035 11.191 17.4099 11.235 17.5208 11.235C17.6318 11.235 17.7382 11.191 17.8167 11.1125C17.8951 11.034 17.9392 10.9276 17.9392 10.8167C17.9392 10.7057 17.8951 10.5993 17.8167 10.5208L17.5208 10.2292V7.55417L18.7375 8.57083C18.8743 8.68989 18.9835 8.83727 19.0576 9.00275C19.1317 9.16823 19.1689 9.34786 19.1667 9.52917V15.3292C19.1667 16.1625 18.3333 16.5042 18.3333 17.3375V18.3333C18.3333 18.4438 18.3772 18.5498 18.4554 18.628C18.5335 18.7061 18.6395 18.75 18.75 18.75C18.8605 18.75 18.9665 18.7061 19.0446 18.628C19.1228 18.5498 19.1667 18.4438 19.1667 18.3333V17.3375C19.1667 16.9208 20 16.4167 20 15.3292V9.52917C20.0017 9.2217 19.9354 8.91766 19.8057 8.63887C19.676 8.36008 19.4863 8.11344 19.25 7.91667ZM8.33333 9.16667H2.08333C1.97283 9.16667 1.86685 9.21056 1.78871 9.2887C1.71057 9.36685 1.66667 9.47283 1.66667 9.58333C1.66667 9.69384 1.71057 9.79982 1.78871 9.87796C1.86685 9.9561 1.97283 10 2.08333 10H8.33333V10.8333H1.25C1.13949 10.8333 1.03351 10.7894 0.955372 10.7113C0.877232 10.6332 0.833333 10.5272 0.833333 10.4167V3.75C0.833333 3.63949 0.877232 3.53351 0.955372 3.45537C1.03351 3.37723 1.13949 3.33333 1.25 3.33333H8.33333V9.16667ZM15.65 14.1667H10C9.77899 14.1667 9.56703 14.0789 9.41074 13.9226C9.25447 13.7663 9.16667 13.5543 9.16667 13.3333V12.9167H15.3333C15.3085 13.3559 15.419 13.7922 15.65 14.1667ZM16.6667 9.4125L16.375 9.12083C16.101 8.85062 15.7337 8.69603 15.349 8.68903C14.9642 8.68203 14.5915 8.82316 14.3079 9.08322C14.0243 9.34329 13.8515 9.70241 13.8252 10.0863C13.7989 10.4702 13.9212 10.8495 14.1667 11.1458L14.9417 12.0833H9.16667V1.66667C9.16667 1.44565 9.25447 1.23369 9.41074 1.07741C9.56703 0.921131 9.77899 0.833333 10 0.833333H11.25C11.25 0.94384 11.2939 1.04982 11.372 1.12796C11.4502 1.2061 11.5562 1.25 11.6667 1.25H14.1667C14.2772 1.25 14.3832 1.2061 14.4613 1.12796C14.5394 1.04982 14.5833 0.94384 14.5833 0.833333H15.8333C16.0543 0.833333 16.2663 0.921131 16.4226 1.07741C16.5789 1.23369 16.6667 1.44565 16.6667 1.66667V9.4125Z" fill="#652DBF"/>
<path d="M2.08268 6.66675H4.99935C5.10986 6.66675 5.21584 6.62285 5.29398 6.54471C5.37212 6.46657 5.41602 6.36059 5.41602 6.25008V4.58341C5.41602 4.47291 5.37212 4.36693 5.29398 4.28879C5.21584 4.21065 5.10986 4.16675 4.99935 4.16675H2.08268C1.97218 4.16675 1.86619 4.21065 1.78805 4.28879C1.70991 4.36693 1.66602 4.47291 1.66602 4.58341V6.25008C1.66602 6.36059 1.70991 6.46657 1.78805 6.54471C1.86619 6.62285 1.97218 6.66675 2.08268 6.66675ZM2.49935 5.00008H4.58268V5.83341H2.49935V5.00008Z" fill="#010E21"/>
<path d="M13.75 20V18.3333C13.75 18.1123 13.8378 17.9004 13.9941 17.7441C14.1504 17.5878 14.3623 17.5 14.5833 17.5H18.75C18.971 17.5 19.183 17.5878 19.3393 17.7441C19.4955 17.9004 19.5833 18.1123 19.5833 18.3333V20H13.75Z" fill="#010E21"/>
<path d="M14.8783 4.4625L13.2116 6.12916C13.1727 6.16778 13.1265 6.19833 13.0757 6.21907C13.025 6.2398 12.9706 6.25031 12.9158 6.25C12.6908 6.25 12.6783 6.1875 11.7866 5.29583C11.7478 5.25698 11.7169 5.21086 11.6959 5.1601C11.6749 5.10934 11.6641 5.05494 11.6641 5C11.6641 4.88904 11.7081 4.78262 11.7866 4.70416C11.8651 4.6257 11.9715 4.58162 12.0824 4.58162C12.1374 4.58162 12.1918 4.59245 12.2425 4.61347C12.2933 4.6345 12.3394 4.66531 12.3783 4.70416L12.9158 5.24583L14.2866 3.87083C14.3651 3.79237 14.4715 3.74829 14.5824 3.74829C14.6934 3.74829 14.7998 3.79237 14.8783 3.87083C14.9567 3.94929 15.0008 4.0557 15.0008 4.16666C15.0008 4.27762 14.9567 4.38404 14.8783 4.4625Z" fill="#010E21"/>
</g>
<defs>
<clipPath id="clip0_836_2672">
<rect width="20" height="20" fill="white"/>
</clipPath>
</defs>
</svg>
