<svg width="89" height="89" viewBox="0 0 89 89" fill="none" xmlns="http://www.w3.org/2000/svg">
<rect x="9" y="8.88965" width="79" height="79" rx="14.5" stroke="#652DBF" stroke-dasharray="3 2"/>
<rect x="0.5" y="0.389648" width="80" height="80" rx="15" fill="white"/>
<path fill-rule="evenodd" clip-rule="evenodd" d="M52.8302 22.927C54.1847 22.927 55.4801 23.4394 56.4369 24.3442C57.4223 25.2741 57.9688 26.539 57.9688 27.8541V45.7708C57.9688 47.0858 57.4223 48.3508 56.4369 49.2806C55.4801 50.1854 54.1847 50.6978 52.8302 50.6978H28.1697C26.8152 50.6978 25.5199 50.1854 24.5631 49.2806C23.5777 48.3508 23.0312 47.0858 23.0312 45.7708V27.8541C23.0312 26.539 23.5777 25.2741 24.5631 24.3442C25.5199 23.4394 26.8152 22.927 28.1697 22.927H52.8302ZM31.5417 40.8437C31.5417 41.5854 32.1437 42.1874 32.8854 42.1874C33.6272 42.1874 34.2292 41.5854 34.2292 40.8437V38.6041H36.9167V40.8437C36.9167 41.5854 37.5187 42.1874 38.2604 42.1874C39.0022 42.1874 39.6042 41.5854 39.6042 40.8437V35.4687C39.6042 33.2416 37.8 31.4374 35.5729 31.4374C33.3459 31.4374 31.5417 33.2416 31.5417 35.4687V40.8437ZM36.9167 35.9166H34.2292V35.4687C34.2292 34.7269 34.8312 34.1249 35.5729 34.1249C36.3147 34.1249 36.9167 34.7269 36.9167 35.4687V35.9166ZM41.3958 40.8437C41.3958 41.5854 41.9978 42.1874 42.7396 42.1874H45.4271C47.6541 42.1874 49.4583 40.3832 49.4583 38.1562V35.4687C49.4583 33.2416 47.6541 31.4374 45.4271 31.4374H42.7396C41.9978 31.4374 41.3958 32.0394 41.3958 32.7812V40.8437ZM44.0833 39.4999V34.1249H45.4271C46.1688 34.1249 46.7708 34.7269 46.7708 35.4687V38.1562C46.7708 38.8979 46.1688 39.4999 45.4271 39.4999H44.0833Z" fill="#652DBF"/>
<path fill-rule="evenodd" clip-rule="evenodd" d="M58.4173 53.3853C59.1591 53.3853 59.7611 53.9873 59.7611 54.729C59.7611 55.4708 59.1591 56.0728 58.4173 56.0728H22.584C21.8422 56.0728 21.2402 55.4708 21.2402 54.729C21.2402 53.9873 21.8422 53.3853 22.584 53.3853H58.4173Z" fill="#652DBF"/>
</svg>
