<svg width="30" height="30" viewBox="0 0 30 30" fill="none" xmlns="http://www.w3.org/2000/svg">
<g clip-path="url(#clip0_1772_7305)">
<path d="M19.0031 12C19.0031 11.2083 18.7684 10.4343 18.3285 9.776C17.8886 9.11769 17.2634 8.6046 16.5319 8.30161C15.8005 7.99862 14.9956 7.91935 14.219 8.07381C13.4425 8.22827 12.7292 8.60953 12.1694 9.16938C11.6095 9.72922 11.2283 10.4425 11.0738 11.219C10.9193 11.9956 10.9986 12.8005 11.3016 13.5319C11.6046 14.2634 12.1177 14.8886 12.776 15.3285C13.4343 15.7684 14.2083 16.0031 15 16.0031C16.0617 16.0031 17.0799 15.5814 17.8307 14.8307C18.5814 14.0799 19.0031 13.0617 19.0031 12ZM13.0031 12C13.0031 11.6051 13.1203 11.219 13.3397 10.8906C13.5591 10.5622 13.871 10.3063 14.2358 10.1551C14.6007 10.004 15.0022 9.96446 15.3896 10.0415C15.7769 10.1186 16.1328 10.3087 16.412 10.588C16.6913 10.8673 16.8815 11.2231 16.9585 11.6104C17.0356 11.9978 16.996 12.3993 16.8449 12.7642C16.6937 13.1291 16.4378 13.4409 16.1094 13.6604C15.781 13.8798 15.395 13.9969 15 13.9969C14.4712 13.9944 13.9647 13.7832 13.5907 13.4093C13.2168 13.0353 13.0056 12.5289 13.0031 12Z" fill="#652DBF"/>
<path d="M10.1156 19.1531C10.0476 19.2699 10.0039 19.3993 9.98717 19.5334C9.97041 19.6675 9.98093 19.8036 10.0181 19.9335C10.0552 20.0635 10.1183 20.1846 10.2034 20.2895C10.2885 20.3945 10.394 20.4812 10.5134 20.5444C10.6329 20.6076 10.7639 20.646 10.8986 20.6574C11.0332 20.6687 11.1688 20.6527 11.2971 20.6103C11.4255 20.5679 11.5439 20.5 11.6454 20.4107C11.7468 20.3214 11.8292 20.2125 11.8875 20.0906C12.0549 19.7652 12.309 19.4923 12.6216 19.3021C12.9343 19.1119 13.2934 19.0116 13.6594 19.0125H16.3312C16.6972 19.0116 17.0563 19.1119 17.369 19.3021C17.6816 19.4923 17.9357 19.7652 18.1031 20.0906C18.227 20.3248 18.4377 20.5012 18.6901 20.5818C18.9425 20.6624 19.2164 20.6409 19.4531 20.5219C19.6891 20.3998 19.8671 20.1892 19.9479 19.9361C20.0288 19.683 20.0059 19.4081 19.8844 19.1719C19.5479 18.5203 19.0381 17.9742 18.4112 17.5938C17.7843 17.2133 17.0646 17.0132 16.3312 17.0156H13.6594C12.9296 17.0132 12.2131 17.2112 11.5882 17.5882C10.9633 17.9651 10.4539 18.5065 10.1156 19.1531Z" fill="#652DBF"/>
<path d="M25.9969 22.0031C25.2867 22.0063 24.5905 22.2006 23.9813 22.5656L22.7438 21.3281C23.8317 19.9977 24.5584 18.4094 24.854 16.7164C25.1496 15.0235 25.004 13.2829 24.4313 11.6625C24.4012 11.5231 24.3418 11.3917 24.2569 11.2771C24.1721 11.1625 24.0638 11.0673 23.9392 10.9978C23.8147 10.9284 23.6767 10.8863 23.5346 10.8743C23.3925 10.8624 23.2495 10.8809 23.1151 10.9286C22.9807 10.9763 22.858 11.0521 22.7553 11.151C22.6525 11.2499 22.572 11.3695 22.5191 11.502C22.4662 11.6344 22.4422 11.7766 22.4486 11.9191C22.455 12.0615 22.4917 12.201 22.5563 12.3281C23.0478 13.7527 23.1274 15.287 22.7857 16.7547C22.4441 18.2225 21.6951 19.564 20.625 20.625C19.1278 22.1067 17.1064 22.9377 15 22.9377C12.8936 22.9377 10.8723 22.1067 9.37503 20.625C9.28176 20.5309 9.17078 20.4562 9.04849 20.4052C8.9262 20.3543 8.79502 20.328 8.66253 20.328C8.53003 20.328 8.39886 20.3543 8.27656 20.4052C8.15427 20.4562 8.04329 20.5309 7.95003 20.625L6.07503 22.5C5.46582 22.135 4.76959 21.9407 4.0594 21.9375C3.26766 21.9375 2.49369 22.1723 1.83538 22.6122C1.17707 23.052 0.663983 23.6772 0.360996 24.4087C0.0580089 25.1402 -0.0212663 25.9451 0.133195 26.7216C0.287657 27.4981 0.668917 28.2114 1.22876 28.7713C1.78861 29.3311 2.5019 29.7124 3.27843 29.8668C4.05496 30.0213 4.85986 29.942 5.59133 29.639C6.32281 29.3361 6.94801 28.823 7.38788 28.1647C7.82775 27.5063 8.06253 26.7324 8.06253 25.9406C8.05934 25.2305 7.86504 24.5342 7.50003 23.925L8.73753 22.6875C10.523 24.1482 12.7588 24.9463 15.0657 24.9463C17.3725 24.9463 19.6083 24.1482 21.3938 22.6875L22.6313 23.925C22.2663 24.5342 22.072 25.2305 22.0688 25.9406C22.0688 26.7324 22.3036 27.5063 22.7434 28.1647C23.1833 28.823 23.8085 29.3361 24.54 29.639C25.2714 29.942 26.0763 30.0213 26.8529 29.8668C27.6294 29.7124 28.3427 29.3311 28.9025 28.7713C29.4624 28.2114 29.8436 27.4981 29.9981 26.7216C30.1526 25.9451 30.0733 25.1402 29.7703 24.4087C29.4673 23.6772 28.9542 23.052 28.2959 22.6122C27.6376 22.1723 26.8636 21.9375 26.0719 21.9375L25.9969 22.0031ZM4.00315 28.0031C3.60861 28.0031 3.22291 27.8862 2.89473 27.6672C2.56655 27.4482 2.3106 27.1369 2.15919 26.7726C2.00778 26.4082 1.96769 26.0072 2.04399 25.6201C2.12028 25.233 2.30954 24.8772 2.58787 24.5976C2.8662 24.3179 3.22113 24.127 3.60787 24.0489C3.9946 23.9708 4.39581 24.009 4.76085 24.1587C5.12589 24.3084 5.4384 24.5629 5.65894 24.89C5.87949 25.2172 5.99817 25.6023 6.00003 25.9969C6.00003 26.5274 5.78995 27.0362 5.41573 27.4122C5.04151 27.7882 4.53362 28.0007 4.00315 28.0031ZM26.0063 28.0031C25.6113 28.0031 25.2253 27.886 24.8969 27.6666C24.5685 27.4472 24.3125 27.1353 24.1614 26.7704C24.0103 26.4056 23.9707 26.004 24.0478 25.6167C24.1248 25.2293 24.315 24.8735 24.5943 24.5943C24.8735 24.315 25.2293 24.1248 25.6167 24.0478C26.0041 23.9707 26.4056 24.0102 26.7704 24.1614C27.1353 24.3125 27.4472 24.5685 27.6666 24.8969C27.886 25.2252 28.0032 25.6113 28.0032 26.0063C28.0007 26.5367 27.7882 27.0446 27.4122 27.4188C27.0363 27.7931 26.5274 28.0031 25.9969 28.0031H26.0063Z" fill="#010E21"/>
<path d="M4.00315 7.99687C4.71334 7.99368 5.40957 7.79939 6.01878 7.43437L7.26565 8.67187C6.17857 10.0009 5.45223 11.5875 5.15665 13.2789C4.86108 14.9702 5.00624 16.7092 5.57815 18.3281C5.6693 18.5759 5.8536 18.7782 6.09176 18.892C6.32993 19.0059 6.60313 19.0222 6.85315 18.9375C6.97994 18.8972 7.09744 18.832 7.19881 18.7458C7.30018 18.6596 7.38338 18.5541 7.44358 18.4355C7.50378 18.3168 7.53978 18.1874 7.54947 18.0546C7.55916 17.9219 7.54235 17.7886 7.50003 17.6625C6.93856 15.9674 6.96058 14.1332 7.56258 12.4521C8.16457 10.7709 9.3119 9.33967 10.8218 8.3863C12.3316 7.43294 14.1171 7.01234 15.8937 7.19152C17.6704 7.3707 19.3359 8.13935 20.625 9.375C20.8142 9.55995 21.0683 9.66351 21.3328 9.66351C21.5974 9.66351 21.8515 9.55995 22.0407 9.375L23.9157 7.5C24.5249 7.86501 25.2211 8.05931 25.9313 8.0625C26.723 8.0625 27.497 7.82772 28.1553 7.38785C28.8136 6.94798 29.3267 6.32278 29.6297 5.5913C29.9327 4.85983 30.0119 4.05493 29.8575 3.2784C29.703 2.50187 29.3218 1.78858 28.7619 1.22874C28.2021 0.668888 27.4888 0.287627 26.7122 0.133166C25.9357 -0.0212955 25.1308 0.0579797 24.3993 0.360967C23.6679 0.663954 23.0427 1.17704 22.6028 1.83536C22.1629 2.49367 21.9282 3.26763 21.9282 4.05937C21.9313 4.76956 22.1256 5.46579 22.4907 6.075L21.3282 7.25625C19.5435 5.79386 17.3073 4.99473 15 4.99473C12.6927 4.99473 10.4566 5.79386 8.6719 7.25625L7.4344 6.01875C7.79942 5.40954 7.99372 4.71331 7.9969 4.00312C7.99876 3.21058 7.76532 2.43533 7.32616 1.77558C6.88701 1.11584 6.2619 0.601295 5.53004 0.297147C4.79819 -0.00700151 3.99252 -0.0870666 3.21511 0.0670958C2.43771 0.221258 1.72356 0.60271 1.16315 1.16312C0.602741 1.72353 0.221289 2.43768 0.0671263 3.21508C-0.0870361 3.99249 -0.00697099 4.79815 0.297177 5.53001C0.601326 6.26187 1.11587 6.88698 1.77561 7.32613C2.43536 7.76529 3.21061 7.99873 4.00315 7.99687ZM26.0063 1.99687C26.4004 1.99873 26.7852 2.11718 27.1121 2.33731C27.4391 2.55744 27.6936 2.8694 27.8435 3.2339C27.9935 3.59839 28.0323 3.99912 27.9549 4.3856C27.8776 4.77208 27.6876 5.12703 27.4089 5.40573C27.1302 5.68443 26.7752 5.87442 26.3888 5.95177C26.0023 6.02912 25.6015 5.99037 25.2371 5.84039C24.8726 5.69041 24.5606 5.43593 24.3405 5.10898C24.1203 4.78204 24.0019 4.39726 24 4.00312C24 3.47265 24.2101 2.96377 24.5843 2.58779C24.9585 2.21182 25.4664 1.99935 25.9969 1.99687H26.0063ZM4.00315 1.99687C4.39729 1.99873 4.78207 2.11718 5.10901 2.33731C5.43596 2.55744 5.69045 2.8694 5.84042 3.2339C5.9904 3.59839 6.02915 3.99912 5.9518 4.3856C5.87445 4.77208 5.68446 5.12703 5.40576 5.40573C5.12706 5.68443 4.77211 5.87442 4.38563 5.95177C3.99915 6.02912 3.59842 5.99037 3.23393 5.84039C2.86943 5.69041 2.55747 5.43593 2.33734 5.10898C2.11721 4.78204 1.99876 4.39726 1.9969 4.00312C1.9969 3.47103 2.20827 2.96073 2.58452 2.58449C2.96076 2.20824 3.47106 1.99687 4.00315 1.99687Z" fill="#652DBF"/>
</g>
<defs>
<clipPath id="clip0_1772_7305">
<rect width="30" height="30" fill="white"/>
</clipPath>
</defs>
</svg>
