<svg width="134" height="88" viewBox="0 0 134 88" fill="none" xmlns="http://www.w3.org/2000/svg">
<g clip-path="url(#clip0_1981_6098)">
<path d="M123.964 0.0377197H10.0356C4.49293 0.0377197 0 4.53735 0 10.0883V77.9117C0 83.4624 4.49293 87.9623 10.0356 87.9623H123.964C129.507 87.9623 134 83.4627 134 77.9117V10.0883C134 4.53735 129.507 0.0377197 123.964 0.0377197Z" fill="#41479B"/>
<path d="M2.31045 43.9998H6.32365L27.7244 29.9575V43.9998H39.2761V29.9575L60.6766 43.9998H64.6898C65.9657 43.9998 67.0003 42.9636 67.0003 41.6858V39.8506L48.6394 27.8032H67V16.2342H48.6391L67 4.18691V2.35162C67 1.07357 65.9654 0.0377197 64.6895 0.0377197H60.6764L39.2756 14.08V0.0377197H27.7239V14.08L7.02558 0.498507C4.60887 1.25862 2.5884 2.9107 1.3434 5.06812L18.3611 16.2342H0V27.8032H18.3609L0 39.8506V41.6858C0 42.9636 1.03405 43.9998 2.31045 43.9998Z" fill="#F5F5F5"/>
<path d="M67 18.5481H36.9654V0.0377197H30.0346V18.5481H0V25.4893H30.0346V43.9998H36.9654V25.4893H67V18.5481Z" fill="#FF4B55"/>
<path d="M2.15308 3.87129L21.1701 16.2342H25.4136L3.82284 2.19824C3.20283 2.68839 2.64249 3.25009 2.15308 3.87129Z" fill="#FF4B55"/>
<path d="M43.5194 16.2342L66.6485 1.19808C66.2465 0.516856 65.5373 0.0377197 64.6896 0.0377197H64.1897L39.2759 16.2342H43.5194Z" fill="#FF4B55"/>
<path d="M23.4169 27.8032L0.332031 42.8106C0.730105 43.5083 1.45036 43.9997 2.31036 43.9997H2.74612L27.6607 27.8032H23.4169Z" fill="#FF4B55"/>
<path d="M66.9635 41.8677L45.3282 27.8035H41.0847L65.6533 43.7751C66.3893 43.433 66.8941 42.7162 66.9635 41.8677Z" fill="#FF4B55"/>
<path d="M34.1991 56.6153L35.9429 62.3809L41.5314 60.1517C42.0083 59.9614 42.4417 60.5061 42.1506 60.9291L38.7368 65.8893L43.9612 68.875C44.4069 69.1297 44.2523 69.8086 43.7403 69.8445L37.7394 70.2641L38.6661 76.2164C38.7452 76.7243 38.1186 77.0266 37.7716 76.6478L33.7024 72.2108L29.6332 76.6478C29.2861 77.0263 28.6596 76.7241 28.7386 76.2164L29.6654 70.2641L23.6644 69.8445C23.1525 69.8086 22.9975 69.1297 23.4435 68.875L28.6679 65.8893L25.2541 60.9291C24.9631 60.5061 25.3965 59.9614 25.8733 60.1517L31.4618 62.3809L33.2056 56.6153C33.3551 56.1233 34.0505 56.1233 34.1991 56.6153Z" fill="#F5F5F5"/>
<path d="M102.929 15.6211L103.78 18.4375L106.51 17.3487C106.743 17.2559 106.955 17.5217 106.812 17.7285L105.145 20.1517L107.697 21.6103C107.915 21.7346 107.839 22.0664 107.589 22.0837L104.658 22.2887L105.11 25.1963C105.149 25.4445 104.843 25.592 104.673 25.407L102.685 23.2396L100.698 25.407C100.528 25.5918 100.222 25.4442 100.261 25.1963L100.713 22.2887L97.7818 22.0837C97.5316 22.0661 97.456 21.7346 97.6737 21.6103L100.226 20.1517L98.5584 17.7285C98.416 17.5217 98.628 17.2559 98.8606 17.3487L101.591 18.4375L102.443 15.6211C102.516 15.3805 102.856 15.3805 102.929 15.6211Z" fill="#F5F5F5"/>
<path d="M83.9338 37.2386L84.7857 40.055L87.5157 38.9662C87.7484 38.8734 87.9604 39.1392 87.818 39.346L86.1506 41.7692L88.7026 43.2278C88.9204 43.3521 88.8447 43.6839 88.5945 43.7012L85.6633 43.9062L86.1161 46.8137C86.1548 47.0619 85.8486 47.2095 85.679 47.0245L83.6912 44.8571L81.7035 47.0245C81.5339 47.2093 81.2279 47.0617 81.2664 46.8137L81.7192 43.9062L78.7879 43.7012C78.5377 43.6836 78.4621 43.3521 78.6799 43.2278L81.2319 41.7692L79.5645 39.346C79.4221 39.1392 79.6341 38.8734 79.8667 38.9662L82.5967 40.055L83.4486 37.2386C83.5214 36.9983 83.8611 36.9983 83.9338 37.2386Z" fill="#F5F5F5"/>
<path d="M120.899 27.9833L121.751 30.7997L124.481 29.7109C124.714 29.6181 124.926 29.8838 124.783 30.0906L123.116 32.5138L125.668 33.9725C125.886 34.0967 125.81 34.4286 125.56 34.4459L122.629 34.6508L123.081 37.5584C123.12 37.8066 122.814 37.9542 122.644 37.7691L120.657 35.6018L118.669 37.7691C118.499 37.9539 118.193 37.8064 118.232 37.5584L118.685 34.6508L115.754 34.4459C115.503 34.4283 115.428 34.0967 115.645 33.9725L118.197 32.5138L116.53 30.0906C116.388 29.8838 116.6 29.6181 116.832 29.7109L119.562 30.7997L120.414 27.9833C120.487 27.7432 120.826 27.7432 120.899 27.9833Z" fill="#F5F5F5"/>
<path d="M102.929 65.0042L103.78 67.8205L106.51 66.7315C106.743 66.6387 106.955 66.9045 106.812 67.1113L105.145 69.5345L107.697 70.9931C107.915 71.1173 107.839 71.4492 107.589 71.4665L104.658 71.6714L105.11 74.579C105.149 74.8272 104.843 74.9748 104.673 74.7898L102.685 72.6224L100.698 74.7898C100.528 74.9745 100.222 74.827 100.261 74.579L100.713 71.6714L97.7818 71.4665C97.5316 71.4492 97.456 71.1173 97.6737 70.9931L100.226 69.5345L98.5584 67.1113C98.416 66.9045 98.628 66.6387 98.8606 66.7315L101.591 67.8205L102.443 65.0042C102.516 64.7641 102.856 64.7641 102.929 65.0042Z" fill="#F5F5F5"/>
<path d="M109.519 42.2994L108.835 44.3533L106.674 44.3701C106.394 44.3725 106.278 44.73 106.503 44.8964L108.242 46.1826L107.59 48.2467C107.506 48.514 107.809 48.735 108.037 48.572L109.796 47.3131L111.554 48.572C111.782 48.7347 112.086 48.5138 112.001 48.2467L111.349 46.1826L113.088 44.8964C113.314 44.7297 113.197 44.3725 112.918 44.3701L110.756 44.3533L110.072 42.2994C109.983 42.0337 109.608 42.0337 109.519 42.2994Z" fill="#F5F5F5"/>
</g>
<defs>
<clipPath id="clip0_1981_6098">
<rect width="134" height="88" fill="white"/>
</clipPath>
</defs>
</svg>
