<svg width="34" height="34" viewBox="0 0 34 34" fill="none" xmlns="http://www.w3.org/2000/svg">
<path fill-rule="evenodd" clip-rule="evenodd" d="M0.00195312 5.77734H34.0003V28.2891H0.00195312V5.77734Z" fill="#00008B"/>
<path fill-rule="evenodd" clip-rule="evenodd" d="M8.50108 18.7212L8.9923 20.2399L10.4937 19.6742L9.60591 21.0033L10.9865 21.817L9.38723 21.9547L9.60754 23.5351L8.50108 22.3794L7.39462 23.5351L7.61493 21.9547L6.01562 21.817L7.39625 21.0033L6.50684 19.6742L8.00987 20.2399L8.50108 18.7212Z" fill="white"/>
<path fill-rule="evenodd" clip-rule="evenodd" d="M25.5012 21.4541L25.7346 22.1786L26.4494 21.9096L26.0267 22.5417L26.6844 22.9291L25.9222 22.9955L26.0267 23.7476L25.5012 23.1965L24.9741 23.7476L25.0785 22.9955L24.3164 22.9291L24.9741 22.5417L24.5514 21.9096L25.2662 22.1786L25.5012 21.4541Z" fill="white"/>
<path fill-rule="evenodd" clip-rule="evenodd" d="M25.5012 10.199L25.7346 10.9219L26.4494 10.6528L26.0267 11.2849L26.6844 11.6739L25.9222 11.7388L26.0267 12.4908L25.5012 11.9414L24.9741 12.4908L25.0785 11.7388L24.3164 11.6739L24.9741 11.2849L24.5514 10.6528L25.2662 10.9219L25.5012 10.199Z" fill="white"/>
<path fill-rule="evenodd" clip-rule="evenodd" d="M29.2769 13.6465L29.5119 14.3694L30.2267 14.1003L29.804 14.7324L30.4617 15.1198L29.6996 15.1863L29.804 15.9383L29.2769 15.3873L28.7514 15.9383L28.8559 15.1863L28.0938 15.1198L28.7514 14.7324L28.3288 14.1003L29.0435 14.3694L29.2769 13.6465Z" fill="white"/>
<path fill-rule="evenodd" clip-rule="evenodd" d="M27.1994 17.0325L27.3854 17.4831L27.8734 17.5187L27.4997 17.8332L27.6155 18.3048L27.1994 18.0487L26.7832 18.3048L26.9007 17.8332L26.5254 17.5187L27.015 17.4831L27.1994 17.0325Z" fill="white"/>
<path fill-rule="evenodd" clip-rule="evenodd" d="M21.2496 11.9575L21.4846 12.6804L22.1994 12.4114L21.7767 13.0435L22.4344 13.4325L21.6722 13.4973L21.7767 14.2494L21.2496 13.6999L20.7241 14.2494L20.8285 13.4973L20.0664 13.4325L20.7241 13.0435L20.3014 12.4114L21.0162 12.6804L21.2496 11.9575Z" fill="white"/>
<path fill-rule="evenodd" clip-rule="evenodd" d="M7.08461 5.77734H9.91767V8.59111H17.0003V11.4049H9.91767V14.2186H7.08461V11.4049H0.00195312V8.59111H7.08461V5.77734Z" fill="white"/>
<path fill-rule="evenodd" clip-rule="evenodd" d="M0.00195312 5.77734H1.90154L17.0003 13.2753V14.2186H15.1007L0.00195312 6.72067V5.77734Z" fill="white"/>
<path fill-rule="evenodd" clip-rule="evenodd" d="M17.0003 5.77734H15.1007L0.00195312 13.2753V14.2186H1.90154L17.0003 6.72067V5.77734Z" fill="white"/>
<path fill-rule="evenodd" clip-rule="evenodd" d="M7.65089 5.77734H9.35138V9.15353H17.0003V10.8424H9.35138V14.2186H7.65089V10.8424H0.00195312V9.15353H7.65089V5.77734Z" fill="#FF0000"/>
<path fill-rule="evenodd" clip-rule="evenodd" d="M17 5.77734H15.7336L10.0675 8.59111H11.3339L17 5.77734ZM0 5.77734L5.66612 8.59111H4.39973L0 6.40623V5.77734Z" fill="#FF0000"/>
<path fill-rule="evenodd" clip-rule="evenodd" d="M0.00195312 14.2185H1.26834L6.93447 11.4048H5.66808L0.00195312 14.2185ZM17.002 14.2185L11.3358 11.4048H12.6022L17.002 13.5897V14.2185Z" fill="#FF0000"/>
</svg>
