<svg width="100" height="100" viewBox="0 0 100 100" fill="none" xmlns="http://www.w3.org/2000/svg">
<g filter="url(#filter0_d_782_3630)">
<rect x="10" y="10" width="80" height="80" rx="40" fill="white" shape-rendering="crispEdges"/>
<path d="M40.8411 33.3333H59.1745C59.699 33.3333 60.193 33.5802 60.5078 33.9999L65.0078 39.9999V64.9999C65.0078 65.9204 64.2617 66.6666 63.3412 66.6666H36.6745C35.754 66.6666 35.0078 65.9204 35.0078 64.9999V39.9999L39.5078 33.9999C39.8226 33.5802 40.3166 33.3333 40.8411 33.3333ZM61.6745 43.3333H38.3411V63.3333H61.6745V43.3333ZM60.8412 39.9999L58.3412 36.6666H41.6745L39.1745 39.9999H60.8412ZM45.0078 46.6666V49.9999C45.0078 52.7614 47.2463 54.9999 50.0078 54.9999C52.7692 54.9999 55.0078 52.7614 55.0078 49.9999V46.6666H58.3412V49.9999C58.3412 54.6023 54.6102 58.3333 50.0078 58.3333C45.4054 58.3333 41.6745 54.6023 41.6745 49.9999V46.6666H45.0078Z" fill="#652DBF"/>
</g>
<defs>
<filter id="filter0_d_782_3630" x="0" y="0" width="100" height="100" filterUnits="userSpaceOnUse" color-interpolation-filters="sRGB">
<feFlood flood-opacity="0" result="BackgroundImageFix"/>
<feColorMatrix in="SourceAlpha" type="matrix" values="0 0 0 0 0 0 0 0 0 0 0 0 0 0 0 0 0 0 127 0" result="hardAlpha"/>
<feOffset/>
<feGaussianBlur stdDeviation="5"/>
<feComposite in2="hardAlpha" operator="out"/>
<feColorMatrix type="matrix" values="0 0 0 0 0 0 0 0 0 0 0 0 0 0 0 0 0 0 0.1 0"/>
<feBlend mode="normal" in2="BackgroundImageFix" result="effect1_dropShadow_782_3630"/>
<feBlend mode="normal" in="SourceGraphic" in2="effect1_dropShadow_782_3630" result="shape"/>
</filter>
</defs>
</svg>
