<svg width="30" height="30" viewBox="0 0 30 30" fill="none" xmlns="http://www.w3.org/2000/svg">
<g clip-path="url(#clip0_1051_6712)">
<path d="M29.5 18.115C29.2239 18.115 29 18.3388 29 18.615V23.75C29 24.3023 28.5523 24.75 28 24.75H19.9C19.6239 24.75 19.4 24.9738 19.4 25.25C19.4 25.5261 19.6239 25.75 19.9 25.75H28C29.1046 25.75 30 24.8546 30 23.75V18.615C30 18.3388 29.7762 18.115 29.5 18.115Z" fill="#652DBF"/>
<path d="M27 21.25V22.75H25.5C25.2239 22.75 25 22.9739 25 23.25C25 23.5261 25.2239 23.75 25.5 23.75H27.5C27.7761 23.75 28 23.5261 28 23.25V21.25C28 20.9739 27.7761 20.75 27.5 20.75C27.2239 20.75 27 20.9739 27 21.25Z" fill="#652DBF"/>
<path d="M28 1.25H2C0.89543 1.25 0 2.14543 0 3.25V23.75C0 24.8546 0.89543 25.75 2 25.75H7.08C7.35614 25.75 7.58 25.5261 7.58 25.25C7.58 24.9739 7.35614 24.75 7.08 24.75H2C1.44772 24.75 1 24.3023 1 23.75V8.25H29V11.455C29 11.7311 29.2239 11.955 29.5 11.955C29.7761 11.955 30 11.7311 30 11.455V3.25C30 2.14543 29.1046 1.25 28 1.25ZM1 7.25V3.25C1 2.69772 1.44772 2.25 2 2.25H28C28.5523 2.25 29 2.69772 29 3.25V7.25H1Z" fill="#652DBF"/>
<path d="M3.5 3.25C2.67157 3.25 2 3.92157 2 4.75C2 5.57843 2.67157 6.25 3.5 6.25C4.32843 6.25 5 5.57843 5 4.75C5 3.92157 4.32843 3.25 3.5 3.25ZM3.5 5.25C3.22386 5.25 3 5.02614 3 4.75C3 4.47386 3.22386 4.25 3.5 4.25C3.77614 4.25 4 4.47386 4 4.75C4 5.02614 3.77614 5.25 3.5 5.25Z" fill="#652DBF"/>
<path d="M7.5 3.25C6.67157 3.25 6 3.92157 6 4.75C6 5.57843 6.67157 6.25 7.5 6.25C8.32843 6.25 9 5.57843 9 4.75C9 3.92157 8.32843 3.25 7.5 3.25ZM7.5 5.25C7.22386 5.25 7 5.02614 7 4.75C7 4.47386 7.22386 4.25 7.5 4.25C7.77614 4.25 8 4.47386 8 4.75C8 5.02614 7.77614 5.25 7.5 5.25Z" fill="#652DBF"/>
<path d="M11.5 3.25C10.6716 3.25 10 3.92157 10 4.75C10 5.57843 10.6716 6.25 11.5 6.25C12.3284 6.25 13 5.57843 13 4.75C13 3.92157 12.3284 3.25 11.5 3.25ZM11.5 5.25C11.2239 5.25 11 5.02614 11 4.75C11 4.47386 11.2239 4.25 11.5 4.25C11.7761 4.25 12 4.47386 12 4.75C12 5.02614 11.7761 5.25 11.5 5.25Z" fill="#652DBF"/>
<path d="M3 10.75H13.5C13.7761 10.75 14 10.5261 14 10.25C14 9.97386 13.7761 9.75 13.5 9.75H3C2.72386 9.75 2.5 9.97386 2.5 10.25C2.5 10.5261 2.72386 10.75 3 10.75Z" fill="#652DBF"/>
<path d="M3 13.25H13.5C13.7761 13.25 14 13.0261 14 12.75C14 12.4739 13.7761 12.25 13.5 12.25H3C2.72386 12.25 2.5 12.4739 2.5 12.75C2.5 13.0261 2.72386 13.25 3 13.25Z" fill="#652DBF"/>
<path d="M3 15.75H13.5C13.7761 15.75 14 15.5261 14 15.25C14 14.9739 13.7761 14.75 13.5 14.75H3C2.72386 14.75 2.5 14.9739 2.5 15.25C2.5 15.5261 2.72386 15.75 3 15.75Z" fill="#652DBF"/>
<path d="M3 18.25H13.5C13.7761 18.25 14 18.0261 14 17.75C14 17.4739 13.7761 17.25 13.5 17.25H3C2.72386 17.25 2.5 17.4739 2.5 17.75C2.5 18.0261 2.72386 18.25 3 18.25Z" fill="#652DBF"/>
<path d="M3 20.75H11.31C11.5861 20.75 11.81 20.5261 11.81 20.25C11.81 19.9739 11.5861 19.75 11.31 19.75H3C2.72386 19.75 2.5 19.9739 2.5 20.25C2.5 20.5261 2.72386 20.75 3 20.75Z" fill="#652DBF"/>
<path d="M3 23.25H8C8.27614 23.25 8.5 23.0261 8.5 22.75C8.5 22.4739 8.27614 22.25 8 22.25H3C2.72386 22.25 2.5 22.4739 2.5 22.75C2.5 23.0261 2.72386 23.25 3 23.25Z" fill="#652DBF"/>
<path d="M16.5 10.75H27C27.2761 10.75 27.5 10.5261 27.5 10.25C27.5 9.97386 27.2761 9.75 27 9.75H16.5C16.2239 9.75 16 9.97386 16 10.25C16 10.5261 16.2239 10.75 16.5 10.75Z" fill="#652DBF"/>
<path d="M16.5 13.25H22C22.2761 13.25 22.5 13.0261 22.5 12.75C22.5 12.4739 22.2761 12.25 22 12.25H16.5C16.2239 12.25 16 12.4739 16 12.75C16 13.0261 16.2239 13.25 16.5 13.25Z" fill="#652DBF"/>
<path d="M16.5 15.75H18.5C18.7761 15.75 19 15.5261 19 15.25C19 14.9739 18.7761 14.75 18.5 14.75H16.5C16.2239 14.75 16 14.9739 16 15.25C16 15.5261 16.2239 15.75 16.5 15.75Z" fill="#652DBF"/>
<path d="M25.9756 18.6175V18.6175ZM25.9756 18.6175L25.6927 18.2086L25.6914 18.2066L23.4172 14.9186L23.4159 14.9166L23.1331 14.5078L23.1305 14.5096M25.9756 18.6175L23.1305 14.5096M23.1305 14.5096L23.1287 14.5069L23.1277 14.5076L23.1275 14.5077L21.3806 15.7173L21.486 15.6445L22.722 14.7915L23.1305 14.5096ZM29.2349 14.5396L29.2361 14.5414C29.4627 14.8688 29.5499 15.2728 29.4784 15.6644C29.407 16.056 29.1827 16.4032 28.8551 16.6294L28.8551 16.6295L28.8518 16.6317L29.2349 14.5396ZM29.2349 14.5396L29.642 14.258L29.2345 14.539L29.2349 14.5396ZM28.8496 16.6296L26.3839 18.3351L25.9902 18.6074L26.3841 18.3355L28.8513 16.6321L28.8496 16.6296ZM28.8496 16.6296C28.8497 16.6296 28.8498 16.6295 28.8498 16.6295M28.8496 16.6296L28.8498 16.6295M28.8498 16.6295C28.851 16.6286 28.8522 16.6278 28.8534 16.627C28.8534 16.627 28.8534 16.627 28.8534 16.627C29.1919 16.3907 29.4035 16.04 29.4719 15.6632C29.5402 15.2868 29.4657 14.8844 29.2322 14.5444L28.825 14.826L29.2321 14.5443C29.2316 14.5437 29.2312 14.5431 29.2308 14.5425L28.8498 16.6295ZM26.7746 12.2527C26.5033 12.269 26.2392 12.359 26.0119 12.516L26.7746 12.2527ZM26.7746 12.2527C26.5079 12.2675 26.2417 12.3537 26.0059 12.5167L23.1441 14.4962L23.5404 14.2225L26.0116 12.5163L26.7746 12.2527ZM8.00657 27.4444C8.00827 27.4418 8.01 27.4392 8.01176 27.4367L8.01309 27.4347L8.20202 27.1577L8.01342 27.4343L8.00657 27.4444ZM8.54427 28.2019L9.03259 28.0836L8.54416 28.2021L8.54318 28.2023C8.53914 28.2033 8.53509 28.2042 8.53103 28.2051L8.54427 28.2019ZM14.0437 26.8599C14.0437 26.8599 14.0437 26.8599 14.0437 26.8599L13.8142 26.528L14.0437 26.8599ZM21.0744 15.9292L21.0745 15.9292L21.0753 15.9305L20.6657 16.2137L13.0514 21.4781L21.0744 15.9292Z" fill="black" stroke="black"/>
</g>
<defs>
<clipPath id="clip0_1051_6712">
<rect width="30" height="30" fill="white"/>
</clipPath>
</defs>
</svg>
