<svg width="89" height="89" viewBox="0 0 89 89" fill="none" xmlns="http://www.w3.org/2000/svg">
<rect x="9" y="8.88965" width="79" height="79" rx="14.5" stroke="#652DBF" stroke-dasharray="3 2"/>
<rect x="0.5" y="0.389648" width="80" height="80" rx="15" fill="white"/>
<g clip-path="url(#clip0_1571_5363)">
<path d="M53.7701 31.4927C54.2339 31.4927 54.61 31.1167 54.61 30.6528V21.5195C54.61 20.1303 53.4797 19 52.0905 19H21.5201C20.1309 19 19.0006 20.1303 19.0006 21.5195V59.4805C19.0006 60.8697 20.1309 62 21.5201 62H52.0905C53.4797 62 54.61 60.8697 54.61 59.4805V53.2932C54.61 52.8293 54.2339 52.4533 53.7701 52.4533C53.3064 52.4533 52.9303 52.8293 52.9303 53.2932V59.4805C52.9303 59.9436 52.5535 60.3203 52.0905 60.3203H21.5201C21.0571 60.3203 20.6803 59.9436 20.6803 59.4805V21.5195C20.6803 21.0564 21.0571 20.6797 21.5201 20.6797H52.0905C52.5535 20.6797 52.9303 21.0564 52.9303 21.5195V30.6528C52.9303 31.1167 53.3064 31.4927 53.7701 31.4927Z" fill="#652DBF"/>
<path d="M36.8053 23.5352C32.5449 23.5352 29.0787 27.0013 29.0787 31.2617C29.0787 33.4719 30.0118 35.4681 31.5044 36.8777C31.5323 36.9076 31.5621 36.9359 31.5946 36.9617C32.9695 38.2197 34.7992 38.9882 36.8052 38.9882C38.8112 38.9882 40.6409 38.2196 42.0159 36.9617C42.0484 36.9359 42.0781 36.9075 42.1061 36.8777C43.5988 35.4681 44.5319 33.4719 44.5319 31.2617C44.5319 27.0013 41.0657 23.5352 36.8053 23.5352ZM36.8053 37.3086C35.4339 37.3086 34.1683 36.849 33.1527 36.0767C33.8909 34.7678 35.2683 33.9492 36.8053 33.9492C38.3423 33.9492 39.7197 34.7678 40.4579 36.0767C39.4422 36.849 38.1767 37.3086 36.8053 37.3086ZM35.4615 30.9258V30.3799C35.4615 29.639 36.0644 29.0361 36.8053 29.0361C37.5462 29.0361 38.149 29.639 38.149 30.3799V30.9258C38.149 31.6667 37.5462 32.2695 36.8053 32.2695C36.0644 32.2695 35.4615 31.6667 35.4615 30.9258ZM41.6714 34.8464C41.052 33.9278 40.1936 33.2133 39.1969 32.7723C39.5925 32.261 39.8287 31.6207 39.8287 30.9258V30.3799C39.8287 28.7127 38.4725 27.3564 36.8053 27.3564C35.1381 27.3564 33.7819 28.7127 33.7819 30.3799V30.9258C33.7819 31.6207 34.0181 32.261 34.4137 32.7723C33.417 33.2133 32.5586 33.9278 31.9392 34.8464C31.1977 33.8426 30.7584 32.6027 30.7584 31.2617C30.7584 27.9275 33.471 25.2148 36.8053 25.2148C40.1396 25.2148 42.8522 27.9275 42.8522 31.2617C42.8522 32.6027 42.4128 33.8426 41.6714 34.8464Z" fill="#652DBF"/>
<path d="M41.3405 55.7852H36.8053C36.3415 55.7852 35.9655 56.1612 35.9655 56.625C35.9655 57.0888 36.3415 57.4648 36.8053 57.4648H41.3405C41.8042 57.4648 42.1803 57.0888 42.1803 56.625C42.1803 56.1612 41.8042 55.7852 41.3405 55.7852Z" fill="#652DBF"/>
<path d="M41.3405 51.082H29.4147C28.9509 51.082 28.5748 51.458 28.5748 51.9219C28.5748 52.3857 28.9509 52.7617 29.4147 52.7617H41.3405C41.8042 52.7617 42.1803 52.3857 42.1803 51.9219C42.1803 51.458 41.8042 51.082 41.3405 51.082Z" fill="#652DBF"/>
<path d="M41.3405 46.3789H29.4147C28.9509 46.3789 28.5748 46.7549 28.5748 47.2188C28.5748 47.6826 28.9509 48.0586 29.4147 48.0586H41.3405C41.8042 48.0586 42.1803 47.6826 42.1803 47.2188C42.1803 46.7549 41.8042 46.3789 41.3405 46.3789Z" fill="#652DBF"/>
<path d="M26.4214 41.9219C26.2652 41.7656 26.0486 41.6758 25.8268 41.6758C25.6059 41.6758 25.3892 41.7656 25.2331 41.9219C25.0769 42.0781 24.987 42.2947 24.987 42.5156C24.987 42.7365 25.0768 42.9532 25.2331 43.1094C25.3901 43.2656 25.6059 43.3555 25.8268 43.3555C26.0486 43.3555 26.2644 43.2656 26.4214 43.1094C26.5776 42.9532 26.6675 42.7365 26.6675 42.5156C26.6675 42.2947 26.5777 42.0781 26.4214 41.9219Z" fill="#652DBF"/>
<path d="M26.4214 46.625C26.2644 46.4688 26.0486 46.3789 25.8268 46.3789C25.6059 46.3789 25.3901 46.4688 25.2331 46.625C25.0769 46.7812 24.987 46.9979 24.987 47.2188C24.987 47.4396 25.0768 47.6563 25.2331 47.8125C25.3901 47.9687 25.6059 48.0586 25.8268 48.0586C26.0486 48.0586 26.2644 47.9687 26.4214 47.8125C26.5776 47.6563 26.6675 47.4396 26.6675 47.2188C26.6675 46.9979 26.5777 46.7812 26.4214 46.625Z" fill="#652DBF"/>
<path d="M26.4214 51.3281C26.2644 51.1719 26.0486 51.082 25.8268 51.082C25.6059 51.082 25.3901 51.1719 25.2331 51.3281C25.0769 51.4843 24.987 51.701 24.987 51.9219C24.987 52.1428 25.0768 52.3594 25.2331 52.5156C25.3892 52.6719 25.6059 52.7617 25.8268 52.7617C26.0486 52.7617 26.2652 52.6719 26.4214 52.5156C26.5776 52.3594 26.6675 52.1428 26.6675 51.9219C26.6675 51.701 26.5777 51.4843 26.4214 51.3281Z" fill="#652DBF"/>
<path d="M41.3405 41.6758H29.4147C28.9509 41.6758 28.5748 42.0518 28.5748 42.5156C28.5748 42.9795 28.9509 43.3555 29.4147 43.3555H41.3405C41.8042 43.3555 42.1803 42.9795 42.1803 42.5156C42.1803 42.0518 41.8042 41.6758 41.3405 41.6758Z" fill="#652DBF"/>
<path d="M60.2365 29.9448C59.4206 29.4737 58.4701 29.3486 57.5598 29.5924C56.6498 29.8363 55.8891 30.42 55.4181 31.2359L44.8493 49.5414C44.7914 49.6417 44.7548 49.753 44.742 49.8681L43.998 56.5318C43.9611 56.8634 44.1239 57.1854 44.4128 57.3523C44.5432 57.4276 44.6881 57.4649 44.8326 57.4649C45.0083 57.4649 45.1833 57.4099 45.3307 57.3013L50.7296 53.3251C50.8229 53.2564 50.901 53.1691 50.9588 53.0688L61.5275 34.7633C62.5001 33.0789 61.9209 30.9173 60.2365 29.9448ZM45.8803 54.8104L46.2688 51.3307L48.6995 52.7341L45.8803 54.8104ZM49.9242 51.5016L46.7239 49.6539L55.2051 34.9642L58.4053 36.8118L49.9242 51.5016ZM60.0729 33.9234L59.2451 35.3572L56.0449 33.5096L56.8727 32.0757C57.1194 31.6483 57.5179 31.3426 57.9945 31.2149C58.4714 31.0871 58.9693 31.1527 59.3966 31.3995C59.824 31.6462 60.1297 32.0446 60.2574 32.5213C60.3852 32.998 60.3197 33.496 60.0729 33.9234Z" fill="#652DBF"/>
</g>
<defs>
<clipPath id="clip0_1571_5363">
<rect width="43" height="43" fill="white" transform="translate(19 19)"/>
</clipPath>
</defs>
</svg>
