<svg width="21" height="21" viewBox="0 0 21 21" fill="none" xmlns="http://www.w3.org/2000/svg">
<mask id="mask0_539_12562" style="mask-type:luminance" maskUnits="userSpaceOnUse" x="0" y="0" width="21" height="21">
<path d="M20.873 0.609863H0.873047V20.6099H20.873V0.609863Z" fill="white"/>
</mask>
<g mask="url(#mask0_539_12562)">
<path d="M17.0454 6.42041C17.2611 6.42041 17.436 6.24551 17.436 6.02976V1.78174C17.436 1.13557 16.9103 0.609863 16.2641 0.609863H2.04541C1.39924 0.609863 0.873535 1.13557 0.873535 1.78174V19.438C0.873535 20.0842 1.39924 20.6099 2.04541 20.6099H16.2641C16.9103 20.6099 17.436 20.0842 17.436 19.438V16.5602C17.436 16.3444 17.2611 16.1696 17.0454 16.1696C16.8297 16.1696 16.6548 16.3444 16.6548 16.5602V19.438C16.6548 19.6534 16.4795 19.8286 16.2641 19.8286H2.04541C1.83002 19.8286 1.65479 19.6534 1.65479 19.438V1.78174C1.65479 1.56635 1.83002 1.39111 2.04541 1.39111H16.2641C16.4795 1.39111 16.6548 1.56635 16.6548 1.78174V6.02976C16.6548 6.24551 16.8297 6.42041 17.0454 6.42041Z" fill="white"/>
<path d="M9.15479 2.71924C7.17319 2.71924 5.56104 4.33139 5.56104 6.31296C5.56104 7.34101 5.99504 8.26941 6.68924 8.92506C6.70224 8.93896 6.71609 8.95211 6.73119 8.96411C7.37069 9.54926 8.22174 9.90671 9.15474 9.90671C10.0877 9.90671 10.9388 9.54921 11.5783 8.96411C11.5934 8.95211 11.6072 8.93891 11.6202 8.92506C12.3145 8.26941 12.7485 7.34101 12.7485 6.31296C12.7485 4.33139 11.1364 2.71924 9.15479 2.71924ZM9.15479 9.12546C8.51694 9.12546 7.92824 8.91176 7.45594 8.55251C7.79924 7.94371 8.43989 7.56296 9.15479 7.56296C9.86969 7.56296 10.5103 7.94371 10.8536 8.55251C10.3813 8.91176 9.79264 9.12546 9.15479 9.12546ZM8.52979 6.15676V5.90281C8.52979 5.55822 8.81019 5.27783 9.15479 5.27783C9.49939 5.27783 9.77979 5.55822 9.77979 5.90281V6.15676C9.77979 6.50136 9.49939 6.78176 9.15479 6.78176C8.81019 6.78176 8.52979 6.50136 8.52979 6.15676ZM11.418 7.98031C11.13 7.55301 10.7307 7.22071 10.2672 7.01556C10.4511 6.77781 10.561 6.47996 10.561 6.15676V5.90281C10.561 5.1274 9.93019 4.49658 9.15479 4.49658C8.37934 4.49658 7.74854 5.1274 7.74854 5.90281V6.15676C7.74854 6.47996 7.85844 6.77781 8.04239 7.01556C7.57884 7.22071 7.17959 7.55301 6.89149 7.98031C6.54664 7.51336 6.34229 6.93671 6.34229 6.31296C6.34229 4.76217 7.60394 3.50049 9.15479 3.50049C10.7056 3.50049 11.9673 4.76217 11.9673 6.31296C11.9673 6.93671 11.7629 7.51336 11.418 7.98031Z" fill="white"/>
<path d="M11.2637 17.7192H9.15432C8.93862 17.7192 8.76367 17.8941 8.76367 18.1098C8.76367 18.3256 8.93862 18.5004 9.15432 18.5004H11.2637C11.4794 18.5004 11.6543 18.3256 11.6543 18.1098C11.6543 17.8941 11.4794 17.7192 11.2637 17.7192Z" fill="white"/>
<path d="M11.2641 15.5317H5.71729C5.50158 15.5317 5.32666 15.7066 5.32666 15.9223C5.32666 16.1381 5.50158 16.3129 5.71729 16.3129H11.2641C11.4798 16.3129 11.6548 16.1381 11.6548 15.9223C11.6548 15.7066 11.4798 15.5317 11.2641 15.5317Z" fill="white"/>
<path d="M11.2641 13.3442H5.71729C5.50158 13.3442 5.32666 13.5191 5.32666 13.7348C5.32666 13.9506 5.50158 14.1254 5.71729 14.1254H11.2641C11.4798 14.1254 11.6548 13.9506 11.6548 13.7348C11.6548 13.5191 11.4798 13.3442 11.2641 13.3442Z" fill="white"/>
<path d="M4.32486 11.2712C4.25224 11.1985 4.15146 11.1567 4.04834 11.1567C3.94556 11.1567 3.84478 11.1985 3.77216 11.2712C3.69951 11.3438 3.65771 11.4446 3.65771 11.5473C3.65771 11.6501 3.69947 11.7508 3.77216 11.8235C3.84521 11.8962 3.94556 11.9379 4.04834 11.9379C4.15146 11.9379 4.25185 11.8962 4.32486 11.8235C4.39751 11.7508 4.43935 11.6501 4.43935 11.5473C4.43935 11.4446 4.39755 11.3438 4.32486 11.2712Z" fill="white"/>
<path d="M4.32486 13.4587C4.25185 13.386 4.15146 13.3442 4.04834 13.3442C3.94556 13.3442 3.84521 13.386 3.77216 13.4587C3.69951 13.5313 3.65771 13.6321 3.65771 13.7348C3.65771 13.8376 3.69947 13.9383 3.77216 14.011C3.84521 14.0837 3.94556 14.1254 4.04834 14.1254C4.15146 14.1254 4.25185 14.0837 4.32486 14.011C4.39751 13.9383 4.43935 13.8376 4.43935 13.7348C4.43935 13.6321 4.39755 13.5313 4.32486 13.4587Z" fill="white"/>
<path d="M4.32486 15.6462C4.25185 15.5735 4.15146 15.5317 4.04834 15.5317C3.94556 15.5317 3.84521 15.5735 3.77216 15.6462C3.69951 15.7188 3.65771 15.8196 3.65771 15.9223C3.65771 16.0251 3.69947 16.1258 3.77216 16.1985C3.84478 16.2712 3.94556 16.3129 4.04834 16.3129C4.15146 16.3129 4.25224 16.2712 4.32486 16.1985C4.39751 16.1258 4.43935 16.0251 4.43935 15.9223C4.43935 15.8196 4.39755 15.7188 4.32486 15.6462Z" fill="white"/>
<path d="M11.2641 11.1567H5.71729C5.50158 11.1567 5.32666 11.3316 5.32666 11.5473C5.32666 11.7631 5.50158 11.9379 5.71729 11.9379H11.2641C11.4798 11.9379 11.6548 11.7631 11.6548 11.5473C11.6548 11.3316 11.4798 11.1567 11.2641 11.1567Z" fill="white"/>
<path d="M20.0528 5.70046C19.6733 5.48138 19.2312 5.42318 18.8078 5.53657C18.3845 5.65001 18.0307 5.92151 17.8116 6.30101L12.8959 14.8152C12.869 14.8619 12.852 14.9136 12.846 14.9672L12.5 18.0665C12.4828 18.2208 12.5585 18.3706 12.6929 18.4482C12.7536 18.4832 12.8209 18.5005 12.8882 18.5005C12.9699 18.5005 13.0513 18.4749 13.1198 18.4244L15.6309 16.5751C15.6743 16.5431 15.7107 16.5025 15.7376 16.4558L20.6532 7.94166C21.1056 7.15821 20.8362 6.15281 20.0528 5.70046ZM13.3755 17.2659L13.5562 15.6474L14.6867 16.3002L13.3755 17.2659ZM15.2563 15.7269L13.7679 14.8675L17.7126 8.03511L19.2011 8.89446L15.2563 15.7269ZM19.9767 7.55101L19.5916 8.21791L18.1032 7.35851L18.4882 6.69161C18.603 6.49281 18.7883 6.35061 19.01 6.29121C19.2318 6.23176 19.4634 6.26231 19.6621 6.37706C19.8609 6.49186 20.0031 6.67716 20.0625 6.89886C20.1219 7.12061 20.0914 7.35221 19.9767 7.55101Z" fill="white"/>
</g>
</svg>
