<svg width="20" height="20" viewBox="0 0 20 20" fill="none" xmlns="http://www.w3.org/2000/svg">
<g clip-path="url(#clip0_1031_2745)">
<path d="M16.1724 5.81055C16.3881 5.81055 16.563 5.63566 16.563 5.41992V1.17188C16.563 0.525703 16.0373 0 15.3911 0H1.17236C0.526191 0 0.000488281 0.525703 0.000488281 1.17188V18.8281C0.000488281 19.4743 0.526191 20 1.17236 20H15.3911C16.0373 20 16.563 19.4743 16.563 18.8281V15.9503C16.563 15.7346 16.3881 15.5597 16.1724 15.5597C15.9567 15.5597 15.7817 15.7346 15.7817 15.9503V18.8281C15.7817 19.0435 15.6065 19.2188 15.3911 19.2188H1.17236C0.956973 19.2188 0.781738 19.0435 0.781738 18.8281V1.17188C0.781738 0.956484 0.956973 0.78125 1.17236 0.78125H15.3911C15.6065 0.78125 15.7817 0.956484 15.7817 1.17188V5.41992C15.7817 5.63566 15.9567 5.81055 16.1724 5.81055Z" fill="white"/>
<path d="M8.28174 2.10938C6.30014 2.10938 4.68799 3.72152 4.68799 5.70312C4.68799 6.73113 5.12197 7.65957 5.81619 8.3152C5.8292 8.3291 5.84303 8.34227 5.85814 8.35426C6.49764 8.93938 7.34869 9.29684 8.2817 9.29684C9.21471 9.29684 10.0658 8.93934 10.7053 8.35426C10.7204 8.34227 10.7342 8.32906 10.7472 8.3152C11.4415 7.65957 11.8755 6.73113 11.8755 5.70312C11.8755 3.72152 10.2633 2.10938 8.28174 2.10938ZM8.28174 8.51562C7.64389 8.51562 7.05521 8.30188 6.58287 7.94266C6.92619 7.33387 7.56686 6.95312 8.28174 6.95312C8.99662 6.95312 9.63728 7.33387 9.9806 7.94266C9.50822 8.30188 8.91959 8.51562 8.28174 8.51562ZM7.65674 5.54688V5.29297C7.65674 4.94836 7.93713 4.66797 8.28174 4.66797C8.62635 4.66797 8.90674 4.94836 8.90674 5.29297V5.54688C8.90674 5.89148 8.62635 6.17188 8.28174 6.17188C7.93713 6.17188 7.65674 5.89148 7.65674 5.54688ZM10.545 7.37043C10.2569 6.94316 9.85767 6.61086 9.39412 6.4057C9.5781 6.16793 9.68799 5.87008 9.68799 5.54688V5.29297C9.68799 4.51754 9.05717 3.88672 8.28174 3.88672C7.50631 3.88672 6.87549 4.51754 6.87549 5.29297V5.54688C6.87549 5.87008 6.98537 6.16793 7.16936 6.4057C6.7058 6.61086 6.30654 6.94316 6.01846 7.37043C5.67357 6.90352 5.46924 6.32684 5.46924 5.70312C5.46924 4.1523 6.73092 2.89062 8.28174 2.89062C9.83256 2.89062 11.0942 4.1523 11.0942 5.70312C11.0942 6.32684 10.8899 6.90352 10.545 7.37043Z" fill="white"/>
<path d="M10.3911 17.1094H8.28174C8.06604 17.1094 7.89111 17.2843 7.89111 17.5C7.89111 17.7157 8.06604 17.8906 8.28174 17.8906H10.3911C10.6068 17.8906 10.7817 17.7157 10.7817 17.5C10.7817 17.2843 10.6068 17.1094 10.3911 17.1094Z" fill="white"/>
<path d="M10.3911 14.9219H4.84424C4.62854 14.9219 4.45361 15.0968 4.45361 15.3125C4.45361 15.5282 4.62854 15.7031 4.84424 15.7031H10.3911C10.6068 15.7031 10.7817 15.5282 10.7817 15.3125C10.7817 15.0968 10.6068 14.9219 10.3911 14.9219Z" fill="white"/>
<path d="M10.3911 12.7344H4.84424C4.62854 12.7344 4.45361 12.9093 4.45361 13.125C4.45361 13.3407 4.62854 13.5156 4.84424 13.5156H10.3911C10.6068 13.5156 10.7817 13.3407 10.7817 13.125C10.7817 12.9093 10.6068 12.7344 10.3911 12.7344Z" fill="white"/>
<path d="M3.45182 10.6613C3.3792 10.5887 3.27842 10.5469 3.17529 10.5469C3.07252 10.5469 2.97174 10.5887 2.89912 10.6613C2.82646 10.734 2.78467 10.8348 2.78467 10.9375C2.78467 11.0402 2.82643 11.141 2.89912 11.2137C2.97217 11.2863 3.07252 11.3281 3.17529 11.3281C3.27842 11.3281 3.37881 11.2863 3.45182 11.2137C3.52447 11.141 3.56631 11.0402 3.56631 10.9375C3.56631 10.8348 3.52451 10.734 3.45182 10.6613Z" fill="white"/>
<path d="M3.45182 12.8488C3.37881 12.7762 3.27842 12.7344 3.17529 12.7344C3.07252 12.7344 2.97217 12.7762 2.89912 12.8488C2.82646 12.9215 2.78467 13.0223 2.78467 13.125C2.78467 13.2277 2.82643 13.3285 2.89912 13.4012C2.97217 13.4738 3.07252 13.5156 3.17529 13.5156C3.27842 13.5156 3.37881 13.4738 3.45182 13.4012C3.52447 13.3285 3.56631 13.2277 3.56631 13.125C3.56631 13.0223 3.52451 12.9215 3.45182 12.8488Z" fill="white"/>
<path d="M3.45182 15.0363C3.37881 14.9637 3.27842 14.9219 3.17529 14.9219C3.07252 14.9219 2.97217 14.9637 2.89912 15.0363C2.82646 15.109 2.78467 15.2098 2.78467 15.3125C2.78467 15.4152 2.82643 15.516 2.89912 15.5887C2.97174 15.6613 3.07252 15.7031 3.17529 15.7031C3.27842 15.7031 3.3792 15.6613 3.45182 15.5887C3.52447 15.516 3.56631 15.4152 3.56631 15.3125C3.56631 15.2098 3.52451 15.109 3.45182 15.0363Z" fill="white"/>
<path d="M10.3911 10.5469H4.84424C4.62854 10.5469 4.45361 10.7218 4.45361 10.9375C4.45361 11.1532 4.62854 11.3281 4.84424 11.3281H10.3911C10.6068 11.3281 10.7817 11.1532 10.7817 10.9375C10.7817 10.7218 10.6068 10.5469 10.3911 10.5469Z" fill="white"/>
<path d="M19.1797 5.09159C18.8002 4.87249 18.3581 4.81429 17.9347 4.92769C17.5115 5.04113 17.1576 5.31261 16.9386 5.6921L12.0229 14.2063C11.9959 14.253 11.9789 14.3047 11.9729 14.3583L11.6269 17.4577C11.6097 17.6119 11.6854 17.7617 11.8198 17.8393C11.8805 17.8743 11.9479 17.8916 12.0151 17.8916C12.0968 17.8916 12.1782 17.866 12.2468 17.8155L14.7579 15.9662C14.8013 15.9342 14.8376 15.8936 14.8645 15.8469L19.7802 7.33277C20.2325 6.54933 19.9631 5.54394 19.1797 5.09159ZM12.5024 16.657L12.6831 15.0385L13.8136 15.6913L12.5024 16.657ZM14.3833 15.118L12.8948 14.2586L16.8395 7.4262L18.328 8.28558L14.3833 15.118ZM19.1036 6.9421L18.7186 7.60902L17.2301 6.74964L17.6151 6.08273C17.7299 5.88394 17.9152 5.74175 18.1369 5.68234C18.3587 5.62288 18.5903 5.65343 18.789 5.7682C18.9878 5.88296 19.13 6.06827 19.1894 6.28999C19.2488 6.51171 19.2184 6.74331 19.1036 6.9421Z" fill="white"/>
</g>
<defs>
<clipPath id="clip0_1031_2745">
<rect width="20" height="20" fill="white"/>
</clipPath>
</defs>
</svg>
