<svg width="23" height="23" viewBox="0 0 23 23" fill="none" xmlns="http://www.w3.org/2000/svg">
<path d="M2 11.4996C2 10.7293 2.01382 9.96769 2.03972 9.21643C2.17702 5.32368 5.32368 2.17702 9.21642 2.03972C9.96769 2.01295 10.7293 2 11.4996 2C12.2698 2 13.0315 2.01382 13.7827 2.03972C17.6755 2.17702 20.8221 5.32368 20.9594 9.21643C20.9862 9.96769 20.9991 10.7293 20.9991 11.4996C20.9991 12.2698 20.9853 13.0315 20.9594 13.7827C20.8221 17.6763 17.6755 20.823 13.7818 20.9603C13.0306 20.987 12.269 21 11.4987 21C10.7284 21 9.96682 20.9862 9.21556 20.9603C5.32368 20.823 2.17702 17.6763 2.04059 13.7827C2.01382 13.0315 2 12.2698 2 11.4996ZM7.80371 15.489C8.1707 15.8293 8.74494 15.8077 9.08431 15.4398L13.9364 10.2034L14.2568 13.3337C14.2801 13.5617 14.3863 13.762 14.5426 13.9062C14.7265 14.0772 14.9813 14.1713 15.2516 14.1428C15.7489 14.0919 16.1116 13.6471 16.0598 13.1489L15.5624 8.31491C15.5529 8.00577 15.4234 7.71995 15.1963 7.51011C14.9709 7.30114 14.6765 7.1932 14.4304 7.20615L9.50829 7.07922C9.00745 7.0654 8.59124 7.46176 8.57829 7.96087C8.57138 8.23288 8.6845 8.47898 8.86843 8.64996C9.02386 8.79417 9.2311 8.88484 9.4608 8.89088L12.6066 8.97032L7.75449 14.2076C7.41426 14.5746 7.43671 15.1488 7.80371 15.489Z" fill="#F5F8FE"/>
</svg>
