<svg width="23" height="24" viewBox="0 0 23 24" fill="none" xmlns="http://www.w3.org/2000/svg">
<path d="M2 12.0411C2 11.2708 2.01382 10.5092 2.03972 9.75793C2.17702 5.86519 5.32368 2.71853 9.21642 2.58123C9.96769 2.55446 10.7293 2.54151 11.4996 2.54151C12.2698 2.54151 13.0315 2.55532 13.7827 2.58123C17.6755 2.71853 20.8221 5.86519 20.9594 9.75793C20.9862 10.5092 20.9991 11.2708 20.9991 12.0411C20.9991 12.8113 20.9853 13.573 20.9594 14.3242C20.8221 18.2178 17.6755 21.3645 13.7818 21.5018C13.0306 21.5286 12.269 21.5415 11.4987 21.5415C10.7284 21.5415 9.96682 21.5277 9.21556 21.5018C5.32368 21.3645 2.17702 18.2178 2.04059 14.3242C2.01382 13.573 2 12.8113 2 12.0411ZM7.80371 16.0305C8.1707 16.3708 8.74494 16.3492 9.08431 15.9813L13.9364 10.7449L14.2568 13.8752C14.2801 14.1032 14.3863 14.3035 14.5426 14.4477C14.7265 14.6187 14.9813 14.7128 15.2516 14.6843C15.7489 14.6334 16.1116 14.1886 16.0598 13.6904L15.5624 8.85642C15.5529 8.54728 15.4234 8.26145 15.1963 8.05162C14.9709 7.84265 14.6765 7.73471 14.4304 7.74766L9.50829 7.62072C9.00745 7.6069 8.59124 8.00326 8.57829 8.50237C8.57138 8.77438 8.6845 9.02048 8.86843 9.19146C9.02386 9.33567 9.2311 9.42634 9.4608 9.43238L12.6066 9.51183L7.75449 14.7491C7.41426 15.1161 7.43671 15.6903 7.80371 16.0305Z" fill="#652DBF"/>
</svg>
