<svg width="30" height="31" viewBox="0 0 30 31" fill="none" xmlns="http://www.w3.org/2000/svg">
<path d="M23.75 9.25C23.4185 9.25 23.1005 9.3817 22.8661 9.61612C22.6317 9.85054 22.5 10.1685 22.5 10.5V24.4888C22.4641 25.1209 22.18 25.7132 21.7094 26.1367C21.2388 26.5603 20.6199 26.7807 19.9875 26.75H10.0125C9.38012 26.7807 8.76123 26.5603 8.29063 26.1367C7.82004 25.7132 7.53586 25.1209 7.5 24.4888V10.5C7.5 10.1685 7.3683 9.85054 7.13388 9.61612C6.89946 9.3817 6.58152 9.25 6.25 9.25C5.91848 9.25 5.60054 9.3817 5.36612 9.61612C5.1317 9.85054 5 10.1685 5 10.5V24.4888C5.03568 25.784 5.58323 27.0124 6.52273 27.9048C7.46222 28.7972 8.71709 29.2809 10.0125 29.25H19.9875C21.2829 29.2809 22.5378 28.7972 23.4773 27.9048C24.4168 27.0124 24.9643 25.784 25 24.4888V10.5C25 10.1685 24.8683 9.85054 24.6339 9.61612C24.3995 9.3817 24.0815 9.25 23.75 9.25Z" fill="#010E21"/>
<path d="M25 5.5H20V3C20 2.66848 19.8683 2.35054 19.6339 2.11612C19.3995 1.8817 19.0815 1.75 18.75 1.75H11.25C10.9185 1.75 10.6005 1.8817 10.3661 2.11612C10.1317 2.35054 10 2.66848 10 3V5.5H5C4.66848 5.5 4.35054 5.6317 4.11612 5.86612C3.8817 6.10054 3.75 6.41848 3.75 6.75C3.75 7.08152 3.8817 7.39946 4.11612 7.63388C4.35054 7.8683 4.66848 8 5 8H25C25.3315 8 25.6495 7.8683 25.8839 7.63388C26.1183 7.39946 26.25 7.08152 26.25 6.75C26.25 6.41848 26.1183 6.10054 25.8839 5.86612C25.6495 5.6317 25.3315 5.5 25 5.5ZM12.5 5.5V4.25H17.5V5.5H12.5Z" fill="#010E21"/>
<path d="M13.75 21.75V13C13.75 12.6685 13.6183 12.3505 13.3839 12.1161C13.1495 11.8817 12.8315 11.75 12.5 11.75C12.1685 11.75 11.8505 11.8817 11.6161 12.1161C11.3817 12.3505 11.25 12.6685 11.25 13V21.75C11.25 22.0815 11.3817 22.3995 11.6161 22.6339C11.8505 22.8683 12.1685 23 12.5 23C12.8315 23 13.1495 22.8683 13.3839 22.6339C13.6183 22.3995 13.75 22.0815 13.75 21.75Z" fill="#652DBF"/>
<path d="M18.75 21.75V13C18.75 12.6685 18.6183 12.3505 18.3839 12.1161C18.1495 11.8817 17.8315 11.75 17.5 11.75C17.1685 11.75 16.8505 11.8817 16.6161 12.1161C16.3817 12.3505 16.25 12.6685 16.25 13V21.75C16.25 22.0815 16.3817 22.3995 16.6161 22.6339C16.8505 22.8683 17.1685 23 17.5 23C17.8315 23 18.1495 22.8683 18.3839 22.6339C18.6183 22.3995 18.75 22.0815 18.75 21.75Z" fill="#652DBF"/>
</svg>
