<svg width="39" height="40" viewBox="0 0 39 40" fill="none" xmlns="http://www.w3.org/2000/svg">
<path d="M28.0069 37.1267H6.11813C5.54161 37.127 4.97164 37.0045 4.4461 36.7675C3.92056 36.5305 3.45148 36.1843 3.07005 35.752C2.68863 35.3197 2.40358 34.8111 2.23386 34.2602C2.06414 33.7092 2.01363 33.1284 2.0857 32.5564L4.5232 13.0564C4.64809 12.0748 5.12643 11.1725 5.86867 10.5182C6.61091 9.86386 7.56617 9.50249 8.55563 9.50171H25.5694C26.559 9.50252 27.5143 9.86399 28.2566 10.5185C28.9989 11.1729 29.4771 12.0755 29.6018 13.0572L30.6816 21.7266C30.6948 21.8325 30.687 21.9399 30.6587 22.0428C30.6303 22.1457 30.582 22.242 30.5164 22.3262C30.4508 22.4104 30.3693 22.4809 30.2765 22.5336C30.1837 22.5863 30.0815 22.6202 29.9756 22.6333C29.8697 22.6465 29.7622 22.6387 29.6593 22.6104C29.5565 22.582 29.4602 22.5337 29.376 22.4681C29.2918 22.4025 29.2213 22.321 29.1686 22.2282C29.1159 22.1354 29.082 22.0332 29.0688 21.9273L27.989 13.2587C27.9146 12.6696 27.6277 12.1279 27.1822 11.7354C26.7367 11.3428 26.1632 11.1264 25.5694 11.1267H8.55563C7.96185 11.1264 7.38836 11.3428 6.94285 11.7354C6.49733 12.1279 6.21043 12.6696 6.13601 13.2587L3.69851 32.7587C3.65582 33.1019 3.6865 33.4502 3.78854 33.7806C3.89058 34.111 4.06164 34.416 4.29039 34.6753C4.51915 34.9346 4.80038 35.1424 5.11548 35.2849C5.43057 35.4273 5.77233 35.5012 6.11813 35.5017H28.0069C28.1109 35.4821 28.2178 35.4832 28.3215 35.505C28.4251 35.5268 28.5234 35.5688 28.6107 35.6287C28.698 35.6885 28.7727 35.765 28.8304 35.8538C28.8881 35.9426 28.9277 36.0419 28.9469 36.146C28.9857 36.359 28.9393 36.5787 28.8177 36.7578C28.6962 36.937 28.5092 37.0613 28.2969 37.104C28.2011 37.1203 28.1041 37.1279 28.0069 37.1267Z" fill="#652DBF"/>
<path d="M22.75 16.8142C22.5345 16.8142 22.3278 16.7286 22.1755 16.5762C22.0231 16.4239 21.9375 16.2172 21.9375 16.0017V9.50171C21.9375 8.20878 21.4239 6.9688 20.5096 6.05456C19.5954 5.14032 18.3554 4.62671 17.0625 4.62671C15.7696 4.62671 14.5296 5.14032 13.6154 6.05456C12.7011 6.9688 12.1875 8.20878 12.1875 9.50171V16.0017C12.1875 16.2172 12.1019 16.4239 11.9495 16.5762C11.7972 16.7286 11.5905 16.8142 11.375 16.8142C11.1595 16.8142 10.9528 16.7286 10.8005 16.5762C10.6481 16.4239 10.5625 16.2172 10.5625 16.0017V9.50171C10.5625 7.7778 11.2473 6.1245 12.4663 4.90552C13.6853 3.68653 15.3386 3.00171 17.0625 3.00171C18.7864 3.00171 20.4397 3.68653 21.6587 4.90552C22.8777 6.1245 23.5625 7.7778 23.5625 9.50171V16.0017C23.5625 16.2172 23.4769 16.4239 23.3245 16.5762C23.1722 16.7286 22.9655 16.8142 22.75 16.8142Z" fill="#652DBF"/>
<path d="M28.4375 37.1267C26.8305 37.1267 25.2596 36.6502 23.9235 35.7574C22.5873 34.8646 21.5459 33.5957 20.931 32.111C20.316 30.6264 20.1551 28.9927 20.4686 27.4166C20.7821 25.8405 21.556 24.3928 22.6923 23.2565C23.8286 22.1202 25.2763 21.3463 26.8524 21.0328C28.4285 20.7193 30.0622 20.8802 31.5468 21.4952C33.0315 22.1102 34.3004 23.1516 35.1932 24.4877C36.086 25.8239 36.5625 27.3947 36.5625 29.0017C36.5601 31.1559 35.7034 33.2211 34.1801 34.7443C32.6569 36.2676 30.5917 37.1243 28.4375 37.1267ZM28.4375 22.5017C27.1519 22.5017 25.8952 22.8829 24.8263 23.5972C23.7574 24.3114 22.9243 25.3266 22.4323 26.5143C21.9403 27.702 21.8116 29.0089 22.0624 30.2698C22.3132 31.5307 22.9323 32.6889 23.8413 33.5979C24.7504 34.5069 25.9085 35.126 27.1694 35.3768C28.4303 35.6276 29.7372 35.4989 30.9249 35.0069C32.1127 34.515 33.1278 33.6818 33.8421 32.6129C34.5563 31.544 34.9375 30.2873 34.9375 29.0017C34.9356 27.2784 34.2501 25.6262 33.0316 24.4077C31.813 23.1891 30.1608 22.5036 28.4375 22.5017Z" fill="black"/>
<path d="M28.4375 32.2517C28.222 32.2517 28.0153 32.1661 27.863 32.0137C27.7106 31.8614 27.625 31.6547 27.625 31.4392V26.5642C27.625 26.3487 27.7106 26.1421 27.863 25.9897C28.0153 25.8373 28.222 25.7517 28.4375 25.7517C28.653 25.7517 28.8597 25.8373 29.012 25.9897C29.1644 26.1421 29.25 26.3487 29.25 26.5642V31.4392C29.25 31.6547 29.1644 31.8614 29.012 32.0137C28.8597 32.1661 28.653 32.2517 28.4375 32.2517Z" fill="black"/>
<path d="M30.875 29.8142H26C25.7845 29.8142 25.5778 29.7286 25.4255 29.5762C25.2731 29.4239 25.1875 29.2172 25.1875 29.0017C25.1875 28.7862 25.2731 28.5796 25.4255 28.4272C25.5778 28.2748 25.7845 28.1892 26 28.1892H30.875C31.0905 28.1892 31.2972 28.2748 31.4495 28.4272C31.6019 28.5796 31.6875 28.7862 31.6875 29.0017C31.6875 29.2172 31.6019 29.4239 31.4495 29.5762C31.2972 29.7286 31.0905 29.8142 30.875 29.8142Z" fill="black"/>
</svg>
