<svg width="16" height="16" viewBox="0 0 16 16" fill="none" xmlns="http://www.w3.org/2000/svg">
<path d="M6.25 1.5H2.75C2.4186 1.5004 2.10089 1.63222 1.86655 1.86655C1.63222 2.10089 1.5004 2.4186 1.5 2.75V6.25C1.5004 6.5814 1.63222 6.89911 1.86655 7.13345C2.10089 7.36778 2.4186 7.4996 2.75 7.5H6.25C6.5814 7.4996 6.89911 7.36778 7.13345 7.13345C7.36778 6.89911 7.4996 6.5814 7.5 6.25V2.75C7.4996 2.4186 7.36778 2.10089 7.13345 1.86655C6.89911 1.63222 6.5814 1.5004 6.25 1.5ZM7 6.25C7 6.44891 6.92098 6.63968 6.78033 6.78033C6.63968 6.92098 6.44891 7 6.25 7H2.75C2.55109 7 2.36032 6.92098 2.21967 6.78033C2.07902 6.63968 2 6.44891 2 6.25V2.75C2 2.55109 2.07902 2.36032 2.21967 2.21967C2.36032 2.07902 2.55109 2 2.75 2H6.25C6.44891 2 6.63968 2.07902 6.78033 2.21967C6.92098 2.36032 7 2.55109 7 2.75V6.25ZM13.25 1.5H9.75C9.4186 1.5004 9.10089 1.63222 8.86656 1.86655C8.63222 2.10089 8.5004 2.4186 8.5 2.75V6.25C8.5004 6.5814 8.63222 6.89911 8.86656 7.13345C9.10089 7.36778 9.4186 7.4996 9.75 7.5H13.25C13.5814 7.4996 13.8991 7.36778 14.1334 7.13345C14.3678 6.89911 14.4996 6.5814 14.5 6.25V2.75C14.4996 2.4186 14.3678 2.10089 14.1334 1.86655C13.8991 1.63222 13.5814 1.5004 13.25 1.5ZM14 6.25C14 6.44891 13.921 6.63968 13.7803 6.78033C13.6397 6.92098 13.4489 7 13.25 7H9.75C9.55109 7 9.36032 6.92098 9.21967 6.78033C9.07902 6.63968 9 6.44891 9 6.25V2.75C9 2.55109 9.07902 2.36032 9.21967 2.21967C9.36032 2.07902 9.55109 2 9.75 2H13.25C13.4489 2 13.6397 2.07902 13.7803 2.21967C13.921 2.36032 14 2.55109 14 2.75V6.25ZM6.25 8.5H2.75C2.4186 8.5004 2.10089 8.63222 1.86655 8.86656C1.63222 9.10089 1.5004 9.4186 1.5 9.75V13.25C1.5004 13.5814 1.63222 13.8991 1.86655 14.1334C2.10089 14.3678 2.4186 14.4996 2.75 14.5H6.25C6.5814 14.4996 6.89911 14.3678 7.13345 14.1334C7.36778 13.8991 7.4996 13.5814 7.5 13.25V9.75C7.4996 9.4186 7.36778 9.10089 7.13345 8.86656C6.89911 8.63222 6.5814 8.5004 6.25 8.5ZM7 13.25C7 13.4489 6.92098 13.6397 6.78033 13.7803C6.63968 13.921 6.44891 14 6.25 14H2.75C2.55109 14 2.36032 13.921 2.21967 13.7803C2.07902 13.6397 2 13.4489 2 13.25V9.75C2 9.55109 2.07902 9.36032 2.21967 9.21967C2.36032 9.07902 2.55109 9 2.75 9H6.25C6.44891 9 6.63968 9.07902 6.78033 9.21967C6.92098 9.36032 7 9.55109 7 9.75V13.25ZM11.5 8.5C10.9067 8.5 10.3266 8.67595 9.83329 9.00559C9.33994 9.33524 8.95542 9.80377 8.72836 10.3519C8.5013 10.9001 8.44189 11.5033 8.55764 12.0853C8.6734 12.6672 8.95912 13.2018 9.37868 13.6213C9.79824 14.0409 10.3328 14.3266 10.9147 14.4424C11.4967 14.5581 12.0999 14.4987 12.6481 14.2716C13.1962 14.0446 13.6648 13.6601 13.9944 13.1667C14.3241 12.6734 14.5 12.0933 14.5 11.5C14.4991 10.7046 14.1828 9.94205 13.6204 9.37963C13.0579 8.81721 12.2954 8.50086 11.5 8.5ZM11.5 14C11.0055 14 10.5222 13.8534 10.1111 13.5787C9.69995 13.304 9.37952 12.9135 9.1903 12.4567C9.00108 11.9999 8.95157 11.4972 9.04804 11.0123C9.1445 10.5273 9.3826 10.0819 9.73223 9.73223C10.0819 9.3826 10.5273 9.1445 11.0123 9.04804C11.4972 8.95157 11.9999 9.00108 12.4567 9.1903C12.9135 9.37952 13.304 9.69995 13.5787 10.1111C13.8534 10.5222 14 11.0055 14 11.5C13.9993 12.1628 13.7356 12.7983 13.267 13.267C12.7983 13.7356 12.1628 13.9993 11.5 14Z" fill="#652DBF" stroke="#652DBF" stroke-width="0.5"/>
<path d="M11.5 8.5C10.9067 8.5 10.3266 8.67595 9.83329 9.00559C9.33994 9.33524 8.95543 9.80377 8.72836 10.3519C8.5013 10.9001 8.44189 11.5033 8.55765 12.0853C8.6734 12.6672 8.95912 13.2018 9.37868 13.6213C9.79824 14.0409 10.3328 14.3266 10.9147 14.4424C11.4967 14.5581 12.0999 14.4987 12.6481 14.2716C13.1962 14.0446 13.6648 13.6601 13.9944 13.1667C14.3241 12.6734 14.5 12.0933 14.5 11.5C14.4991 10.7046 14.1828 9.94205 13.6204 9.37963C13.0579 8.81721 12.2954 8.50086 11.5 8.5ZM11.5 14C11.0055 14 10.5222 13.8534 10.1111 13.5787C9.69995 13.304 9.37952 12.9135 9.1903 12.4567C9.00108 11.9999 8.95157 11.4972 9.04804 11.0123C9.1445 10.5273 9.3826 10.0819 9.73223 9.73223C10.0819 9.3826 10.5273 9.1445 11.0123 9.04804C11.4972 8.95157 11.9999 9.00108 12.4567 9.1903C12.9135 9.37952 13.304 9.69995 13.5787 10.1111C13.8534 10.5222 14 11.0055 14 11.5C13.9993 12.1628 13.7356 12.7983 13.267 13.267C12.7983 13.7356 12.1628 13.9993 11.5 14Z" fill="#010E21" stroke="#010E21" stroke-width="0.5"/>
</svg>
