<svg width="20" height="20" viewBox="0 0 20 20" fill="none" xmlns="http://www.w3.org/2000/svg">
<g clip-path="url(#clip0_1031_2735)">
<path d="M18.75 8.75C18.1691 8.75 17.6841 9.14969 17.5444 9.6875H15.7544L16.1584 9.28344L15.7166 8.84156L14.7791 9.77906C14.7181 9.84 14.6875 9.92 14.6875 10C14.6875 10.08 14.7181 10.16 14.7791 10.2209L15.7166 11.1584L16.1584 10.7166L15.7544 10.3125H17.5444C17.6841 10.8503 18.1691 11.25 18.75 11.25C19.4394 11.25 20 10.6894 20 10C20 9.31062 19.4394 8.75 18.75 8.75ZM18.75 10.625C18.4053 10.625 18.125 10.3447 18.125 10C18.125 9.65531 18.4053 9.375 18.75 9.375C19.0947 9.375 19.375 9.65531 19.375 10C19.375 10.3447 19.0947 10.625 18.75 10.625Z" fill="white"/>
<path d="M15.558 15.1161L14.2895 13.8477H14.8611V13.2227H13.5352C13.3623 13.2227 13.2227 13.3623 13.2227 13.5352V14.8611H13.8477V14.2895L15.1133 15.5552C15.0011 15.7452 14.9367 15.9602 14.9367 16.1867C14.9367 16.5208 15.0667 16.8345 15.303 17.0705C15.5392 17.3067 15.853 17.4367 16.1867 17.4367C16.5208 17.4367 16.8345 17.3067 17.0705 17.0705C17.3067 16.8345 17.4367 16.5208 17.4367 16.1867C17.4367 15.853 17.3067 15.5392 17.0705 15.303C16.6752 14.907 16.0342 14.8473 15.558 15.1161ZM16.6289 16.6289C16.3927 16.8652 15.9814 16.8652 15.7452 16.6289C15.627 16.5108 15.562 16.3539 15.562 16.187C15.562 16.0202 15.627 15.8633 15.7452 15.7452C15.8633 15.627 16.0202 15.562 16.187 15.562C16.3539 15.562 16.5108 15.627 16.6289 15.7452C16.747 15.8633 16.812 16.0202 16.812 16.187C16.812 16.3539 16.747 16.5108 16.6289 16.6289Z" fill="white"/>
<path d="M3.81299 5.06234C4.03955 5.06234 4.25455 4.99797 4.44455 4.88578L5.71018 6.15141H5.13861V6.77641H6.46455C6.63736 6.77641 6.77705 6.63672 6.77705 6.46391V5.13797H6.15205V5.70953L4.88643 4.44391C4.99861 4.25391 5.06299 4.03891 5.06299 3.81234C5.06299 3.47828 4.93299 3.16453 4.69674 2.92859C4.22393 2.45609 3.4008 2.45609 2.92924 2.92859C2.69299 3.16453 2.56299 3.47828 2.56299 3.81234C2.56299 4.14609 2.69299 4.45984 2.92924 4.69609C3.16518 4.93234 3.47893 5.06234 3.81299 5.06234ZM3.37111 3.37047C3.48924 3.25234 3.64611 3.18734 3.81299 3.18734C3.97986 3.18734 4.13674 3.25234 4.25486 3.37047C4.37299 3.48859 4.43799 3.64547 4.43799 3.81234C4.43799 3.97922 4.37299 4.13609 4.25486 4.25422C4.01861 4.49047 3.60736 4.49047 3.37111 4.25422C3.25299 4.13609 3.18799 3.97922 3.18799 3.81234C3.18799 3.64547 3.25299 3.48859 3.37111 3.37047Z" fill="white"/>
<path d="M11.1584 4.28344L10.7166 3.84156L10.3125 4.24563V2.45562C10.8503 2.31594 11.25 1.83094 11.25 1.25C11.25 0.560625 10.6894 0 10 0C9.31062 0 8.75 0.560625 8.75 1.25C8.75 1.83094 9.14969 2.31594 9.6875 2.45562V4.24563L9.28344 3.84156L8.84156 4.28344L9.77906 5.22094C9.84 5.28188 9.92 5.3125 10 5.3125C10.08 5.3125 10.16 5.28188 10.2209 5.22094L11.1584 4.28344ZM9.375 1.25C9.375 0.905312 9.65531 0.625 10 0.625C10.3447 0.625 10.625 0.905312 10.625 1.25C10.625 1.59469 10.3447 1.875 10 1.875C9.65531 1.875 9.375 1.59469 9.375 1.25Z" fill="white"/>
<path d="M8.84156 15.7166L9.28344 16.1584L9.6875 15.7544V17.5444C9.14969 17.6841 8.75 18.1691 8.75 18.75C8.75 19.4394 9.31062 20 10 20C10.6894 20 11.25 19.4394 11.25 18.75C11.25 18.1691 10.8503 17.6841 10.3125 17.5444V15.7544L10.7166 16.1584L11.1584 15.7166L10.2209 14.7791C10.16 14.7181 10.08 14.6875 10 14.6875C9.92 14.6875 9.84 14.7181 9.77906 14.7791L8.84156 15.7166ZM10.625 18.75C10.625 19.0947 10.3447 19.375 10 19.375C9.65531 19.375 9.375 19.0947 9.375 18.75C9.375 18.4053 9.65531 18.125 10 18.125C10.3447 18.125 10.625 18.4053 10.625 18.75Z" fill="white"/>
<path d="M4.28344 8.84156L3.84156 9.28344L4.24563 9.6875H2.45562C2.31594 9.14969 1.83094 8.75 1.25 8.75C0.560625 8.75 0 9.31062 0 10C0 10.6894 0.560625 11.25 1.25 11.25C1.83094 11.25 2.31594 10.8503 2.45562 10.3125H4.24563L3.84156 10.7166L4.28344 11.1584L5.22094 10.2209C5.28188 10.16 5.3125 10.08 5.3125 10C5.3125 9.92 5.28188 9.84 5.22094 9.77906L4.28344 8.84156ZM1.25 10.625C0.905312 10.625 0.625 10.3447 0.625 10C0.625 9.65531 0.905312 9.375 1.25 9.375C1.59469 9.375 1.875 9.65531 1.875 10C1.875 10.3447 1.59469 10.625 1.25 10.625Z" fill="white"/>
<path d="M13.5352 6.77641H14.8611V6.15141H14.2895L15.5552 4.88578C15.7452 4.99797 15.9602 5.06234 16.1867 5.06234C16.5208 5.06234 16.8345 4.93234 17.0705 4.69609C17.3067 4.45984 17.4367 4.14609 17.4367 3.81234C17.4367 3.47828 17.3067 3.16453 17.0705 2.92859C16.5989 2.45609 15.7755 2.45609 15.303 2.92859C15.0667 3.16453 14.9367 3.47828 14.9367 3.81234C14.9367 4.03891 15.0011 4.25391 15.1133 4.44391L13.8477 5.70953V5.13797H13.2227V6.46391C13.2227 6.63641 13.3627 6.77641 13.5352 6.77641ZM15.7452 3.37016C15.8633 3.25203 16.0202 3.18703 16.187 3.18703C16.3539 3.18703 16.5108 3.25203 16.6289 3.37016C16.747 3.48828 16.812 3.64516 16.812 3.81203C16.812 3.97891 16.747 4.13578 16.6289 4.25391C16.3927 4.49016 15.9814 4.49016 15.7452 4.25391C15.627 4.13578 15.562 3.97891 15.562 3.81203C15.562 3.64516 15.627 3.48828 15.7452 3.37016Z" fill="white"/>
<path d="M6.46486 13.2227H5.13893V13.8477H5.71049L4.44205 15.1161C3.96611 14.8473 3.32486 14.907 2.92924 15.303C2.69299 15.5392 2.56299 15.853 2.56299 16.1867C2.56299 16.5208 2.69299 16.8345 2.92924 17.0705C3.16518 17.3067 3.47893 17.4367 3.81299 17.4367C4.14674 17.4367 4.46049 17.3067 4.69674 17.0705C4.93299 16.8345 5.06299 16.5208 5.06299 16.1867C5.06299 15.9602 4.99861 15.7452 4.88643 15.5552L6.15205 14.2895V14.8611H6.77705V13.5352C6.77736 13.3627 6.63736 13.2227 6.46486 13.2227ZM4.25486 16.6289C4.01861 16.8652 3.60736 16.8652 3.37111 16.6289C3.25299 16.5108 3.18799 16.3539 3.18799 16.187C3.18799 16.0202 3.25299 15.8633 3.37111 15.7452C3.48924 15.627 3.64611 15.562 3.81299 15.562C3.97986 15.562 4.13674 15.627 4.25486 15.7452C4.37299 15.8633 4.43799 16.0202 4.43799 16.187C4.43799 16.3539 4.37299 16.5108 4.25486 16.6289Z" fill="white"/>
<circle cx="10.0002" cy="10.0007" r="3.86667" stroke="white" stroke-width="0.6"/>
<g clip-path="url(#clip1_1031_2735)">
<path d="M10.3109 13.3327H9.68873C9.47845 13.3327 9.30095 13.1752 9.27595 12.966L9.20956 12.4449C9.07706 12.4018 8.94928 12.3488 8.82789 12.2868L8.41289 12.6093C8.24456 12.7396 8.00761 12.7246 7.8615 12.5743L7.424 12.1368C7.27484 11.9921 7.25984 11.7552 7.39011 11.5871L7.71261 11.1718C7.65039 11.0505 7.59734 10.9227 7.55456 10.7902L7.03234 10.7238C6.824 10.6982 6.6665 10.5207 6.6665 10.3105V9.68824C6.6665 9.47796 6.824 9.30046 7.03317 9.27546L7.55428 9.20907C7.59734 9.07657 7.65039 8.94879 7.71234 8.8274L7.39011 8.4124C7.25956 8.24407 7.27484 8.00685 7.42539 7.86074L7.86289 7.42324C8.00761 7.27407 8.24484 7.25935 8.41261 7.38935L8.82761 7.71213C8.949 7.65018 9.07678 7.59713 9.20956 7.55407L9.27595 7.03185C9.30095 6.82352 9.47845 6.66602 9.68873 6.66602H10.3109C10.5212 6.66602 10.6987 6.82352 10.7237 7.03268L10.7901 7.55379C10.9229 7.59685 11.0507 7.6499 11.1721 7.71185L11.5871 7.38935C11.7557 7.25907 11.9923 7.27407 12.1384 7.42463L12.5759 7.86213C12.7251 8.00685 12.7401 8.24379 12.6098 8.41185L12.2873 8.82713C12.3496 8.94852 12.4026 9.07629 12.4454 9.20879L12.9676 9.27518C13.1757 9.30046 13.3332 9.47796 13.3332 9.68824V10.3105C13.3332 10.5207 13.1757 10.6982 12.9665 10.7232L12.4454 10.7896C12.4023 10.9221 12.3493 11.0499 12.2873 11.1713L12.6098 11.5863C12.7404 11.7546 12.7251 11.9916 12.5746 12.1377L12.1371 12.5752C11.9923 12.7243 11.7551 12.7396 11.5873 12.6091L11.1721 12.2866C11.0507 12.3488 10.9229 12.4018 10.7904 12.4446L10.724 12.9668C10.6987 13.1752 10.5212 13.3327 10.3109 13.3327ZM8.81373 11.9827C8.83678 11.9827 8.86039 11.9885 8.8815 12.0002C9.03456 12.0857 9.20039 12.1546 9.37428 12.2046C9.42761 12.2199 9.46678 12.2655 9.47373 12.3205L9.5515 12.9316C9.55984 13.0013 9.62011 13.0549 9.68873 13.0549H10.3109C10.3796 13.0549 10.4398 13.0013 10.4479 12.933L10.5259 12.3207C10.5329 12.2657 10.5721 12.2202 10.6254 12.2049C10.7993 12.1549 10.9651 12.086 11.1182 12.0005C11.1668 11.9732 11.2273 11.978 11.2709 12.0121L11.7571 12.3899C11.8129 12.4332 11.8912 12.4296 11.939 12.3805L12.3793 11.9402C12.4296 11.8913 12.4334 11.813 12.3901 11.7568L12.0123 11.2707C11.9782 11.2268 11.9734 11.1666 12.0007 11.118C12.0862 10.9649 12.1551 10.7991 12.2051 10.6252C12.2204 10.5718 12.2659 10.5327 12.3209 10.5257L12.9321 10.448C13.0018 10.4393 13.0554 10.3791 13.0554 10.3105V9.68824C13.0554 9.61963 13.0018 9.55935 12.9334 9.55129L12.3212 9.47324C12.2662 9.46629 12.2207 9.42713 12.2054 9.37379C12.1554 9.1999 12.0865 9.03407 12.0009 8.88102C11.9737 8.8324 11.9782 8.77213 12.0126 8.72824L12.3904 8.24213C12.434 8.18602 12.4301 8.10768 12.3812 8.06046L11.9409 7.62018C11.8923 7.56963 11.8137 7.56574 11.7576 7.60935L11.2715 7.98713C11.2273 8.02129 11.1671 8.02602 11.1184 7.99879C10.9659 7.91324 10.8001 7.84463 10.6257 7.79435C10.5723 7.77907 10.5332 7.73352 10.5262 7.67852L10.4484 7.0674C10.4398 6.9974 10.3796 6.94379 10.3109 6.94379H9.68873C9.62011 6.94379 9.55984 6.9974 9.55178 7.06574L9.47373 7.67796C9.46678 7.73296 9.42761 7.77852 9.37428 7.79407C9.19984 7.84407 9.034 7.91296 8.8815 7.99824C8.83289 8.02574 8.77261 8.02074 8.72845 7.98685L8.24234 7.60907C8.18623 7.56546 8.10817 7.56935 8.06067 7.61824L7.62039 8.05879C7.57011 8.10768 7.56623 8.18602 7.60956 8.24213L7.98734 8.72824C8.0215 8.77213 8.02623 8.8324 7.999 8.88102C7.91317 9.03407 7.84456 9.1999 7.79456 9.37379C7.77928 9.42713 7.73373 9.46629 7.67873 9.47324L7.06761 9.55102C6.99789 9.55935 6.94428 9.61963 6.94428 9.68824V10.3105C6.94428 10.3791 6.99789 10.4393 7.06623 10.4474L7.67845 10.5255C7.73345 10.5324 7.779 10.5716 7.79428 10.6249C7.84428 10.7988 7.91317 10.9646 7.99873 11.1177C8.02595 11.1663 8.0215 11.2266 7.98706 11.2705L7.60928 11.7566C7.56567 11.8127 7.56956 11.891 7.61845 11.9382L8.05873 12.3785C8.10734 12.4288 8.18539 12.4327 8.24206 12.3893L8.72817 12.0116C8.75345 11.9927 8.78345 11.9827 8.81373 11.9827Z" fill="white" stroke="white" stroke-width="0.2"/>
<path d="M9.99973 11.3891C9.2339 11.3891 8.61084 10.7661 8.61084 10.0002C8.61084 9.23438 9.2339 8.61133 9.99973 8.61133C10.7656 8.61133 11.3886 9.23438 11.3886 10.0002C11.3886 10.7661 10.7656 11.3891 9.99973 11.3891ZM9.99973 8.88911C9.38695 8.88911 8.88862 9.38744 8.88862 10.0002C8.88862 10.613 9.38695 11.1113 9.99973 11.1113C10.6125 11.1113 11.1108 10.613 11.1108 10.0002C11.1108 9.38744 10.6125 8.88911 9.99973 8.88911Z" fill="white" stroke="white" stroke-width="0.2"/>
</g>
</g>
<defs>
<clipPath id="clip0_1031_2735">
<rect width="20" height="20" fill="white"/>
</clipPath>
<clipPath id="clip1_1031_2735">
<rect width="6.66667" height="6.66667" fill="white" transform="translate(6.6665 6.66602)"/>
</clipPath>
</defs>
</svg>
