<svg width="34" height="34" viewBox="0 0 34 34" fill="none" xmlns="http://www.w3.org/2000/svg">
<g clip-path="url(#clip0_1037_3732)">
<path d="M27.9661 19.4342L30.2583 13.2873C30.8419 11.9292 32.0217 12.1816 32.0217 12.1816C32.9348 12.3487 33.4263 13.097 33.3221 13.9352L31.2194 22.3879C30.6764 24.5595 29.1624 26.6771 27.3999 28.0457L23.7669 30.645V32.1778C23.7669 32.5446 23.4696 32.8419 23.1028 32.8419H17.0102V28.9888C17.0102 28.9888 16.6131 24.6007 20.7826 22.0665L25.767 18.8672C26.0194 18.7046 26.3056 18.6252 26.5895 18.6252C26.9835 18.6252 27.3737 18.778 27.6682 19.0724C28.2517 19.6567 28.2637 20.6005 27.6944 21.1991L24.3378 23.8463" stroke="#652DBF" stroke-miterlimit="10" stroke-linecap="round" stroke-linejoin="round"/>
<path d="M9.66234 23.8463L6.3057 21.1991C5.7364 20.6005 5.74835 19.6567 6.33193 19.0724C6.62631 18.778 7.01658 18.6252 7.41063 18.6252C7.69452 18.6252 7.98066 18.7046 8.23314 18.8672L13.2175 22.0665C17.3869 24.6007 16.9899 28.9888 16.9899 28.9888V32.8419H10.8973C10.5305 32.8419 10.2332 32.5446 10.2332 32.1778V30.645L6.60021 28.0457C4.83759 26.6771 3.32373 24.5595 2.78066 22.3879L0.677835 13.9352C0.57371 13.097 1.06512 12.3486 1.97827 12.1816C1.97827 12.1816 3.15804 11.9292 3.74162 13.2873L6.03383 19.4342" stroke="#652DBF" stroke-miterlimit="10" stroke-linecap="round" stroke-linejoin="round"/>
<path d="M13.9803 18.3462H13.1396C12.7729 18.3462 12.4756 18.0489 12.4756 17.6821V14.1217C12.4756 12.6809 13.6436 11.5129 15.0844 11.5129H18.9163C20.3571 11.5129 21.525 12.681 21.525 14.1217V17.6821C21.525 18.0489 21.2277 18.3462 20.861 18.3462H20.0312" stroke="#652DBF" stroke-miterlimit="10" stroke-linecap="round" stroke-linejoin="round"/>
<path d="M17.0001 11.5129C18.7007 11.5129 20.0793 10.1343 20.0793 8.43368C20.0793 6.73309 18.7007 5.35449 17.0001 5.35449C15.2995 5.35449 13.9209 6.73309 13.9209 8.43368C13.9209 10.1343 15.2995 11.5129 17.0001 11.5129Z" stroke="#652DBF" stroke-miterlimit="10" stroke-linecap="round" stroke-linejoin="round"/>
<path d="M20.1699 7.31665H24.152C25.5928 7.31665 26.7607 8.48467 26.7607 9.92542V13.442C26.7607 13.8328 26.4439 14.1497 26.053 14.1497H21.5208" stroke="#652DBF" stroke-miterlimit="10" stroke-linecap="round" stroke-linejoin="round"/>
<path d="M22.2364 7.31659C23.937 7.31659 25.3156 5.93799 25.3156 4.23739C25.3156 2.5368 23.937 1.1582 22.2364 1.1582C20.5358 1.1582 19.1572 2.5368 19.1572 4.23739C19.1572 5.93799 20.5358 7.31659 22.2364 7.31659Z" stroke="#652DBF" stroke-miterlimit="10" stroke-linecap="round" stroke-linejoin="round"/>
<path d="M12.4792 14.1497H7.94695C7.55608 14.1497 7.23926 13.8328 7.23926 13.442V9.92542C7.23926 8.4846 8.40728 7.31665 9.84803 7.31665H13.9209" stroke="#652DBF" stroke-miterlimit="10" stroke-linecap="round" stroke-linejoin="round"/>
<path d="M11.7638 7.31659C13.4644 7.31659 14.843 5.93799 14.843 4.23739C14.843 2.5368 13.4644 1.1582 11.7638 1.1582C10.0632 1.1582 8.68457 2.5368 8.68457 4.23739C8.68457 5.93799 10.0632 7.31659 11.7638 7.31659Z" stroke="#652DBF" stroke-miterlimit="10" stroke-linecap="round" stroke-linejoin="round"/>
<circle cx="17" cy="18.3462" r="0.664062" fill="#652DBF"/>
</g>
<defs>
<clipPath id="clip0_1037_3732">
<rect width="34" height="34" fill="white"/>
</clipPath>
</defs>
</svg>
