<svg width="51" height="50" viewBox="0 0 51 50" fill="none" xmlns="http://www.w3.org/2000/svg">
<g clip-path="url(#clip0_1275_23886)">
<path d="M29.6667 18.9375L48.0208 22.5833C49.5 22.8958 50.5 24.1458 50.5 25.625V46.875C50.5 48.6042 49.1042 50 47.375 50H28.625C29.2083 50 29.6667 49.5417 29.6667 48.9583V47.9167H47.375C47.9375 47.9167 48.4167 47.4583 48.4167 46.875V25.625C48.4167 25.1458 48.0833 24.7083 47.6042 24.6042L29.6667 21.0625V18.9375Z" fill="white"/>
<path d="M41.1253 29.1667C41.7087 29.1667 42.167 29.6251 42.167 30.2084C42.167 30.7917 41.7087 31.2501 41.1253 31.2501H36.9587C36.3753 31.2501 35.917 30.7917 35.917 30.2084C35.917 29.6251 36.3753 29.1667 36.9587 29.1667H41.1253Z" fill="#652DBF"/>
<path d="M41.1253 35.4167C41.7087 35.4167 42.167 35.8751 42.167 36.4584C42.167 37.0417 41.7087 37.5001 41.1253 37.5001H36.9587C36.3753 37.5001 35.917 37.0417 35.917 36.4584C35.917 35.8751 36.3753 35.4167 36.9587 35.4167H41.1253Z" fill="#652DBF"/>
<path d="M41.1253 41.6667C41.7087 41.6667 42.167 42.1251 42.167 42.7084C42.167 43.2917 41.7087 43.7501 41.1253 43.7501H36.9587C36.3753 43.7501 35.917 43.2917 35.917 42.7084C35.917 42.1251 36.3753 41.6667 36.9587 41.6667H41.1253Z" fill="#652DBF"/>
<path d="M29.6663 48.9585C29.6663 49.5418 29.208 50.0002 28.6247 50.0002C28.0413 50.0002 27.583 49.5418 27.583 48.9585V47.9168V19.7918C27.583 19.4793 27.7288 19.1877 27.958 18.9793C28.208 18.7918 28.5205 18.7085 28.833 18.771L29.6663 18.9377V21.0627V47.9168V48.9585Z" fill="white"/>
<path d="M27.5837 47.9167V48.9584C27.5837 49.5417 28.042 50.0001 28.6253 50.0001H20.292C20.8753 50.0001 21.3337 49.5417 21.3337 48.9584V47.9167H27.5837Z" fill="white"/>
<path d="M22.3753 10.4167C22.9587 10.4167 23.417 10.8751 23.417 11.4584C23.417 12.0417 22.9587 12.5001 22.3753 12.5001H18.2087C17.6253 12.5001 17.167 12.0417 17.167 11.4584C17.167 10.8751 17.6253 10.4167 18.2087 10.4167H22.3753Z" fill="#652DBF"/>
<path d="M23.417 17.7084C23.417 18.2917 22.9587 18.7501 22.3753 18.7501H18.2087C17.6253 18.7501 17.167 18.2917 17.167 17.7084C17.167 17.1251 17.6253 16.6667 18.2087 16.6667H22.3753C22.9587 16.6667 23.417 17.1251 23.417 17.7084Z" fill="#652DBF"/>
<path d="M22.3753 22.9167C22.9587 22.9167 23.417 23.3751 23.417 23.9584C23.417 24.5417 22.9587 25.0001 22.3753 25.0001H18.2087C17.6253 25.0001 17.167 24.5417 17.167 23.9584C17.167 23.3751 17.6253 22.9167 18.2087 22.9167H22.3753Z" fill="#652DBF"/>
<path d="M22.3753 29.1667C22.9587 29.1667 23.417 29.6251 23.417 30.2084C23.417 30.7917 22.9587 31.2501 22.3753 31.2501H18.2087C17.6253 31.2501 17.167 30.7917 17.167 30.2084C17.167 29.6251 17.6253 29.1667 18.2087 29.1667H22.3753Z" fill="#652DBF"/>
<path d="M13 30.2084C13 30.7917 12.5417 31.2501 11.9583 31.2501H7.79167C7.20833 31.2501 6.75 30.7917 6.75 30.2084C6.75 29.6251 7.20833 29.1667 7.79167 29.1667H11.9583C12.5417 29.1667 13 29.6251 13 30.2084Z" fill="#652DBF"/>
<path d="M11.9583 10.4167C12.5417 10.4167 13 10.8751 13 11.4584C13 12.0417 12.5417 12.5001 11.9583 12.5001H7.79167C7.20833 12.5001 6.75 12.0417 6.75 11.4584C6.75 10.8751 7.20833 10.4167 7.79167 10.4167H11.9583Z" fill="#652DBF"/>
<path d="M11.9583 16.6667C12.5417 16.6667 13 17.1251 13 17.7084C13 18.2917 12.5417 18.7501 11.9583 18.7501H7.79167C7.20833 18.7501 6.75 18.2917 6.75 17.7084C6.75 17.1251 7.20833 16.6667 7.79167 16.6667H11.9583Z" fill="#652DBF"/>
<path d="M11.9583 22.9167C12.5417 22.9167 13 23.3751 13 23.9584C13 24.5417 12.5417 25.0001 11.9583 25.0001H7.79167C7.20833 25.0001 6.75 24.5417 6.75 23.9584C6.75 23.3751 7.20833 22.9167 7.79167 22.9167H11.9583Z" fill="#652DBF"/>
<path d="M19.2497 38.5417C19.2497 37.9584 18.7705 37.5001 18.208 37.5001H11.958C11.3747 37.5001 10.9163 37.9584 10.9163 38.5417V47.9167H8.83301V38.5417C8.83301 36.8126 10.2288 35.4167 11.958 35.4167H18.208C19.9372 35.4167 21.333 36.8126 21.333 38.5417V47.9167H19.2497V38.5417Z" fill="#652DBF"/>
<path d="M10.9163 47.9167H19.2497H21.333V48.9584C21.333 49.5417 20.8747 50.0001 20.2913 50.0001H9.87467C9.29134 50.0001 8.83301 49.5417 8.83301 48.9584V47.9167H10.9163Z" fill="white"/>
<path d="M4.14583 0.416781L27.0417 3.89595C28.5625 4.14595 29.6667 5.43761 29.6667 6.97928V18.9376L28.8333 18.7709C28.5208 18.7084 28.2083 18.7918 27.9583 18.9793C27.7292 19.1876 27.5833 19.4793 27.5833 19.7918V6.97928C27.5833 6.45845 27.2083 6.02095 26.7083 5.93761L3.8125 2.47928C3.75 2.45845 3.6875 2.45845 3.625 2.45845C3.375 2.45845 3.14583 2.54178 2.95833 2.70845C2.70833 2.91678 2.58333 3.18761 2.58333 3.50011V46.8751C2.58333 47.4584 3.0625 47.9168 3.625 47.9168H8.83333V48.9584C8.83333 49.5418 9.29167 50.0001 9.875 50.0001H3.625C1.89583 50.0001 0.5 48.6043 0.5 46.8751V3.50011C0.5 2.58345 0.895833 1.70845 1.60417 1.12511C2.3125 0.520948 3.22917 0.270948 4.14583 0.416781Z" fill="white"/>
</g>
<defs>
<clipPath id="clip0_1275_23886">
<rect width="50" height="50" fill="white" transform="translate(0.5)"/>
</clipPath>
</defs>
</svg>
