<svg width="30" height="30" viewBox="0 0 30 30" fill="none" xmlns="http://www.w3.org/2000/svg">
<path d="M26.2456 28.2875C25.8075 28.2875 25.3836 28.1325 25.0487 27.85L22.0681 25.3569C21.9552 25.2652 21.8142 25.2151 21.6687 25.215H12C11.3038 25.215 10.6361 24.9384 10.1438 24.4462C9.65156 23.9539 9.375 23.2862 9.375 22.59V17.715C9.375 17.5492 9.44085 17.3903 9.55806 17.2731C9.67527 17.1558 9.83424 17.09 10 17.09C10.1658 17.09 10.3247 17.1558 10.4419 17.2731C10.5592 17.3903 10.625 17.5492 10.625 17.715V22.59C10.625 22.7706 10.6606 22.9494 10.7297 23.1162C10.7988 23.283 10.9 23.4346 11.0277 23.5623C11.1554 23.69 11.307 23.7912 11.4738 23.8603C11.6406 23.9294 11.8194 23.965 12 23.965H21.6687C22.1069 23.9646 22.5313 24.1174 22.8687 24.3969L25.8512 26.8919C25.9425 26.9675 26.0533 27.0156 26.1708 27.0306C26.2884 27.0456 26.4077 27.0269 26.515 26.9766C26.6223 26.9264 26.7132 26.8467 26.7769 26.7468C26.8406 26.6469 26.8746 26.531 26.875 26.4125V12.625C26.875 12.2603 26.7301 11.9106 26.4723 11.6527C26.2144 11.3949 25.8647 11.25 25.5 11.25H22.5C22.3342 11.25 22.1753 11.1842 22.0581 11.0669C21.9408 10.9497 21.875 10.7908 21.875 10.625C21.875 10.4592 21.9408 10.3003 22.0581 10.1831C22.1753 10.0658 22.3342 10 22.5 10H25.5C26.1962 10 26.8639 10.2766 27.3562 10.7688C27.8484 11.2611 28.125 11.9288 28.125 12.625V26.4125C28.1267 26.7694 28.0256 27.1192 27.8338 27.4201C27.6419 27.7211 27.3674 27.9604 27.0431 28.1094C26.7935 28.2264 26.5213 28.2872 26.2456 28.2875Z" fill="black"/>
<path d="M12.5 14.375C12.3342 14.375 12.1753 14.3092 12.0581 14.1919C11.9408 14.0747 11.875 13.9158 11.875 13.75V9.375C11.7092 9.375 11.5503 9.30915 11.4331 9.19194C11.3158 9.07473 11.25 8.91576 11.25 8.75C11.25 8.58424 11.3158 8.42527 11.4331 8.30806C11.5503 8.19085 11.7092 8.125 11.875 8.125H12.5C12.6658 8.125 12.8247 8.19085 12.9419 8.30806C13.0592 8.42527 13.125 8.58424 13.125 8.75V13.75C13.125 13.9158 13.0592 14.0747 12.9419 14.1919C12.8247 14.3092 12.6658 14.375 12.5 14.375Z" fill="black"/>
<path d="M13.4375 14.375H11.5625C11.3967 14.375 11.2378 14.3092 11.1206 14.1919C11.0033 14.0747 10.9375 13.9158 10.9375 13.75C10.9375 13.5842 11.0033 13.4253 11.1206 13.3081C11.2378 13.1908 11.3967 13.125 11.5625 13.125H13.4375C13.6033 13.125 13.7622 13.1908 13.8794 13.3081C13.9967 13.4253 14.0625 13.5842 14.0625 13.75C14.0625 13.9158 13.9967 14.0747 13.8794 14.1919C13.7622 14.3092 13.6033 14.375 13.4375 14.375Z" fill="black"/>
<path d="M12.5 7.1875C13.0178 7.1875 13.4375 6.76777 13.4375 6.25C13.4375 5.73223 13.0178 5.3125 12.5 5.3125C11.9822 5.3125 11.5625 5.73223 11.5625 6.25C11.5625 6.76777 11.9822 7.1875 12.5 7.1875Z" fill="black"/>
<path d="M4 21.5044C3.43641 21.5044 2.89591 21.2805 2.4974 20.882C2.09888 20.4835 1.875 19.943 1.875 19.3794V4.5C1.875 3.80381 2.15156 3.13613 2.64384 2.64384C3.13613 2.15156 3.80381 1.875 4.5 1.875H20.5C21.1962 1.875 21.8639 2.15156 22.3562 2.64384C22.8484 3.13613 23.125 3.80381 23.125 4.5V15.7094C23.125 16.4056 22.8484 17.0732 22.3562 17.5655C21.8639 18.0578 21.1962 18.3344 20.5 18.3344H10.0519C9.57639 18.334 9.11182 18.4768 8.71875 18.7444L5.19313 21.1369C4.84118 21.3761 4.42553 21.5041 4 21.5044ZM4.5 3.125C4.13533 3.125 3.78559 3.26987 3.52773 3.52773C3.26987 3.78559 3.125 4.13533 3.125 4.5V19.3787C3.12495 19.5378 3.16822 19.6938 3.25017 19.83C3.33212 19.9663 3.44965 20.0776 3.59013 20.1521C3.73061 20.2266 3.88872 20.2614 4.04749 20.2528C4.20626 20.2441 4.35967 20.1924 4.49125 20.1031L8.01687 17.71C8.6171 17.3021 9.32619 17.0844 10.0519 17.085H20.5C20.8647 17.085 21.2144 16.9401 21.4723 16.6823C21.7301 16.4244 21.875 16.0747 21.875 15.71V4.5C21.875 4.13533 21.7301 3.78559 21.4723 3.52773C21.2144 3.26987 20.8647 3.125 20.5 3.125H4.5Z" fill="#652DBF"/>
</svg>
