<svg width="51" height="50" viewBox="0 0 51 50" fill="none" xmlns="http://www.w3.org/2000/svg">
<mask id="mask0_758_1875" style="mask-type:luminance" maskUnits="userSpaceOnUse" x="0" y="0" width="51" height="51">
<path d="M50.0098 0.490234H0.990234V50.4902H50.0098V0.490234Z" fill="white"/>
</mask>
<g mask="url(#mask0_758_1875)">
<path d="M2.25586 42.7386V48.4681C2.25586 49.0469 2.71884 49.4519 3.29759 49.5098H34.2603C34.8391 49.5098 35.2442 49.0469 35.3021 48.4681V42.7386C35.3021 35.9094 30.7879 29.9483 24.2481 28.0385C26.2737 26.9389 27.8942 25.2026 28.878 23.177C29.7461 23.8715 30.73 24.3924 31.7139 24.7396V26.0129C31.7139 27.4597 32.8714 28.6751 34.3761 28.6751H36.6911C38.138 28.6751 39.3534 27.5176 39.3534 26.0129V24.7396C40.5109 24.3345 41.5526 23.6979 42.5365 22.9454L43.6361 23.5821C44.9094 24.2766 46.5299 23.8714 47.2243 22.5983L48.3818 20.6305C49.1342 19.3573 48.6711 17.7368 47.398 16.9845L46.2983 16.3478C46.4141 15.7691 46.472 15.1324 46.472 14.5537C46.472 13.9749 46.4141 13.3383 46.2983 12.7595L47.398 12.1229C48.6712 11.4284 49.1342 9.80788 48.3818 8.53469C48.3239 8.4768 48.1502 8.18748 47.2243 6.56699C46.4719 5.2937 44.9093 4.88861 43.6361 5.58314L42.5365 6.21978C41.6105 5.46736 40.5109 4.83084 39.3534 4.42563V3.15246C39.3534 1.70564 38.1958 0.490234 36.6911 0.490234H34.3761C32.9293 0.490234 31.7139 1.64774 31.7139 3.15246V4.42574C30.5564 4.83084 29.5147 5.46749 28.5308 6.2199L27.4312 5.58326C26.1579 4.88872 24.5374 5.29394 23.843 6.56711L23.0328 7.95605C21.7017 7.37729 20.2548 7.14586 18.808 7.14586C12.6733 7.14586 7.6382 12.0652 7.6382 18.1998C7.6382 22.251 9.83745 26.0129 13.3677 27.9806C6.77012 29.8904 2.25586 35.9094 2.25586 42.7386ZM25.5213 7.60884C25.6951 7.31953 26.0422 7.20375 26.3895 7.37729L28.1257 8.36115C28.5308 8.5927 28.9938 8.5348 29.3411 8.24537C30.3829 7.26152 31.5983 6.56699 32.9872 6.16189C33.3923 6.04612 33.7396 5.64103 33.7396 5.17805V3.21035C33.7396 2.86315 34.0289 2.5737 34.3762 2.5737H36.6912C37.0385 2.5737 37.3279 2.86303 37.3279 3.21035V5.17805C37.3279 5.64103 37.6172 6.04612 38.0804 6.16189C39.4114 6.56699 40.6847 7.26152 41.7264 8.24537C42.0736 8.53469 42.5366 8.59258 42.9418 8.36115L44.6781 7.37729C44.9674 7.20363 45.3726 7.31941 45.5461 7.60884L46.7034 9.57654C46.8771 9.86582 46.7613 10.2711 46.4718 10.3867L44.7356 11.3705C44.3305 11.6021 44.1568 12.0651 44.2726 12.4702C44.6199 13.8592 44.6199 15.2482 44.2726 16.6371C44.1568 17.1001 44.3884 17.5631 44.7356 17.7368L46.4718 18.7206C46.7612 18.8943 46.8769 19.2415 46.7034 19.5887L45.5459 21.5564C45.3722 21.8457 45.0251 21.9615 44.7357 21.788L42.9995 20.8041C42.5944 20.5725 42.1314 20.6304 41.7841 20.9198C40.7423 21.9037 39.5269 22.5983 38.138 23.0034C37.675 23.1192 37.3855 23.5242 37.3855 23.9872V25.9548C37.3855 26.3021 37.0962 26.5915 36.7489 26.5915H34.4339C34.0867 26.5915 33.7972 26.3022 33.7972 25.9548V23.9872C33.7972 23.5242 33.5079 23.1192 33.0449 23.0034C31.7715 22.6561 30.6142 22.0194 29.6302 21.1514C29.8617 20.2254 29.9774 19.1258 29.9774 18.3155C29.9774 14.38 27.8939 10.9076 24.8266 8.9399L25.5213 7.60884ZM9.6059 18.2576C9.6059 13.2226 13.715 9.17133 18.7501 9.17133C23.7853 9.17133 27.8943 13.2804 27.8943 18.2576C27.8943 23.0034 24.3061 27.4018 18.6922 27.4018C13.715 27.4018 9.6059 23.2928 9.6059 18.2576ZM17.5926 29.4274C17.7084 29.4274 20.0233 29.4274 19.9076 29.4274C27.2576 29.4274 33.2188 35.3885 33.2188 42.7386V47.4264H4.28144V42.7386C4.28144 35.3885 10.2425 29.4274 17.5926 29.4274Z" fill="white"/>
<path d="M35.4754 20.2254C38.6006 20.2254 41.0892 17.6789 41.0892 14.5537C41.0892 11.4285 38.5427 8.93994 35.4175 8.93994C32.2923 8.93994 29.8037 11.4864 29.8037 14.6116C29.8037 17.6788 32.3502 20.2254 35.4754 20.2254ZM35.4754 10.9654C37.501 10.9654 39.0636 12.6438 39.0636 14.6114C39.0636 16.637 37.3852 18.1997 35.4175 18.1997C33.4498 18.1997 31.8293 16.5792 31.8293 14.5536C31.8293 12.528 33.4498 10.9075 35.4754 10.9654Z" fill="#1AD079"/>
</g>
</svg>
