<svg width="20" height="20" viewBox="0 0 20 20" fill="none" xmlns="http://www.w3.org/2000/svg">
<g clip-path="url(#clip0_1508_527)">
<path d="M19.168 16.5117H18.9883V6.25781C18.9883 5.79297 18.6094 5.41016 18.1445 5.41016H17.6758V3.21875V1.28125C17.6758 0.898437 17.3633 0.585938 16.9805 0.585938H3.02344C2.64062 0.585938 2.32812 0.898437 2.32812 1.28125V3.21875V5.41016H1.85937C1.39453 5.41016 1.01563 5.78906 1.01563 6.25391V16.5078H0.835938C0.707031 16.5078 0.601562 16.6133 0.601562 16.7422V17.9609C0.601562 18.7617 1.25391 19.4141 2.05469 19.4141H17.9531C18.7539 19.4141 19.4062 18.7617 19.4062 17.9609V16.7422C19.4023 16.6172 19.2969 16.5117 19.168 16.5117ZM2.79687 1.28125C2.79687 1.15625 2.89844 1.05469 3.02344 1.05469H16.9766C17.1016 1.05469 17.2031 1.15625 17.2031 1.28125V2.98438H2.79687V1.28125ZM1.48438 6.25391C1.48438 6.04688 1.65234 5.87891 1.85937 5.87891H2.32812V15.293C2.32812 15.4219 2.43359 15.5273 2.5625 15.5273H6.91797C7.00391 16.0508 7.46094 16.4492 8.00781 16.4492H8.02344C8.25 16.4492 8.46875 16.3789 8.65625 16.25C8.76172 16.1758 8.78906 16.0313 8.71484 15.9219C8.64063 15.8125 8.49609 15.7891 8.38672 15.8633C8.28125 15.9375 8.15234 15.9766 8.02344 15.9766H8.00781C7.65625 15.9766 7.37109 15.6914 7.37109 15.3398V15.2344C7.37109 14.8828 7.65625 14.5977 8.00781 14.5977H8.02344C8.15234 14.5977 8.27734 14.6367 8.38672 14.7109C8.49219 14.7852 8.64063 14.7578 8.71484 14.6523C8.78906 14.5469 8.76172 14.3984 8.65625 14.3242C8.46875 14.1953 8.25 14.125 8.02344 14.125H8.00781C7.46094 14.125 7.00391 14.5273 6.91797 15.0469H2.79687V3.45313H17.1992V15.0625H13.0938V14.3711C13.0938 14.2695 13.0273 14.1758 12.9297 14.1484C12.832 14.1172 12.7266 14.1563 12.668 14.2383L12 15.207L11.332 14.2383C11.2734 14.1523 11.168 14.1172 11.0703 14.1484C10.9727 14.1797 10.9063 14.2695 10.9063 14.3711V16.2188C10.9063 16.3477 11.0117 16.4531 11.1406 16.4531C11.2695 16.4531 11.375 16.3477 11.375 16.2188V15.125L11.8086 15.7539C11.8516 15.8164 11.9258 15.8555 12 15.8555C12.0781 15.8555 12.1484 15.8164 12.1914 15.7539L12.625 15.125V16.2188C12.625 16.3477 12.7305 16.4531 12.8594 16.4531C12.9883 16.4531 13.0938 16.3477 13.0938 16.2188V15.5313H17.4375C17.5664 15.5313 17.6719 15.4258 17.6719 15.2969V5.88281H18.1406C18.3477 5.88281 18.5156 6.05078 18.5156 6.26172V16.5156H12.3203C12.1914 16.5156 12.0859 16.6211 12.0859 16.75V16.9805C12.0859 17.2539 11.8633 17.4766 11.5898 17.4766H8.41406C8.14062 17.4766 7.91797 17.2539 7.91797 16.9805V16.75C7.91797 16.6211 7.8125 16.5156 7.68359 16.5156H1.48438V6.25391ZM18.9336 17.9609C18.9336 18.5039 18.4922 18.9453 17.9492 18.9453H2.05078C1.50781 18.9453 1.06641 18.5039 1.06641 17.9609V16.9766H7.44531C7.44922 17.5078 7.87891 17.9375 8.41016 17.9375H11.5859C12.1172 17.9375 12.5469 17.5078 12.5508 16.9766H18.9297V17.9609H18.9336Z" fill="white"/>
<path d="M14.7187 7.80469L13.9609 7.78125C13.875 7.48047 13.7539 7.19141 13.6016 6.91797L14.1211 6.36328C14.2383 6.23828 14.2344 6.04688 14.1133 5.92969L12.9844 4.80078C12.8633 4.67969 12.6719 4.67969 12.5508 4.79297L11.9961 5.3125C11.7227 5.16016 11.4336 5.04297 11.1328 4.95703L11.1094 4.19922C11.1055 4.03125 10.9688 3.89453 10.7969 3.89453H9.19922C9.03125 3.89453 8.89062 4.02734 8.88672 4.19922L8.86328 4.95703C8.5625 5.04297 8.27344 5.16406 8 5.31641L7.44922 4.79688C7.32422 4.67969 7.13281 4.68359 7.01563 4.80469L5.88672 5.93359C5.76562 6.05469 5.76172 6.24609 5.87891 6.37109L6.39844 6.92188C6.24609 7.19531 6.125 7.48438 6.03906 7.78516L5.28125 7.80859C5.10937 7.8125 4.97656 7.94922 4.97656 8.12109V9.71875C4.97656 9.89063 5.10937 10.0273 5.28125 10.0312L6.03906 10.0547C6.125 10.3555 6.24609 10.6445 6.39844 10.918L5.87891 11.4688C5.76172 11.5938 5.76562 11.7852 5.88672 11.9023L7.01563 13.0313C7.13672 13.1523 7.32812 13.1523 7.44922 13.0391L8 12.5195C8.27344 12.6719 8.5625 12.793 8.86328 12.8789L8.88672 13.6367C8.89062 13.8086 9.02734 13.9414 9.19922 13.9414H10.7969C10.9648 13.9414 11.1055 13.8086 11.1094 13.6367L11.1328 12.8789C11.4336 12.793 11.7227 12.6719 11.9961 12.5234L12.5508 13.043C12.6758 13.1602 12.8672 13.1563 12.9844 13.0352L14.1133 11.9062C14.2344 11.7852 14.2344 11.5938 14.1211 11.4727L13.6016 10.918C13.7539 10.6445 13.875 10.3555 13.9609 10.0547L14.7187 10.0312C14.8867 10.0273 15.0234 9.89063 15.0234 9.71875V8.12109C15.0195 7.94922 14.8867 7.8125 14.7187 7.80469ZM14.5508 9.5625L13.8281 9.58594C13.6875 9.58984 13.5703 9.68359 13.5352 9.82031C13.4492 10.1562 13.3164 10.4766 13.1406 10.7773C13.0703 10.8984 13.0859 11.0469 13.1797 11.1523L13.6758 11.6797L12.7617 12.5937L12.2344 12.0977C12.1328 12 11.9805 11.9844 11.8594 12.0586C11.5625 12.2344 11.2383 12.3672 10.9023 12.4531C10.7656 12.4883 10.6719 12.6055 10.668 12.7461L10.6445 13.4687H9.35156L9.32813 12.7461C9.32422 12.6055 9.23047 12.4883 9.09375 12.4531C8.75781 12.3672 8.43359 12.2344 8.13672 12.0586C8.01563 11.9883 7.86328 12.0039 7.76172 12.1016L7.23437 12.5977L6.32422 11.6797L6.82031 11.1523C6.91797 11.0508 6.93359 10.8984 6.86328 10.7773C6.6875 10.4805 6.55078 10.1562 6.46484 9.82031C6.42969 9.68359 6.3125 9.58984 6.17187 9.58594L5.44922 9.5625V8.26953L6.17187 8.24609C6.3125 8.24219 6.42969 8.14844 6.46484 8.01172C6.55078 7.67578 6.68359 7.35156 6.86328 7.05469C6.93359 6.93359 6.91797 6.78125 6.82031 6.67969L6.32422 6.15234L7.23828 5.23828L7.76563 5.73438C7.86719 5.83203 8.01953 5.84766 8.14062 5.77734C8.4375 5.60156 8.76172 5.46484 9.09766 5.37891C9.23437 5.34375 9.32812 5.22656 9.33203 5.08594L9.35547 4.36328H10.6484L10.6719 5.08594C10.6758 5.22656 10.7695 5.34375 10.9063 5.37891C11.2422 5.46484 11.5664 5.59766 11.8633 5.77344C11.9844 5.84375 12.1328 5.82813 12.2383 5.73438L12.7656 5.23828L13.6797 6.15234L13.1836 6.67969C13.0859 6.78125 13.0703 6.93359 13.1445 7.05469C13.3203 7.35156 13.4531 7.67578 13.5391 8.01172C13.5742 8.14844 13.6914 8.24219 13.832 8.24609L14.5547 8.26953V9.5625H14.5508Z" fill="white"/>
<path d="M11.6797 7.23926C10.7539 6.31348 9.24609 6.31348 8.32031 7.23926C7.87109 7.68848 7.625 8.28613 7.625 8.91895C7.625 9.55176 7.87109 10.1494 8.32031 10.5986C8.78516 11.0635 9.39063 11.2939 10 11.2939C10.6094 11.2939 11.2188 11.0635 11.6797 10.5986C12.1289 10.1494 12.375 9.55176 12.375 8.91895C12.375 8.28613 12.1289 7.68457 11.6797 7.23926ZM11.3477 10.2666C10.6055 11.0088 9.39453 11.0088 8.64844 10.2666C8.28906 9.90723 8.08984 9.42676 8.08984 8.91895C8.08984 8.40723 8.28906 7.93066 8.64844 7.57129C9.39062 6.8291 10.6016 6.8291 11.3477 7.57129C11.707 7.93066 11.9062 8.41113 11.9062 8.91895C11.9062 9.42676 11.7109 9.90723 11.3477 10.2666Z" fill="white"/>
<path d="M10.2656 15.4023C10.4805 15.2852 10.625 15.0547 10.625 14.793C10.625 14.4102 10.3125 14.0977 9.92969 14.0977H9.37109C9.24219 14.0977 9.13672 14.2031 9.13672 14.332V16.1797C9.13672 16.3086 9.24219 16.4141 9.37109 16.4141C9.5 16.4141 9.60547 16.3086 9.60547 16.1797V15.4922H9.78516L10.1836 16.2852C10.2227 16.3672 10.3086 16.4141 10.3945 16.4141C10.4297 16.4141 10.4648 16.4063 10.5 16.3906C10.6172 16.332 10.6641 16.1914 10.6055 16.0781L10.2656 15.4023ZM9.92969 15.0195H9.60547V14.5625H9.92969C10.0547 14.5625 10.1563 14.6641 10.1563 14.7891C10.1563 14.918 10.0547 15.0195 9.92969 15.0195Z" fill="white"/>
</g>
<defs>
<clipPath id="clip0_1508_527">
<rect width="20" height="20" fill="white"/>
</clipPath>
</defs>
</svg>
