<svg width="20" height="20" viewBox="0 0 20 20" fill="none" xmlns="http://www.w3.org/2000/svg">
<g clip-path="url(#clip0_836_2722)">
<path d="M11.5625 17.6563C11.4796 17.6563 11.4001 17.6893 11.3415 17.7479C11.2829 17.8065 11.25 17.886 11.25 17.9688V18.4767C11.2443 18.7199 11.1424 18.951 10.9667 19.1194C10.791 19.2878 10.5558 19.3797 10.3125 19.3751H2.1875C1.9442 19.3797 1.70898 19.2878 1.53329 19.1194C1.3576 18.951 1.25574 18.7199 1.25 18.4767V1.52354C1.25574 1.28026 1.3576 1.04916 1.53329 0.88079C1.70898 0.71242 1.9442 0.620485 2.1875 0.625097H3.75V0.981348C3.75 1.47354 4.09688 1.8751 4.52344 1.8751H7.97656C8.40312 1.8751 8.75 1.47354 8.75 0.981348V0.625097H10.3125C10.5558 0.620485 10.791 0.71242 10.9667 0.88079C11.1424 1.04916 11.2443 1.28026 11.25 1.52354V7.65635C11.25 7.73923 11.2829 7.81871 11.3415 7.87732C11.4001 7.93592 11.4796 7.96885 11.5625 7.96885C11.6454 7.96885 11.7249 7.93592 11.7835 7.87732C11.8421 7.81871 11.875 7.73923 11.875 7.65635V1.52354C11.8692 1.1145 11.7015 0.724443 11.4086 0.438869C11.1157 0.153294 10.7215 -0.00449305 10.3125 9.74289e-05H2.1875C1.77845 -0.00449305 1.38427 0.153294 1.09138 0.438869C0.798479 0.724443 0.630765 1.1145 0.625 1.52354V18.4767C0.630765 18.8857 0.798479 19.2758 1.09138 19.5613C1.38427 19.8469 1.77845 20.0047 2.1875 20.0001H10.3125C10.7215 20.0047 11.1157 19.8469 11.4086 19.5613C11.7015 19.2758 11.8692 18.8857 11.875 18.4767V17.9688C11.875 17.886 11.8421 17.8065 11.7835 17.7479C11.7249 17.6893 11.6454 17.6563 11.5625 17.6563ZM8.125 0.981348C8.125 1.1376 8.03594 1.2501 7.97656 1.2501H4.52344C4.46406 1.2501 4.375 1.14228 4.375 0.981348V0.625097H8.125V0.981348Z" fill="#652DBF"/>
<path d="M6.33333 3.33325C5.87184 3.33325 5.42072 3.4701 5.037 3.72649C4.65329 3.98288 4.35422 4.3473 4.17762 4.77366C4.00101 5.20002 3.9548 5.66917 4.04484 6.1218C4.13487 6.57442 4.3571 6.99018 4.68342 7.3165C5.00974 7.64282 5.4255 7.86505 5.87812 7.95508C6.33075 8.04512 6.7999 7.99891 7.22626 7.8223C7.65262 7.6457 8.01704 7.34663 8.27343 6.96291C8.52982 6.5792 8.66667 6.12807 8.66667 5.66658C8.66667 5.04775 8.42083 4.45425 7.98325 4.01667C7.54566 3.57908 6.95217 3.33325 6.33333 3.33325ZM5.10177 7.29335C5.12049 6.97941 5.2584 6.68447 5.4873 6.46881C5.71621 6.25315 6.01884 6.13304 6.33333 6.13304C6.64783 6.13304 6.95046 6.25315 7.17936 6.46881C7.40827 6.68447 7.54618 6.97941 7.5649 7.29335C7.21066 7.56232 6.77811 7.70793 6.33333 7.70793C5.88856 7.70793 5.45601 7.56232 5.10177 7.29335ZM5.715 5.2145C5.71514 5.09224 5.75153 4.97276 5.81956 4.87117C5.88759 4.76958 5.98421 4.69044 6.09721 4.64376C6.21021 4.59707 6.33451 4.58493 6.45441 4.60887C6.57431 4.63281 6.68442 4.69176 6.77082 4.77826C6.85722 4.86477 6.91604 4.97494 6.93984 5.09487C6.96364 5.21479 6.95135 5.33908 6.90453 5.45202C6.85771 5.56497 6.77845 5.6615 6.67679 5.72941C6.57512 5.79732 6.4556 5.83356 6.33333 5.83356C6.1694 5.83337 6.01224 5.76816 5.89632 5.65225C5.7804 5.53633 5.71519 5.37916 5.715 5.21523V5.2145ZM7.82958 7.05346C7.77741 6.80301 7.66332 6.56962 7.49774 6.37461C7.33215 6.1796 7.12035 6.02919 6.88167 5.93711C7.03327 5.8218 7.14487 5.66183 7.20075 5.47974C7.25662 5.29765 7.25395 5.10262 7.19311 4.92213C7.13227 4.74163 7.01633 4.58478 6.86163 4.47367C6.70692 4.36256 6.52125 4.3028 6.33078 4.3028C6.14031 4.3028 5.95464 4.36256 5.79994 4.47367C5.64523 4.58478 5.52929 4.74163 5.46845 4.92213C5.40761 5.10262 5.40494 5.29765 5.46082 5.47974C5.51669 5.66183 5.62829 5.8218 5.7799 5.93711C5.54122 6.02919 5.32941 6.1796 5.16382 6.37461C4.99824 6.56962 4.88415 6.80301 4.83198 7.05346C4.5612 6.76241 4.38128 6.39863 4.3143 6.00678C4.24731 5.61493 4.29618 5.21205 4.45491 4.84758C4.61364 4.48311 4.87532 4.1729 5.20783 3.95504C5.54035 3.73717 5.92924 3.62111 6.32677 3.62111C6.72431 3.62111 7.11319 3.73717 7.44571 3.95504C7.77822 4.1729 8.0399 4.48311 8.19863 4.84758C8.35736 5.21205 8.40623 5.61493 8.33925 6.00678C8.27226 6.39863 8.09234 6.76241 7.82156 7.05346H7.82958Z" fill="black"/>
<line x1="4.25" y1="9.75" x2="8.75" y2="9.75" stroke="black" stroke-width="0.5" stroke-linecap="round"/>
<line x1="4.25" y1="13.75" x2="8.75" y2="13.75" stroke="black" stroke-width="0.5" stroke-linecap="round"/>
<path d="M3 12L10 12" stroke="black" stroke-width="0.5" stroke-linecap="round"/>
<mask id="path-6-inside-1_836_2722" fill="white">
<path d="M18.3496 11.4414C18.3496 11.3668 18.32 11.2953 18.2672 11.2425C18.2145 11.1898 18.143 11.1601 18.0684 11.1601H17.1754C17.1168 10.9963 17.0091 10.8546 16.8668 10.7543C16.7246 10.6541 16.5549 10.6003 16.3809 10.6003C16.2069 10.6003 16.0371 10.6541 15.8949 10.7543C15.7527 10.8546 15.6449 10.9963 15.5863 11.1601H11.8809C11.8063 11.1601 11.7347 11.1898 11.682 11.2425C11.6292 11.2953 11.5996 11.3668 11.5996 11.4414C11.5996 11.516 11.6292 11.5875 11.682 11.6403C11.7347 11.693 11.8063 11.7226 11.8809 11.7226H15.5863C15.6449 11.8865 15.7527 12.0282 15.8949 12.1284C16.0371 12.2286 16.2069 12.2824 16.3809 12.2824C16.5549 12.2824 16.7246 12.2286 16.8668 12.1284C17.0091 12.0282 17.1168 11.8865 17.1754 11.7226H18.0684C18.143 11.7226 18.2145 11.693 18.2672 11.6403C18.32 11.5875 18.3496 11.516 18.3496 11.4414ZM16.3809 11.7226C16.3252 11.7226 16.2709 11.7061 16.2246 11.6752C16.1784 11.6443 16.1423 11.6004 16.121 11.549C16.0997 11.4976 16.0942 11.4411 16.105 11.3865C16.1159 11.332 16.1427 11.2818 16.182 11.2425C16.2213 11.2032 16.2714 11.1764 16.326 11.1655C16.3805 11.1547 16.4371 11.1603 16.4885 11.1815C16.5399 11.2028 16.5838 11.2389 16.6147 11.2851C16.6456 11.3314 16.6621 11.3858 16.6621 11.4414C16.6621 11.516 16.6325 11.5875 16.5797 11.6403C16.527 11.693 16.4555 11.7226 16.3809 11.7226Z"/>
</mask>
<path d="M18.3496 11.4414C18.3496 11.3668 18.32 11.2953 18.2672 11.2425C18.2145 11.1898 18.143 11.1601 18.0684 11.1601H17.1754C17.1168 10.9963 17.0091 10.8546 16.8668 10.7543C16.7246 10.6541 16.5549 10.6003 16.3809 10.6003C16.2069 10.6003 16.0371 10.6541 15.8949 10.7543C15.7527 10.8546 15.6449 10.9963 15.5863 11.1601H11.8809C11.8063 11.1601 11.7347 11.1898 11.682 11.2425C11.6292 11.2953 11.5996 11.3668 11.5996 11.4414C11.5996 11.516 11.6292 11.5875 11.682 11.6403C11.7347 11.693 11.8063 11.7226 11.8809 11.7226H15.5863C15.6449 11.8865 15.7527 12.0282 15.8949 12.1284C16.0371 12.2286 16.2069 12.2824 16.3809 12.2824C16.5549 12.2824 16.7246 12.2286 16.8668 12.1284C17.0091 12.0282 17.1168 11.8865 17.1754 11.7226H18.0684C18.143 11.7226 18.2145 11.693 18.2672 11.6403C18.32 11.5875 18.3496 11.516 18.3496 11.4414ZM16.3809 11.7226C16.3252 11.7226 16.2709 11.7061 16.2246 11.6752C16.1784 11.6443 16.1423 11.6004 16.121 11.549C16.0997 11.4976 16.0942 11.4411 16.105 11.3865C16.1159 11.332 16.1427 11.2818 16.182 11.2425C16.2213 11.2032 16.2714 11.1764 16.326 11.1655C16.3805 11.1547 16.4371 11.1603 16.4885 11.1815C16.5399 11.2028 16.5838 11.2389 16.6147 11.2851C16.6456 11.3314 16.6621 11.3858 16.6621 11.4414C16.6621 11.516 16.6325 11.5875 16.5797 11.6403C16.527 11.693 16.4555 11.7226 16.3809 11.7226Z" fill="#652DBF"/>
<path d="M17.1754 11.1601L13.4087 12.5063L14.3572 15.1601H17.1754V11.1601ZM15.5863 11.1601V15.1601H18.4045L19.353 12.5063L15.5863 11.1601ZM11.5996 11.4414H15.5996H11.5996ZM15.5863 11.7226L19.353 10.3764L18.4045 7.72263H15.5863V11.7226ZM17.1754 11.7226V7.72263H14.3572L13.4087 10.3764L17.1754 11.7226ZM22.3496 11.4414C22.3496 10.3059 21.8986 9.21698 21.0957 8.41408L15.4388 14.0709C14.7414 13.3735 14.3496 12.4276 14.3496 11.4414H22.3496ZM21.0957 8.41408C20.2928 7.61118 19.2038 7.16013 18.0684 7.16013V15.1601C17.0821 15.1601 16.1362 14.7683 15.4388 14.0709L21.0957 8.41408ZM18.0684 7.16013H17.1754V15.1601H18.0684V7.16013ZM20.9421 9.81394C20.6059 8.87337 19.9872 8.05971 19.1707 7.48442L14.563 14.0243C14.0309 13.6494 13.6278 13.1192 13.4087 12.5063L20.9421 9.81394ZM19.1707 7.48442C18.3541 6.90913 17.3797 6.60034 16.3809 6.60034V14.6003C15.73 14.6003 15.0951 14.3991 14.563 14.0243L19.1707 7.48442ZM16.3809 6.60034C15.382 6.60034 14.4076 6.90913 13.5911 7.48442L18.1987 14.0243C17.6667 14.3991 17.0317 14.6003 16.3809 14.6003V6.60034ZM13.5911 7.48442C12.7745 8.05971 12.1558 8.87337 11.8197 9.81394L19.353 12.5063C19.134 13.1192 18.7308 13.6494 18.1987 14.0243L13.5911 7.48442ZM15.5863 7.16013H11.8809V15.1601H15.5863V7.16013ZM11.8809 7.16013C10.7454 7.16013 9.65645 7.61118 8.85356 8.41408L14.5104 14.0709C13.813 14.7683 12.8671 15.1601 11.8809 15.1601V7.16013ZM8.85356 8.41408C8.05067 9.21697 7.59961 10.3059 7.59961 11.4414H15.5996C15.5996 12.4277 15.2078 13.3735 14.5104 14.0709L8.85356 8.41408ZM7.59961 11.4414C7.59961 12.5768 8.05067 13.6658 8.85356 14.4687L14.5104 8.81183C15.2078 9.50923 15.5996 10.4551 15.5996 11.4414H7.59961ZM8.85356 14.4687C9.65645 15.2716 10.7454 15.7226 11.8809 15.7226V7.72263C12.8671 7.72263 13.813 8.11442 14.5104 8.81183L8.85356 14.4687ZM11.8809 15.7226H15.5863V7.72263H11.8809V15.7226ZM11.8197 13.0688C12.1558 14.0094 12.7745 14.823 13.5911 15.3983L18.1987 8.8585C18.7308 9.23336 19.134 9.76355 19.353 10.3764L11.8197 13.0688ZM13.5911 15.3983C14.4076 15.9736 15.382 16.2824 16.3809 16.2824V8.28242C17.0317 8.28242 17.6667 8.48363 18.1987 8.8585L13.5911 15.3983ZM16.3809 16.2824C17.3797 16.2824 18.3541 15.9736 19.1707 15.3983L14.563 8.8585C15.0951 8.48363 15.73 8.28242 16.3809 8.28242V16.2824ZM19.1707 15.3983C19.9872 14.823 20.6059 14.0094 20.9421 13.0688L13.4087 10.3764C13.6278 9.76355 14.0309 9.23336 14.563 8.8585L19.1707 15.3983ZM17.1754 15.7226H18.0684V7.72263H17.1754V15.7226ZM18.0684 15.7226C19.2038 15.7226 20.2928 15.2716 21.0957 14.4687L15.4388 8.81183C16.1362 8.11442 17.0821 7.72263 18.0684 7.72263V15.7226ZM21.0957 14.4687C21.8986 13.6658 22.3496 12.5768 22.3496 11.4414H14.3496C14.3496 10.4551 14.7414 9.50924 15.4388 8.81183L21.0957 14.4687ZM16.3809 7.72263C17.1163 7.72263 17.8353 7.94072 18.4469 8.34935L14.0023 15.0011C14.7064 15.4715 15.5341 15.7226 16.3809 15.7226V7.72263ZM18.4469 8.34935C19.0585 8.75799 19.5351 9.33879 19.8165 10.0183L12.4255 13.0797C12.7495 13.862 13.2983 14.5307 14.0023 15.0011L18.4469 8.34935ZM19.8165 10.0183C20.098 10.6978 20.1716 11.4455 20.0282 12.1669L12.1819 10.6061C12.0167 11.4366 12.1015 12.2975 12.4255 13.0797L19.8165 10.0183ZM20.0282 12.1669C19.8847 12.8882 19.5305 13.5509 19.0104 14.0709L13.3536 8.41408C12.7548 9.01282 12.3471 9.77567 12.1819 10.6061L20.0282 12.1669ZM19.0104 14.0709C18.4903 14.591 17.8277 14.9452 17.1064 15.0887L15.5456 7.24239C14.7151 7.40759 13.9523 7.81533 13.3536 8.41408L19.0104 14.0709ZM17.1064 15.0887C16.385 15.2322 15.6373 15.1585 14.9578 14.8771L18.0192 7.48602C17.2369 7.16198 16.3761 7.0772 15.5456 7.24239L17.1064 15.0887ZM14.9578 14.8771C14.2782 14.5956 13.6975 14.119 13.2888 13.5074L19.9406 9.06285C19.4702 8.35879 18.8015 7.81006 18.0192 7.48602L14.9578 14.8771ZM13.2888 13.5074C12.8802 12.8959 12.6621 12.1769 12.6621 11.4414H20.6621C20.6621 10.5946 20.411 9.7669 19.9406 9.06285L13.2888 13.5074ZM12.6621 11.4414C12.6621 10.4551 13.0539 9.50924 13.7513 8.81183L19.4082 14.4687C20.2111 13.6658 20.6621 12.5768 20.6621 11.4414H12.6621ZM13.7513 8.81183C14.4487 8.11442 15.3946 7.72263 16.3809 7.72263V15.7226C17.5163 15.7226 18.6053 15.2716 19.4082 14.4687L13.7513 8.81183Z" fill="#652DBF" mask="url(#path-6-inside-1_836_2722)"/>
<mask id="path-8-inside-2_836_2722" fill="white">
<path d="M17.9287 13.1257C17.9287 13.0511 17.8991 12.9796 17.8463 12.9269C17.7936 12.8741 17.722 12.8445 17.6474 12.8445H13.2389C13.1725 12.6568 13.042 12.4987 12.8703 12.398C12.6986 12.2973 12.4969 12.2605 12.3007 12.2941C12.1045 12.3278 11.9266 12.4297 11.7983 12.5819C11.67 12.7341 11.5996 12.9267 11.5996 13.1257C11.5996 13.3248 11.67 13.5174 11.7983 13.6696C11.9266 13.8218 12.1045 13.9237 12.3007 13.9573C12.4969 13.991 12.6986 13.9542 12.8703 13.8535C13.042 13.7528 13.1725 13.5946 13.2389 13.407H17.6474C17.722 13.407 17.7936 13.3774 17.8463 13.3246C17.8991 13.2719 17.9287 13.2003 17.9287 13.1257ZM12.4443 13.407C12.3887 13.407 12.3343 13.3905 12.2881 13.3596C12.2418 13.3287 12.2058 13.2848 12.1845 13.2334C12.1632 13.182 12.1576 13.1254 12.1685 13.0709C12.1793 13.0163 12.2061 12.9662 12.2454 12.9269C12.2848 12.8875 12.3349 12.8607 12.3895 12.8499C12.444 12.839 12.5006 12.8446 12.552 12.8659C12.6033 12.8872 12.6473 12.9232 12.6782 12.9695C12.7091 13.0157 12.7256 13.0701 12.7256 13.1257C12.7256 13.2003 12.6959 13.2719 12.6432 13.3246C12.5905 13.3774 12.5189 13.407 12.4443 13.407Z"/>
</mask>
<path d="M17.9287 13.1257C17.9287 13.0511 17.8991 12.9796 17.8463 12.9269C17.7936 12.8741 17.722 12.8445 17.6474 12.8445H13.2389C13.1725 12.6568 13.042 12.4987 12.8703 12.398C12.6986 12.2973 12.4969 12.2605 12.3007 12.2941C12.1045 12.3278 11.9266 12.4297 11.7983 12.5819C11.67 12.7341 11.5996 12.9267 11.5996 13.1257C11.5996 13.3248 11.67 13.5174 11.7983 13.6696C11.9266 13.8218 12.1045 13.9237 12.3007 13.9573C12.4969 13.991 12.6986 13.9542 12.8703 13.8535C13.042 13.7528 13.1725 13.5946 13.2389 13.407H17.6474C17.722 13.407 17.7936 13.3774 17.8463 13.3246C17.8991 13.2719 17.9287 13.2003 17.9287 13.1257ZM12.4443 13.407C12.3887 13.407 12.3343 13.3905 12.2881 13.3596C12.2418 13.3287 12.2058 13.2848 12.1845 13.2334C12.1632 13.182 12.1576 13.1254 12.1685 13.0709C12.1793 13.0163 12.2061 12.9662 12.2454 12.9269C12.2848 12.8875 12.3349 12.8607 12.3895 12.8499C12.444 12.839 12.5006 12.8446 12.552 12.8659C12.6033 12.8872 12.6473 12.9232 12.6782 12.9695C12.7091 13.0157 12.7256 13.0701 12.7256 13.1257C12.7256 13.2003 12.6959 13.2719 12.6432 13.3246C12.5905 13.3774 12.5189 13.407 12.4443 13.407Z" fill="#652DBF"/>
<path d="M13.2389 12.8445L9.46762 14.1778L10.4104 16.8445H13.2389V12.8445ZM11.5996 13.1257H15.5996H11.5996ZM13.2389 13.407V9.40698H10.4104L9.46762 12.0737L13.2389 13.407ZM21.9287 13.1257C21.9287 11.9903 21.4776 10.9013 20.6747 10.0984L15.0179 15.7553C14.3205 15.0579 13.9287 14.112 13.9287 13.1257H21.9287ZM20.6747 10.0984C19.8719 9.29553 18.7829 8.84448 17.6474 8.84448V16.8445C16.6612 16.8445 15.7153 16.4527 15.0179 15.7553L20.6747 10.0984ZM17.6474 8.84448H13.2389V16.8445H17.6474V8.84448ZM17.0101 11.5112C16.6292 10.4339 15.8798 9.52593 14.8942 8.94779L10.8464 15.8481C10.2042 15.4714 9.7158 14.8798 9.46762 14.1778L17.0101 11.5112ZM14.8942 8.94779C13.9086 8.36964 12.7504 8.15852 11.6243 8.35174L12.9771 16.2365C12.2433 16.3624 11.4886 16.2249 10.8464 15.8481L14.8942 8.94779ZM11.6243 8.35174C10.4981 8.54496 9.47651 9.13007 8.74003 10.0037L14.8565 15.1601C14.3766 15.7294 13.7109 16.1106 12.9771 16.2365L11.6243 8.35174ZM8.74003 10.0037C8.00355 10.8773 7.59961 11.9831 7.59961 13.1257H15.5996C15.5996 13.8703 15.3364 14.5909 14.8565 15.1601L8.74003 10.0037ZM7.59961 13.1257C7.59961 14.2684 8.00355 15.3742 8.74003 16.2478L14.8565 11.0914C15.3364 11.6606 15.5996 12.3812 15.5996 13.1257H7.59961ZM8.74003 16.2478C9.4765 17.1214 10.4981 17.7065 11.6243 17.8997L12.9771 10.0149C13.7109 10.1408 14.3766 10.5221 14.8565 11.0914L8.74003 16.2478ZM11.6243 17.8997C12.7504 18.0929 13.9086 17.8818 14.8942 17.3037L10.8464 10.4033C11.4886 10.0266 12.2433 9.88903 12.9771 10.0149L11.6243 17.8997ZM14.8942 17.3037C15.8798 16.7255 16.6292 15.8176 17.0101 14.7403L9.46762 12.0737C9.7158 11.3717 10.2041 10.7801 10.8464 10.4033L14.8942 17.3037ZM13.2389 17.407H17.6474V9.40698H13.2389V17.407ZM17.6474 17.407C18.7829 17.407 19.8719 16.9559 20.6747 16.153L15.0179 10.4962C15.7153 9.79877 16.6612 9.40698 17.6474 9.40698V17.407ZM20.6747 16.153C21.4776 15.3501 21.9287 14.2612 21.9287 13.1257H13.9287C13.9287 12.1395 14.3205 11.1936 15.0179 10.4962L20.6747 16.153ZM12.4443 9.40698C13.1798 9.40698 13.8988 9.62508 14.5103 10.0337L10.0658 16.6855C10.7698 17.1559 11.5976 17.407 12.4443 17.407V9.40698ZM14.5103 10.0337C15.1219 10.4423 15.5985 11.0231 15.88 11.7026L8.48896 14.7641C8.813 15.5464 9.36173 16.215 10.0658 16.6855L14.5103 10.0337ZM15.88 11.7026C16.1615 12.3821 16.2351 13.1299 16.0916 13.8512L8.24534 12.2905C8.08014 13.121 8.16493 13.9818 8.48896 14.7641L15.88 11.7026ZM16.0916 13.8512C15.9481 14.5726 15.5939 15.2352 15.0739 15.7553L9.41702 10.0984C8.81828 10.6972 8.41053 11.46 8.24534 12.2905L16.0916 13.8512ZM15.0739 15.7553C14.5538 16.2754 13.8912 16.6295 13.1698 16.773L11.6091 8.92675C10.7786 9.09194 10.0158 9.49968 9.41702 10.0984L15.0739 15.7553ZM13.1698 16.773C12.4484 16.9165 11.7007 16.8429 11.0212 16.5614L14.0827 9.17037C13.3004 8.84634 12.4396 8.76155 11.6091 8.92675L13.1698 16.773ZM11.0212 16.5614C10.3417 16.2799 9.76092 15.8033 9.3523 15.1918L16.0041 10.7472C15.5336 10.0432 14.865 9.49441 14.0827 9.17037L11.0212 16.5614ZM9.3523 15.1918C8.94367 14.5802 8.72557 13.8612 8.72557 13.1257H16.7256C16.7256 12.279 16.4745 11.4512 16.0041 10.7472L9.3523 15.1918ZM8.72557 13.1257C8.72557 12.1395 9.11737 11.1936 9.81477 10.4962L15.4716 16.153C16.2745 15.3501 16.7256 14.2612 16.7256 13.1257H8.72557ZM9.81477 10.4962C10.5122 9.79877 11.4581 9.40698 12.4443 9.40698V17.407C13.5798 17.407 14.6687 16.9559 15.4716 16.153L9.81477 10.4962Z" fill="#652DBF" mask="url(#path-8-inside-2_836_2722)"/>
<mask id="path-10-inside-3_836_2722" fill="white">
<path d="M18.3496 14.8105C18.3496 14.7359 18.32 14.6644 18.2672 14.6116C18.2145 14.5589 18.143 14.5293 18.0684 14.5293H17.1754C17.1168 14.3654 17.0091 14.2237 16.8668 14.1235C16.7246 14.0233 16.5549 13.9695 16.3809 13.9695C16.2069 13.9695 16.0371 14.0233 15.8949 14.1235C15.7527 14.2237 15.6449 14.3654 15.5863 14.5293H11.8809C11.8063 14.5293 11.7347 14.5589 11.682 14.6116C11.6292 14.6644 11.5996 14.7359 11.5996 14.8105C11.5996 14.8851 11.6292 14.9567 11.682 15.0094C11.7347 15.0621 11.8063 15.0918 11.8809 15.0918H15.5863C15.6449 15.2556 15.7527 15.3973 15.8949 15.4976C16.0371 15.5978 16.2069 15.6516 16.3809 15.6516C16.5549 15.6516 16.7246 15.5978 16.8668 15.4976C17.0091 15.3973 17.1168 15.2556 17.1754 15.0918H18.0684C18.143 15.0918 18.2145 15.0621 18.2672 15.0094C18.32 14.9567 18.3496 14.8851 18.3496 14.8105ZM16.3809 15.0918C16.3252 15.0918 16.2709 15.0753 16.2246 15.0444C16.1784 15.0135 16.1423 14.9695 16.121 14.9182C16.0997 14.8668 16.0942 14.8102 16.105 14.7557C16.1159 14.7011 16.1427 14.651 16.182 14.6116C16.2213 14.5723 16.2714 14.5455 16.326 14.5347C16.3805 14.5238 16.4371 14.5294 16.4885 14.5507C16.5399 14.572 16.5838 14.608 16.6147 14.6543C16.6456 14.7005 16.6621 14.7549 16.6621 14.8105C16.6621 14.8851 16.6325 14.9567 16.5797 15.0094C16.527 15.0621 16.4555 15.0918 16.3809 15.0918Z"/>
</mask>
<path d="M18.3496 14.8105C18.3496 14.7359 18.32 14.6644 18.2672 14.6116C18.2145 14.5589 18.143 14.5293 18.0684 14.5293H17.1754C17.1168 14.3654 17.0091 14.2237 16.8668 14.1235C16.7246 14.0233 16.5549 13.9695 16.3809 13.9695C16.2069 13.9695 16.0371 14.0233 15.8949 14.1235C15.7527 14.2237 15.6449 14.3654 15.5863 14.5293H11.8809C11.8063 14.5293 11.7347 14.5589 11.682 14.6116C11.6292 14.6644 11.5996 14.7359 11.5996 14.8105C11.5996 14.8851 11.6292 14.9567 11.682 15.0094C11.7347 15.0621 11.8063 15.0918 11.8809 15.0918H15.5863C15.6449 15.2556 15.7527 15.3973 15.8949 15.4976C16.0371 15.5978 16.2069 15.6516 16.3809 15.6516C16.5549 15.6516 16.7246 15.5978 16.8668 15.4976C17.0091 15.3973 17.1168 15.2556 17.1754 15.0918H18.0684C18.143 15.0918 18.2145 15.0621 18.2672 15.0094C18.32 14.9567 18.3496 14.8851 18.3496 14.8105ZM16.3809 15.0918C16.3252 15.0918 16.2709 15.0753 16.2246 15.0444C16.1784 15.0135 16.1423 14.9695 16.121 14.9182C16.0997 14.8668 16.0942 14.8102 16.105 14.7557C16.1159 14.7011 16.1427 14.651 16.182 14.6116C16.2213 14.5723 16.2714 14.5455 16.326 14.5347C16.3805 14.5238 16.4371 14.5294 16.4885 14.5507C16.5399 14.572 16.5838 14.608 16.6147 14.6543C16.6456 14.7005 16.6621 14.7549 16.6621 14.8105C16.6621 14.8851 16.6325 14.9567 16.5797 15.0094C16.527 15.0621 16.4555 15.0918 16.3809 15.0918Z" fill="#652DBF"/>
<path d="M17.1754 14.5293L13.4087 15.8755L14.3572 18.5293H17.1754V14.5293ZM15.5863 14.5293V18.5293H18.4045L19.353 15.8755L15.5863 14.5293ZM11.5996 14.8105H15.5996H11.5996ZM15.5863 15.0918L19.353 13.7456L18.4045 11.0918H15.5863V15.0918ZM17.1754 15.0918V11.0918H14.3572L13.4087 13.7456L17.1754 15.0918ZM22.3496 14.8105C22.3496 13.6751 21.8986 12.5861 21.0957 11.7832L15.4388 17.4401C14.7414 16.7427 14.3496 15.7968 14.3496 14.8105H22.3496ZM21.0957 11.7832C20.2928 10.9803 19.2038 10.5293 18.0684 10.5293V18.5293C17.0821 18.5293 16.1362 18.1375 15.4388 17.4401L21.0957 11.7832ZM18.0684 10.5293H17.1754V18.5293H18.0684V10.5293ZM20.9421 13.1831C20.6059 12.2425 19.9872 11.4289 19.1707 10.8536L14.563 17.3934C14.0309 17.0185 13.6278 16.4884 13.4087 15.8755L20.9421 13.1831ZM19.1707 10.8536C18.3541 10.2783 17.3797 9.96948 16.3809 9.96948V17.9695C15.73 17.9695 15.0951 17.7683 14.563 17.3934L19.1707 10.8536ZM16.3809 9.96948C15.382 9.96948 14.4076 10.2783 13.5911 10.8536L18.1987 17.3934C17.6667 17.7683 17.0317 17.9695 16.3809 17.9695V9.96948ZM13.5911 10.8536C12.7745 11.4289 12.1558 12.2425 11.8197 13.1831L19.353 15.8755C19.1339 16.4884 18.7308 17.0185 18.1987 17.3934L13.5911 10.8536ZM15.5863 10.5293H11.8809V18.5293H15.5863V10.5293ZM11.8809 10.5293C10.7454 10.5293 9.65645 10.9803 8.85356 11.7832L14.5104 17.4401C13.813 18.1375 12.8671 18.5293 11.8809 18.5293V10.5293ZM8.85356 11.7832C8.05067 12.5861 7.59961 13.6751 7.59961 14.8105H15.5996C15.5996 15.7968 15.2078 16.7427 14.5104 17.4401L8.85356 11.7832ZM7.59961 14.8105C7.59961 15.946 8.05067 17.0349 8.85356 17.8378L14.5104 12.181C15.2078 12.8784 15.5996 13.8242 15.5996 14.8105H7.59961ZM8.85356 17.8378C9.65645 18.6407 10.7454 19.0918 11.8809 19.0918V11.0918C12.8671 11.0918 13.813 11.4836 14.5104 12.181L8.85356 17.8378ZM11.8809 19.0918H15.5863V11.0918H11.8809V19.0918ZM11.8197 16.438C12.1558 17.3785 12.7745 18.1922 13.5911 18.7675L18.1987 12.2276C18.7308 12.6025 19.1339 13.1327 19.353 13.7456L11.8197 16.438ZM13.5911 18.7675C14.4076 19.3428 15.382 19.6516 16.3809 19.6516V11.6516C17.0317 11.6516 17.6667 11.8528 18.1987 12.2276L13.5911 18.7675ZM16.3809 19.6516C17.3797 19.6516 18.3541 19.3428 19.1707 18.7675L14.563 12.2276C15.0951 11.8528 15.73 11.6516 16.3809 11.6516V19.6516ZM19.1707 18.7675C19.9872 18.1922 20.6059 17.3785 20.9421 16.438L13.4087 13.7456C13.6278 13.1327 14.0309 12.6025 14.563 12.2276L19.1707 18.7675ZM17.1754 19.0918H18.0684V11.0918H17.1754V19.0918ZM18.0684 19.0918C19.2038 19.0918 20.2928 18.6407 21.0957 17.8378L15.4388 12.181C16.1362 11.4836 17.0821 11.0918 18.0684 11.0918V19.0918ZM21.0957 17.8378C21.8986 17.0349 22.3496 15.946 22.3496 14.8105H14.3496C14.3496 13.8243 14.7414 12.8784 15.4388 12.181L21.0957 17.8378ZM16.3809 11.0918C17.1163 11.0918 17.8353 11.3099 18.4469 11.7185L14.0023 18.3703C14.7064 18.8407 15.5341 19.0918 16.3809 19.0918V11.0918ZM18.4469 11.7185C19.0584 12.1271 19.5351 12.7079 19.8165 13.3874L12.4255 16.4489C12.7495 17.2312 13.2983 17.8998 14.0023 18.3703L18.4469 11.7185ZM19.8165 13.3874C20.098 14.0669 20.1716 14.8146 20.0282 15.536L12.1819 13.9753C12.0167 14.8058 12.1015 15.6666 12.4255 16.4489L19.8165 13.3874ZM20.0282 15.536C19.8847 16.2574 19.5305 16.92 19.0104 17.4401L13.3536 11.7832C12.7548 12.382 12.3471 13.1448 12.1819 13.9753L20.0282 15.536ZM19.0104 17.4401C18.4903 17.9602 17.8277 18.3143 17.1064 18.4578L15.5456 10.6115C14.7152 10.7767 13.9523 11.1845 13.3536 11.7832L19.0104 17.4401ZM17.1064 18.4578C16.385 18.6013 15.6373 18.5277 14.9578 18.2462L18.0192 10.8552C17.2369 10.5311 16.3761 10.4463 15.5456 10.6115L17.1064 18.4578ZM14.9578 18.2462C14.2783 17.9647 13.6975 17.4881 13.2888 16.8765L19.9406 12.432C19.4701 11.7279 18.8015 11.1792 18.0192 10.8552L14.9578 18.2462ZM13.2888 16.8765C12.8802 16.265 12.6621 15.546 12.6621 14.8105H20.6621C20.6621 13.9638 20.411 13.136 19.9406 12.432L13.2888 16.8765ZM12.6621 14.8105C12.6621 13.8243 13.0539 12.8784 13.7513 12.181L19.4082 17.8378C20.2111 17.0349 20.6621 15.946 20.6621 14.8105H12.6621ZM13.7513 12.181C14.4487 11.4836 15.3946 11.0918 16.3809 11.0918V19.0918C17.5163 19.0918 18.6053 18.6407 19.4082 17.8378L13.7513 12.181Z" fill="#652DBF" mask="url(#path-10-inside-3_836_2722)"/>
<rect x="10.75" y="9.75" width="8.3" height="6.5" rx="1.25" stroke="#652DBF" stroke-width="0.5"/>
</g>
<defs>
<clipPath id="clip0_836_2722">
<rect width="20" height="20" fill="white"/>
</clipPath>
</defs>
</svg>
