<svg width="24" height="24" viewBox="0 0 24 24" fill="none" xmlns="http://www.w3.org/2000/svg">
<g clip-path="url(#clip0_1177_14955)">
<path fill-rule="evenodd" clip-rule="evenodd" d="M8.1406 14.9878C12.5272 14.9878 16.0703 11.4307 16.0703 7.05811C16.0703 11.4307 19.6274 14.9878 24 14.9878C19.6274 14.9878 16.0703 18.5309 16.0703 22.9034C16.0703 18.5309 12.5272 14.9878 8.1406 14.9878Z" fill="white"/>
<path fill-rule="evenodd" clip-rule="evenodd" d="M3.62396e-05 19.0793C2.40425 19.0793 4.3445 17.125 4.3445 14.7349C4.3445 17.125 6.29881 19.0793 8.68896 19.0793C6.29881 19.0793 4.3445 21.0196 4.3445 23.4238C4.3445 21.0196 2.40425 19.0793 3.62396e-05 19.0793Z" fill="white"/>
<path fill-rule="evenodd" clip-rule="evenodd" d="M2.50275 5.86313C5.42718 5.86313 7.78922 3.50109 7.78922 0.57666C7.78922 3.50109 10.1513 5.86313 13.0757 5.86313C10.1513 5.86313 7.78922 8.22517 7.78922 11.1496C7.78922 8.22517 5.42718 5.86313 2.50275 5.86313Z" fill="white"/>
</g>
<defs>
<clipPath id="clip0_1177_14955">
<rect width="24" height="24" fill="white"/>
</clipPath>
</defs>
</svg>
