<svg width="16" height="16" viewBox="0 0 16 16" fill="none" xmlns="http://www.w3.org/2000/svg">
<g clip-path="url(#clip0_1964_8325)">
<path d="M5.33464 9.66671C5.70283 9.66671 6.0013 9.36823 6.0013 9.00004C6.0013 8.63185 5.70283 8.33337 5.33464 8.33337C4.96645 8.33337 4.66797 8.63185 4.66797 9.00004C4.66797 9.36823 4.96645 9.66671 5.33464 9.66671Z" fill="#010E21"/>
<path d="M5.33464 12.3333C5.70283 12.3333 6.0013 12.0349 6.0013 11.6667C6.0013 11.2985 5.70283 11 5.33464 11C4.96645 11 4.66797 11.2985 4.66797 11.6667C4.66797 12.0349 4.96645 12.3333 5.33464 12.3333Z" fill="#010E21"/>
<path d="M8.00065 9.66671C8.36884 9.66671 8.66732 9.36823 8.66732 9.00004C8.66732 8.63185 8.36884 8.33337 8.00065 8.33337C7.63246 8.33337 7.33398 8.63185 7.33398 9.00004C7.33398 9.36823 7.63246 9.66671 8.00065 9.66671Z" fill="#010E21"/>
<path d="M8.00065 12.3333C8.36884 12.3333 8.66732 12.0349 8.66732 11.6667C8.66732 11.2985 8.36884 11 8.00065 11C7.63246 11 7.33398 11.2985 7.33398 11.6667C7.33398 12.0349 7.63246 12.3333 8.00065 12.3333Z" fill="#010E21"/>
<path d="M10.6667 9.66671C11.0349 9.66671 11.3333 9.36823 11.3333 9.00004C11.3333 8.63185 11.0349 8.33337 10.6667 8.33337C10.2985 8.33337 10 8.63185 10 9.00004C10 9.36823 10.2985 9.66671 10.6667 9.66671Z" fill="#010E21"/>
<path d="M10.6667 12.3333C11.0349 12.3333 11.3333 12.0349 11.3333 11.6667C11.3333 11.2985 11.0349 11 10.6667 11C10.2985 11 10 11.2985 10 11.6667C10 12.0349 10.2985 12.3333 10.6667 12.3333Z" fill="#010E21"/>
<path fill-rule="evenodd" clip-rule="evenodd" d="M15.1673 4.33337V13C15.1673 13.6634 14.904 14.2987 14.4353 14.768C13.966 15.2367 13.3307 15.5 12.6673 15.5H3.33398C2.67065 15.5 2.03532 15.2367 1.56598 14.768C1.09732 14.2987 0.833984 13.6634 0.833984 13V4.33337C0.833984 3.67004 1.09732 3.03471 1.56598 2.56537C2.03532 2.09671 2.67065 1.83337 3.33398 1.83337H12.6673C13.3307 1.83337 13.966 2.09671 14.4353 2.56537C14.904 3.03471 15.1673 3.67004 15.1673 4.33337ZM14.1673 4.33337C14.1673 3.93537 14.0093 3.55404 13.728 3.27271C13.4467 2.99137 13.0653 2.83337 12.6673 2.83337H3.33398C2.93598 2.83337 2.55465 2.99137 2.27332 3.27271C1.99198 3.55404 1.83398 3.93537 1.83398 4.33337V13C1.83398 13.398 1.99198 13.7794 2.27332 14.0607C2.55465 14.342 2.93598 14.5 3.33398 14.5H12.6673C13.0653 14.5 13.4467 14.342 13.728 14.0607C14.0093 13.7794 14.1673 13.398 14.1673 13V4.33337Z" fill="#652DBF"/>
<path fill-rule="evenodd" clip-rule="evenodd" d="M14.6673 5.5C14.9433 5.5 15.1673 5.724 15.1673 6C15.1673 6.276 14.9433 6.5 14.6673 6.5H1.33398C1.05798 6.5 0.833984 6.276 0.833984 6C0.833984 5.724 1.05798 5.5 1.33398 5.5H14.6673Z" fill="#652DBF"/>
<path fill-rule="evenodd" clip-rule="evenodd" d="M10.168 1C10.168 0.724 10.392 0.5 10.668 0.5C10.944 0.5 11.168 0.724 11.168 1V3.66667C11.168 3.94267 10.944 4.16667 10.668 4.16667C10.392 4.16667 10.168 3.94267 10.168 3.66667V1Z" fill="#652DBF"/>
<path fill-rule="evenodd" clip-rule="evenodd" d="M4.83398 1C4.83398 0.724 5.05798 0.5 5.33398 0.5C5.60998 0.5 5.83398 0.724 5.83398 1V3.66667C5.83398 3.94267 5.60998 4.16667 5.33398 4.16667C5.05798 4.16667 4.83398 3.94267 4.83398 3.66667V1Z" fill="#652DBF"/>
</g>
<defs>
<clipPath id="clip0_1964_8325">
<rect width="16" height="16" fill="white"/>
</clipPath>
</defs>
</svg>
