<svg width="89" height="89" viewBox="0 0 89 89" fill="none" xmlns="http://www.w3.org/2000/svg">
<rect x="9" y="8.88965" width="79" height="79" rx="14.5" stroke="#652DBF" stroke-dasharray="3 2"/>
<rect x="0.5" y="0.389648" width="80" height="80" rx="15" fill="white"/>
<path d="M34.2385 28.4062H46.4666L48.7107 24.4153C49.2616 23.4478 49.1675 22.2518 48.4688 21.3784C47.7835 20.505 46.6413 20.1421 45.5663 20.4512L38.8475 22.3593L35.73 21.0828C34.6416 20.6393 33.4188 20.9215 32.6394 21.8084C31.86 22.6953 31.7257 23.9315 32.3035 24.9662L34.2385 28.4196V28.4062Z" fill="#652DBF"/>
<path d="M54.8643 51.5222L50.4837 38.2862C49.8387 36.3244 48.4681 34.7522 46.7615 33.7981L45.9956 31.4197H34.6812L33.9018 33.825C33.9018 33.825 33.9018 33.9459 33.8749 34.0131C32.3296 34.9806 31.1068 36.4587 30.5021 38.2862L26.1215 51.5222C25.3824 53.7394 25.7453 56.1044 27.1159 57.9991C28.4865 59.8937 30.6096 60.9822 32.9478 60.9822H48.0112C50.3493 60.9822 52.4724 59.8937 53.8431 57.9991C55.2137 56.1044 55.5765 53.7394 54.8374 51.5222H54.8643ZM42.4078 46.2009C43.0528 46.2009 43.6574 46.4831 44.0606 46.9534C44.4234 47.3834 44.5981 47.9344 44.5443 48.4853V51.2131C44.5846 51.6969 44.4099 52.1537 44.0606 52.4897C43.6709 52.8659 43.1737 52.96 42.7571 52.96C42.5824 52.96 42.4212 52.9466 42.2868 52.9197H41.8568C41.8568 53.6587 41.2521 54.2634 40.5131 54.2634C39.774 54.2634 39.1693 53.6587 39.1693 52.9197H37.8256C37.0865 52.9197 36.4818 52.315 36.4818 51.5759C36.4818 50.8369 37.0865 50.2322 37.8256 50.2322H41.8568V48.8884H38.6184C37.5703 48.8884 36.8715 47.9747 36.5624 47.1281C36.5087 46.9803 36.4818 46.8325 36.4818 46.6712V44.3734C36.4818 43.1506 37.4762 42.1562 38.699 42.1562H39.1693C39.1693 41.4172 39.774 40.8125 40.5131 40.8125C41.2521 40.8125 41.8568 41.4172 41.8568 42.1562H43.2006C43.9396 42.1562 44.5443 42.7609 44.5443 43.5C44.5443 44.2391 43.9396 44.8437 43.2006 44.8437H39.1693V46.1875H42.4078V46.2009Z" fill="#652DBF"/>
</svg>
