<svg width="30" height="30" viewBox="0 0 30 30" fill="none" xmlns="http://www.w3.org/2000/svg">
<path d="M23.8477 0H6.15234C2.75994 0 0 2.75994 0 6.15234V23.8477C0 27.2401 2.75994 30 6.15234 30H23.8477C27.2401 30 30 27.2401 30 23.8477V6.15234C30 2.75994 27.2401 0 23.8477 0ZM21.9553 8.55469L14.9975 15.5124L8.03982 8.55469H21.9553ZM6.02074 19.8066C5.95535 19.6837 5.91797 19.5435 5.91797 19.3945V9.43359C5.91797 9.28465 5.95535 9.14443 6.02074 9.0215L11.4133 14.4141L6.02074 19.8066ZM8.03982 20.2734L12.6562 15.657L14.9976 17.9984L17.3413 15.6546L21.9602 20.2734H8.03982ZM24.082 19.3945C24.082 19.5435 24.0446 19.6837 23.9793 19.8066L18.5842 14.4117L23.9776 9.01822C24.0442 9.14191 24.082 9.2833 24.082 9.43359V19.3945Z" fill="#010E21"/>
</svg>
