<svg width="100" height="100" viewBox="0 0 100 100" fill="none" xmlns="http://www.w3.org/2000/svg">
<g filter="url(#filter0_d_667_42953)">
<rect x="10" y="10" width="80" height="80" rx="40" fill="white" shape-rendering="crispEdges"/>
<g clip-path="url(#clip0_667_42953)">
<path d="M34.3759 61.8674H33.126V63.1174H34.3759V61.8674Z" fill="#652DBF"/>
<path d="M58.062 60.3379L57.437 59.088C57.3705 58.9563 57.2599 58.8522 57.1245 58.7936L52.9747 56.9987L52.6408 55.9632C53.7218 55.0893 54.3746 53.6398 54.3746 51.8676V50.6176V46.8677C54.3746 46.7019 54.3087 46.543 54.1915 46.4259C53.0241 45.4382 51.5274 44.9265 49.9997 44.9928C48.4721 44.9265 46.9755 45.4382 45.808 46.4259C45.6908 46.543 45.6249 46.7019 45.6249 46.8677V50.6176V51.8676C45.6249 53.6392 46.2773 55.0885 47.3578 55.9624L47.0236 56.9987L42.8781 58.7936C42.7427 58.8522 42.6322 58.9563 42.5656 59.088L41.9406 60.3379C41.8973 60.4247 41.8749 60.5203 41.875 60.6173V69.992H43.125V60.7648L43.5812 59.8498L47.3444 58.2206L49.3748 60.251V63.7422H50.6247V60.251L52.6549 58.2209L56.4177 59.8498L56.8745 60.7648V69.992H58.1245V60.6173C58.1256 60.5206 58.1042 60.4249 58.062 60.3379ZM46.8748 47.159C47.7911 46.5261 48.8868 46.2048 49.9997 46.2427C51.1128 46.2048 52.2083 46.526 53.1246 47.159V49.9024C52.8122 49.8202 52.4997 49.6639 52.4997 49.3676C52.4997 49.0225 52.2198 48.7427 51.8747 48.7427H48.1248C47.7797 48.7427 47.4998 49.0225 47.4998 49.3676C47.4998 49.6639 47.1873 49.8201 46.8748 49.9024V47.159ZM49.9998 59.1086L48.2268 57.3356L48.4651 56.5963C48.9346 56.7728 49.4493 56.8674 49.9997 56.8674C50.5499 56.8674 51.0642 56.7729 51.5336 56.5966L51.7723 57.3361L49.9998 59.1086ZM49.9997 55.6174C47.6936 55.6174 46.8748 53.5975 46.8748 51.8676V51.1838C47.6263 51.1122 48.2899 50.6635 48.636 49.9926H51.3635C51.7096 50.6635 52.3732 51.1122 53.1246 51.1838V51.8676C53.1246 53.5975 52.3059 55.6174 49.9997 55.6174Z" fill="#652DBF"/>
<path d="M46.25 66.2424H45V69.9923H46.25V66.2424Z" fill="#010E21"/>
<path d="M55 66.2424H53.75V69.9923H55V66.2424Z" fill="#010E21"/>
<path d="M57.3795 39.6229L50.5048 30.2482C50.4764 30.2132 50.4444 30.1813 50.4094 30.1528C50.1308 29.927 49.7219 29.9696 49.496 30.2482L42.6212 39.6229C42.5423 39.7303 42.4998 39.8602 42.5 39.9936C42.5004 40.3387 42.7805 40.6183 43.1256 40.6179H45.6255V43.1178H46.8755V39.9929C46.8755 39.6478 46.5957 39.3679 46.2505 39.3679H44.3593L50.0004 31.675L55.6415 39.3679H53.7503C53.4051 39.3679 53.1253 39.6478 53.1253 39.9929V43.1178H54.3753V40.6179H56.8752C57.0085 40.618 57.1384 40.5755 57.2459 40.4966C57.5241 40.2923 57.5839 39.9011 57.3795 39.6229Z" fill="#010E21"/>
<path d="M69.8786 48.3727L63.0038 38.998C62.9754 38.963 62.9435 38.931 62.9084 38.9026C62.6298 38.6767 62.2209 38.7194 61.9951 38.998L55.1203 48.3727C55.0414 48.4801 54.9989 48.61 54.999 48.7434C54.9994 49.0885 55.2795 49.368 55.6246 49.3677H58.1246V53.7426H59.3745V48.7427C59.3745 48.3976 59.0947 48.1178 58.7495 48.1178H56.8583L62.4994 40.4249L68.1405 48.1178H66.2493H62.4994V49.3677H65.6243V60.6174H66.8743V49.3677H69.3742C69.5076 49.3679 69.6374 49.3254 69.7449 49.2465C70.0231 49.042 70.0829 48.6509 69.8786 48.3727Z" fill="#652DBF"/>
<path d="M44.8795 48.3727L38.0048 38.998C37.9764 38.963 37.9444 38.931 37.9094 38.9026C37.6308 38.6767 37.2219 38.7194 36.996 38.998L30.1212 48.3727C30.0423 48.4801 29.9998 48.61 30 48.7434C30.0004 49.0885 30.2805 49.368 30.6256 49.3677H33.1255V60.6174H34.3755V49.3677H37.5004V48.1178H33.7505H31.8592L37.5003 40.4249L43.1415 48.1177H41.2503C40.9051 48.1177 40.6253 48.3975 40.6253 48.7427V53.7425H41.8753V49.3676H44.3752C44.5085 49.3678 44.6384 49.3253 44.7459 49.2464C45.0241 49.042 45.0839 48.6509 44.8795 48.3727Z" fill="#652DBF"/>
<path d="M41.875 54.9927H40.625V56.2426H41.875V54.9927Z" fill="#652DBF"/>
<path d="M59.375 54.9927H58.125V56.2426H59.375V54.9927Z" fill="#652DBF"/>
<path d="M66.875 61.8674H65.625V63.1174H66.875V61.8674Z" fill="#652DBF"/>
</g>
</g>
<defs>
<filter id="filter0_d_667_42953" x="0" y="0" width="100" height="100" filterUnits="userSpaceOnUse" color-interpolation-filters="sRGB">
<feFlood flood-opacity="0" result="BackgroundImageFix"/>
<feColorMatrix in="SourceAlpha" type="matrix" values="0 0 0 0 0 0 0 0 0 0 0 0 0 0 0 0 0 0 127 0" result="hardAlpha"/>
<feOffset/>
<feGaussianBlur stdDeviation="5"/>
<feComposite in2="hardAlpha" operator="out"/>
<feColorMatrix type="matrix" values="0 0 0 0 0 0 0 0 0 0 0 0 0 0 0 0 0 0 0.1 0"/>
<feBlend mode="normal" in2="BackgroundImageFix" result="effect1_dropShadow_667_42953"/>
<feBlend mode="normal" in="SourceGraphic" in2="effect1_dropShadow_667_42953" result="shape"/>
</filter>
<clipPath id="clip0_667_42953">
<rect width="40" height="40" fill="white" transform="translate(30 30)"/>
</clipPath>
</defs>
</svg>
