<svg width="100" height="100" viewBox="0 0 100 100" fill="none" xmlns="http://www.w3.org/2000/svg">
<g filter="url(#filter0_d_667_42923)">
<rect x="10" y="10" width="80" height="80" rx="40" fill="white" shape-rendering="crispEdges"/>
<g clip-path="url(#clip0_667_42923)">
<path d="M39.377 36.8755V31.196H50.7638V36.8755" stroke="#652DBF" stroke-miterlimit="10" stroke-linecap="round" stroke-linejoin="round"/>
<path d="M49.3805 56.6445H31.1719V41.0027" stroke="#652DBF" stroke-miterlimit="10" stroke-linecap="round" stroke-linejoin="round"/>
<path d="M58.9688 41.0027V49.1268" stroke="#652DBF" stroke-miterlimit="10" stroke-linecap="round" stroke-linejoin="round"/>
<path d="M58.9691 41.0026L55.0397 46.2429H35.0809L31.1719 41.0026V36.8755H58.9691V41.0026Z" stroke="#010E21" stroke-miterlimit="10" stroke-linecap="round" stroke-linejoin="round"/>
<path d="M45.0703 44.3948V48.0913" stroke="#010E21" stroke-miterlimit="10" stroke-linecap="round" stroke-linejoin="round"/>
<path d="M61.1272 58.9448H58.9697V56.834" stroke="#010E21" stroke-miterlimit="10" stroke-linecap="round" stroke-linejoin="round"/>
<path d="M65.9403 65.9161C69.7905 62.066 69.7905 55.8237 65.9403 51.9735C62.0902 48.1234 55.8478 48.1234 51.9977 51.9735C48.1475 55.8237 48.1475 62.066 51.9977 65.9161C55.8478 69.7663 62.0902 69.7663 65.9403 65.9161Z" stroke="#652DBF" stroke-miterlimit="10" stroke-linecap="round" stroke-linejoin="round"/>
<path d="M51.9046 58.9448H49.1514" stroke="#010E21" stroke-miterlimit="10" stroke-linecap="round" stroke-linejoin="round"/>
<path d="M68.7873 58.9448H66.0342" stroke="#010E21" stroke-miterlimit="10" stroke-linecap="round" stroke-linejoin="round"/>
<path d="M58.9697 66.0098V68.763" stroke="#010E21" stroke-miterlimit="10" stroke-linecap="round" stroke-linejoin="round"/>
<path d="M58.9697 49.1267V51.8799" stroke="#010E21" stroke-miterlimit="10" stroke-linecap="round" stroke-linejoin="round"/>
</g>
</g>
<defs>
<filter id="filter0_d_667_42923" x="0" y="0" width="100" height="100" filterUnits="userSpaceOnUse" color-interpolation-filters="sRGB">
<feFlood flood-opacity="0" result="BackgroundImageFix"/>
<feColorMatrix in="SourceAlpha" type="matrix" values="0 0 0 0 0 0 0 0 0 0 0 0 0 0 0 0 0 0 127 0" result="hardAlpha"/>
<feOffset/>
<feGaussianBlur stdDeviation="5"/>
<feComposite in2="hardAlpha" operator="out"/>
<feColorMatrix type="matrix" values="0 0 0 0 0 0 0 0 0 0 0 0 0 0 0 0 0 0 0.1 0"/>
<feBlend mode="normal" in2="BackgroundImageFix" result="effect1_dropShadow_667_42923"/>
<feBlend mode="normal" in="SourceGraphic" in2="effect1_dropShadow_667_42923" result="shape"/>
</filter>
<clipPath id="clip0_667_42923">
<rect width="40" height="40" fill="white" transform="translate(30 30)"/>
</clipPath>
</defs>
</svg>
