<svg width="16" height="17" viewBox="0 0 16 17" fill="none" xmlns="http://www.w3.org/2000/svg">
<g opacity="0.5">
<path d="M8.00065 15.0784C4.31875 15.0784 1.33398 12.0936 1.33398 8.41178C1.33398 4.72988 4.31875 1.74512 8.00065 1.74512C11.6825 1.74512 14.6673 4.72988 14.6673 8.41178C14.6673 12.0936 11.6825 15.0784 8.00065 15.0784ZM8.00065 13.7451C10.9462 13.7451 13.334 11.3573 13.334 8.41178C13.334 5.46626 10.9462 3.07845 8.00065 3.07845C5.05513 3.07845 2.66732 5.46626 2.66732 8.41178C2.66732 11.3573 5.05513 13.7451 8.00065 13.7451ZM8.66732 8.41178H11.334V9.74512H7.33398V5.07845H8.66732V8.41178Z" fill="#343A40"/>
</g>
</svg>
