<svg width="89" height="89" viewBox="0 0 89 89" fill="none" xmlns="http://www.w3.org/2000/svg">
<rect x="9" y="8.88965" width="79" height="79" rx="14.5" stroke="#652DBF" stroke-dasharray="3 2"/>
<rect x="0.5" y="0.389648" width="80" height="80" rx="15" fill="white"/>
<path fill-rule="evenodd" clip-rule="evenodd" d="M29.582 48.4862C29.1621 48.4862 28.7422 48.3182 28.3223 48.1503C27.7344 47.8143 27.3145 47.2264 27.1465 46.6385L21.4355 25.1385C21.2676 24.4667 21.3516 23.7948 21.6875 23.2069C22.0234 22.703 22.5273 22.2831 23.1992 22.0311L38.0645 18.0839C39.4082 17.7479 40.752 18.5038 41.1719 19.8475L46.8828 41.3475C47.2188 42.6913 46.4629 43.951 45.1191 44.455L30.2539 48.4022C30.002 48.4022 29.834 48.4862 29.582 48.4862ZM23.5352 23.1229C23.1992 23.2909 22.8633 23.5428 22.6953 23.7948C22.5273 24.0467 22.4434 24.3827 22.5273 24.8026H22.6113L28.3223 46.3026C28.4902 46.9745 29.2461 47.3944 29.918 47.2264L44.7832 43.2792C45.5391 43.0272 45.959 42.3553 45.707 41.6835L39.9961 20.1835C39.8281 19.4276 39.0723 19.0077 38.4004 19.1757L23.5352 23.1229Z" fill="#652DBF"/>
<path fill-rule="evenodd" clip-rule="evenodd" d="M45.1191 53.1894C44.9512 53.1894 44.6992 53.1054 44.5312 53.1054C44.4473 53.1054 44.4473 53.1054 44.4473 53.1054L29.666 49.0741C29.0781 48.9062 28.4902 48.5702 28.1543 47.9823C27.9863 47.6464 28.0703 47.3105 28.3223 47.1425C28.6582 46.9745 28.9941 47.0585 29.1621 47.3105C29.3301 47.6464 29.582 47.8984 29.918 47.8984H30.0019L44.7832 51.9296C45.539 52.0976 46.2109 51.7616 46.3789 51.0058L52.1738 29.5058C52.4258 28.8339 51.9219 28.078 51.25 27.9101L41.6758 25.3066C41.4238 25.2226 41.1719 24.8866 41.2558 24.5507C41.3398 24.2148 41.6758 24.0468 42.0117 24.1308L51.5859 26.7343C52.8457 27.0702 53.6855 28.498 53.3496 29.8417L47.5547 51.3417C47.3027 52.4335 46.2949 53.1894 45.1191 53.1894Z" fill="#652DBF"/>
<path fill-rule="evenodd" clip-rule="evenodd" d="M41.4238 61C40.8359 61 40.1641 60.748 39.6602 60.2441L28.7422 49.4102C28.7422 49.4102 28.7422 49.4102 28.7422 49.3262C28.2383 48.8223 28.0703 48.3184 28.0703 47.6465C28.0703 47.3105 28.3223 47.0586 28.6582 47.0586C28.9941 47.0586 29.2461 47.3105 29.2461 47.6465C29.2461 47.9824 29.3301 48.3184 29.582 48.5703L40.5 59.4043C41.0039 59.9082 41.8438 59.9082 42.3477 59.4043L58.0527 43.6992C58.6406 43.1953 58.6406 42.3555 58.0527 41.8516L51.082 34.7969C50.9141 34.5449 50.9141 34.209 51.082 33.957C51.334 33.7051 51.7539 33.7051 51.9219 33.957L58.8926 41.0117C59.9004 42.0195 59.9004 43.5312 58.8926 44.5391L43.1875 60.2441C42.6836 60.748 42.0957 61 41.4238 61Z" fill="#652DBF"/>
</svg>
