<svg width="88" height="88" viewBox="0 0 88 88" fill="none" xmlns="http://www.w3.org/2000/svg">
<g clip-path="url(#clip0_2688_10281)">
<path d="M44 0C19.6811 0 0 19.6792 0 44C0 68.3189 19.6792 88 44 88C68.3189 88 88 68.3208 88 44C88 19.6811 68.3208 0 44 0ZM26.9751 9.06692C25.6436 12.6933 24.5259 16.3797 23.6237 20.1176C20.987 19.3165 18.3932 18.3559 15.8476 17.2367C19.0709 13.8502 22.8271 11.0928 26.9751 9.06692ZM12.4331 21.3537C15.7281 22.8797 19.1003 24.1553 22.5397 25.1785C21.5418 30.5054 20.9712 35.9272 20.8357 41.4219H5.24253C5.71742 34.1273 8.20325 27.2233 12.4331 21.3537ZM12.4331 66.6463C8.20325 60.7767 5.71742 53.8727 5.24253 46.5781H20.8357C20.9712 52.0728 21.5418 57.4946 22.5397 62.8215C19.1003 63.8447 15.7283 65.1203 12.4331 66.6463ZM15.8476 70.7635C18.3932 69.6441 20.9868 68.6835 23.6237 67.8825C24.526 71.6205 25.6436 75.3069 26.9751 78.9332C22.8291 76.9084 19.0726 74.1515 15.8476 70.7635ZM41.4219 82.7575C38.7142 82.5813 36.0599 82.1293 33.4924 81.4125C31.4531 76.5794 29.8255 71.6239 28.6115 66.5689C32.7912 65.6344 37.0676 65.088 41.4219 64.9335V82.7575ZM41.4219 59.7742C36.7043 59.9301 32.071 60.5144 27.5428 61.523C26.6432 56.6196 26.1248 51.6316 25.9937 46.5781H41.4219V59.7742ZM41.4219 41.4219H25.9937C26.1248 36.3684 26.6432 31.3804 27.5428 26.477C32.071 27.4856 36.7043 28.0699 41.4219 28.2258V41.4219ZM41.4219 23.0665C37.0676 22.912 32.7912 22.3656 28.6115 21.4311C29.8255 16.3761 31.4531 11.4206 33.4924 6.58745C36.0599 5.87073 38.7142 5.4187 41.4219 5.24253V23.0665ZM75.5669 21.3537C79.7967 27.2233 82.2826 34.1273 82.7575 41.4219H67.1643C67.0288 35.9272 66.4582 30.5054 65.4603 25.1785C68.8997 24.1553 72.2717 22.8797 75.5669 21.3537ZM72.1524 17.2365C69.6068 18.3559 67.0132 19.3165 64.3763 20.1175C63.474 16.3795 62.3564 12.6931 61.0249 9.06675C65.1709 11.0916 68.9274 13.8485 72.1524 17.2365ZM46.5781 5.24253C49.2858 5.4187 51.9401 5.87073 54.5076 6.58745C56.5469 11.4206 58.1745 16.3761 59.3885 21.4311C55.2088 22.3656 50.9324 22.912 46.5781 23.0665V5.24253ZM46.5781 28.2258C51.2957 28.0699 55.929 27.4856 60.4572 26.477C61.3568 31.3804 61.8752 36.3684 62.0063 41.4219H46.5781V28.2258ZM54.5074 81.4124C51.9401 82.1293 49.2858 82.5813 46.5781 82.7575V64.9335C50.9324 65.088 55.2088 65.6344 59.3885 66.5689C58.1744 71.6239 56.5469 76.5794 54.5074 81.4124ZM46.5781 59.7742V46.5781H62.0063C61.8752 51.6316 61.3568 56.6196 60.4572 61.523C55.929 60.5144 51.2957 59.9301 46.5781 59.7742ZM61.0249 78.9331C62.3564 75.3067 63.4741 71.6203 64.3763 67.8824C67.013 68.6835 69.6068 69.6441 72.1524 70.7633C68.9291 74.1498 65.1729 76.9072 61.0249 78.9331ZM75.5669 66.6463C72.2719 65.1203 68.8997 63.8447 65.4603 62.8215C66.4582 57.4946 67.0288 52.0728 67.1643 46.5781H82.7575C82.2826 53.8727 79.7967 60.7767 75.5669 66.6463Z" fill="#010E21"/>
</g>
<defs>
<clipPath id="clip0_2688_10281">
<rect width="88" height="88" fill="white"/>
</clipPath>
</defs>
</svg>
