<svg width="50" height="50" viewBox="0 0 50 50" fill="none" xmlns="http://www.w3.org/2000/svg">
<g clip-path="url(#clip0_1275_21391)">
<mask id="mask0_1275_21391" style="mask-type:luminance" maskUnits="userSpaceOnUse" x="0" y="0" width="50" height="50">
<path d="M0 7.62939e-06H50V50H0V7.62939e-06Z" fill="white"/>
</mask>
<g mask="url(#mask0_1275_21391)">
<path d="M48.8766 12.3096H38.9956L36.302 15.9331L33.78 12.3096L31.3905 17.0791L27.118 9.18711L22.8453 17.0791L20.456 12.3096L17.9339 15.9331L15.2376 12.3096H5.35938" stroke="white" stroke-width="1.8" stroke-miterlimit="10" stroke-linecap="round" stroke-linejoin="round"/>
<path d="M20.6805 24.9211L27.1185 31.1411L40.9872 17.7434C44.798 13.7903 44.798 7.32119 40.9872 3.36553C37.6548 -0.0863279 32.1489 0.375975 28.6643 3.63682C27.0714 5.12607 27.1655 5.12607 25.5726 3.63682C22.0881 0.375975 16.5821 -0.0863279 13.2497 3.36553C9.43889 7.32119 9.43889 13.7903 13.2497 17.7434L14.378 18.8312" stroke="white" stroke-width="1.8" stroke-miterlimit="10" stroke-linecap="round" stroke-linejoin="round"/>
<path d="M2.75469 35.5452H6.69824C7.59424 35.5452 8.32978 36.2815 8.32978 37.1784V46.3409C8.32978 47.2378 7.59424 47.9741 6.69824 47.9741H2.75469C1.85586 47.9741 1.12305 47.2378 1.12305 46.3409V37.1784C1.12305 36.2815 1.85586 35.5452 2.75469 35.5452Z" stroke="white" stroke-width="1.8" stroke-miterlimit="10" stroke-linecap="round" stroke-linejoin="round"/>
<path d="M27.4975 39.8858L37.2236 35.0609C38.4901 34.4325 40.0167 34.6927 40.7606 35.8969C41.5018 37.0983 41.0731 38.6151 39.9227 39.4345L28.482 47.5923C25.0694 49.8704 23.6313 48.9735 20.0418 48.002C17.6082 47.285 16.9307 47.0885 14.4943 46.3715C11.8091 45.5798 10.7306 45.5273 8.33008 45.5273M27.4975 39.8858C27.0855 41.2892 25.6004 42.1003 24.1955 41.6934L18.6923 40.0934M27.4975 39.8858C27.9067 38.4795 27.0909 36.9985 25.6889 36.5806L21.8394 35.4373C18.6176 34.4796 15.5451 34.2138 12.5419 35.944C11.4717 36.564 10.9711 37.1785 9.06289 37.1785H8.33008" stroke="#652DBF" stroke-width="1.8" stroke-miterlimit="10" stroke-linecap="round" stroke-linejoin="round"/>
<path d="M17.5329 21.8789L17.5273 21.8762" stroke="#652DBF" stroke-width="1.8" stroke-miterlimit="10" stroke-linecap="round" stroke-linejoin="round"/>
</g>
</g>
<defs>
<clipPath id="clip0_1275_21391">
<rect width="50" height="50" fill="white"/>
</clipPath>
</defs>
</svg>
