<svg width="30" height="30" viewBox="0 0 30 30" fill="none" xmlns="http://www.w3.org/2000/svg">
<path d="M14.5804 19.8207C13.7422 19.8207 13.0637 20.5191 13.0637 21.3572C13.0637 22.1755 13.7223 22.8939 14.5804 22.8939C15.4385 22.8939 16.1169 22.1755 16.1169 21.3572C16.1169 20.5191 15.4185 19.8207 14.5804 19.8207Z" fill="black"/>
<path d="M14.8404 8.18182C12.1464 8.18182 10.9091 9.77836 10.9091 10.8559C10.9091 11.6342 11.5677 11.9934 12.1064 11.9934C13.1841 11.9934 12.7451 10.4568 14.7806 10.4568C15.7783 10.4568 16.5766 10.8959 16.5766 11.8138C16.5766 12.8914 15.459 13.51 14.8005 14.0688C14.2217 14.5676 13.4635 15.3858 13.4635 17.1021C13.4635 18.1397 13.7429 18.4391 14.561 18.4391C15.5388 18.4391 15.7384 18.0001 15.7384 17.6208C15.7384 16.5832 15.7583 15.9845 16.8559 15.1264C17.3947 14.7074 19.0909 13.3503 19.0909 11.4745C19.0909 9.59868 17.3947 8.18182 14.8404 8.18182Z" fill="black"/>
<circle cx="15" cy="15" r="14.5" stroke="#652DBF"/>
</svg>
