<svg width="34" height="34" viewBox="0 0 34 34" fill="none" xmlns="http://www.w3.org/2000/svg">
<g clip-path="url(#clip0_1037_3725)">
<path d="M33.3712 22.8831C33.3712 21.6725 32.9076 20.5288 32.0834 19.6479V15.8461C32.0834 11.8228 30.5173 8.0364 27.6685 5.18246C24.8146 2.32852 21.0282 0.762463 16.9946 0.762463C8.68002 0.75216 1.91093 7.52125 1.91093 15.8409V19.6428C1.09183 20.5185 0.623047 21.6673 0.623047 22.8831C0.623047 25.3661 2.53426 27.4061 4.96062 27.607C5.2079 28.4879 6.00638 29.137 6.96456 29.137C8.1185 29.137 9.05608 28.1994 9.05608 27.0455V18.7206C9.05608 17.5667 8.1185 16.6291 6.96456 16.6291C6.15062 16.6291 5.45517 17.0979 5.10487 17.7779V15.8358C5.10487 9.28307 10.4367 3.9461 16.9894 3.9461C20.1576 3.9461 23.1455 5.18246 25.3967 7.42852C27.6427 9.68489 28.8791 12.6676 28.8791 15.8358V17.7728C28.534 17.0979 27.8334 16.6291 27.0246 16.6291C25.8706 16.6291 24.9331 17.5667 24.9331 18.7206V27.0455C24.9331 28.1994 25.8706 29.137 27.0246 29.137C27.9827 29.137 28.7812 28.4879 29.0285 27.607C29.0903 27.6019 29.1521 27.5967 29.214 27.5864V28.1685C29.214 29.6625 27.9982 30.8731 26.5094 30.8731H20.4615V30.734C20.4615 30.0488 19.9052 29.4976 19.22 29.4976H15.5521C14.867 29.4976 14.3158 30.054 14.3158 30.734V32.0013C14.3158 32.6864 14.8721 33.2428 15.5521 33.2428H19.22C19.9052 33.2428 20.4615 32.6864 20.4615 32.0013V31.8673H26.5094C28.5494 31.8673 30.2082 30.2085 30.2082 28.1685V27.3494C32.0473 26.7003 33.3712 24.9437 33.3712 22.8831ZM19.22 32.2537H15.5521C15.4182 32.2537 15.3049 32.1403 15.3049 32.0064V30.7391C15.3049 30.6052 15.413 30.4919 15.5521 30.4919H19.22C19.3591 30.4919 19.4673 30.6 19.4673 30.7391V31.3676V31.3728V31.3779V32.0064C19.4673 32.1403 19.3591 32.2537 19.22 32.2537ZM1.61729 22.8831C1.61729 21.7394 2.13244 20.6679 3.0288 19.9467C3.20911 19.8076 3.3688 19.6994 3.54396 19.6067C3.55941 19.6016 3.56971 19.5913 3.58517 19.5861C3.73456 19.5037 3.88911 19.4367 4.0488 19.3749C4.07971 19.3646 4.11062 19.3491 4.14153 19.3388C4.32184 19.277 4.50729 19.2255 4.6979 19.1946H4.70305C4.75971 19.1843 4.81638 19.174 4.87305 19.1637H4.88335V26.6025C3.04426 26.3603 1.61729 24.784 1.61729 22.8831ZM6.96971 17.6234C7.57759 17.6234 8.06699 18.1179 8.06699 18.7206V27.0455C8.06699 27.6534 7.57244 28.1428 6.96971 28.1428C6.39274 28.1428 5.92911 27.6997 5.88274 27.1331V27.1279L5.87244 18.6794C5.8982 18.0922 6.37729 17.6234 6.96971 17.6234ZM26.1024 6.73307C23.6606 4.30155 20.4255 2.96216 16.9946 2.96216C9.89578 2.96216 4.12093 8.74216 4.12093 15.8409V18.3034C4.09517 18.3085 4.07456 18.3188 4.0488 18.3291C3.92517 18.3652 3.80668 18.4064 3.6882 18.4476C3.63153 18.4682 3.57487 18.4888 3.5182 18.5146C3.38941 18.5713 3.26577 18.6331 3.14214 18.7C3.11638 18.7155 3.08547 18.7258 3.05971 18.7413C3.0082 18.7722 2.95153 18.8031 2.90517 18.8288V15.8461C2.90517 8.07246 9.22608 1.75155 16.9946 1.75155C20.7603 1.75155 24.3046 3.21974 26.9679 5.88307C29.6312 8.55155 31.0943 12.0906 31.0943 15.8461V18.8288C31.0427 18.7979 30.9912 18.767 30.9397 18.7413C30.9037 18.7206 30.8676 18.7052 30.8264 18.6897C30.7079 18.6279 30.5894 18.5713 30.4709 18.5197C30.4194 18.4991 30.3627 18.4785 30.3112 18.4579C30.1979 18.4116 30.0794 18.3755 29.9609 18.3394C29.93 18.3291 29.9043 18.3188 29.8734 18.3085V15.8461C29.8734 12.41 28.534 9.17489 26.1024 6.73307ZM27.0297 28.1428C26.4218 28.1428 25.9324 27.6482 25.9324 27.0455V18.7206C25.9324 18.1128 26.427 17.6234 27.0297 17.6234C27.6273 17.6234 28.1167 18.1076 28.127 18.7L28.1218 27.1176C28.0806 27.6894 27.6067 28.1428 27.0297 28.1428ZM29.1212 26.6025V19.1637H29.1315C29.2037 19.174 29.2706 19.1894 29.3376 19.1997C29.5127 19.2306 29.6879 19.277 29.8579 19.3388C29.8837 19.3491 29.9094 19.3594 29.9403 19.3697C30.1 19.4316 30.2597 19.4985 30.4091 19.5861C30.4246 19.5964 30.44 19.6016 30.4606 19.6119C30.6255 19.6994 30.7852 19.8076 30.9603 19.9416C31.8618 20.6628 32.3821 21.7343 32.3821 22.8831C32.3821 24.7788 30.9655 26.3552 29.1212 26.6025Z" fill="#652DBF"/>
<path d="M16.2375 22.8934C16.4281 23.12 16.7062 23.2488 16.9999 23.2488C17.2935 23.2488 17.5717 23.12 17.7623 22.8934L19.2562 21.1161H22.3935C23.2178 21.1161 23.8875 20.4464 23.8875 19.6221V12.5234C23.8875 11.6991 23.2178 11.0294 22.3935 11.0294H11.6062C10.782 11.0294 10.1123 11.6991 10.1123 12.5234V19.6273C10.1123 20.4515 10.782 21.1212 11.6062 21.1212H14.7435L16.2375 22.8934ZM11.1065 19.6273V12.5234C11.1065 12.2452 11.3332 12.0237 11.6062 12.0237H22.3935C22.6717 12.0237 22.8932 12.2503 22.8932 12.5234V19.6273C22.8932 19.9055 22.6665 20.127 22.3935 20.127H19.0244C18.8802 20.127 18.7411 20.194 18.6432 20.3021L16.9999 22.2546L15.3565 20.3021C15.2638 20.1888 15.1247 20.127 14.9753 20.127H11.6062C11.3281 20.127 11.1065 19.9003 11.1065 19.6273Z" fill="#652DBF"/>
<path d="M13.0229 14.5067H20.9768C21.2498 14.5067 21.4714 14.2852 21.4714 14.0121C21.4714 13.7391 21.2498 13.5176 20.9768 13.5176H13.0229C12.7498 13.5176 12.5283 13.7391 12.5283 14.0121C12.5283 14.2852 12.7498 14.5067 13.0229 14.5067Z" fill="#652DBF"/>
<path d="M13.0229 16.6446H20.9768C21.2498 16.6446 21.4714 16.4231 21.4714 16.1501C21.4714 15.877 21.2498 15.6555 20.9768 15.6555H13.0229C12.7498 15.6555 12.5283 15.877 12.5283 16.1501C12.5283 16.4231 12.7498 16.6446 13.0229 16.6446Z" fill="#652DBF"/>
<path d="M17.2007 18.2931C17.2007 18.0201 16.9792 17.7986 16.7062 17.7986H13.0229C12.7498 17.7986 12.5283 18.0201 12.5283 18.2931C12.5283 18.5662 12.7498 18.7877 13.0229 18.7877H16.7062C16.9792 18.7877 17.2007 18.5662 17.2007 18.2931Z" fill="#652DBF"/>
</g>
<defs>
<clipPath id="clip0_1037_3725">
<rect width="34" height="34" fill="white"/>
</clipPath>
</defs>
</svg>
