<svg width="34" height="34" viewBox="0 0 34 34" fill="none" xmlns="http://www.w3.org/2000/svg">
<path d="M0.339844 5.80249H33.6601V28.1979H0.339844V5.80249Z" fill="#D6D4D1"/>
<path d="M0.619141 20.5479H33.3947V27.922H0.619141V20.5479Z" fill="#11892E"/>
<path d="M0.619141 6.07104H33.3947V13.4458H0.619141V6.07104Z" fill="#F2963B"/>
<path d="M0.617188 13.4478H33.3948V20.5488H0.617188V13.4478Z" fill="white"/>
<path d="M19.985 16.6064C19.7685 14.9617 18.2592 13.8034 16.6145 14.0199C14.9678 14.2373 13.8106 15.7456 14.027 17.3903C14.2435 19.035 15.7527 20.1924 17.3992 19.9768C19.0439 19.7594 20.2014 18.2513 19.985 16.6064ZM19.6292 17.1927C19.5482 17.1842 19.473 17.2406 19.4636 17.3216C19.4523 17.4025 19.5067 17.4768 19.5878 17.489C19.5763 17.5502 19.5613 17.6115 19.5463 17.6716L18.1726 17.2218L17.5215 17.0946C17.525 17.0758 17.5291 17.0571 17.5309 17.0381L18.1892 17.0842L19.6346 17.0061C19.635 17.0685 19.6311 17.1305 19.6292 17.1927ZM14.3847 16.804C14.4655 16.8125 14.5389 16.7551 14.5502 16.6752C14.5616 16.5942 14.5051 16.5208 14.4241 16.5068C14.4354 16.4466 14.4505 16.3854 14.4655 16.3252L15.8393 16.775L16.4922 16.902C16.4885 16.9199 16.4847 16.9387 16.4829 16.9585L15.8222 16.9124L14.3789 16.9905C14.3789 16.9283 14.3807 16.8661 14.3847 16.804ZM14.4241 17.489C14.5051 17.4768 14.5616 17.4024 14.5502 17.3216C14.5389 17.2406 14.4655 17.1841 14.3847 17.1927C14.3808 17.1305 14.3789 17.0676 14.3789 17.0065L15.8222 17.0845L16.4847 17.0385C16.4866 17.048 16.4847 17.0573 16.4866 17.0676C16.4866 17.0771 16.4903 17.0854 16.4922 17.095L15.8393 17.2221L14.4655 17.6719C14.4505 17.6115 14.4372 17.5511 14.4241 17.489ZM18.1896 16.9124L17.5291 16.9585C17.5271 16.9491 17.5291 16.9397 17.5271 16.9293C17.5271 16.92 17.5234 16.9105 17.5215 16.902L18.1726 16.775L19.5463 16.3252C19.5613 16.3854 19.5763 16.4466 19.5878 16.5077C19.5067 16.5209 19.4522 16.5943 19.4636 16.6752C19.473 16.7552 19.5463 16.8125 19.6273 16.804C19.6309 16.8661 19.6348 16.9291 19.6348 16.9904L18.1896 16.9124ZM19.4882 16.1324C19.507 16.1907 19.5276 16.25 19.5448 16.3102L18.1277 16.6085L17.5029 16.8239C17.4954 16.806 17.486 16.7891 17.4787 16.7712L18.0753 16.4805L19.2856 15.691C19.3175 15.7446 19.3458 15.7992 19.3737 15.8557C19.3006 15.8895 19.2646 15.9752 19.2962 16.0505C19.3261 16.1249 19.4128 16.1614 19.4882 16.1324ZM18.9725 15.4906C19.0213 15.5546 19.1137 15.5667 19.1776 15.5207C19.2152 15.5715 19.2472 15.6242 19.2774 15.6778L17.9883 16.3318L17.4389 16.7025C17.4274 16.6874 17.4181 16.6705 17.405 16.6563L17.9037 16.2217L18.869 15.1453C18.9122 15.1895 18.9558 15.2346 18.997 15.2827C18.933 15.3343 18.9236 15.4257 18.9725 15.4906ZM18.5151 15.0323C18.5791 15.0822 18.6714 15.0699 18.7223 15.0078C18.7696 15.0482 18.8148 15.0906 18.8598 15.1348L17.7834 16.1003L17.3465 16.6008C17.3315 16.5886 17.3186 16.5763 17.3013 16.566L17.6738 16.0156L18.3268 14.7265C18.3794 14.7576 18.432 14.7915 18.4846 14.8263C18.4381 14.8922 18.4493 14.9834 18.5151 15.0323ZM17.9544 14.7087C18.0296 14.7397 18.1143 14.7049 18.1481 14.6315C18.2046 14.6588 18.2609 14.6879 18.3138 14.719L17.5234 15.9299L17.2336 16.5246C17.2165 16.5161 17.1978 16.5105 17.1791 16.504L17.3971 15.8764L17.6928 14.4623C17.753 14.4782 17.8132 14.4971 17.8734 14.5178C17.8434 14.593 17.8792 14.6776 17.9544 14.7087ZM17.1997 14.3775C17.1921 14.4575 17.2486 14.5308 17.3296 14.5412C17.4106 14.5516 17.4838 14.4969 17.497 14.4161C17.5594 14.4283 17.6195 14.4425 17.6795 14.4584L17.2298 15.8322L17.1036 16.4842C17.0827 16.4805 17.0661 16.4758 17.0453 16.4739L17.0925 15.8134L17.0137 14.3699C17.0755 14.3699 17.1395 14.3729 17.1997 14.3775ZM16.6822 14.5412C16.7632 14.5309 16.8215 14.4575 16.8141 14.3775C16.8743 14.3728 16.9382 14.3709 16.9985 14.3699L16.9213 15.8134L16.9664 16.4757C16.957 16.4767 16.9477 16.4757 16.9382 16.4767C16.9289 16.4776 16.9176 16.4823 16.9081 16.4842L16.782 15.8322L16.3322 14.4575C16.3925 14.4425 16.4527 14.4283 16.5148 14.4161C16.528 14.4969 16.6014 14.5515 16.6822 14.5412ZM16.0576 14.7087C16.1347 14.6776 16.1686 14.5919 16.1403 14.5158C16.1986 14.496 16.2588 14.4782 16.319 14.4622L16.6164 15.8763L16.831 16.5021C16.8139 16.5096 16.797 16.518 16.7801 16.5266L16.4884 15.9301L15.6999 14.7181C15.7525 14.688 15.8072 14.6588 15.8636 14.6315C15.8976 14.7049 15.9822 14.7397 16.0576 14.7087ZM15.4986 15.0323C15.5627 14.9833 15.5759 14.8912 15.5268 14.8252C15.5795 14.7903 15.6303 14.7575 15.6868 14.7264L16.3379 16.0155L16.7104 16.5659C16.6954 16.5762 16.6784 16.5876 16.6634 16.5997L16.2287 16.1001L15.1522 15.1347C15.1993 15.0904 15.2425 15.0481 15.2915 15.0077C15.3405 15.0699 15.4328 15.0822 15.4986 15.0323ZM15.0413 15.4906C15.0902 15.4257 15.0789 15.3344 15.0168 15.2827C15.0545 15.2357 15.0996 15.1905 15.143 15.1453L16.1083 16.2217L16.609 16.6573C16.5977 16.6715 16.5845 16.6874 16.5732 16.7025L16.0237 16.3318L14.7347 15.6778C14.7648 15.6242 14.7986 15.5706 14.8344 15.5197C14.8983 15.5667 14.9924 15.5545 15.0413 15.4906ZM14.7157 16.0504C14.7477 15.9752 14.7138 15.8895 14.6385 15.8556C14.6667 15.8 14.695 15.7445 14.7269 15.6909L15.9369 16.4804L16.5335 16.7711C16.526 16.788 16.5185 16.8069 16.5129 16.8247L15.8844 16.6084L14.4692 16.311C14.4861 16.2498 14.505 16.1915 14.5237 16.1323C14.5991 16.1614 14.6856 16.1249 14.7157 16.0504ZM14.5238 17.8644C14.5051 17.8061 14.4863 17.7459 14.4694 17.6857L15.8845 17.3875L16.5111 17.1729C16.5168 17.1907 16.5262 17.2079 16.5336 17.2248L15.937 17.5166L14.727 18.3058C14.695 18.2523 14.6668 18.1978 14.6386 18.1412C14.7139 18.1083 14.7477 18.0217 14.7158 17.9465C14.6856 17.871 14.5991 17.8343 14.5238 17.8644ZM15.0413 18.5063C14.9924 18.4422 14.8983 18.43 14.8342 18.4771C14.7985 18.4252 14.7647 18.3727 14.7346 18.319L16.0236 17.6651L16.5731 17.2934C16.5844 17.3094 16.5956 17.3254 16.6088 17.3405L16.1082 17.7752L15.1429 18.8506C15.0996 18.8065 15.0563 18.7614 15.0167 18.7141C15.079 18.6623 15.0903 18.5712 15.0413 18.5063ZM15.4986 18.9643C15.4328 18.9144 15.3406 18.9268 15.2916 18.9888C15.2444 18.9484 15.1993 18.9062 15.1523 18.8618L16.2288 17.8965L16.6655 17.3948C16.6804 17.4079 16.6956 17.4202 16.7106 17.4296L16.338 17.9801L15.6869 19.27C15.6324 19.2389 15.5796 19.2051 15.5269 19.1702C15.5757 19.1054 15.5627 19.0133 15.4986 18.9643ZM16.0576 19.287C15.9822 19.2569 15.8976 19.2907 15.8637 19.365C15.8072 19.3376 15.7527 19.3075 15.7 19.2775L16.4885 18.0665L16.7802 17.4709C16.7972 17.4794 16.816 17.4859 16.8329 17.4916L16.6164 18.12L16.319 19.5342C16.2588 19.5183 16.2005 19.5004 16.1403 19.4796C16.1686 19.4037 16.1328 19.319 16.0576 19.287ZM16.8141 19.6193C16.8216 19.5393 16.7632 19.4661 16.6822 19.4555C16.6014 19.4443 16.528 19.5007 16.5148 19.5798C16.4525 19.5685 16.3923 19.5544 16.3322 19.5384L16.782 18.1647L16.9081 17.5126C16.9289 17.5162 16.9477 17.5209 16.9664 17.523L16.9213 18.1825L16.9985 19.6269C16.9363 19.6268 16.8743 19.6249 16.8141 19.6193ZM17.3296 19.4555C17.2486 19.466 17.1921 19.5383 17.1997 19.6193C17.1376 19.623 17.0755 19.626 17.0134 19.626L17.0923 18.1825L17.0451 17.5202C17.0544 17.5192 17.0661 17.5212 17.0733 17.5192C17.0824 17.5183 17.094 17.5146 17.1034 17.5126L17.2296 18.1647L17.6792 19.5384C17.619 19.5544 17.5588 19.5685 17.4968 19.5798C17.484 19.5007 17.4106 19.4443 17.3296 19.4555ZM17.9544 19.287C17.8791 19.319 17.8433 19.4037 17.8734 19.4798C17.8132 19.5004 17.753 19.5183 17.6928 19.5343L17.3971 18.1202L17.1809 17.4945C17.1978 17.487 17.2144 17.4786 17.2334 17.4692L17.5232 18.0665L18.3135 19.2775C18.261 19.3086 18.2044 19.3377 18.1479 19.365C18.1143 19.291 18.0296 19.2569 17.9544 19.287ZM18.5151 18.9643C18.4493 19.0133 18.438 19.1054 18.485 19.1715C18.4325 19.2053 18.3816 19.2391 18.3271 19.2702L17.6743 17.9803L17.302 17.4299C17.319 17.4204 17.3356 17.4092 17.3491 17.3971L17.7838 17.8967L18.8602 18.862C18.8151 18.9063 18.7699 18.9486 18.7228 18.9891C18.6713 18.9267 18.5791 18.9144 18.5151 18.9643ZM18.9725 18.5063C18.9236 18.5712 18.935 18.6624 18.997 18.7133C18.9575 18.7613 18.9122 18.8065 18.869 18.8508L17.9037 17.7753L17.403 17.3397C17.4144 17.3247 17.4274 17.3096 17.4389 17.2935L17.9883 17.6652L19.2774 18.3182C19.2472 18.3728 19.2134 18.4254 19.1776 18.4772C19.1118 18.4299 19.0213 18.4421 18.9725 18.5063ZM19.2961 17.9465C19.2639 18.0217 19.2998 18.1073 19.3734 18.1413C19.3452 18.1967 19.3167 18.2513 19.285 18.3058L18.0749 17.5166L17.4802 17.2257C17.4878 17.2088 17.4934 17.19 17.501 17.1722L18.1277 17.3877L19.5431 17.6858C19.528 17.7461 19.5071 17.8064 19.4885 17.8636C19.4128 17.8353 19.3261 17.872 19.2961 17.9465Z" fill="#21296F"/>
</svg>
