<svg width="122" height="88" viewBox="0 0 122 88" fill="none" xmlns="http://www.w3.org/2000/svg">
<g clip-path="url(#clip0_1226_14285)">
<path d="M0 74.5976C0 78.2043 1.42817 81.6632 3.97033 84.2135C6.51249 86.7638 9.9604 88.1966 13.5556 88.1966H108.444C112.04 88.1966 115.488 86.7638 118.03 84.2135C120.572 81.6632 122 78.2043 122 74.5976V57.5989H0V74.5976Z" fill="#138808"/>
<path d="M122 30.4012V13.4024C122 9.79577 120.572 6.33682 118.03 3.78651C115.488 1.23621 112.04 -0.196533 108.444 -0.196533H13.5556C9.9604 -0.196533 6.51249 1.23621 3.97033 3.78651C1.42817 6.33682 0 9.79577 0 13.4024L0 30.4012H122Z" fill="#FF9933"/>
<path d="M0 29.2688H122V58.7344H0V29.2688Z" fill="#F7F7F7"/>
<path d="M61 57.5991C68.4865 57.5991 74.5556 51.5106 74.5556 44.0001C74.5556 36.4896 68.4865 30.4011 61 30.4011C53.5135 30.4011 47.4445 36.4896 47.4445 44.0001C47.4445 51.5106 53.5135 57.5991 61 57.5991Z" fill="#000080"/>
<path d="M61 55.4742C67.3168 55.4742 72.4375 50.337 72.4375 44C72.4375 37.663 67.3168 32.5259 61 32.5259C54.6832 32.5259 49.5625 37.663 49.5625 44C49.5625 50.337 54.6832 55.4742 61 55.4742Z" fill="#F7F7F7"/>
<path d="M61.3389 39.7504L61 41.9602L60.6611 39.7504L61 33.1208L61.3389 39.7504ZM58.194 33.4914L59.5767 39.9815L60.4747 42.0282L60.2307 39.8081L58.194 33.4914ZM55.5778 34.5793L58.5871 40.4881L59.9834 42.2322L59.1768 40.1481L55.5778 34.5793ZM53.331 36.3064L57.7636 41.236L59.5631 42.5585L58.2449 40.7533L53.331 36.3064ZM51.6094 38.5604L57.1604 42.171L59.2378 42.9801L57.4993 41.5794L51.6094 38.5604ZM50.525 41.185L56.8215 43.2283L59.0345 43.4731L56.9944 42.5721L50.525 41.185ZM50.1556 44L56.7639 44.34L58.9667 44L56.7639 43.6601L50.1556 44ZM50.525 46.815L56.9944 45.4279L59.0345 44.527L56.8215 44.7718L50.525 46.815ZM51.6094 49.4396L57.4993 46.4206L59.2378 45.02L57.1604 45.8291L51.6094 49.4396ZM53.331 51.6937L58.2449 47.2468L59.5631 45.4415L57.7636 46.764L53.331 51.6937ZM55.5778 53.4207L59.1768 47.8519L59.9834 45.7679L58.5871 47.512L55.5778 53.4207ZM58.194 54.5086L60.2307 48.1919L60.4747 45.9719L59.5767 48.0185L58.194 54.5086ZM61 54.8792L61.3389 48.2497L61 46.0399L60.6611 48.2497L61 54.8792ZM63.806 54.5086L62.4234 48.0185L61.5253 45.9719L61.7693 48.1919L63.806 54.5086ZM66.4222 53.4207L63.4129 47.512L62.0167 45.7679L62.8232 47.8519L66.4222 53.4207ZM68.6691 51.6937L64.2364 46.764L62.4369 45.4415L63.7552 47.2468L68.6691 51.6937ZM70.3906 49.4396L64.8396 45.8291L62.7622 45.02L64.5007 46.4206L70.3906 49.4396ZM71.4751 46.815L65.1785 44.7718L62.9656 44.527L65.0057 45.4279L71.4751 46.815ZM71.8445 44L65.2361 43.6601L63.0334 44L65.2361 44.34L71.8445 44ZM71.4751 41.185L65.0057 42.5721L62.9656 43.4731L65.1785 43.2283L71.4751 41.185ZM70.3906 38.5604L64.5007 41.5794L62.7622 42.9801L64.8396 42.171L70.3906 38.5604ZM68.6691 36.3064L63.7552 40.7533L62.4369 42.5585L64.2364 41.236L68.6691 36.3064ZM66.4222 34.5793L62.8232 40.1481L62.0167 42.2322L63.4129 40.4881L66.4222 34.5793ZM63.806 33.4914L61.7693 39.8081L61.5253 42.0282L62.4234 39.9815L63.806 33.4914Z" fill="#6666B3"/>
<path d="M59.5089 33.3216C59.8832 33.3216 60.1867 33.0171 60.1867 32.6416C60.1867 32.2661 59.8832 31.9617 59.5089 31.9617C59.1346 31.9617 58.8311 32.2661 58.8311 32.6416C58.8311 33.0171 59.1346 33.3216 59.5089 33.3216Z" fill="#000080"/>
<path d="M56.6283 34.0967C57.0027 34.0967 57.3061 33.7923 57.3061 33.4168C57.3061 33.0412 57.0027 32.7368 56.6283 32.7368C56.254 32.7368 55.9506 33.0412 55.9506 33.4168C55.9506 33.7923 56.254 34.0967 56.6283 34.0967Z" fill="#000080"/>
<path d="M54.046 35.5891C54.4203 35.5891 54.7238 35.2847 54.7238 34.9092C54.7238 34.5337 54.4203 34.2292 54.046 34.2292C53.6717 34.2292 53.3682 34.5337 53.3682 34.9092C53.3682 35.2847 53.6717 35.5891 54.046 35.5891Z" fill="#000080"/>
<path d="M51.9381 37.7039C52.3124 37.7039 52.6159 37.3995 52.6159 37.0239C52.6159 36.6484 52.3124 36.344 51.9381 36.344C51.5638 36.344 51.2603 36.6484 51.2603 37.0239C51.2603 37.3995 51.5638 37.7039 51.9381 37.7039Z" fill="#000080"/>
<path d="M50.4504 40.2945C50.8247 40.2945 51.1281 39.99 51.1281 39.6145C51.1281 39.239 50.8247 38.9346 50.4504 38.9346C50.076 38.9346 49.7726 39.239 49.7726 39.6145C49.7726 39.99 50.076 40.2945 50.4504 40.2945Z" fill="#000080"/>
<path d="M49.6777 43.1841C50.052 43.1841 50.3555 42.8797 50.3555 42.5042C50.3555 42.1286 50.052 41.8242 49.6777 41.8242C49.3034 41.8242 48.9999 42.1286 48.9999 42.5042C48.9999 42.8797 49.3034 43.1841 49.6777 43.1841Z" fill="#000080"/>
<path d="M49.6777 46.1761C50.052 46.1761 50.3555 45.8716 50.3555 45.4961C50.3555 45.1206 50.052 44.8162 49.6777 44.8162C49.3034 44.8162 48.9999 45.1206 48.9999 45.4961C48.9999 45.8716 49.3034 46.1761 49.6777 46.1761Z" fill="#000080"/>
<path d="M50.4504 49.0657C50.8247 49.0657 51.1281 48.7613 51.1281 48.3858C51.1281 48.0102 50.8247 47.7058 50.4504 47.7058C50.076 47.7058 49.7726 48.0102 49.7726 48.3858C49.7726 48.7613 50.076 49.0657 50.4504 49.0657Z" fill="#000080"/>
<path d="M51.9381 51.6563C52.3124 51.6563 52.6159 51.3519 52.6159 50.9763C52.6159 50.6008 52.3124 50.2964 51.9381 50.2964C51.5638 50.2964 51.2603 50.6008 51.2603 50.9763C51.2603 51.3519 51.5638 51.6563 51.9381 51.6563Z" fill="#000080"/>
<path d="M54.046 53.771C54.4203 53.771 54.7238 53.4666 54.7238 53.0911C54.7238 52.7156 54.4203 52.4111 54.046 52.4111C53.6717 52.4111 53.3682 52.7156 53.3682 53.0911C53.3682 53.4666 53.6717 53.771 54.046 53.771Z" fill="#000080"/>
<path d="M56.6283 55.2635C57.0027 55.2635 57.3061 54.959 57.3061 54.5835C57.3061 54.208 57.0027 53.9036 56.6283 53.9036C56.254 53.9036 55.9506 54.208 55.9506 54.5835C55.9506 54.959 56.254 55.2635 56.6283 55.2635Z" fill="#000080"/>
<path d="M59.5089 56.0386C59.8832 56.0386 60.1867 55.7342 60.1867 55.3587C60.1867 54.9831 59.8832 54.6787 59.5089 54.6787C59.1346 54.6787 58.8311 54.9831 58.8311 55.3587C58.8311 55.7342 59.1346 56.0386 59.5089 56.0386Z" fill="#000080"/>
<path d="M62.4911 56.0386C62.8655 56.0386 63.1689 55.7342 63.1689 55.3587C63.1689 54.9831 62.8655 54.6787 62.4911 54.6787C62.1168 54.6787 61.8134 54.9831 61.8134 55.3587C61.8134 55.7342 62.1168 56.0386 62.4911 56.0386Z" fill="#000080"/>
<path d="M65.3717 55.2635C65.746 55.2635 66.0495 54.959 66.0495 54.5835C66.0495 54.208 65.746 53.9036 65.3717 53.9036C64.9974 53.9036 64.6939 54.208 64.6939 54.5835C64.6939 54.959 64.9974 55.2635 65.3717 55.2635Z" fill="#000080"/>
<path d="M67.954 53.771C68.3284 53.771 68.6318 53.4666 68.6318 53.0911C68.6318 52.7156 68.3284 52.4111 67.954 52.4111C67.5797 52.4111 67.2762 52.7156 67.2762 53.0911C67.2762 53.4666 67.5797 53.771 67.954 53.771Z" fill="#000080"/>
<path d="M70.0619 51.6563C70.4362 51.6563 70.7396 51.3519 70.7396 50.9763C70.7396 50.6008 70.4362 50.2964 70.0619 50.2964C69.6875 50.2964 69.3841 50.6008 69.3841 50.9763C69.3841 51.3519 69.6875 51.6563 70.0619 51.6563Z" fill="#000080"/>
<path d="M71.5496 49.0657C71.9239 49.0657 72.2274 48.7613 72.2274 48.3858C72.2274 48.0102 71.9239 47.7058 71.5496 47.7058C71.1753 47.7058 70.8718 48.0102 70.8718 48.3858C70.8718 48.7613 71.1753 49.0657 71.5496 49.0657Z" fill="#000080"/>
<path d="M72.3222 46.1761C72.6966 46.1761 73 45.8716 73 45.4961C73 45.1206 72.6966 44.8162 72.3222 44.8162C71.9479 44.8162 71.6445 45.1206 71.6445 45.4961C71.6445 45.8716 71.9479 46.1761 72.3222 46.1761Z" fill="#000080"/>
<path d="M72.3222 43.1841C72.6966 43.1841 73 42.8797 73 42.5042C73 42.1286 72.6966 41.8242 72.3222 41.8242C71.9479 41.8242 71.6445 42.1286 71.6445 42.5042C71.6445 42.8797 71.9479 43.1841 72.3222 43.1841Z" fill="#000080"/>
<path d="M71.5496 40.2945C71.9239 40.2945 72.2274 39.99 72.2274 39.6145C72.2274 39.239 71.9239 38.9346 71.5496 38.9346C71.1753 38.9346 70.8718 39.239 70.8718 39.6145C70.8718 39.99 71.1753 40.2945 71.5496 40.2945Z" fill="#000080"/>
<path d="M70.0619 37.7039C70.4362 37.7039 70.7396 37.3995 70.7396 37.0239C70.7396 36.6484 70.4362 36.344 70.0619 36.344C69.6875 36.344 69.3841 36.6484 69.3841 37.0239C69.3841 37.3995 69.6875 37.7039 70.0619 37.7039Z" fill="#000080"/>
<path d="M67.954 35.5891C68.3284 35.5891 68.6318 35.2847 68.6318 34.9092C68.6318 34.5337 68.3284 34.2292 67.954 34.2292C67.5797 34.2292 67.2762 34.5337 67.2762 34.9092C67.2762 35.2847 67.5797 35.5891 67.954 35.5891Z" fill="#000080"/>
<path d="M65.3717 34.0967C65.746 34.0967 66.0495 33.7923 66.0495 33.4168C66.0495 33.0412 65.746 32.7368 65.3717 32.7368C64.9974 32.7368 64.6939 33.0412 64.6939 33.4168C64.6939 33.7923 64.9974 34.0967 65.3717 34.0967Z" fill="#000080"/>
<path d="M62.4911 33.3216C62.8655 33.3216 63.1689 33.0171 63.1689 32.6416C63.1689 32.2661 62.8655 31.9617 62.4911 31.9617C62.1168 31.9617 61.8134 32.2661 61.8134 32.6416C61.8134 33.0171 62.1168 33.3216 62.4911 33.3216Z" fill="#000080"/>
<path d="M61 47.06C62.6845 47.06 64.05 45.6901 64.05 44.0002C64.05 42.3103 62.6845 40.9404 61 40.9404C59.3155 40.9404 57.95 42.3103 57.95 44.0002C57.95 45.6901 59.3155 47.06 61 47.06Z" fill="#000080"/>
</g>
<defs>
<clipPath id="clip0_1226_14285">
<rect width="122" height="88" fill="white"/>
</clipPath>
</defs>
</svg>
