<svg width="40" height="41" viewBox="0 0 40 41" fill="none" xmlns="http://www.w3.org/2000/svg">
<rect y="0.609985" width="40" height="40" rx="8" fill="white" fill-opacity="0.07"/>
<mask id="mask0_361_1748" style="mask-type:luminance" maskUnits="userSpaceOnUse" x="12" y="13" width="16" height="17">
<path d="M28 13.15H12V29.15H28V13.15Z" fill="white"/>
</mask>
<g mask="url(#mask0_361_1748)">
<path d="M20 13.8167H16.7407C14.4907 13.8167 12.6666 15.6407 12.6666 17.8907V24.4093C12.6666 26.6593 14.4907 28.4833 16.7407 28.4833H23.2592C25.5092 28.4833 27.3333 26.6593 27.3333 24.4093V17.8907C27.3333 15.6407 25.5092 13.8167 23.2592 13.8167H20Z" stroke="white" stroke-width="1.66667" stroke-linecap="round" stroke-linejoin="round"/>
<path d="M20 17.8909C21.8 17.8909 23.2593 19.3501 23.2593 21.1501C23.2593 22.9502 21.8 24.4094 20 24.4094C18.1999 24.4094 16.7407 22.9501 16.7407 21.1501C16.7407 19.3501 18.1999 17.8909 20 17.8909Z" stroke="white" stroke-width="1.66667" stroke-linecap="round" stroke-linejoin="round"/>
<path d="M23.3333 17.4833C23.8855 17.4833 24.3333 17.0356 24.3333 16.4833C24.3333 15.9311 23.8855 15.4833 23.3333 15.4833C22.781 15.4833 22.3333 15.9311 22.3333 16.4833C22.3333 17.0356 22.781 17.4833 23.3333 17.4833Z" fill="white"/>
</g>
</svg>
