<svg width="89" height="89" viewBox="0 0 89 89" fill="none" xmlns="http://www.w3.org/2000/svg">
<rect x="9" y="8.88965" width="79" height="79" rx="14.5" stroke="#652DBF" stroke-dasharray="3 2"/>
<rect x="0.5" y="0.389648" width="80" height="80" rx="15" fill="white"/>
<g clip-path="url(#clip0_782_3235)">
<path d="M45.9426 44.4584C46.0999 38.195 54.8312 37.3301 56.2622 43.3619C66.8343 35.9471 61.6345 19.0421 48.5517 19H32.3595C14.5974 19.676 14.6109 45.1382 32.3595 45.8078H45.9426V44.4584ZM47.9667 28.3559C47.9727 27.077 49.6655 26.62 50.3146 27.7211L52.6894 31.7922V28.3559C52.7514 26.6862 55.1475 26.6874 55.2089 28.3559V36.452C55.2089 37.021 54.8273 37.5195 54.278 37.668C53.4767 37.8846 52.9874 37.3035 52.861 37.0867L50.4862 33.0156V36.452C50.4242 38.1216 48.0281 38.1204 47.9667 36.452V28.3559ZM31.5953 34.0906C31.4132 38.8879 24.5342 38.8863 24.3531 34.0919C24.3531 33.3962 24.9171 32.8322 25.6128 32.8322C26.3086 32.8322 26.8726 33.3963 26.8726 34.092C26.8726 34.6987 27.3662 35.1922 27.9729 35.1922C28.5817 35.1922 29.0758 34.698 29.0758 34.0906V29.6156H28.3116C26.6419 29.5536 26.6431 27.1575 28.3116 27.0961H30.3356C31.0313 27.0961 31.5954 27.6601 31.5954 28.3559V34.0906H31.5953ZM41.0408 34.0906C40.8581 38.8891 33.9794 38.8855 33.7985 34.0906V30.7172C33.9812 25.9186 40.8599 25.9222 41.0408 30.7172V34.0906ZM45.7634 36.452C45.7015 38.1216 43.3053 38.1204 43.2439 36.452V28.3559C43.3059 26.6862 45.7021 26.6874 45.7634 28.3559V36.452Z" fill="#652DBF"/>
<path d="M37.42 29.6157C36.8126 29.6157 36.3184 30.1099 36.3184 30.7173V34.0907C36.374 35.5506 38.4665 35.5494 38.5215 34.0907V30.7173C38.5216 30.1099 38.0274 29.6157 37.42 29.6157Z" fill="#652DBF"/>
<path d="M59.2561 49.856H53.8587V44.4585C53.7244 40.8814 48.5936 40.8852 48.4612 44.4585V53.904L46.7941 52.7928C45.4097 51.8698 43.5659 52.0527 42.3892 53.2294C41.6431 53.9754 41.6443 55.1832 42.3892 55.928L48.1331 61.672C48.3432 61.8821 48.6282 62.0001 48.9252 62.0001H59.256C60.7461 62.0001 61.9547 60.7906 61.9547 59.3014V52.5547C61.9548 51.0646 60.7452 49.856 59.2561 49.856Z" fill="#652DBF"/>
</g>
<defs>
<clipPath id="clip0_782_3235">
<rect width="43" height="43" fill="white" transform="translate(19 19)"/>
</clipPath>
</defs>
</svg>
