<svg width="34" height="34" viewBox="0 0 34 34" fill="none" xmlns="http://www.w3.org/2000/svg">
<path d="M17.1548 30.5483C16.8457 30.5483 16.6396 30.3422 16.6396 30.0331V24.2634C16.6396 23.9544 16.8457 23.7483 17.1548 23.7483C17.4639 23.7483 17.67 23.9544 17.67 24.2634V30.0331C17.67 30.3422 17.4639 30.5483 17.1548 30.5483Z" fill="#652DBF"/>
<path d="M3.34914 30.5484C3.24611 30.5484 3.14308 30.4969 3.04005 30.4454C2.93701 30.3424 2.83398 30.1878 2.83398 30.0333V13.6515C2.83398 13.4454 2.93701 13.2393 3.14308 13.1878C4.74004 12.5181 6.13095 12.0545 7.52186 11.7969C8.55217 11.6424 9.58247 11.5908 10.6643 11.6424C10.9734 11.6424 11.1794 11.8999 11.1279 12.1575C11.1279 12.4666 10.8703 12.6727 10.6128 12.6212C9.63398 12.5696 8.60368 12.6212 7.67641 12.7757C6.49156 12.9818 5.2552 13.3424 3.81277 13.9605V29.3636C8.08853 28.3848 12.3643 28.3848 16.5885 29.3636V24.2636C16.5885 23.9545 16.7946 23.7484 17.1037 23.7484C17.4128 23.7484 17.6188 23.9545 17.6188 24.2636V30.0333C17.6188 30.1878 17.5673 30.3424 17.4128 30.4454C17.3097 30.5484 17.1037 30.5999 16.9491 30.5484C12.4673 29.4151 7.93398 29.4151 3.40065 30.5484C3.45217 30.5484 3.40065 30.5484 3.34914 30.5484Z" fill="#652DBF"/>
<path d="M17.1548 30.5484C17.0518 30.5484 16.9487 30.4969 16.8457 30.4454C16.7427 30.3423 16.6396 30.1878 16.6396 30.0332V24.2635C16.6396 23.9545 16.8457 23.7484 17.1548 23.7484C17.4639 23.7484 17.67 23.9545 17.67 24.2635V29.3635C21.9457 28.3848 26.2215 28.3848 30.4457 29.3635V14.012C29.0548 13.3939 27.8184 13.0332 26.6336 12.8272C25.5518 12.6211 24.4184 12.5696 23.3366 12.6726C23.0275 12.6726 22.8215 12.4666 22.77 12.209C22.77 11.8999 22.976 11.6939 23.2336 11.6423C24.4184 11.5393 25.6033 11.5908 26.7881 11.7969C28.179 12.0029 29.6215 12.4666 31.1669 13.1878C31.373 13.2908 31.476 13.4454 31.476 13.6514V29.9817C31.476 30.1363 31.4245 30.2908 31.27 30.3939C31.1154 30.4969 30.9609 30.5484 30.8063 30.4969C26.3245 29.3636 21.7912 29.3636 17.2578 30.4969C17.2578 30.5484 17.2063 30.5484 17.1548 30.5484Z" fill="#652DBF"/>
<path d="M17.1548 30.5483C16.8457 30.5483 16.6396 30.3422 16.6396 30.0331V24.2634C16.6396 23.9544 16.8457 23.7483 17.1548 23.7483C17.4639 23.7483 17.67 23.9544 17.67 24.2634V30.0331C17.67 30.3422 17.4639 30.5483 17.1548 30.5483Z" fill="#652DBF"/>
<path d="M32.9702 32.4028H1.03078C0.721686 32.4028 0.515625 32.1967 0.515625 31.8877V16.7422C0.515625 16.4331 0.721686 16.2271 1.03078 16.2271H3.29744C3.60653 16.2271 3.81259 16.4331 3.81259 16.7422C3.81259 17.0513 3.60653 17.2574 3.29744 17.2574H1.54593V31.3725H32.455V17.2574H31.0641C30.755 17.2574 30.549 17.0513 30.549 16.7422C30.549 16.4331 30.755 16.2271 31.0641 16.2271H32.9702C33.2793 16.2271 33.4853 16.4331 33.4853 16.7422V31.8877C33.4853 32.1967 33.2793 32.4028 32.9702 32.4028Z" fill="#652DBF"/>
<path d="M17.2066 32.4029C16.8975 32.4029 16.6914 32.1969 16.6914 31.8878V30.0332C16.6914 29.7241 16.8975 29.5181 17.2066 29.5181C17.5156 29.5181 17.7217 29.7241 17.7217 30.0332V31.8878C17.7217 32.1969 17.5156 32.4029 17.2066 32.4029Z" fill="#652DBF"/>
<path d="M19.7309 20.6574H14.3734C14.0643 20.6574 13.8582 20.4513 13.8582 20.1423V20.0392C13.8582 17.9271 13.034 15.8665 11.5915 14.321C9.99458 12.7241 9.22185 10.3544 9.58246 8.0362C10.0976 4.73923 12.7764 2.11195 16.1764 1.75135C18.34 1.49377 20.4006 2.16347 22.0491 3.60589C23.6461 5.04832 24.5734 7.05741 24.5734 9.22105C24.5734 11.1271 23.8522 12.9301 22.5643 14.321C21.0703 15.918 20.2976 18.0301 20.2976 20.1938C20.2461 20.4513 20.04 20.6574 19.7309 20.6574ZM14.8885 19.6271H19.2158C19.3188 17.3604 20.2461 15.2483 21.74 13.5483C22.8734 12.312 23.44 10.7665 23.44 9.16953C23.44 7.31498 22.6673 5.56347 21.2764 4.32711C19.8855 3.09074 18.0825 2.52408 16.2279 2.73014C13.2915 3.09074 10.9734 5.30589 10.5612 8.19074C10.2522 10.1998 10.8703 12.2089 12.2612 13.5998C13.8582 15.2483 14.7855 17.412 14.8885 19.6271Z" fill="#652DBF"/>
<path d="M19.3185 22.6666H14.6822C13.9094 22.6666 13.3428 22.0999 13.3428 21.3272V21.0181C13.3428 20.2454 13.9094 19.6787 14.6822 19.6787H19.3185C20.0913 19.6787 20.6579 20.2454 20.6579 21.0181V21.3272C20.6579 22.0484 20.0397 22.6666 19.3185 22.6666ZM14.6822 20.709C14.5276 20.709 14.3731 20.8636 14.3731 21.0181V21.3272C14.3731 21.4817 14.5276 21.6363 14.6822 21.6363H19.3185C19.4731 21.6363 19.6276 21.4817 19.6276 21.3272V21.0181C19.6276 20.8636 19.4731 20.709 19.3185 20.709H14.6822Z" fill="#652DBF"/>
<path d="M18.4948 24.7787H15.5069C14.5796 24.7787 13.8584 24.0574 13.8584 23.1302V22.2029C13.8584 21.8938 14.0645 21.6877 14.3735 21.6877C14.6826 21.6877 14.8887 21.8938 14.8887 22.2029V23.1302C14.8887 23.4908 15.1463 23.7484 15.5069 23.7484H18.4948C18.8554 23.7484 19.1129 23.4908 19.1129 23.1302V22.2029C19.1129 21.8938 19.319 21.6877 19.6281 21.6877C19.9372 21.6877 20.1432 21.8938 20.1432 22.2029V23.1302C20.1432 24.0574 19.422 24.7787 18.4948 24.7787Z" fill="#652DBF"/>
<path d="M18.0825 20.7089C17.7734 20.7089 17.5674 20.5029 17.5674 20.1938V14.1665C17.5674 13.8574 17.7734 13.6514 18.0825 13.6514H18.7007C19.0098 13.6514 19.2159 13.8574 19.2159 14.1665C19.2159 14.4756 19.0098 14.6817 18.7007 14.6817H18.5977V20.1938C18.5977 20.5029 18.3916 20.7089 18.0825 20.7089Z" fill="#652DBF"/>
<path d="M16.2273 20.7089C15.9182 20.7089 15.7122 20.5029 15.7122 20.1938V14.6817H15.4546C15.1455 14.6817 14.9395 14.4756 14.9395 14.1665C14.9395 13.8574 15.1455 13.6514 15.4546 13.6514H16.2273C16.5364 13.6514 16.7425 13.8574 16.7425 14.1665V20.1938C16.7425 20.5029 16.5364 20.7089 16.2273 20.7089Z" fill="#652DBF"/>
<path d="M9.78871 3.50293C9.63416 3.50293 9.4281 3.3999 9.32507 3.24535L8.80992 2.3696C8.65537 2.11202 8.7584 1.80293 9.01598 1.64838C9.27355 1.54535 9.58264 1.59687 9.73719 1.85444L10.2523 2.7302C10.4069 2.98778 10.3039 3.29687 10.0463 3.45141C9.94325 3.50293 9.89174 3.50293 9.78871 3.50293Z" fill="#652DBF"/>
<path d="M7.31607 4.79076C7.21304 4.79076 7.16152 4.79076 7.05849 4.73925L5.92516 4.12107C5.66758 3.96652 5.56455 3.65743 5.7191 3.39985C5.87364 3.14228 6.18273 3.09076 6.44031 3.19379L7.57364 3.81198C7.83122 3.96652 7.93425 4.27561 7.7797 4.53319C7.67667 4.68773 7.52213 4.79076 7.31607 4.79076Z" fill="#652DBF"/>
<path d="M6.59425 7.57254C6.33668 7.57254 6.0791 7.36648 6.0791 7.05739C6.0791 6.7483 6.28516 6.54224 6.54274 6.54224L7.57304 6.49072C7.83062 6.49072 8.08819 6.69678 8.08819 6.95436C8.08819 7.26345 7.88213 7.46951 7.62456 7.46951L6.59425 7.57254Z" fill="#652DBF"/>
<path d="M24.7282 3.50293C24.6252 3.50293 24.5737 3.50293 24.4707 3.45141C24.2131 3.29687 24.1616 2.98778 24.2646 2.7302L24.7797 1.85444C24.9343 1.59687 25.2434 1.54535 25.501 1.64838C25.7585 1.80293 25.8101 2.11202 25.707 2.3696L25.1919 3.24535C25.0888 3.3999 24.8828 3.50293 24.7282 3.50293Z" fill="#652DBF"/>
<path d="M27.2003 4.79076C26.9943 4.79076 26.8397 4.68773 26.7367 4.53319C26.5821 4.27561 26.6852 3.96652 26.9427 3.81198L28.0761 3.19379C28.3336 3.09076 28.6427 3.14228 28.7973 3.39985C28.9003 3.65743 28.8488 3.96652 28.5912 4.12107L27.4579 4.73925C27.3549 4.79076 27.3033 4.79076 27.2003 4.79076Z" fill="#652DBF"/>
<path d="M27.9733 7.57262L26.8914 7.5211C26.5824 7.5211 26.3763 7.26353 26.4278 7.00595C26.4278 6.69686 26.6854 6.4908 26.943 6.54231L27.9733 6.59383C28.2824 6.59383 28.4884 6.8514 28.4369 7.10898C28.4884 7.36656 28.2308 7.57262 27.9733 7.57262Z" fill="#652DBF"/>
<path d="M10.9215 19.8848H7.62453C7.31544 19.8848 7.10938 19.6787 7.10938 19.3696C7.10938 19.0606 7.31544 18.8545 7.62453 18.8545H10.9215C11.2306 18.8545 11.4366 19.0606 11.4366 19.3696C11.4366 19.6787 11.2306 19.8848 10.9215 19.8848Z" fill="#652DBF"/>
<path d="M11.4882 23.2332H7.62453C7.31544 23.2332 7.10938 23.0271 7.10938 22.718C7.10938 22.4089 7.31544 22.2029 7.62453 22.2029H11.4882C11.7973 22.2029 12.0033 22.4089 12.0033 22.718C12.0033 23.0271 11.7973 23.2332 11.4882 23.2332Z" fill="#652DBF"/>
<path d="M13.4973 26.5303H7.62453C7.31544 26.5303 7.10938 26.3242 7.10938 26.0152C7.10938 25.7061 7.31544 25.5 7.62453 25.5H13.4973C13.8063 25.5 14.0124 25.7061 14.0124 26.0152C14.0124 26.3242 13.8063 26.5303 13.4973 26.5303Z" fill="#652DBF"/>
<path d="M10.2518 16.5362H7.62453C7.31544 16.5362 7.10938 16.3301 7.10938 16.021C7.10938 15.7119 7.31544 15.5059 7.62453 15.5059H10.2518C10.5609 15.5059 10.767 15.7119 10.767 16.021C10.767 16.3301 10.5609 16.5362 10.2518 16.5362Z" fill="#652DBF"/>
<path d="M26.8912 19.8848H23.5943C23.2852 19.8848 23.0791 19.6787 23.0791 19.3696C23.0791 19.0606 23.2852 18.8545 23.5943 18.8545H26.8912C27.2003 18.8545 27.4064 19.0606 27.4064 19.3696C27.4064 19.6787 27.2003 19.8848 26.8912 19.8848Z" fill="#652DBF"/>
<path d="M26.8915 23.2332H23.0278C22.7188 23.2332 22.5127 23.0271 22.5127 22.718C22.5127 22.4089 22.7188 22.2029 23.0278 22.2029H26.8915C27.2006 22.2029 27.4066 22.4089 27.4066 22.718C27.4066 23.0271 27.2006 23.2332 26.8915 23.2332Z" fill="#652DBF"/>
<path d="M26.8918 26.5303H21.0191C20.71 26.5303 20.5039 26.3242 20.5039 26.0152C20.5039 25.7061 20.71 25.5 21.0191 25.5H26.8918C27.2009 25.5 27.4069 25.7061 27.4069 26.0152C27.4069 26.3242 27.2009 26.5303 26.8918 26.5303Z" fill="#652DBF"/>
<path d="M26.8914 16.5362H24.2642C23.9551 16.5362 23.749 16.3301 23.749 16.021C23.749 15.7119 23.9551 15.5059 24.2642 15.5059H26.8914C27.2005 15.5059 27.4066 15.7119 27.4066 16.021C27.4066 16.3301 27.2005 16.5362 26.8914 16.5362Z" fill="#652DBF"/>
</svg>
