<svg width="50" height="50" viewBox="0 0 50 50" fill="none" xmlns="http://www.w3.org/2000/svg">
<g clip-path="url(#clip0_1275_21368)">
<path d="M46.0002 18.2537H43.0203V17.9191C43.0203 17.0861 42.3426 16.4084 41.5096 16.4084H35.6324C35.2274 16.4084 34.899 16.7367 34.899 17.1419C34.899 17.5471 35.2274 17.8754 35.6324 17.8754H41.5096C41.5337 17.8754 41.5534 17.8949 41.5534 17.9191V26.8621C41.5534 27.2672 41.8818 27.5955 42.2869 27.5955C42.6919 27.5955 43.0203 27.2672 43.0203 26.8621V19.7206H46.0002C46.0994 19.7206 46.18 19.8013 46.18 19.9005V45.4892C46.18 47.1676 44.8145 48.5331 43.1361 48.5331H6.86438C5.18593 48.5331 3.82043 47.1676 3.82043 45.4892V19.9005C3.82043 19.8013 3.90111 19.7206 4.00027 19.7206H7.07796V44.8062C7.07796 45.8404 7.91938 46.682 8.95375 46.682H41.1444C42.1788 46.682 43.0202 45.8405 43.0202 44.8062V29.9904C43.0202 29.5853 42.6918 29.257 42.2868 29.257C41.8817 29.257 41.5533 29.5853 41.5533 29.9904V40.5455H29.6865C28.1496 40.5455 26.7625 41.1954 25.7826 42.2336V32.7461C25.7826 32.3409 25.4542 32.0126 25.0491 32.0126C24.6441 32.0126 24.3157 32.3409 24.3157 32.7461V42.2337C23.3358 41.1955 21.9486 40.5456 20.4117 40.5456H17.0789C16.6738 40.5456 16.3454 40.8739 16.3454 41.279C16.3454 41.6842 16.6738 42.0125 17.0789 42.0125H20.4117C22.3249 42.0125 23.9199 43.3962 24.2514 45.215H8.95375C8.72824 45.215 8.54488 45.0317 8.54488 44.8062V42.0125H13.9505C14.3555 42.0125 14.6839 41.6842 14.6839 41.279C14.6839 40.8739 14.3555 40.5456 13.9505 40.5456H8.54488V17.9191C8.54488 17.8949 8.56453 17.8754 8.58869 17.8754H14.4658C14.8709 17.8754 15.1993 17.5471 15.1993 17.1419C15.1993 16.7367 14.8709 16.4084 14.4658 16.4084H8.58869C7.75567 16.4084 7.07796 17.0862 7.07796 17.9191V18.2537H4.00027C3.09225 18.2537 2.35352 18.9925 2.35352 19.9005V45.4892C2.35352 47.9765 4.37708 50 6.86438 50H43.1359C45.6232 50 47.6468 47.9765 47.6468 45.4892V19.9005C47.6469 18.9925 46.9082 18.2537 46.0002 18.2537ZM29.6865 42.0124H41.5533V44.8062C41.5533 45.0317 41.3699 45.215 41.1444 45.215H25.8469C26.1784 43.3961 27.7734 42.0124 29.6865 42.0124Z" fill="white"/>
<path d="M15.2701 10.291C15.6727 10.3284 16.0311 10.0329 16.0691 9.62961C16.2789 7.40538 17.3059 5.34603 18.9614 3.831C20.6271 2.30658 22.7891 1.46692 25.0491 1.46692C30.0232 1.46692 34.0699 5.51364 34.0699 10.4877C34.0699 12.3593 33.5019 14.1543 32.4272 15.6787C32.4211 15.6873 32.4153 15.6961 32.4095 15.7049L27.716 23.0119C27.64 23.1302 27.5996 23.2677 27.5996 23.4083V24.3585C27.5996 24.5514 27.4427 24.7082 27.2499 24.7082H27.202L27.6692 16.7796H28.5048C29.7004 16.7796 30.6731 15.8069 30.6731 14.6114V14.5224C30.6731 13.3268 29.7004 12.3542 28.5048 12.3542C27.3585 12.3542 26.4078 13.2505 26.3403 14.3948L26.2862 15.3126H23.7141L23.66 14.3948C23.5927 13.2505 22.6418 12.3542 21.4956 12.3542C20.2999 12.3542 19.3273 13.3268 19.3273 14.5224V14.6114C19.3273 15.8069 20.2999 16.7796 21.4956 16.7796H22.3311L22.7981 24.7031C22.6292 24.6785 22.4986 24.5342 22.4986 24.3585V23.4083C22.4986 23.2677 22.4582 23.1302 22.3824 23.0119L17.6887 15.7049C17.683 15.6961 17.6772 15.6873 17.6711 15.6787C16.9962 14.7213 16.5209 13.6574 16.2588 12.5164C16.1679 12.1216 15.7738 11.8753 15.3796 11.9659C14.9848 12.0568 14.7384 12.4503 14.8291 12.8451C15.1331 14.1672 15.6828 15.4004 16.463 16.5106L21.0319 23.6234V24.3583C21.0319 25.0989 21.4779 25.7364 22.1151 26.019V27.2593C22.1151 28.5645 23.1768 29.6262 24.482 29.6262H25.6168C26.9219 29.6262 27.9837 28.5645 27.9837 27.2593V26.019C28.6207 25.7364 29.0669 25.099 29.0669 24.3583V23.6234L33.6357 16.5106C34.8797 14.7404 35.5372 12.658 35.5372 10.4876C35.5368 4.70469 30.832 0 25.0491 0C22.4216 0 19.9079 0.976281 17.971 2.7489C16.0467 4.51018 14.8527 6.90477 14.6088 9.49192C14.5706 9.89532 14.8668 10.2531 15.2701 10.291ZM27.8047 14.4811C27.8265 14.1109 28.134 13.821 28.5048 13.821C28.8915 13.821 29.2061 14.1356 29.2061 14.5223V14.6113C29.2061 14.9979 28.8915 15.3125 28.5048 15.3125H27.7557L27.8047 14.4811ZM21.4956 15.3125C21.1088 15.3125 20.7942 14.9979 20.7942 14.6113V14.5223C20.7942 14.1356 21.1088 13.821 21.4956 13.821C21.8664 13.821 22.1739 14.1109 22.1957 14.4811L22.2447 15.3125H21.4956ZM26.1998 16.7795L25.7326 24.7081H24.2678L23.8007 16.7795H26.1998ZM26.5164 27.2594C26.5164 27.7556 26.1127 28.1594 25.6164 28.1594H24.4816C23.9854 28.1594 23.5816 27.7556 23.5816 27.2594V26.175H26.5163V27.2594H26.5164Z" fill="#652DBF"/>
<path d="M37.8968 5.56947C38.0686 5.56947 38.2411 5.50943 38.3804 5.38719L39.9807 3.98208C40.2851 3.7149 40.3152 3.25136 40.048 2.94702C39.7808 2.64269 39.3174 2.61257 39.0129 2.87974L37.4126 4.28485C37.1082 4.55202 37.0782 5.01557 37.3453 5.3199C37.4904 5.48508 37.6931 5.56947 37.8968 5.56947Z" fill="#652DBF"/>
<path d="M37.4126 9.99293L39.0129 11.3981C39.1522 11.5205 39.3247 11.5804 39.4966 11.5804C39.7003 11.5804 39.903 11.496 40.0481 11.3309C40.3153 11.0265 40.2852 10.5631 39.9809 10.2958L38.3806 8.89059C38.0761 8.62322 37.6128 8.65344 37.3455 8.95788C37.0781 9.26221 37.1082 9.72556 37.4126 9.99293Z" fill="#652DBF"/>
<path d="M10.1177 3.98219L11.7181 5.3873C11.8573 5.50964 12.0298 5.56959 12.2016 5.56959C12.4054 5.56959 12.6081 5.48519 12.7531 5.32002C13.0204 5.01568 12.9903 4.55213 12.6858 4.28496L11.0855 2.87985C10.7812 2.61248 10.3176 2.6427 10.0505 2.94713C9.78319 3.25147 9.81332 3.71492 10.1177 3.98219Z" fill="#652DBF"/>
<path d="M10.6018 11.5806C10.7737 11.5806 10.9462 11.5205 11.0855 11.3983L12.6858 9.99306C12.9902 9.72579 13.0203 9.26234 12.753 8.95801C12.4858 8.65367 12.0224 8.62355 11.718 8.89073L10.1177 10.2959C9.81332 10.5632 9.7832 11.0267 10.0505 11.331C10.1954 11.4962 10.398 11.5806 10.6018 11.5806Z" fill="#652DBF"/>
<path d="M18.56 25.4417C18.56 25.0365 18.2316 24.7083 17.8266 24.7083H10.6016C10.1966 24.7083 9.86816 25.0365 9.86816 25.4417C9.86816 25.8469 10.1966 26.1752 10.6016 26.1752H17.8266C18.2316 26.1752 18.56 25.8469 18.56 25.4417Z" fill="white"/>
<path d="M20.0603 28.439H11.9258C11.5208 28.439 11.1924 28.7673 11.1924 29.1724C11.1924 29.5776 11.5208 29.9059 11.9258 29.9059H20.0603C20.4653 29.9059 20.7937 29.5776 20.7937 29.1724C20.7937 28.7673 20.4653 28.439 20.0603 28.439Z" fill="white"/>
<path d="M20.0603 32.0127H11.9258C11.5208 32.0127 11.1924 32.341 11.1924 32.7462C11.1924 33.1513 11.5208 33.4796 11.9258 33.4796H20.0603C20.4653 33.4796 20.7937 33.1513 20.7937 32.7462C20.7937 32.341 20.4653 32.0127 20.0603 32.0127Z" fill="white"/>
<path d="M20.0603 35.5862H11.9258C11.5208 35.5862 11.1924 35.9145 11.1924 36.3196C11.1924 36.7248 11.5208 37.0531 11.9258 37.0531H20.0603C20.4653 37.0531 20.7937 36.7248 20.7937 36.3196C20.7937 35.9145 20.4653 35.5862 20.0603 35.5862Z" fill="white"/>
<path d="M40.2299 25.4417C40.2299 25.0365 39.9016 24.7083 39.4965 24.7083H32.2715C31.8665 24.7083 31.5381 25.0365 31.5381 25.4417C31.5381 25.8469 31.8665 26.1752 32.2715 26.1752H39.4965C39.9016 26.1752 40.2299 25.8469 40.2299 25.4417Z" fill="white"/>
<path d="M38.1716 28.439H30.0372C29.6321 28.439 29.3037 28.7673 29.3037 29.1724C29.3037 29.5776 29.6321 29.9059 30.0372 29.9059H38.1716C38.5767 29.9059 38.9051 29.5776 38.9051 29.1724C38.9051 28.7673 38.5767 28.439 38.1716 28.439Z" fill="white"/>
<path d="M38.1716 32.0127H30.0372C29.6321 32.0127 29.3037 32.341 29.3037 32.7462C29.3037 33.1513 29.6321 33.4796 30.0372 33.4796H38.1716C38.5767 33.4796 38.9051 33.1513 38.9051 32.7462C38.9051 32.341 38.5767 32.0127 38.1716 32.0127Z" fill="white"/>
<path d="M38.1716 35.5862H30.0372C29.6321 35.5862 29.3037 35.9145 29.3037 36.3196C29.3037 36.7248 29.6321 37.0531 30.0372 37.0531H38.1716C38.5767 37.0531 38.9051 36.7248 38.9051 36.3196C38.9051 35.9145 38.5767 35.5862 38.1716 35.5862Z" fill="white"/>
</g>
<defs>
<clipPath id="clip0_1275_21368">
<rect width="50" height="50" fill="white"/>
</clipPath>
</defs>
</svg>
