<svg width="40" height="41" viewBox="0 0 40 41" fill="none" xmlns="http://www.w3.org/2000/svg">
<rect y="0.609985" width="40" height="40" rx="8" fill="white" fill-opacity="0.07"/>
<g clip-path="url(#clip0_361_1757)">
<path d="M13.9219 13.3687C13.3906 13.3687 12.9375 13.5562 12.5625 13.9312C12.1875 14.3062 12 14.7593 12 15.2906C12 15.8218 12.1875 16.275 12.5625 16.65C12.9375 17.025 13.3906 17.2125 13.9219 17.2125C14.4531 17.2125 14.9062 17.025 15.2812 16.65C15.6562 16.275 15.8438 15.8218 15.8438 15.2906C15.8438 14.7593 15.6562 14.3062 15.2812 13.9312C14.9062 13.5562 14.4531 13.3687 13.9219 13.3687ZM12.2656 18.6656H15.5781V29.3375H12.2656V18.6656ZM24.0156 18.4C23.2135 18.4 22.5469 18.5823 22.0156 18.9468C21.4844 19.3114 21.1094 19.702 20.8906 20.1187H20.8438V18.6656H17.6562V29.3375H20.9688V24.0562C20.9688 23.3583 21.0859 22.7281 21.3203 22.1656C21.5547 21.6031 22.1042 21.3218 22.9688 21.3218C23.8125 21.3218 24.3099 21.6369 24.4609 22.2672C24.612 22.8974 24.6875 23.525 24.6875 24.15V29.3375H28V23.4781C28 22.7593 27.9479 22.0927 27.8438 21.4781C27.75 20.8635 27.5599 20.327 27.2734 19.8687C26.987 19.4104 26.5833 19.051 26.0625 18.7906C25.5417 18.5302 24.8594 18.4 24.0156 18.4Z" fill="white"/>
</g>
<defs>
<clipPath id="clip0_361_1757">
<rect width="16" height="16" fill="white" transform="matrix(1 0 0 -1 12 29.15)"/>
</clipPath>
</defs>
</svg>
