<svg width="100" height="100" viewBox="0 0 100 100" fill="none" xmlns="http://www.w3.org/2000/svg">
<g filter="url(#filter0_d_782_3559)">
<rect x="10" y="10" width="80" height="80" rx="40" fill="white" shape-rendering="crispEdges"/>
<path d="M61.6667 46.6666H63.3333C64.2538 46.6666 65 47.4128 65 48.3333V64.9999C65 65.9204 64.2538 66.6666 63.3333 66.6666H36.6667C35.7462 66.6666 35 65.9204 35 64.9999V48.3333C35 47.4128 35.7462 46.6666 36.6667 46.6666H38.3333V44.9999C38.3333 38.5566 43.5567 33.3333 50 33.3333C56.4433 33.3333 61.6667 38.5566 61.6667 44.9999V46.6666ZM38.3333 49.9999V63.3333H61.6667V49.9999H38.3333ZM48.3333 53.3333H51.6667V59.9999H48.3333V53.3333ZM58.3333 46.6666V44.9999C58.3333 40.3976 54.6023 36.6666 50 36.6666C45.3976 36.6666 41.6667 40.3976 41.6667 44.9999V46.6666H58.3333Z" fill="#652DBF"/>
</g>
<defs>
<filter id="filter0_d_782_3559" x="0" y="0" width="100" height="100" filterUnits="userSpaceOnUse" color-interpolation-filters="sRGB">
<feFlood flood-opacity="0" result="BackgroundImageFix"/>
<feColorMatrix in="SourceAlpha" type="matrix" values="0 0 0 0 0 0 0 0 0 0 0 0 0 0 0 0 0 0 127 0" result="hardAlpha"/>
<feOffset/>
<feGaussianBlur stdDeviation="5"/>
<feComposite in2="hardAlpha" operator="out"/>
<feColorMatrix type="matrix" values="0 0 0 0 0 0 0 0 0 0 0 0 0 0 0 0 0 0 0.1 0"/>
<feBlend mode="normal" in2="BackgroundImageFix" result="effect1_dropShadow_782_3559"/>
<feBlend mode="normal" in="SourceGraphic" in2="effect1_dropShadow_782_3559" result="shape"/>
</filter>
</defs>
</svg>
