<svg width="42" height="29" viewBox="0 0 42 29" fill="none" xmlns="http://www.w3.org/2000/svg">
<g clip-path="url(#clip0_361_1587)">
<g clip-path="url(#clip1_361_1587)">
<g clip-path="url(#clip2_361_1587)">
<mask id="mask0_361_1587" style="mask-type:luminance" maskUnits="userSpaceOnUse" x="0" y="0" width="42" height="29">
<path d="M41.6531 0.299988H0.957458V28.61H41.6531V0.299988Z" fill="white"/>
</mask>
<g mask="url(#mask0_361_1587)">
<path d="M38.1143 0.476929H4.49621C2.63953 0.476929 1.1344 1.98206 1.1344 3.83874V25.0712C1.1344 26.9279 2.63953 28.4331 4.49621 28.4331H38.1143C39.971 28.4331 41.4764 26.9279 41.4764 25.0712V3.83874C41.4764 1.98206 39.971 0.476929 38.1143 0.476929Z" fill="url(#paint0_linear_361_1587)" fill-opacity="0.5"/>
<path d="M38.1143 0.476929H4.49621C2.63953 0.476929 1.1344 1.98206 1.1344 3.83874V25.0712C1.1344 26.9279 2.63953 28.4331 4.49621 28.4331H38.1143C39.971 28.4331 41.4764 26.9279 41.4764 25.0712V3.83874C41.4764 1.98206 39.971 0.476929 38.1143 0.476929Z" stroke="#E8E8E8" stroke-width="0.404429"/>
<path d="M38.1143 0.476929H4.49621C2.63953 0.476929 1.1344 1.98206 1.1344 3.83874V25.0712C1.1344 26.9279 2.63953 28.4331 4.49621 28.4331H38.1143C39.971 28.4331 41.4764 26.9279 41.4764 25.0712V3.83874C41.4764 1.98206 39.971 0.476929 38.1143 0.476929Z" stroke="#EDEDED" stroke-width="0.404429"/>
<path d="M14.1499 22.9525C14.1499 22.59 14.3874 22.2923 14.7756 22.2923C15.1464 22.2923 15.3968 22.5772 15.3968 22.9525C15.3968 23.3278 15.1464 23.6127 14.7756 23.6127C14.3874 23.6127 14.1499 23.3149 14.1499 22.9525ZM15.8195 22.9525V21.9214H15.3711V22.1718C15.2289 21.9861 15.0131 21.8696 14.7198 21.8696C14.1415 21.8696 13.6882 22.3229 13.6882 22.9525C13.6882 23.5826 14.1415 24.0354 14.7198 24.0354C15.0131 24.0354 15.2289 23.9189 15.3711 23.7332V23.9836H15.8195V22.9525ZM30.9716 22.9525C30.9716 22.59 31.2091 22.2923 31.5972 22.2923C31.9686 22.2923 32.2185 22.5772 32.2185 22.9525C32.2185 23.3278 31.9686 23.6127 31.5972 23.6127C31.2091 23.6127 30.9716 23.3149 30.9716 22.9525ZM32.6416 22.9525V21.0933H32.1928V22.1718C32.0506 21.9861 31.8348 21.8696 31.5415 21.8696C30.9632 21.8696 30.5099 22.3229 30.5099 22.9525C30.5099 23.5826 30.9632 24.0354 31.5415 24.0354C31.8348 24.0354 32.0506 23.9189 32.1928 23.7332V23.9836H32.6416V22.9525ZM21.3852 22.271C21.6741 22.271 21.8598 22.4522 21.9072 22.7713H20.8371C20.885 22.4735 21.0657 22.271 21.3852 22.271ZM21.3941 21.8696C20.7897 21.8696 20.367 22.3096 20.367 22.9525C20.367 23.6083 20.807 24.0354 21.4243 24.0354C21.7349 24.0354 22.0193 23.9579 22.2697 23.7465L22.0499 23.4142C21.8771 23.552 21.6568 23.63 21.4499 23.63C21.1611 23.63 20.8978 23.4962 20.8331 23.1248H22.3645C22.3689 23.069 22.3733 23.0127 22.3733 22.9525C22.3689 22.3096 21.9719 21.8696 21.3941 21.8696ZM26.8083 22.9525C26.8083 22.59 27.0458 22.2923 27.4339 22.2923C27.8048 22.2923 28.0551 22.5772 28.0551 22.9525C28.0551 23.3278 27.8048 23.6127 27.4339 23.6127C27.0458 23.6127 26.8083 23.3149 26.8083 22.9525ZM28.4778 22.9525V21.9214H28.0295V22.1718C27.8867 21.9861 27.6715 21.8696 27.3781 21.8696C26.7999 21.8696 26.3466 22.3229 26.3466 22.9525C26.3466 23.5826 26.7999 24.0354 27.3781 24.0354C27.6715 24.0354 27.8867 23.9189 28.0295 23.7332V23.9836H28.4778V22.9525ZM24.276 22.9525C24.276 23.5781 24.7115 24.0354 25.3762 24.0354C25.6868 24.0354 25.8937 23.9663 26.1179 23.7895L25.9026 23.427C25.7342 23.548 25.5574 23.6127 25.3629 23.6127C25.0049 23.6083 24.7417 23.3495 24.7417 22.9525C24.7417 22.5555 25.0049 22.2967 25.3629 22.2923C25.5574 22.2923 25.7342 22.357 25.9026 22.478L26.1179 22.1155C25.8937 21.9387 25.6868 21.8696 25.3762 21.8696C24.7115 21.8696 24.276 22.3268 24.276 22.9525ZM30.0571 21.8696C29.7983 21.8696 29.6299 21.9905 29.5134 22.1718V21.9214H29.0689V23.9836H29.5178V22.8276C29.5178 22.4863 29.6645 22.2967 29.9578 22.2967C30.0487 22.2967 30.1435 22.3095 30.2383 22.3486L30.3766 21.9259C30.2773 21.8869 30.1479 21.8696 30.0571 21.8696ZM18.0372 22.0853C17.8214 21.9431 17.5241 21.8696 17.1962 21.8696C16.6738 21.8696 16.3375 22.1199 16.3375 22.5298C16.3375 22.8661 16.5879 23.0735 17.0491 23.1382L17.2609 23.1683C17.5068 23.2029 17.6229 23.2676 17.6229 23.3841C17.6229 23.5436 17.459 23.6344 17.1528 23.6344C16.8422 23.6344 16.618 23.5352 16.4669 23.4187L16.2555 23.7678C16.5014 23.949 16.8121 24.0354 17.1484 24.0354C17.7439 24.0354 18.0891 23.7549 18.0891 23.3624C18.0891 22.9999 17.8174 22.8103 17.3686 22.7456L17.1572 22.715C16.9632 22.6893 16.8076 22.6508 16.8076 22.5125C16.8076 22.3614 16.9543 22.271 17.2002 22.271C17.4634 22.271 17.7182 22.3703 17.8432 22.4478L18.0372 22.0853ZM23.8227 21.8696C23.5639 21.8696 23.3956 21.9905 23.2795 22.1718V21.9214H22.8351V23.9836H23.2835V22.8276C23.2835 22.4863 23.4301 22.2967 23.7234 22.2967C23.8143 22.2967 23.9091 22.3095 24.0039 22.3486L24.1422 21.9259C24.0429 21.8869 23.9136 21.8696 23.8227 21.8696ZM19.9961 21.9214H19.2628V21.2957H18.8095V21.9214H18.3912V22.3313H18.8095V23.272C18.8095 23.7505 18.9952 24.0354 19.5255 24.0354C19.7201 24.0354 19.9443 23.9752 20.0865 23.876L19.9571 23.4917C19.8233 23.5693 19.6766 23.6083 19.5601 23.6083C19.3359 23.6083 19.2628 23.47 19.2628 23.2631V22.3313H19.9961V21.9214ZM13.2917 23.9836V22.6893C13.2917 22.2019 12.9811 21.874 12.4804 21.8696C12.2171 21.8651 11.9455 21.9471 11.7554 22.2365C11.6132 22.0078 11.389 21.8696 11.074 21.8696C10.8537 21.8696 10.6384 21.9343 10.47 22.1757V21.9214H10.0211V23.9836H10.474V22.8404C10.474 22.4824 10.6725 22.2923 10.9791 22.2923C11.2769 22.2923 11.4275 22.4863 11.4275 22.836V23.9836H11.8808V22.8404C11.8808 22.4824 12.0877 22.2923 12.3856 22.2923C12.6917 22.2923 12.8384 22.4863 12.8384 22.836V23.9836H13.2917Z" fill="#231F20"/>
<path d="M24.7027 18.4206H17.9071V6.20764H24.7027V18.4206Z" fill="#FF5F00"/>
<path d="M18.3424 12.3137C18.3424 9.83616 19.5024 7.62932 21.3087 6.20718C19.9878 5.1672 18.3207 4.54648 16.5089 4.54648C12.2196 4.54648 8.74271 8.02392 8.74271 12.3137C8.74271 16.6034 12.2196 20.0808 16.5089 20.0808C18.3207 20.0808 19.9878 19.4601 21.3087 18.4201C19.5024 16.9979 18.3424 14.7911 18.3424 12.3137Z" fill="#EB001B"/>
<path d="M33.8678 12.3137C33.8678 16.6034 30.3909 20.0808 26.1017 20.0808C24.2899 20.0808 22.6228 19.4601 21.3013 18.4201C23.1082 16.9979 24.2681 14.7911 24.2681 12.3137C24.2681 9.83616 23.1082 7.62932 21.3013 6.20718C22.6228 5.1672 24.2899 4.54648 26.1017 4.54648C30.3909 4.54648 33.8678 8.02392 33.8678 12.3137Z" fill="#F79E1B"/>
</g>
</g>
</g>
</g>
<defs>
<linearGradient id="paint0_linear_361_1587" x1="21.1283" y1="2.06937" x2="21.1283" y2="28.61" gradientUnits="userSpaceOnUse">
<stop stop-color="#F5F5F5"/>
<stop offset="1" stop-color="white"/>
</linearGradient>
<clipPath id="clip0_361_1587">
<rect width="40.86" height="28.31" fill="white" transform="translate(0.850006 0.299988)"/>
</clipPath>
<clipPath id="clip1_361_1587">
<rect width="40.86" height="28.31" fill="white" transform="translate(0.850006 0.299988)"/>
</clipPath>
<clipPath id="clip2_361_1587">
<rect width="40.8473" height="28.31" fill="white" transform="translate(0.856354 0.299988)"/>
</clipPath>
</defs>
</svg>
