<svg width="16" height="17" viewBox="0 0 16 17" fill="none" xmlns="http://www.w3.org/2000/svg">
<g opacity="0.5" clip-path="url(#clip0_979_4937)">
<path d="M8 14.3453L11.2998 11.0454C13.1223 9.22301 13.1223 6.26822 11.2998 4.44577C9.4774 2.62333 6.52261 2.62333 4.70017 4.44577C2.87772 6.26822 2.87772 9.22301 4.70017 11.0454L8 14.3453ZM8 16.2309L3.75736 11.9883C1.41421 9.64507 1.41421 5.84611 3.75736 3.50297C6.10051 1.15982 9.89947 1.15982 12.2427 3.50297C14.5858 5.84611 14.5858 9.64507 12.2427 11.9883L8 16.2309ZM8 9.07894C8.7364 9.07894 9.33333 8.48201 9.33333 7.74561C9.33333 7.00923 8.7364 6.41227 8 6.41227C7.2636 6.41227 6.66667 7.00923 6.66667 7.74561C6.66667 8.48201 7.2636 9.07894 8 9.07894ZM8 10.4123C6.52724 10.4123 5.33333 9.21834 5.33333 7.74561C5.33333 6.27285 6.52724 5.07894 8 5.07894C9.47273 5.07894 10.6667 6.27285 10.6667 7.74561C10.6667 9.21834 9.47273 10.4123 8 10.4123Z" fill="#343A40"/>
</g>
<defs>
<clipPath id="clip0_979_4937">
<rect width="16" height="16" fill="white" transform="translate(0 0.412109)"/>
</clipPath>
</defs>
</svg>
