<svg width="100" height="100" viewBox="0 0 100 100" fill="none" xmlns="http://www.w3.org/2000/svg">
<g filter="url(#filter0_d_667_42876)">
<rect x="10" y="10" width="80" height="80" rx="40" fill="white" shape-rendering="crispEdges"/>
<g clip-path="url(#clip0_667_42876)">
<path d="M35.625 33.75V35.625C35.625 36.1223 35.8225 36.5992 36.1742 36.9508C36.5258 37.3025 37.0027 37.5 37.5 37.5C37.9973 37.5 38.4742 37.3025 38.8258 36.9508C39.1775 36.5992 39.375 36.1223 39.375 35.625V33.75C39.375 33.2527 39.1775 32.7758 38.8258 32.4242C38.4742 32.0725 37.9973 31.875 37.5 31.875C37.0027 31.875 36.5258 32.0725 36.1742 32.4242C35.8225 32.7758 35.625 33.2527 35.625 33.75ZM38.125 33.75V35.625C38.125 35.7908 38.0592 35.9497 37.9419 36.0669C37.8247 36.1842 37.6658 36.25 37.5 36.25C37.3342 36.25 37.1753 36.1842 37.0581 36.0669C36.9408 35.9497 36.875 35.7908 36.875 35.625V33.75C36.875 33.5842 36.9408 33.4253 37.0581 33.3081C37.1753 33.1908 37.3342 33.125 37.5 33.125C37.6658 33.125 37.8247 33.1908 37.9419 33.3081C38.0592 33.4253 38.125 33.5842 38.125 33.75Z" fill="#010E21"/>
<path d="M48.125 33.75V35.625C48.125 36.1223 48.3225 36.5992 48.6742 36.9508C49.0258 37.3025 49.5027 37.5 50 37.5C50.4973 37.5 50.9742 37.3025 51.3258 36.9508C51.6775 36.5992 51.875 36.1223 51.875 35.625V33.75C51.875 33.2527 51.6775 32.7758 51.3258 32.4242C50.9742 32.0725 50.4973 31.875 50 31.875C49.5027 31.875 49.0258 32.0725 48.6742 32.4242C48.3225 32.7758 48.125 33.2527 48.125 33.75ZM50.625 33.75V35.625C50.625 35.7908 50.5592 35.9497 50.4419 36.0669C50.3247 36.1842 50.1658 36.25 50 36.25C49.8342 36.25 49.6753 36.1842 49.5581 36.0669C49.4408 35.9497 49.375 35.7908 49.375 35.625V33.75C49.375 33.5842 49.4408 33.4253 49.5581 33.3081C49.6753 33.1908 49.8342 33.125 50 33.125C50.1658 33.125 50.3247 33.1908 50.4419 33.3081C50.5592 33.4253 50.625 33.5842 50.625 33.75Z" fill="#010E21"/>
<path d="M46.875 34.0625H40.625V35.3125H46.875V34.0625Z" fill="#010E21"/>
<path d="M59.375 34.0625H53.125V35.3125H59.375V34.0625Z" fill="#010E21"/>
<path d="M67.5 34.0625H65.625V35.3125H67.5C67.8314 35.3129 68.1492 35.4447 68.3835 35.679C68.6178 35.9134 68.7496 36.2311 68.75 36.5625V42.1875H31.25V36.5625C31.2504 36.2311 31.3822 35.9134 31.6165 35.679C31.8509 35.4447 32.1686 35.3129 32.5 35.3125H34.375V34.0625H32.5C31.8372 34.0633 31.2017 34.3269 30.7331 34.7956C30.2644 35.2642 30.0008 35.8997 30 36.5625V61.5625C30.0011 62.5567 30.3966 63.5099 31.0996 64.2129C31.8026 64.9159 32.7558 65.3114 33.75 65.3125H57.5908C57.3967 64.9113 57.2407 64.4928 57.1247 64.0625H49.4229V62.504H56.883C56.8784 62.399 56.875 62.2936 56.875 62.1875C56.8757 61.8753 56.8966 61.5635 56.9376 61.254H47.7934C47.4725 61.2529 47.157 61.17 46.8771 61.013C46.5971 60.856 46.3618 60.6301 46.1936 60.3568L42.7208 54.6741C42.678 54.604 42.6218 54.5431 42.5555 54.4948C42.4891 54.4465 42.4139 54.4117 42.3341 54.3924C42.2543 54.3732 42.1715 54.3698 42.0905 54.3826C42.0094 54.3953 41.9316 54.4239 41.8616 54.4667C41.7915 54.5095 41.7306 54.5657 41.6823 54.632C41.634 54.6984 41.5992 54.7736 41.5799 54.8534C41.5607 54.9332 41.5573 55.016 41.5701 55.097C41.5828 55.1781 41.6114 55.2559 41.6542 55.3259L45.127 61.0086C45.4075 61.4641 45.7996 61.8405 46.2662 62.1022C46.7328 62.3638 47.2585 62.5021 47.7934 62.504H48.1729V64.0625H43.062C42.917 63.3572 42.5333 62.7234 41.9755 62.268C41.4178 61.8126 40.7201 61.5635 40 61.5625V52.4888C40.5523 52.5723 41.0839 52.7597 41.5665 53.0411C41.6769 53.1038 41.8036 53.1318 41.9301 53.1215C42.0566 53.1111 42.1771 53.0629 42.2758 52.9831C42.6709 52.6893 43.1369 52.5059 43.6262 52.4516C44.1154 52.3974 44.6103 52.4742 45.0601 52.6743C45.1553 52.7162 45.2594 52.7338 45.363 52.7254C45.4667 52.7169 45.5666 52.6828 45.6537 52.626C45.7409 52.5692 45.8124 52.4916 45.862 52.4001C45.9115 52.3087 45.9375 52.2064 45.9375 52.1024C45.9375 48.8754 42.9936 46.25 39.375 46.25C35.7564 46.25 32.8125 48.8754 32.8125 52.1024C32.813 52.2128 32.8427 52.3212 32.8987 52.4164C32.9547 52.5116 33.0349 52.5903 33.1313 52.6444C33.2279 52.6985 33.3371 52.7263 33.4479 52.725C33.5586 52.7236 33.6671 52.693 33.7624 52.6364C34.1691 52.4172 34.6345 52.3316 35.0926 52.3918C35.5507 52.452 35.9783 52.6549 36.3145 52.9718C36.4158 53.0598 36.5427 53.1128 36.6764 53.1231C36.8101 53.1335 36.9436 53.1005 37.0572 53.0292C37.5803 52.7368 38.1552 52.5485 38.75 52.475V60.994C37.9837 61.1247 37.277 61.4902 36.7273 62.0398C36.1777 62.5895 35.8122 63.2962 35.6815 64.0625H33.75C33.0872 64.0617 32.4517 63.7981 31.9831 63.3294C31.5144 62.8608 31.2508 62.2253 31.25 61.5625V43.4375H68.75V56.7457C69.2254 57.1552 69.6456 57.6247 70 58.1424V36.5625C69.9992 35.8997 69.7356 35.2642 69.2669 34.7956C68.7983 34.3269 68.1628 34.0633 67.5 34.0625ZM41.7679 64.0625H40V62.8125C40.3876 62.8129 40.7657 62.9333 41.0822 63.1571C41.3987 63.3809 41.6382 63.6972 41.7679 64.0625ZM44.5926 51.2335C43.9 51.1165 43.1887 51.1879 42.5332 51.4403C42.5237 50.1489 42.1167 48.8919 41.3674 47.8401C43.0118 48.4193 44.2505 49.6887 44.5926 51.2335ZM36.2163 51.4364C35.5763 51.1431 34.8614 51.0545 34.1692 51.1826C34.5266 49.6615 35.7548 48.4145 37.3795 47.8413C36.6318 48.8918 36.2257 50.1471 36.2163 51.4364ZM37.4648 51.4917C37.4533 50.7415 37.6204 49.9993 37.9523 49.3264C38.2843 48.6535 38.7715 48.0692 39.3738 47.6218C39.9812 48.074 40.4716 48.6649 40.8042 49.3452C41.1368 50.0255 41.3019 50.7754 41.2857 51.5325C40.6663 51.3003 40.0102 51.1811 39.3488 51.1807C38.7082 51.1832 38.0722 51.2882 37.4648 51.4917ZM38.75 62.2665V64.0625H36.954C37.0666 63.6304 37.2923 63.2362 37.608 62.9205C37.9237 62.6048 38.3179 62.3791 38.75 62.2665Z" fill="#652DBF"/>
<path d="M64.375 35.625V33.75C64.375 33.2527 64.1775 32.7758 63.8258 32.4242C63.4742 32.0725 62.9973 31.875 62.5 31.875C62.0027 31.875 61.5258 32.0725 61.1742 32.4242C60.8225 32.7758 60.625 33.2527 60.625 33.75V35.625C60.625 36.1223 60.8225 36.5992 61.1742 36.9508C61.5258 37.3025 62.0027 37.5 62.5 37.5C62.9973 37.5 63.4742 37.3025 63.8258 36.9508C64.1775 36.5992 64.375 36.1223 64.375 35.625ZM61.875 35.625V33.75C61.875 33.5842 61.9408 33.4253 62.0581 33.3081C62.1753 33.1908 62.3342 33.125 62.5 33.125C62.6658 33.125 62.8247 33.1908 62.9419 33.3081C63.0592 33.4253 63.125 33.5842 63.125 33.75V35.625C63.125 35.7908 63.0592 35.9497 62.9419 36.0669C62.8247 36.1842 62.6658 36.25 62.5 36.25C62.3342 36.25 62.1753 36.1842 62.0581 36.0669C61.9408 35.9497 61.875 35.7908 61.875 35.625Z" fill="#010E21"/>
<path d="M49.2873 49.2074L47.4123 50.7699C47.3493 50.8224 47.2972 50.8869 47.2591 50.9595C47.2209 51.0322 47.1975 51.1117 47.1901 51.1934C47.1826 51.2751 47.1914 51.3575 47.2158 51.4358C47.2402 51.5142 47.2798 51.587 47.3324 51.65C47.3849 51.713 47.4493 51.7651 47.522 51.8033C47.5947 51.8414 47.6741 51.8648 47.7559 51.8723C47.8376 51.8797 47.92 51.8709 47.9983 51.8465C48.0767 51.8221 48.1495 51.7825 48.2125 51.73L49.6608 50.5233L55.1951 55.7662C55.2547 55.8227 55.3248 55.8668 55.4014 55.8962C55.4781 55.9255 55.5598 55.9395 55.6418 55.9373C55.7239 55.935 55.8047 55.9167 55.8797 55.8832C55.9546 55.8497 56.0223 55.8019 56.0787 55.7423C56.1352 55.6827 56.1793 55.6125 56.2087 55.5359C56.238 55.4592 56.252 55.3775 56.2497 55.2955C56.2475 55.2134 56.2291 55.1326 56.1957 55.0577C56.1622 54.9827 56.1143 54.9151 56.0548 54.8586L50.1173 49.2336C50.0062 49.1283 49.8603 49.0674 49.7073 49.0626C49.5543 49.0577 49.4048 49.1093 49.2873 49.2074Z" fill="#010E21"/>
<path d="M58.4377 55.3994C58.5868 55.3996 58.731 55.3462 58.8441 55.249L64.3421 50.5386L66.433 52.6294C66.5503 52.7462 66.7091 52.8117 66.8747 52.8116C67.0402 52.8114 67.1989 52.7456 67.316 52.6285C67.433 52.5115 67.4988 52.3528 67.499 52.1872C67.4992 52.0217 67.4336 51.8629 67.3168 51.7456L64.8168 49.2456C64.7055 49.1342 64.5563 49.069 64.3989 49.063C64.2416 49.0569 64.0878 49.1105 63.9683 49.2129L58.0308 54.2999C57.9338 54.383 57.8646 54.4939 57.8325 54.6175C57.8005 54.7411 57.807 54.8716 57.8514 54.9914C57.8957 55.1112 57.9757 55.2145 58.0805 55.2875C58.1853 55.3604 58.31 55.3995 58.4377 55.3994Z" fill="#010E21"/>
<path d="M58.9101 51.6676C58.9648 51.7289 59.0312 51.7788 59.1052 51.8144C59.1793 51.85 59.2597 51.8707 59.3417 51.8752C59.4238 51.8797 59.506 51.868 59.5835 51.8407C59.661 51.8135 59.7324 51.7712 59.7936 51.7163C59.8547 51.6614 59.9045 51.5949 59.9399 51.5208C59.9754 51.4466 59.9959 51.3662 60.0002 51.2841C60.0045 51.202 59.9926 51.1199 59.9652 51.0424C59.9377 50.965 59.8953 50.8937 59.8402 50.8326L57.0351 47.7076C56.9803 47.6466 56.914 47.5969 56.8401 47.5614C56.7661 47.5259 56.6859 47.5054 56.6039 47.5009C56.522 47.4965 56.44 47.5082 56.3627 47.5355C56.2853 47.5627 56.214 47.6049 56.153 47.6597L53.3331 50.1857C53.272 50.2404 53.2222 50.3067 53.1866 50.3807C53.1511 50.4547 53.1305 50.5349 53.1259 50.6169C53.1214 50.6989 53.1331 50.7809 53.1603 50.8584C53.1875 50.9358 53.2297 51.0072 53.2845 51.0683C53.3393 51.1295 53.4056 51.1792 53.4796 51.2147C53.5536 51.2502 53.6339 51.2708 53.7159 51.2753C53.7978 51.2797 53.8799 51.268 53.9573 51.2408C54.0348 51.2135 54.1061 51.1713 54.1672 51.1165L56.5219 49.0074L58.9101 51.6676Z" fill="#010E21"/>
<path d="M61.25 48.125C61.6208 48.125 61.9834 48.015 62.2917 47.809C62.6 47.603 62.8404 47.3101 62.9823 46.9675C63.1242 46.6249 63.1613 46.2479 63.089 45.8842C63.0166 45.5205 62.838 45.1864 62.5758 44.9242C62.3136 44.662 61.9795 44.4834 61.6158 44.411C61.2521 44.3387 60.8751 44.3758 60.5325 44.5177C60.1899 44.6596 59.897 44.9 59.691 45.2083C59.485 45.5166 59.375 45.8792 59.375 46.25C59.3755 46.7471 59.5733 47.2237 59.9248 47.5752C60.2763 47.9267 60.7529 48.1245 61.25 48.125ZM61.25 45.625C61.3736 45.625 61.4944 45.6617 61.5972 45.7303C61.7 45.799 61.7801 45.8966 61.8274 46.0108C61.8747 46.125 61.8871 46.2507 61.863 46.3719C61.8389 46.4932 61.7794 46.6045 61.6919 46.6919C61.6045 46.7794 61.4932 46.8389 61.3719 46.863C61.2507 46.8871 61.125 46.8747 61.0108 46.8274C60.8966 46.7801 60.799 46.7 60.7303 46.5972C60.6617 46.4945 60.625 46.3736 60.625 46.25C60.6252 46.0843 60.6911 45.9254 60.8083 45.8083C60.9254 45.6911 61.0843 45.6252 61.25 45.625Z" fill="#010E21"/>
<path d="M64.0625 56.25C62.8882 56.25 61.7402 56.5982 60.7638 57.2506C59.7874 57.9031 59.0264 58.8304 58.577 59.9153C58.1276 61.0003 58.01 62.1941 58.2391 63.3458C58.4682 64.4976 59.0337 65.5556 59.8641 66.3859C60.6944 67.2163 61.7524 67.7818 62.9042 68.0109C64.0559 68.24 65.2498 68.1224 66.3347 67.673C67.4196 67.2236 68.3469 66.4626 68.9994 65.4862C69.6518 64.5098 70 63.3618 70 62.1875C69.9982 60.6133 69.3721 59.1041 68.259 57.991C67.1459 56.8779 65.6367 56.2518 64.0625 56.25ZM64.0625 66.875C63.1354 66.875 62.2291 66.6001 61.4583 66.085C60.6874 65.5699 60.0866 64.8379 59.7318 63.9813C59.377 63.1248 59.2842 62.1823 59.4651 61.273C59.6459 60.3637 60.0924 59.5285 60.7479 58.8729C61.4035 58.2174 62.2387 57.7709 63.148 57.5901C64.0573 57.4092 64.9998 57.502 65.8563 57.8568C66.7129 58.2116 67.4449 58.8124 67.96 59.5833C68.4751 60.3541 68.75 61.2604 68.75 62.1875C68.7486 63.4303 68.2543 64.6218 67.3755 65.5005C66.4968 66.3793 65.3053 66.8736 64.0625 66.875Z" fill="#652DBF"/>
<path d="M64.1984 61.4545C63.7299 61.3238 63.5029 61.243 63.4453 61.0678C63.4 60.928 63.5921 60.813 63.6696 60.7806C63.8159 60.7269 63.9727 60.708 64.1276 60.7254C64.2825 60.7428 64.4311 60.7961 64.5618 60.881C64.7018 60.9685 64.8707 60.997 65.0317 60.9603C65.1926 60.9237 65.3325 60.8248 65.4208 60.6854C65.5092 60.546 65.5388 60.3773 65.5032 60.2161C65.4675 60.0549 65.3696 59.9144 65.2308 59.8251C65.1176 59.7551 64.9985 59.695 64.8748 59.6458V59.375C64.8748 59.2092 64.8089 59.0503 64.6917 58.9331C64.5745 58.8158 64.4155 58.75 64.2498 58.75C64.084 58.75 63.925 58.8158 63.8078 58.9331C63.6906 59.0503 63.6248 59.2092 63.6248 59.375V59.5038C63.4751 59.5286 63.3286 59.5699 63.1881 59.6271C62.828 59.7544 62.5306 60.0151 62.3574 60.3555C62.1841 60.6958 62.1482 61.0897 62.2571 61.4557C62.5301 62.287 63.3004 62.5018 63.8628 62.6584C64.2034 62.7533 64.525 62.843 64.6326 63.0167C64.6651 63.0645 64.6837 63.1205 64.6863 63.1783C64.689 63.2361 64.6755 63.2935 64.6474 63.3441C64.5189 63.5364 64.1347 63.5822 63.8398 63.5281C63.7245 63.5038 63.6165 63.4528 63.5245 63.3792C63.4598 63.3287 63.3858 63.2914 63.3068 63.2695C63.2277 63.2476 63.145 63.2415 63.0636 63.2515C62.9821 63.2615 62.9034 63.2874 62.832 63.3279C62.7606 63.3683 62.6978 63.4224 62.6473 63.4871C62.5968 63.5518 62.5595 63.6258 62.5376 63.7049C62.5157 63.784 62.5095 63.8666 62.5196 63.948C62.5296 64.0295 62.5555 64.1082 62.596 64.1796C62.6364 64.251 62.6905 64.3138 62.7552 64.3643C62.9637 64.5271 63.2022 64.6473 63.4571 64.7179V65C63.4571 65.1658 63.5229 65.3247 63.6401 65.4419C63.7574 65.5592 63.9163 65.625 64.0821 65.625C64.2478 65.625 64.4068 65.5592 64.524 65.4419C64.6412 65.3247 64.7071 65.1658 64.7071 65V64.7145C65.1054 64.6167 65.454 64.3761 65.6867 64.0384C65.8488 63.7886 65.9358 63.4974 65.9373 63.1996C65.9388 62.9018 65.8548 62.6099 65.6952 62.3584C65.331 61.77 64.703 61.5948 64.1984 61.4545Z" fill="#010E21"/>
</g>
</g>
<defs>
<filter id="filter0_d_667_42876" x="0" y="0" width="100" height="100" filterUnits="userSpaceOnUse" color-interpolation-filters="sRGB">
<feFlood flood-opacity="0" result="BackgroundImageFix"/>
<feColorMatrix in="SourceAlpha" type="matrix" values="0 0 0 0 0 0 0 0 0 0 0 0 0 0 0 0 0 0 127 0" result="hardAlpha"/>
<feOffset/>
<feGaussianBlur stdDeviation="5"/>
<feComposite in2="hardAlpha" operator="out"/>
<feColorMatrix type="matrix" values="0 0 0 0 0 0 0 0 0 0 0 0 0 0 0 0 0 0 0.1 0"/>
<feBlend mode="normal" in2="BackgroundImageFix" result="effect1_dropShadow_667_42876"/>
<feBlend mode="normal" in="SourceGraphic" in2="effect1_dropShadow_667_42876" result="shape"/>
</filter>
<clipPath id="clip0_667_42876">
<rect width="40" height="40" fill="white" transform="translate(30 30)"/>
</clipPath>
</defs>
</svg>
