<svg width="100" height="100" viewBox="0 0 100 100" fill="none" xmlns="http://www.w3.org/2000/svg">
<g filter="url(#filter0_d_782_3665)">
<rect x="10" y="10" width="80" height="80" rx="40" fill="white" shape-rendering="crispEdges"/>
<path d="M50.0007 48.3333C54.603 48.3333 58.334 52.0643 58.334 56.6666V66.6666H55.0007V56.6666C55.0007 54.0038 52.9192 51.8271 50.2945 51.6751L50.0007 51.6666C47.3378 51.6666 45.1612 53.7481 45.0091 56.3728L45.0007 56.6666V66.6666H41.6673V56.6666C41.6673 52.0643 45.3983 48.3333 50.0007 48.3333ZM39.1673 53.3333C39.6321 53.3333 40.0841 53.3876 40.5175 53.4903C40.2374 54.3233 40.0652 55.2033 40.0156 56.1154L40.0007 56.6666L40.0018 56.8093C39.8133 56.7426 39.6143 56.6978 39.4081 56.6781L39.1673 56.6666C37.8678 56.6666 36.7999 57.6581 36.6788 58.9258L36.6673 59.1666V66.6666H33.334V59.1666C33.334 55.9449 35.9457 53.3333 39.1673 53.3333ZM60.834 53.3333C64.0557 53.3333 66.6673 55.9449 66.6673 59.1666V66.6666H63.334V59.1666C63.334 57.8671 62.3425 56.7993 61.0748 56.6781L60.834 56.6666C60.542 56.6666 60.2617 56.7166 60.0012 56.8086L60.0007 56.6666C60.0007 55.5571 59.82 54.4899 59.4865 53.4926C59.9172 53.3876 60.3692 53.3333 60.834 53.3333ZM39.1673 43.3333C41.4685 43.3333 43.334 45.1987 43.334 47.4999C43.334 49.8011 41.4685 51.6666 39.1673 51.6666C36.8661 51.6666 35.0007 49.8011 35.0007 47.4999C35.0007 45.1987 36.8661 43.3333 39.1673 43.3333ZM60.834 43.3333C63.1352 43.3333 65.0007 45.1987 65.0007 47.4999C65.0007 49.8011 63.1352 51.6666 60.834 51.6666C58.5328 51.6666 56.6673 49.8011 56.6673 47.4999C56.6673 45.1987 58.5328 43.3333 60.834 43.3333ZM39.1673 46.6666C38.7071 46.6666 38.334 47.0398 38.334 47.4999C38.334 47.9601 38.7071 48.3333 39.1673 48.3333C39.6276 48.3333 40.0007 47.9601 40.0007 47.4999C40.0007 47.0398 39.6276 46.6666 39.1673 46.6666ZM60.834 46.6666C60.3738 46.6666 60.0007 47.0398 60.0007 47.4999C60.0007 47.9601 60.3738 48.3333 60.834 48.3333C61.2942 48.3333 61.6673 47.9601 61.6673 47.4999C61.6673 47.0398 61.2942 46.6666 60.834 46.6666ZM50.0007 33.3333C53.6825 33.3333 56.6673 36.318 56.6673 39.9999C56.6673 43.6818 53.6825 46.6666 50.0007 46.6666C46.3188 46.6666 43.334 43.6818 43.334 39.9999C43.334 36.318 46.3188 33.3333 50.0007 33.3333ZM50.0007 36.6666C48.1597 36.6666 46.6673 38.159 46.6673 39.9999C46.6673 41.8409 48.1597 43.3333 50.0007 43.3333C51.8417 43.3333 53.334 41.8409 53.334 39.9999C53.334 38.159 51.8417 36.6666 50.0007 36.6666Z" fill="#652DBF"/>
</g>
<defs>
<filter id="filter0_d_782_3665" x="0" y="0" width="100" height="100" filterUnits="userSpaceOnUse" color-interpolation-filters="sRGB">
<feFlood flood-opacity="0" result="BackgroundImageFix"/>
<feColorMatrix in="SourceAlpha" type="matrix" values="0 0 0 0 0 0 0 0 0 0 0 0 0 0 0 0 0 0 127 0" result="hardAlpha"/>
<feOffset/>
<feGaussianBlur stdDeviation="5"/>
<feComposite in2="hardAlpha" operator="out"/>
<feColorMatrix type="matrix" values="0 0 0 0 0 0 0 0 0 0 0 0 0 0 0 0 0 0 0.1 0"/>
<feBlend mode="normal" in2="BackgroundImageFix" result="effect1_dropShadow_782_3665"/>
<feBlend mode="normal" in="SourceGraphic" in2="effect1_dropShadow_782_3665" result="shape"/>
</filter>
</defs>
</svg>
