<svg width="100" height="100" viewBox="0 0 100 100" fill="none" xmlns="http://www.w3.org/2000/svg">
<g filter="url(#filter0_d_667_43007)">
<rect x="10" y="10" width="80" height="80" rx="40" fill="white" shape-rendering="crispEdges"/>
<mask id="mask0_667_43007" style="mask-type:luminance" maskUnits="userSpaceOnUse" x="30" y="30" width="40" height="40">
<path d="M30 30H70V70H30V30Z" fill="white"/>
</mask>
<g mask="url(#mask0_667_43007)">
<path d="M54.6555 64.312H49.9222C48.9297 64.312 47.9386 64.2401 46.9566 64.0966L45.9189 63.9451" stroke="#652DBF" stroke-miterlimit="10" stroke-linecap="round" stroke-linejoin="round"/>
<path d="M36.5432 61.9045V67.3098C36.5432 67.8804 36.0806 68.343 35.5099 68.343H33.755C33.1843 68.343 32.7217 67.8804 32.7217 67.3098V56.1019C32.7217 55.5313 33.1843 55.0686 33.755 55.0686H35.5099C36.0806 55.0686 36.5432 55.5313 36.5432 56.1019V59.1644" stroke="#652DBF" stroke-miterlimit="10" stroke-linecap="round" stroke-linejoin="round"/>
<path d="M36.543 66.5627L43.1959 69.0391C43.8622 69.287 44.5674 69.4141 45.2784 69.4141H53.3633C54.4947 69.4141 55.6028 69.0926 56.5585 68.487L66.6816 62.7757C67.3495 62.1827 67.4733 61.186 66.9709 60.4476C66.4211 59.6396 65.5116 59.4992 64.5109 59.9724L54.655 64.312L54.6667 63.374C54.5362 62.0615 53.5256 61.0081 52.2197 60.8234L46.2177 60.1323C44.8332 59.9364 44.1413 59.4724 42.9344 58.7664C41.2866 57.8024 39.4119 57.2944 37.5027 57.2944H36.543" stroke="#652DBF" stroke-miterlimit="10" stroke-linecap="round" stroke-linejoin="round"/>
<path d="M51.5382 31.3223C52.0771 31.9918 52.9874 32.2356 53.7889 31.9253C54.9641 31.4702 56.2589 32.2179 56.4525 33.4631C56.5844 34.3124 57.2507 34.9788 58.1001 35.1108C59.3453 35.3043 60.093 36.5991 59.6379 37.7744C59.3275 38.5759 59.5714 39.4861 60.241 40.0251C61.2227 40.8153 61.2227 42.3105 60.241 43.1007C59.5714 43.6396 59.3275 44.5498 59.6379 45.3514C60.093 46.5266 59.3453 47.8215 58.1001 48.015C57.2507 48.1469 56.5844 48.8133 56.4525 49.6626C56.2589 50.9079 54.9641 51.6555 53.7889 51.2004C52.9874 50.8901 52.0771 51.134 51.5382 51.8035C50.7479 52.7852 49.2528 52.7852 48.4625 51.8035C47.9236 51.134 47.0134 50.8901 46.2118 51.2004C45.0366 51.6555 43.7418 50.9079 43.5482 49.6626C43.4163 48.8133 42.75 48.1469 41.9006 48.015C40.6554 47.8215 39.9077 46.5266 40.3628 45.3514C40.6732 44.5498 40.4293 43.6396 39.7597 43.1007C38.778 42.3105 38.778 40.8153 39.7597 40.0251C40.4293 39.4861 40.6732 38.5759 40.3628 37.7744C39.9077 36.5991 40.6554 35.3043 41.9006 35.1108C42.75 34.9788 43.4163 34.3124 43.5482 33.4631C43.7418 32.2179 45.0366 31.4702 46.2118 31.9253C47.0134 32.2356 47.9236 31.9918 48.4625 31.3223C49.2528 30.3405 50.7479 30.3405 51.5382 31.3223Z" stroke="#652DBF" stroke-miterlimit="10" stroke-linecap="round" stroke-linejoin="round"/>
<path d="M42.7238 40.1922C43.3666 36.7584 46.38 34.1596 50.0005 34.1596C54.0893 34.1596 57.4038 37.4742 57.4038 41.5629C57.4038 45.6517 54.0893 48.9663 50.0005 48.9663C46.3796 48.9663 43.366 46.3669 42.7236 42.9325" stroke="#010E21" stroke-miterlimit="10" stroke-linecap="round" stroke-linejoin="round"/>
<path d="M50.1446 43.9203L52.5 45.4773C52.7014 45.6103 52.96 45.4224 52.8957 45.1898L52.1429 42.4685C52.1149 42.3676 52.1499 42.2598 52.2318 42.1946L54.4404 40.4356C54.6292 40.2852 54.5304 39.9811 54.2893 39.9704L51.4686 39.8455C51.364 39.8408 51.2723 39.7743 51.2355 39.6762L50.2451 37.0322C50.1604 36.8062 49.8407 36.8062 49.756 37.0322L48.7656 39.6762C48.7289 39.7743 48.6372 39.8408 48.5326 39.8455L45.7119 39.9704C45.4708 39.9811 45.372 40.2852 45.5608 40.4356L47.7693 42.1946C47.8512 42.2598 47.8862 42.3676 47.8583 42.4685L47.1055 45.1898C47.0411 45.4224 47.2998 45.6103 47.5012 45.4773L49.8565 43.9203C49.9439 43.8626 50.0572 43.8626 50.1446 43.9203Z" stroke="#010E21" stroke-miterlimit="10" stroke-linecap="round" stroke-linejoin="round"/>
<path d="M43.4131 49.1912L40.5291 54.7836C40.4023 55.0294 40.622 55.3108 40.8912 55.2474L44.1019 54.4911C44.2573 54.4545 44.4159 54.5364 44.4762 54.6841L45.7216 57.7385C45.8261 57.9947 46.1827 58.0105 46.3095 57.7647L49.1127 52.3292" stroke="#652DBF" stroke-miterlimit="10" stroke-linecap="round" stroke-linejoin="round"/>
<path d="M50.8877 52.3293L53.6909 57.7647C53.8176 58.0105 54.1743 57.9947 54.2787 57.7385L55.5242 54.6841C55.5844 54.5364 55.7432 54.4545 55.8984 54.4911L59.1092 55.2474C59.3784 55.3108 59.5981 55.0294 59.4714 54.7836L56.5873 49.1912" stroke="#652DBF" stroke-miterlimit="10" stroke-linecap="round" stroke-linejoin="round"/>
</g>
</g>
<defs>
<filter id="filter0_d_667_43007" x="0" y="0" width="100" height="100" filterUnits="userSpaceOnUse" color-interpolation-filters="sRGB">
<feFlood flood-opacity="0" result="BackgroundImageFix"/>
<feColorMatrix in="SourceAlpha" type="matrix" values="0 0 0 0 0 0 0 0 0 0 0 0 0 0 0 0 0 0 127 0" result="hardAlpha"/>
<feOffset/>
<feGaussianBlur stdDeviation="5"/>
<feComposite in2="hardAlpha" operator="out"/>
<feColorMatrix type="matrix" values="0 0 0 0 0 0 0 0 0 0 0 0 0 0 0 0 0 0 0.1 0"/>
<feBlend mode="normal" in2="BackgroundImageFix" result="effect1_dropShadow_667_43007"/>
<feBlend mode="normal" in="SourceGraphic" in2="effect1_dropShadow_667_43007" result="shape"/>
</filter>
</defs>
</svg>
