<svg width="20" height="20" viewBox="0 0 20 20" fill="none" xmlns="http://www.w3.org/2000/svg">
<g clip-path="url(#clip0_836_2679)">
<path fill-rule="evenodd" clip-rule="evenodd" d="M19.8461 9.02695L19.8441 18.2848C19.8439 19.2613 19.1016 20.0034 18.1641 20.0032L5.15625 20.0004C4.21875 20.0002 3.43767 19.2188 3.43787 18.2812L3.43985 9.02344C3.44005 8.08594 4.22147 7.30485 5.15897 7.30506L18.1668 7.30784C19.1043 7.30804 19.8463 8.08945 19.8461 9.02695ZM3.98474 18.2814C3.98461 18.9064 4.4923 19.4534 5.15637 19.4535L18.1642 19.4563C18.7892 19.4564 19.2971 18.9487 19.2972 18.2846L19.2992 9.02684C19.2994 8.36277 18.7917 7.85485 18.1667 7.85472L5.15885 7.85193C4.53385 7.8518 3.98686 8.39855 3.98673 9.02355L3.98474 18.2814Z" fill="#652DBF"/>
<path fill-rule="evenodd" clip-rule="evenodd" d="M19.4545 8.05078C19.4545 8.1289 19.4154 8.24608 19.3372 8.28513C19.22 8.36323 19.0638 8.32413 18.9857 8.20693C18.7904 8.01157 18.4779 7.85526 18.1654 7.85519L5.15764 7.8524C4.53264 7.85227 3.98564 8.39903 3.98551 9.02403L3.98403 15.9381C3.98401 16.0162 3.94493 16.0943 3.8668 16.1334C3.78866 16.2115 3.71053 16.2115 3.63241 16.2115L2.49966 15.8987C1.60128 15.6251 1.05461 14.6875 1.28918 13.7891L3.67391 4.84427C3.79119 4.41461 4.0647 4.06311 4.45537 3.82881C4.84605 3.59452 5.31482 3.5165 5.78354 3.63379L18.3219 6.99585C18.8297 7.15221 19.2593 7.50386 19.4154 7.93358C19.4545 7.97265 19.4545 8.01172 19.4545 8.05078ZM3.43723 15.5864L3.43864 9.02391C3.43884 8.08641 4.22025 7.30533 5.15775 7.30553L17.3453 7.30814L5.62717 4.18063C5.31469 4.10244 5.00218 4.14143 4.72871 4.29762C4.45524 4.45381 4.29894 4.68816 4.22075 5.00064L1.83602 13.9454C1.67964 14.5313 2.03107 15.1564 2.65603 15.3519L3.43723 15.5864Z" fill="#652DBF" stroke="#652DBF" stroke-width="0.3"/>
<path fill-rule="evenodd" clip-rule="evenodd" d="M19.4164 8.01194C19.4164 8.12913 19.2992 8.24629 19.182 8.28532C19.0257 8.28529 18.8695 8.16807 18.8695 8.05088C18.8305 7.66025 18.6353 7.38677 18.3228 7.19139L18.2838 7.19138L7.03515 0.704597C6.80081 0.548297 6.48832 0.509167 6.1758 0.587225C5.86329 0.665284 5.62887 0.860546 5.47257 1.09489L0.861472 9.14077C0.548854 9.68758 0.744008 10.4298 1.25175 10.7424L2.30632 11.3286C2.46255 11.4067 2.50158 11.563 2.42343 11.6802C2.34527 11.8364 2.18901 11.8754 2.03278 11.7973L0.978215 11.2111C0.197066 10.7422 -0.0761456 9.68745 0.39278 8.86724L5.00388 0.821349C5.23833 0.469837 5.58996 0.157412 6.05873 0.0793879C6.48844 -0.0377076 6.95718 0.00145535 7.34775 0.235914L18.5573 6.72269C19.0651 6.99624 19.3775 7.42599 19.4164 7.97288L19.4164 8.01194Z" fill="#652DBF"/>
<g clip-path="url(#clip1_836_2679)">
<path d="M15.1953 15.1953L15.7812 15.1953L15.7812 15L15 15L15 15.7812L15.1953 15.7813L15.1953 15.1953Z" fill="#010E21"/>
<path d="M17.5527 15L17.5527 15.1953L18.1387 15.1953L18.1387 15.7813L18.334 15.7813L18.334 15L17.5527 15Z" fill="#010E21"/>
<path d="M18.1387 18.1387L17.5527 18.1387L17.5527 18.334L18.334 18.334L18.334 17.5527L18.1387 17.5527L18.1387 18.1387Z" fill="#010E21"/>
<path d="M15.1953 17.5527L15 17.5527L15 18.334L15.7812 18.334L15.7812 18.1387L15.1953 18.1387L15.1953 17.5527Z" fill="#010E21"/>
<path d="M15.3965 15.3906L15.3965 16.3672L16.373 16.3672L16.373 15.7813L16.5684 15.7813L16.5684 15.5859L16.373 15.5859L16.373 15.3906L15.3965 15.3906ZM16.1777 16.1719L15.5918 16.1719L15.5918 15.5859L16.1777 15.5859L16.1777 16.1719Z" fill="#010E21"/>
<path d="M17.9355 17.9297L17.9355 16.9531L17.5449 16.9531L17.5449 16.7578L17.3496 16.7578L17.3496 16.9531L16.7637 16.9531L16.7637 17.1484L16.959 17.1484L16.959 17.3438L16.7637 17.3438L16.7637 17.5391L16.959 17.5391L16.959 17.9297L17.9355 17.9297ZM17.1543 17.1484L17.7402 17.1484L17.7402 17.7344L17.1543 17.7344L17.1543 17.1484Z" fill="#010E21"/>
<path d="M15.9824 16.7578L16.373 16.7578L16.373 16.5625L15.3965 16.5625L15.3965 16.7578L15.7871 16.7578L15.7871 16.9531L15.5918 16.9531L15.5918 17.1484L15.7871 17.1484L15.7871 17.5391L15.5918 17.5391L15.5918 17.7344L15.7871 17.7344L15.7871 17.9297L16.7637 17.9297L16.7637 17.7344L16.5684 17.7344L16.5684 17.5391L16.373 17.5391L16.373 17.7344L15.9824 17.7344L15.9824 17.5391L16.1777 17.5391L16.1777 17.3438L15.9824 17.3438L15.9824 16.7578Z" fill="#010E21"/>
<path d="M15.7871 15.7812L15.9824 15.7813L15.9824 15.9766L15.7871 15.9766L15.7871 15.7812Z" fill="#010E21"/>
<path d="M17.3496 15.7812L17.5449 15.7813L17.5449 15.9766L17.3496 15.9766L17.3496 15.7812Z" fill="#010E21"/>
<path d="M17.5449 16.3672L17.9355 16.3672L17.9355 15.3906L16.959 15.3906L16.959 16.3672L17.3496 16.3672L17.3496 16.5625L17.5449 16.5625L17.5449 16.3672ZM17.1543 16.1719L17.1543 15.5859L17.7402 15.5859L17.7402 16.1719L17.1543 16.1719Z" fill="#010E21"/>
<path d="M17.9355 16.7578L17.9355 16.5625C17.8883 16.5625 17.5925 16.5625 17.5449 16.5625L17.5449 16.7578L17.9355 16.7578Z" fill="#010E21"/>
<path d="M17.3496 17.3438L17.5449 17.3438L17.5449 17.5391L17.3496 17.5391L17.3496 17.3438Z" fill="#010E21"/>
<path d="M16.5684 17.1484L16.7637 17.1484L16.7637 17.3438L16.5684 17.3438L16.5684 17.1484Z" fill="#010E21"/>
<path d="M16.1777 17.3438L16.373 17.3438C16.373 17.2965 16.373 17.0007 16.373 16.9531L16.1777 16.9531L16.1777 17.3438Z" fill="#010E21"/>
<path d="M16.373 16.7578L16.5684 16.7578L16.5684 16.9531L16.373 16.9531L16.373 16.7578Z" fill="#010E21"/>
<path d="M15.5918 17.1484L15.3965 17.1484L15.3965 17.5391L15.5918 17.5391C15.5918 17.4918 15.5918 17.196 15.5918 17.1484Z" fill="#010E21"/>
<path d="M15.3965 17.7344L15.5918 17.7344L15.5918 17.9297L15.3965 17.9297L15.3965 17.7344Z" fill="#010E21"/>
<path d="M16.5684 15.3906L16.7637 15.3906L16.7637 15.5859L16.5684 15.5859L16.5684 15.3906Z" fill="#010E21"/>
<path d="M16.5684 16.1719L16.7637 16.1719C16.7637 16.1246 16.7637 15.8288 16.7637 15.7813L16.5684 15.7812L16.5684 16.1719Z" fill="#010E21"/>
<path d="M16.7637 16.5625L16.7637 16.3672L16.5684 16.3672L16.5684 16.7578L17.3496 16.7578L17.3496 16.5625L16.7637 16.5625Z" fill="#010E21"/>
</g>
<path d="M5 10L7.5 10" stroke="#010E21" stroke-linecap="round"/>
<g clip-path="url(#clip2_836_2679)">
<path d="M17.7121 9.46369C17.7348 9.5023 17.7471 9.54616 17.7478 9.59097C17.7484 9.63578 17.7373 9.67998 17.7157 9.71922M17.8312 9.38873C17.8667 9.44956 17.8859 9.51855 17.8869 9.589C17.8879 9.65945 17.8707 9.72896 17.8369 9.79077M17.9499 9.31378C17.9989 9.39659 18.0255 9.49076 18.0269 9.58698C18.0283 9.68319 18.0046 9.77811 17.958 9.86233M18.069 9.23917C18.1309 9.34405 18.1644 9.46327 18.1661 9.58505C18.1678 9.70683 18.1378 9.82695 18.0788 9.93354" stroke="#010E21" stroke-width="0.08" stroke-linecap="round" stroke-linejoin="round"/>
</g>
</g>
<defs>
<clipPath id="clip0_836_2679">
<rect width="20" height="20" fill="white" transform="translate(0 20) rotate(-89.9877)"/>
</clipPath>
<clipPath id="clip1_836_2679">
<rect width="3.33333" height="3.33333" fill="white" transform="translate(15 15)"/>
</clipPath>
<clipPath id="clip2_836_2679">
<rect width="0.833333" height="0.833333" fill="white" transform="translate(17.5 9.17773) rotate(-0.810667)"/>
</clipPath>
</defs>
</svg>
