<svg width="20" height="20" viewBox="0 0 20 20" fill="none" xmlns="http://www.w3.org/2000/svg">
<path d="M10.3125 2.5H8.4375C8.265 2.5 8.125 2.36 8.125 2.1875C8.125 2.015 8.265 1.875 8.4375 1.875H10.3125C10.485 1.875 10.625 2.015 10.625 2.1875C10.625 2.36 10.485 2.5 10.3125 2.5Z" fill="white"/>
<path d="M12.8125 19.375H5.9375C5.07563 19.375 4.375 18.6738 4.375 17.8125V13.4375C4.375 13.265 4.515 13.125 4.6875 13.125C4.86 13.125 5 13.265 5 13.4375V17.8125C5 18.3294 5.42062 18.75 5.9375 18.75H12.8125C13.3294 18.75 13.75 18.3294 13.75 17.8125V7.1875C13.75 7.015 13.89 6.875 14.0625 6.875C14.235 6.875 14.375 7.015 14.375 7.1875V17.8125C14.375 18.6738 13.6744 19.375 12.8125 19.375Z" fill="white"/>
<path d="M14.0625 3.125C13.89 3.125 13.75 2.985 13.75 2.8125V2.1875C13.75 1.67062 13.3294 1.25 12.8125 1.25H5.9375C5.42062 1.25 5 1.67062 5 2.1875V2.8125C5 2.985 4.86 3.125 4.6875 3.125C4.515 3.125 4.375 2.985 4.375 2.8125V2.1875C4.375 1.32625 5.07563 0.625 5.9375 0.625H12.8125C13.6744 0.625 14.375 1.32625 14.375 2.1875V2.8125C14.375 2.985 14.235 3.125 14.0625 3.125Z" fill="white"/>
<path d="M9.0625 15.625H6.5625C6.39 15.625 6.25 15.485 6.25 15.3125C6.25 15.14 6.39 15 6.5625 15H9.0625C9.235 15 9.375 15.14 9.375 15.3125C9.375 15.485 9.235 15.625 9.0625 15.625Z" fill="white"/>
<path d="M10.9375 16.875H6.5625C6.39 16.875 6.25 16.735 6.25 16.5625C6.25 16.39 6.39 16.25 6.5625 16.25H10.9375C11.11 16.25 11.25 16.39 11.25 16.5625C11.25 16.735 11.11 16.875 10.9375 16.875Z" fill="white"/>
<path d="M12.1875 14.375H6.5625C6.39 14.375 6.25 14.235 6.25 14.0625C6.25 13.89 6.39 13.75 6.5625 13.75H12.1875C12.36 13.75 12.5 13.89 12.5 14.0625C12.5 14.235 12.36 14.375 12.1875 14.375Z" fill="white"/>
<path d="M5.625 8.75C4.76313 8.75 4.0625 8.04875 4.0625 7.1875C4.0625 6.32625 4.76313 5.625 5.625 5.625C6.48687 5.625 7.1875 6.32625 7.1875 7.1875C7.1875 8.04875 6.48687 8.75 5.625 8.75ZM5.625 6.25C5.10812 6.25 4.6875 6.67062 4.6875 7.1875C4.6875 7.70438 5.10812 8.125 5.625 8.125C6.14188 8.125 6.5625 7.70438 6.5625 7.1875C6.5625 6.67062 6.14188 6.25 5.625 6.25Z" fill="white"/>
<path d="M5.62485 12.5C4.5286 12.5 3.47673 12.0863 2.66298 11.3363C2.57923 11.2588 2.54423 11.1419 2.57173 11.0319C2.81173 10.0562 3.68173 9.375 4.68735 9.375H6.56235C7.56798 9.375 8.43798 10.0562 8.6786 11.0312C8.7061 11.1419 8.67048 11.2587 8.58735 11.3356C7.77298 12.0862 6.7211 12.5 5.62485 12.5ZM3.23298 11.0044C4.58423 12.13 6.66548 12.13 8.01673 11.0044C7.79173 10.405 7.21735 10 6.56235 10H4.68735C4.03235 10 3.45798 10.405 3.23298 11.0044Z" fill="white"/>
<path d="M5.625 12.5C3.21313 12.5 1.25 10.5375 1.25 8.125C1.25 5.7125 3.21313 3.75 5.625 3.75C8.03687 3.75 10 5.7125 10 8.125C10 10.5375 8.03687 12.5 5.625 12.5ZM5.625 4.375C3.55687 4.375 1.875 6.05687 1.875 8.125C1.875 10.1931 3.55687 11.875 5.625 11.875C7.69313 11.875 9.375 10.1931 9.375 8.125C9.375 6.05687 7.69313 4.375 5.625 4.375Z" fill="white"/>
<path d="M2.8125 14.3438C2.64 14.3438 2.5 14.235 2.5 14.0625V14C2.5 13.8275 2.64 13.6875 2.8125 13.6875C2.985 13.6875 3.125 13.8275 3.125 14C3.125 14.1725 2.985 14.3438 2.8125 14.3438Z" fill="white"/>
<path d="M2.8125 15.5938C2.64 15.5938 2.5 15.485 2.5 15.3125V15.25C2.5 15.0775 2.64 14.9375 2.8125 14.9375C2.985 14.9375 3.125 15.0775 3.125 15.25C3.125 15.4225 2.985 15.5938 2.8125 15.5938Z" fill="white"/>
<path d="M2.8125 16.8438C2.64 16.8438 2.5 16.735 2.5 16.5625V16.5C2.5 16.3275 2.64 16.1875 2.8125 16.1875C2.985 16.1875 3.125 16.3275 3.125 16.5C3.125 16.6725 2.985 16.8438 2.8125 16.8438Z" fill="white"/>
<path d="M15.2125 16.875H14.6875C14.515 16.875 14.375 16.735 14.375 16.5625C14.375 16.39 14.515 16.25 14.6875 16.25H14.9606L15.1137 15.5406C15.1387 15.4231 15.2294 15.3313 15.3456 15.3031C15.6406 15.2319 15.9281 15.1119 16.2 14.9462C16.3006 14.8837 16.43 14.8856 16.5306 14.9494L17.1494 15.345L17.5325 14.9588L17.1369 14.345C17.0719 14.2444 17.0706 14.115 17.1325 14.0131C17.2981 13.7412 17.4181 13.4538 17.4888 13.1588C17.5169 13.0425 17.6081 12.9525 17.725 12.9262L18.4369 12.7681V12.2325L17.725 12.0744C17.6081 12.0481 17.5169 11.9581 17.4888 11.8419C17.4181 11.5469 17.2975 11.2594 17.1325 10.9875C17.07 10.8856 17.0712 10.7569 17.1362 10.6562L17.5325 10.0369L17.15 9.65437L16.5306 10.0506C16.4306 10.115 16.3013 10.1163 16.2 10.0538C15.9275 9.88813 15.64 9.76813 15.3456 9.69688C15.2287 9.66875 15.1387 9.57625 15.1137 9.45938L14.9606 8.75H14.6875C14.515 8.75 14.375 8.61 14.375 8.4375C14.375 8.265 14.515 8.125 14.6875 8.125H15.2125C15.3594 8.125 15.4869 8.22813 15.5175 8.37188L15.6844 9.1425C15.9131 9.21188 16.1375 9.30563 16.3538 9.4225L17.025 8.99312C17.1487 8.915 17.3106 8.93125 17.4144 9.03562L18.1525 9.77313C18.2563 9.87688 18.2738 10.0388 18.1944 10.1625L17.765 10.8337C17.8819 11.0506 17.9756 11.275 18.045 11.5044L18.8169 11.6756C18.96 11.7075 19.0619 11.8344 19.0619 11.9806V13.0181C19.0619 13.1644 18.96 13.2919 18.8169 13.3231L18.045 13.4944C17.9756 13.7237 17.8819 13.9481 17.765 14.1644L18.1938 14.8294C18.2738 14.9525 18.2569 15.115 18.1531 15.2188L17.415 15.9625C17.3113 16.0669 17.1494 16.085 17.025 16.0056L16.3538 15.5763C16.1369 15.6931 15.9131 15.7869 15.6844 15.8563L15.5175 16.6269C15.4869 16.7719 15.3594 16.875 15.2125 16.875Z" fill="white"/>
<path d="M15.3456 14.23C15.2281 14.23 15.1156 14.1631 15.0625 14.0494C14.99 13.8931 15.0575 13.7069 15.2137 13.6344C15.6531 13.4294 15.9375 12.9844 15.9375 12.5C15.9375 11.8106 15.3769 11.25 14.6875 11.25C14.5181 11.25 14.355 11.2831 14.2019 11.3481C14.0437 11.4162 13.86 11.3419 13.7925 11.1825C13.725 11.0238 13.7994 10.8406 13.9581 10.7731C14.1881 10.675 14.4344 10.625 14.6875 10.625C15.7212 10.625 16.5625 11.4662 16.5625 12.5C16.5625 13.2269 16.1362 13.8944 15.4775 14.2006C15.4344 14.2206 15.39 14.23 15.3456 14.23Z" fill="white"/>
<path d="M16.25 6.25H12.5C11.8106 6.25 11.25 5.68938 11.25 5C11.25 4.31062 11.8106 3.75 12.5 3.75H16.25C16.9394 3.75 17.5 4.31062 17.5 5C17.5 5.68938 16.9394 6.25 16.25 6.25ZM12.5 4.375C12.155 4.375 11.875 4.65563 11.875 5C11.875 5.34437 12.155 5.625 12.5 5.625H16.25C16.595 5.625 16.875 5.34437 16.875 5C16.875 4.65563 16.595 4.375 16.25 4.375H12.5Z" fill="white"/>
</svg>
