<svg width="100" height="100" viewBox="0 0 100 100" fill="none" xmlns="http://www.w3.org/2000/svg">
<g filter="url(#filter0_d_782_3287)">
<rect x="10" y="10" width="80" height="80" rx="40" fill="white" shape-rendering="crispEdges"/>
<path d="M60.6065 55.6566L58.2495 53.3939L60.6065 51.1312C63.8608 48.007 63.8608 42.9418 60.6065 39.8176C57.3522 36.6934 52.0757 36.6934 48.8213 39.8176L46.4643 42.0803L44.1073 39.8176L46.4643 37.5548C51.0205 33.1809 58.4073 33.1809 62.9635 37.5548C67.5197 41.9287 67.5197 49.02 62.9635 53.3939L60.6065 55.6566ZM55.8923 60.1822L53.5353 62.445C48.9793 66.8187 41.5923 66.8187 37.0362 62.445C32.4801 58.071 32.4801 50.9795 37.0362 46.6058L39.3932 44.343L41.7503 46.6058L39.3932 48.8685C36.1389 51.9926 36.1389 57.0579 39.3932 60.1822C42.6476 63.3064 47.924 63.3064 51.1783 60.1822L53.5353 57.9194L55.8923 60.1822ZM54.7138 43.2117L57.071 45.4744L45.2858 56.788L42.9288 54.5253L54.7138 43.2117Z" fill="#652DBF"/>
</g>
<defs>
<filter id="filter0_d_782_3287" x="0" y="0" width="100" height="100" filterUnits="userSpaceOnUse" color-interpolation-filters="sRGB">
<feFlood flood-opacity="0" result="BackgroundImageFix"/>
<feColorMatrix in="SourceAlpha" type="matrix" values="0 0 0 0 0 0 0 0 0 0 0 0 0 0 0 0 0 0 127 0" result="hardAlpha"/>
<feOffset/>
<feGaussianBlur stdDeviation="5"/>
<feComposite in2="hardAlpha" operator="out"/>
<feColorMatrix type="matrix" values="0 0 0 0 0 0 0 0 0 0 0 0 0 0 0 0 0 0 0.1 0"/>
<feBlend mode="normal" in2="BackgroundImageFix" result="effect1_dropShadow_782_3287"/>
<feBlend mode="normal" in="SourceGraphic" in2="effect1_dropShadow_782_3287" result="shape"/>
</filter>
</defs>
</svg>
