<svg width="20" height="20" viewBox="0 0 20 20" fill="none" xmlns="http://www.w3.org/2000/svg">
<g clip-path="url(#clip0_836_2717)">
<path d="M19.7973 4.32537L12.008 0.0481796C11.891 -0.0160599 11.7491 -0.0160599 11.6321 0.0481796L8.69612 1.66027C8.63417 1.6766 8.57634 1.70773 8.52843 1.75243L3.84291 4.32537C3.71794 4.39388 3.64027 4.52511 3.64027 4.66778V9.84082C2.84987 10.088 2.12553 10.524 1.52327 11.1264C-0.0465579 12.696 -0.446796 15.0901 0.527325 17.0837C0.62193 17.2775 0.855847 17.3579 1.04963 17.2632C1.24357 17.1684 1.32383 16.9345 1.22923 16.7407C0.401593 15.0468 0.741711 13.0127 2.07564 11.6787C2.90983 10.8445 4.01884 10.3851 5.1985 10.3851C6.37816 10.3851 7.48717 10.8445 8.32136 11.6787C9.15541 12.5128 9.61485 13.6218 9.61485 14.8015C9.61485 15.9811 9.15541 17.0901 8.32121 17.9243C6.98729 19.2582 4.95314 19.5984 3.25926 18.7707C3.06547 18.676 2.83156 18.7564 2.73695 18.9502C2.64219 19.1441 2.72246 19.378 2.91639 19.4726C3.64256 19.8275 4.42167 20 5.19514 20C6.54448 19.9998 7.87581 19.4746 8.87373 18.4767C9.33134 18.0191 9.69298 17.4911 9.94887 16.9172L11.6321 17.8415C11.6907 17.8737 11.7554 17.8897 11.8201 17.8897C11.8848 17.8897 11.9496 17.8737 12.008 17.8415L19.7973 13.5644C19.9223 13.4958 20 13.3645 20 13.222V10.5073C20 10.2916 19.8251 10.1167 19.6094 10.1167C19.3936 10.1167 19.2187 10.2916 19.2187 10.5073V12.9908L12.2119 16.8383V9.17538L14.5244 7.90554V9.91848C14.5244 10.0567 14.5973 10.1846 14.7162 10.2548C14.7775 10.291 14.8462 10.3091 14.915 10.3091C14.9797 10.3091 15.0445 10.2931 15.1033 10.2607L16.7724 9.34201C16.8973 9.27334 16.9746 9.14227 16.9746 8.9999V6.56002L19.2187 5.32788V7.38247C19.2187 7.59823 19.3936 7.7731 19.6094 7.7731C19.8251 7.7731 20 7.59823 20 7.38247V4.66778C20 4.52526 19.9223 4.39388 19.7973 4.32537ZM11.8201 0.836144L18.7977 4.66778L16.5967 5.87643L9.61897 2.04479L11.8201 0.836144ZM11.8201 8.49926L4.84236 4.66778L7.12416 3.41473L14.102 7.24621L11.8201 8.49926ZM14.9135 6.80065L7.93577 2.96917L8.80736 2.4905L15.7852 6.32199L14.9135 6.80065ZM8.87373 11.1264C7.89198 10.1446 6.58675 9.604 5.1985 9.604C4.9359 9.604 4.6765 9.62338 4.42152 9.66137V5.32788L11.4308 9.17675V16.8397L10.2142 16.1717C10.334 15.7307 10.3959 15.2708 10.3959 14.8015C10.3959 13.4132 9.85533 12.108 8.87373 11.1264ZM16.1935 8.76904L15.3056 9.25778V7.47662L16.1935 6.9891V8.76904Z" fill="#652DBF"/>
<path d="M19.6094 8.55237C19.5067 8.55237 19.4058 8.59418 19.3332 8.66681C19.2606 8.73944 19.2188 8.84015 19.2188 8.94299C19.2188 9.04568 19.2606 9.14639 19.3332 9.21902C19.4058 9.29181 19.5067 9.33347 19.6094 9.33347C19.7121 9.33347 19.8129 9.29181 19.8856 9.21902C19.9582 9.14639 20 9.04568 20 8.94299C20 8.84015 19.9582 8.73944 19.8856 8.66681C19.8129 8.59418 19.7121 8.55237 19.6094 8.55237Z" fill="#010E21"/>
<path d="M3.88465 15.1921C3.9846 15.1921 4.08469 15.154 4.16084 15.0779C4.31342 14.9253 4.31342 14.6779 4.16084 14.5253L3.8903 14.2546H6.19895C6.75895 14.2546 7.21458 14.7103 7.21458 15.2703C7.21458 15.8303 6.75895 16.2859 6.19895 16.2859H4.831C4.61524 16.2859 4.44038 16.4608 4.44038 16.6765C4.44038 16.8921 4.61524 17.067 4.831 17.067H6.19895C7.18971 17.067 7.99583 16.261 7.99583 15.2703C7.99583 14.2795 7.18971 13.4735 6.19895 13.4735H3.8903L4.16084 13.2029C4.31342 13.0503 4.31342 12.8029 4.16084 12.6503C4.0084 12.4979 3.76106 12.4979 3.60847 12.6503L2.67097 13.5878C2.51853 13.7404 2.51853 13.9878 2.67097 14.1404L3.60847 15.0777C3.68476 15.154 3.78471 15.1921 3.88465 15.1921Z" fill="#010E21"/>
<path d="M1.79907 18.5917C1.68799 18.5917 1.57767 18.5444 1.50061 18.4527L1.49985 18.4518C1.36099 18.2867 1.38235 18.0404 1.54745 17.9016C1.71255 17.7626 1.95898 17.7839 2.09784 17.949C2.23654 18.1143 2.21564 18.361 2.05054 18.4999C1.97714 18.5615 1.88788 18.5917 1.79907 18.5917Z" fill="#010E21"/>
</g>
<defs>
<clipPath id="clip0_836_2717">
<rect width="20" height="20" fill="white"/>
</clipPath>
</defs>
</svg>
