<svg width="30" height="30" viewBox="0 0 30 30" fill="none" xmlns="http://www.w3.org/2000/svg">
<path d="M0.484375 21.9714V8.02742C0.484375 3.82042 3.92638 0.378418 8.13338 0.378418H22.0774C26.2844 0.378418 29.7264 3.82042 29.7264 8.02742V21.9714C29.7264 26.1784 26.2844 29.6204 22.0774 29.6204H17.3904L14.9354 29.0224L12.8204 29.6204H8.13338C3.92638 29.6204 0.484375 26.1784 0.484375 21.9714Z" fill="#010E21"/>
<path d="M20.7974 19.7063L21.4454 15.4793H17.3904V12.7363C17.3904 11.5803 17.9564 10.4533 19.7734 10.4533H21.6174V6.85534C21.6174 6.85534 19.9444 6.56934 18.3444 6.56934C15.0044 6.56934 12.8214 8.59334 12.8214 12.2583V15.4793H9.10938V19.7063H12.8214V29.6213H17.3904V19.7063H20.7974Z" fill="white"/>
</svg>
