<svg width="30" height="30" viewBox="0 0 30 30" fill="none" xmlns="http://www.w3.org/2000/svg">
<path d="M0.209961 21.9719V8.0279C0.209961 3.8209 3.65195 0.378906 7.85895 0.378906H21.8029C26.0099 0.378906 29.452 3.8209 29.452 8.0279V21.9719C29.452 26.1789 26.0099 29.6209 21.8029 29.6209H7.85895C3.65195 29.6209 0.209961 26.1789 0.209961 21.9719Z" fill="#010E21"/>
<path d="M22.411 13.3149C22.262 13.3299 22.111 13.3369 21.961 13.3379C20.313 13.3379 18.776 12.5069 17.873 11.1289V18.6519C17.873 21.7229 15.383 24.2129 12.312 24.2129C9.24098 24.2129 6.75098 21.7239 6.75098 18.6519C6.75098 15.5809 9.24098 13.0909 12.312 13.0909C12.428 13.0909 12.542 13.1009 12.656 13.1089V15.8489C12.542 15.8349 12.43 15.8139 12.312 15.8139C10.745 15.8139 9.474 17.0849 9.474 18.6519C9.474 20.2189 10.745 21.4899 12.312 21.4899C13.88 21.4899 15.264 20.2549 15.264 18.6869L15.291 5.90894H17.912C18.159 8.25994 20.055 10.0959 22.412 10.2679V13.3129" fill="white"/>
</svg>
