<svg width="30" height="30" viewBox="0 0 30 30" fill="none" xmlns="http://www.w3.org/2000/svg">
<path d="M0 21.9719V8.0279C0 3.8209 3.442 0.378906 7.649 0.378906H21.593C25.8 0.378906 29.242 3.8209 29.242 8.0279V21.9719C29.242 26.1789 25.8 29.6209 21.593 29.6209H7.649C3.442 29.6209 0 26.1789 0 21.9719Z" fill="#010E21"/>
<path d="M19.1613 9.48901C18.6063 9.48901 18.1562 9.93902 18.1562 10.494C18.1562 11.049 18.6063 11.499 19.1613 11.499C19.7163 11.499 20.1663 11.049 20.1663 10.494C20.1663 9.93902 19.7163 9.48901 19.1613 9.48901Z" fill="white"/>
<path d="M14.6917 10.7778C12.3637 10.7778 10.4697 12.6718 10.4697 14.9998C10.4697 17.3278 12.3637 19.2218 14.6917 19.2218C17.0197 19.2218 18.9137 17.3278 18.9137 14.9998C18.9137 12.6718 17.0197 10.7778 14.6917 10.7778ZM14.6917 17.7048C13.2007 17.7048 11.9877 16.4918 11.9877 15.0008C11.9877 13.5098 13.2007 12.2968 14.6917 12.2968C16.1827 12.2968 17.3957 13.5098 17.3957 15.0008C17.3967 16.4908 16.1837 17.7048 14.6917 17.7048Z" fill="white"/>
<path d="M18.0438 23.572H11.1988C8.35979 23.572 6.0498 21.262 6.0498 18.423V11.578C6.0498 8.73796 8.35979 6.42896 11.1988 6.42896H18.0438C20.8828 6.42896 23.1938 8.73896 23.1938 11.578V18.423C23.1938 21.262 20.8838 23.572 18.0438 23.572ZM11.1998 8.04095C9.2498 8.04095 7.66281 9.62696 7.66281 11.578V18.423C7.66281 20.373 9.2488 21.96 11.1998 21.96H18.0448C19.9948 21.96 21.5818 20.374 21.5818 18.423V11.578C21.5818 9.62796 19.9948 8.04095 18.0448 8.04095H11.1998Z" fill="white"/>
</svg>
