<svg width="31" height="30" viewBox="0 0 31 30" fill="none" xmlns="http://www.w3.org/2000/svg">
<path d="M0.967773 21.9719V8.02791C0.967773 3.82091 4.40978 0.378906 8.61678 0.378906H22.5608C26.7678 0.378906 30.2098 3.82091 30.2098 8.02791V21.9719C30.2098 26.1789 26.7678 29.6209 22.5608 29.6209H8.61678C4.40978 29.6209 0.967773 26.1789 0.967773 21.9719Z" fill="#010E21"/>
<g clip-path="url(#clip0_1037_4099)">
<path d="M16.864 13.7304L22.328 7.37891H21.0332L16.2888 12.8938L12.4995 7.37891H8.12891L13.8591 15.7184L8.12891 22.3789H9.42378L14.434 16.555L18.4358 22.3789H22.8064L16.8637 13.7304H16.864ZM15.0905 15.7919L14.5099 14.9615L9.89034 8.35366H11.8792L15.6072 13.6864L16.1878 14.5168L21.0338 21.4485H19.045L15.0905 15.7922V15.7919Z" fill="white"/>
</g>
<defs>
<clipPath id="clip0_1037_4099">
<rect width="15" height="15" fill="white" transform="translate(7.96777 7.37891)"/>
</clipPath>
</defs>
</svg>
