<svg width="30" height="30" viewBox="0 0 30 30" fill="none" xmlns="http://www.w3.org/2000/svg">
<path d="M0.242188 21.9719V8.02791C0.242188 3.82091 3.68419 0.378906 7.89119 0.378906H21.8352C26.0422 0.378906 29.4842 3.82091 29.4842 8.02791V21.9719C29.4842 26.1789 26.0422 29.6209 21.8352 29.6209H7.89119C3.68519 29.6219 0.242188 26.1799 0.242188 21.9719Z" fill="#010E21"/>
<path d="M8.73283 12.2768H11.5648V21.3738H8.73283V12.2768ZM10.1488 7.75684C11.0548 7.75684 11.7878 8.49184 11.7878 9.39484C11.7878 10.2998 11.0538 11.0358 10.1488 11.0358C9.24083 11.0358 8.50684 10.2998 8.50684 9.39484C8.50784 8.49084 9.24083 7.75684 10.1488 7.75684Z" fill="white"/>
<path d="M13.3389 12.2768H16.0509V13.5208H16.0879C16.4659 12.8048 17.3879 12.0518 18.7659 12.0518C21.6289 12.0518 22.1569 13.9348 22.1569 16.3848V21.3738H19.3309V16.9508C19.3309 15.8948 19.3099 14.5388 17.8609 14.5388C16.3889 14.5388 16.1649 15.6878 16.1649 16.8738V21.3738H13.3389V12.2768Z" fill="white"/>
</svg>
