<svg width="30" height="30" viewBox="0 0 30 30" fill="none" xmlns="http://www.w3.org/2000/svg">
<path d="M0.725586 21.9719V8.02791C0.725586 3.82091 4.16759 0.378906 8.37459 0.378906H22.3186C26.5256 0.378906 29.9676 3.82091 29.9676 8.02791V21.9719C29.9676 26.1789 26.5256 29.6209 22.3186 29.6209H8.37459C4.16759 29.6209 0.725586 26.1789 0.725586 21.9719Z" fill="#010E21"/>
<path d="M23.1748 12.8738C23.1748 10.9348 21.6028 9.36279 19.6638 9.36279H10.6858C8.74682 9.36279 7.1748 10.9348 7.1748 12.8738V17.0518C7.1748 18.9908 8.74682 20.5628 10.6858 20.5628H19.6638C21.6028 20.5628 23.1748 18.9908 23.1748 17.0518V12.8738ZM17.8948 15.2758L13.8688 17.2678C13.7108 17.3528 13.1748 17.2388 13.1748 17.0598V12.9708C13.1748 12.7888 13.7158 12.6748 13.8738 12.7648L17.7278 14.8618C17.8888 14.9538 18.0588 15.1878 17.8948 15.2758Z" fill="white"/>
</svg>
