<svg width="40" height="41" viewBox="0 0 40 41" fill="none" xmlns="http://www.w3.org/2000/svg">
<rect y="0.610352" width="40" height="40" rx="8" fill="white" fill-opacity="0.07"/>
<g clip-path="url(#clip0_1757_7742)">
<path d="M24.1071 15.4817C23.4969 14.7849 23.1606 13.8901 23.1607 12.9639H20.4018V24.0353C20.3809 24.6346 20.1281 25.2023 19.6967 25.6188C19.2653 26.0352 18.6889 26.2678 18.0893 26.2674C16.8214 26.2674 15.7679 25.2317 15.7679 23.946C15.7679 22.4103 17.25 21.2585 18.7768 21.7317V18.9103C15.6964 18.4996 13 20.8924 13 23.946C13 26.9192 15.4643 29.0353 18.0804 29.0353C20.8839 29.0353 23.1607 26.7585 23.1607 23.946V18.3299C24.2795 19.1334 25.6226 19.5644 27 19.5621V16.8032C27 16.8032 25.3214 16.8835 24.1071 15.4817Z" fill="white"/>
</g>
<defs>
<clipPath id="clip0_1757_7742">
<rect width="14" height="16" fill="white" transform="translate(13 13)"/>
</clipPath>
</defs>
</svg>
