<svg width="34" height="34" viewBox="0 0 34 34" fill="none" xmlns="http://www.w3.org/2000/svg">
<g clip-path="url(#clip0_1037_5026)">
<mask id="mask0_1037_5026" style="mask-type:luminance" maskUnits="userSpaceOnUse" x="0" y="7" width="34" height="20">
<path d="M0 7.08398H34V26.7999H0V7.08398Z" fill="white"/>
</mask>
<g mask="url(#mask0_1037_5026)">
<path d="M0 25.2834H34V26.7998H0V25.2834Z" fill="#F32837"/>
</g>
<mask id="mask1_1037_5026" style="mask-type:luminance" maskUnits="userSpaceOnUse" x="0" y="7" width="34" height="20">
<path d="M0 7.08398H34V26.7999H0V7.08398Z" fill="white"/>
</mask>
<g mask="url(#mask1_1037_5026)">
<path d="M0 23.7668H34V25.2834H0V23.7668Z" fill="#FFF5F5"/>
</g>
<mask id="mask2_1037_5026" style="mask-type:luminance" maskUnits="userSpaceOnUse" x="0" y="7" width="34" height="20">
<path d="M0 7.08398H34V26.7999H0V7.08398Z" fill="white"/>
</mask>
<g mask="url(#mask2_1037_5026)">
<path d="M0 22.2515H34V23.767H0V22.2515Z" fill="#F32837"/>
</g>
<mask id="mask3_1037_5026" style="mask-type:luminance" maskUnits="userSpaceOnUse" x="0" y="7" width="34" height="20">
<path d="M0 7.08398H34V26.7999H0V7.08398Z" fill="white"/>
</mask>
<g mask="url(#mask3_1037_5026)">
<path d="M0 20.7351H34V22.2515H0V20.7351Z" fill="#FFF5F5"/>
</g>
<mask id="mask4_1037_5026" style="mask-type:luminance" maskUnits="userSpaceOnUse" x="0" y="7" width="34" height="20">
<path d="M0 7.08398H34V26.7999H0V7.08398Z" fill="white"/>
</mask>
<g mask="url(#mask4_1037_5026)">
<path d="M0 19.2175H34V20.735H0V19.2175Z" fill="#F32837"/>
</g>
<mask id="mask5_1037_5026" style="mask-type:luminance" maskUnits="userSpaceOnUse" x="0" y="7" width="34" height="20">
<path d="M0 7.08398H34V26.7999H0V7.08398Z" fill="white"/>
</mask>
<g mask="url(#mask5_1037_5026)">
<path d="M0 17.7021H34V19.2175H0V17.7021Z" fill="#FFF5F5"/>
</g>
<mask id="mask6_1037_5026" style="mask-type:luminance" maskUnits="userSpaceOnUse" x="0" y="7" width="34" height="20">
<path d="M0 7.08398H34V26.7999H0V7.08398Z" fill="white"/>
</mask>
<g mask="url(#mask6_1037_5026)">
<path d="M0 16.1838H34V17.7023H0V16.1838Z" fill="#F32837"/>
</g>
<mask id="mask7_1037_5026" style="mask-type:luminance" maskUnits="userSpaceOnUse" x="0" y="7" width="34" height="20">
<path d="M0 7.08398H34V26.7999H0V7.08398Z" fill="white"/>
</mask>
<g mask="url(#mask7_1037_5026)">
<path d="M0 14.6682H34V16.1837H0V14.6682Z" fill="#FFF5F5"/>
</g>
<mask id="mask8_1037_5026" style="mask-type:luminance" maskUnits="userSpaceOnUse" x="0" y="7" width="34" height="20">
<path d="M0 7.08398H34V26.7999H0V7.08398Z" fill="white"/>
</mask>
<g mask="url(#mask8_1037_5026)">
<path d="M0 13.1519H34V14.6684H0V13.1519Z" fill="#F32837"/>
</g>
<mask id="mask9_1037_5026" style="mask-type:luminance" maskUnits="userSpaceOnUse" x="0" y="7" width="34" height="20">
<path d="M0 7.08398H34V26.7999H0V7.08398Z" fill="white"/>
</mask>
<g mask="url(#mask9_1037_5026)">
<path d="M0 11.6343H34V13.1517H0V11.6343Z" fill="#FFF5F5"/>
</g>
<mask id="mask10_1037_5026" style="mask-type:luminance" maskUnits="userSpaceOnUse" x="0" y="7" width="34" height="20">
<path d="M0 7.08398H34V26.7999H0V7.08398Z" fill="white"/>
</mask>
<g mask="url(#mask10_1037_5026)">
<path d="M0 10.1179H34V11.6344H0V10.1179Z" fill="#F32837"/>
</g>
<mask id="mask11_1037_5026" style="mask-type:luminance" maskUnits="userSpaceOnUse" x="0" y="7" width="34" height="20">
<path d="M0 7.08398H34V26.7999H0V7.08398Z" fill="white"/>
</mask>
<g mask="url(#mask11_1037_5026)">
<path d="M0 8.60156H34V10.1179H0V8.60156Z" fill="#FFF5F5"/>
</g>
<mask id="mask12_1037_5026" style="mask-type:luminance" maskUnits="userSpaceOnUse" x="0" y="7" width="34" height="20">
<path d="M0 7.08398H34V26.7999H0V7.08398Z" fill="white"/>
</mask>
<g mask="url(#mask12_1037_5026)">
<path d="M0 7.08398H34V8.60149H0V7.08398Z" fill="#F32837"/>
</g>
<mask id="mask13_1037_5026" style="mask-type:luminance" maskUnits="userSpaceOnUse" x="0" y="7" width="34" height="20">
<path d="M0 7.08398H34V26.7999H0V7.08398Z" fill="white"/>
</mask>
<g mask="url(#mask13_1037_5026)">
<path d="M0 7.08398H15.5271V17.7022H0V7.08398Z" fill="#2A3560"/>
</g>
<mask id="mask14_1037_5026" style="mask-type:luminance" maskUnits="userSpaceOnUse" x="0" y="7" width="34" height="20">
<path d="M0 7.08398H34V26.7999H0V7.08398Z" fill="white"/>
</mask>
<g mask="url(#mask14_1037_5026)">
<path d="M1.40263 8.25415L1.53522 8.65639H1.96057L1.61629 8.9042L1.74696 9.30551L1.40263 9.0577L1.0584 9.30551L1.19296 8.9042L0.848633 8.65639H1.27004L1.40263 8.25415Z" fill="#FFF5F5"/>
</g>
<mask id="mask15_1037_5026" style="mask-type:luminance" maskUnits="userSpaceOnUse" x="0" y="7" width="34" height="20">
<path d="M0 7.08398H34V26.7999H0V7.08398Z" fill="white"/>
</mask>
<g mask="url(#mask15_1037_5026)">
<path d="M1.40263 10.0273L1.53522 10.4276H1.96057L1.61629 10.6744L1.74696 11.0776L1.40263 10.8289L1.0584 11.0776L1.19296 10.6744L0.848633 10.4276H1.27004L1.40263 10.0273Z" fill="#FFF5F5"/>
</g>
<mask id="mask16_1037_5026" style="mask-type:luminance" maskUnits="userSpaceOnUse" x="0" y="7" width="34" height="20">
<path d="M0 7.08398H34V26.7999H0V7.08398Z" fill="white"/>
</mask>
<g mask="url(#mask16_1037_5026)">
<path d="M1.40263 11.7996L1.53522 12.1998H1.96057L1.61629 12.4477L1.74696 12.8499L1.40263 12.6011L1.0584 12.8499L1.19296 12.4477L0.848633 12.1998H1.27004L1.40263 11.7996Z" fill="#FFF5F5"/>
</g>
<mask id="mask17_1037_5026" style="mask-type:luminance" maskUnits="userSpaceOnUse" x="0" y="7" width="34" height="20">
<path d="M0 7.08398H34V26.7999H0V7.08398Z" fill="white"/>
</mask>
<g mask="url(#mask17_1037_5026)">
<path d="M1.40263 13.5708L1.53522 13.973H1.96057L1.61629 14.2208L1.74696 14.6211L1.40263 14.3743L1.0584 14.6211L1.19296 14.2208L0.848633 13.973H1.27004L1.40263 13.5708Z" fill="#FFF5F5"/>
</g>
<mask id="mask18_1037_5026" style="mask-type:luminance" maskUnits="userSpaceOnUse" x="0" y="7" width="34" height="20">
<path d="M0 7.08398H34V26.7999H0V7.08398Z" fill="white"/>
</mask>
<g mask="url(#mask18_1037_5026)">
<path d="M1.40263 15.343L1.53522 15.7462H1.96057L1.61629 15.992L1.74696 16.3934L1.40263 16.1455L1.0584 16.3934L1.19296 15.992L0.848633 15.7462H1.27004L1.40263 15.343Z" fill="#FFF5F5"/>
</g>
<mask id="mask19_1037_5026" style="mask-type:luminance" maskUnits="userSpaceOnUse" x="0" y="7" width="34" height="20">
<path d="M0 7.08398H34V26.7999H0V7.08398Z" fill="white"/>
</mask>
<g mask="url(#mask19_1037_5026)">
<path d="M2.64488 9.1875L2.77151 9.58969H3.19878L2.85662 9.83853L2.98517 10.2387L2.64488 9.99189L2.30262 10.2387L2.43118 9.83853L2.08887 9.58969H2.51431L2.64488 9.1875Z" fill="#FFF5F5"/>
</g>
<mask id="mask20_1037_5026" style="mask-type:luminance" maskUnits="userSpaceOnUse" x="0" y="7" width="34" height="20">
<path d="M0 7.08398H34V26.7999H0V7.08398Z" fill="white"/>
</mask>
<g mask="url(#mask20_1037_5026)">
<path d="M2.64488 10.9607L2.77151 11.361H3.19878L2.85662 11.6098L2.98517 12.01L2.64488 11.7642L2.30262 12.01L2.43118 11.6098L2.08887 11.361H2.51431L2.64488 10.9607Z" fill="#FFF5F5"/>
</g>
<mask id="mask21_1037_5026" style="mask-type:luminance" maskUnits="userSpaceOnUse" x="0" y="7" width="34" height="20">
<path d="M0 7.08398H34V26.7999H0V7.08398Z" fill="white"/>
</mask>
<g mask="url(#mask21_1037_5026)">
<path d="M2.64488 12.7329L2.77151 13.1341H3.19878L2.85662 13.3819L2.98517 13.7832L2.64488 13.5354L2.30262 13.7832L2.43118 13.3819L2.08887 13.1341H2.51431L2.64488 12.7329Z" fill="#FFF5F5"/>
</g>
<mask id="mask22_1037_5026" style="mask-type:luminance" maskUnits="userSpaceOnUse" x="0" y="7" width="34" height="20">
<path d="M0 7.08398H34V26.7999H0V7.08398Z" fill="white"/>
</mask>
<g mask="url(#mask22_1037_5026)">
<path d="M2.64488 14.5059L2.77151 14.9061H3.19878L2.85662 15.154L2.98517 15.5543L2.64488 15.3054L2.30262 15.5543L2.43118 15.154L2.08887 14.9061H2.51431L2.64488 14.5059Z" fill="#FFF5F5"/>
</g>
<mask id="mask23_1037_5026" style="mask-type:luminance" maskUnits="userSpaceOnUse" x="0" y="7" width="34" height="20">
<path d="M0 7.08398H34V26.7999H0V7.08398Z" fill="white"/>
</mask>
<g mask="url(#mask23_1037_5026)">
<path d="M3.8997 8.25415L4.03219 8.65639H4.45754L4.11336 8.9042L4.24585 9.30551L3.8997 9.0577L3.55936 9.30551L3.68993 8.9042L3.3457 8.65639H3.76903L3.8997 8.25415Z" fill="#FFF5F5"/>
</g>
<mask id="mask24_1037_5026" style="mask-type:luminance" maskUnits="userSpaceOnUse" x="0" y="7" width="34" height="20">
<path d="M0 7.08398H34V26.7999H0V7.08398Z" fill="white"/>
</mask>
<g mask="url(#mask24_1037_5026)">
<path d="M3.8997 10.0273L4.03219 10.4276H4.45754L4.11336 10.6744L4.24585 11.0776L3.8997 10.8289L3.55936 11.0776L3.68993 10.6744L3.3457 10.4276H3.76903L3.8997 10.0273Z" fill="#FFF5F5"/>
</g>
<mask id="mask25_1037_5026" style="mask-type:luminance" maskUnits="userSpaceOnUse" x="0" y="7" width="34" height="20">
<path d="M0 7.08398H34V26.7999H0V7.08398Z" fill="white"/>
</mask>
<g mask="url(#mask25_1037_5026)">
<path d="M3.8997 11.7996L4.03219 12.1998H4.45754L4.11336 12.4477L4.24585 12.8499L3.8997 12.6011L3.55936 12.8499L3.68993 12.4477L3.3457 12.1998H3.76903L3.8997 11.7996Z" fill="#FFF5F5"/>
</g>
<mask id="mask26_1037_5026" style="mask-type:luminance" maskUnits="userSpaceOnUse" x="0" y="7" width="34" height="20">
<path d="M0 7.08398H34V26.7999H0V7.08398Z" fill="white"/>
</mask>
<g mask="url(#mask26_1037_5026)">
<path d="M3.8997 13.5708L4.03219 13.973H4.45754L4.11336 14.2208L4.24585 14.6211L3.8997 14.3743L3.55936 14.6211L3.68993 14.2208L3.3457 13.973H3.76903L3.8997 13.5708Z" fill="#FFF5F5"/>
</g>
<mask id="mask27_1037_5026" style="mask-type:luminance" maskUnits="userSpaceOnUse" x="0" y="7" width="34" height="20">
<path d="M0 7.08398H34V26.7999H0V7.08398Z" fill="white"/>
</mask>
<g mask="url(#mask27_1037_5026)">
<path d="M3.8997 15.343L4.03219 15.7462H4.45754L4.11336 15.992L4.24585 16.3934L3.8997 16.1455L3.55936 16.3934L3.68993 15.992L3.3457 15.7462H3.76903L3.8997 15.343Z" fill="#FFF5F5"/>
</g>
<mask id="mask28_1037_5026" style="mask-type:luminance" maskUnits="userSpaceOnUse" x="0" y="7" width="34" height="20">
<path d="M0 7.08398H34V26.7999H0V7.08398Z" fill="white"/>
</mask>
<g mask="url(#mask28_1037_5026)">
<path d="M5.14186 9.1875L5.27243 9.58969H5.69979L5.35359 9.83853L5.48618 10.2387L5.14186 9.99189L4.7996 10.2387L4.93219 9.83853L4.58594 9.58969H5.01129L5.14186 9.1875Z" fill="#FFF5F5"/>
</g>
<mask id="mask29_1037_5026" style="mask-type:luminance" maskUnits="userSpaceOnUse" x="0" y="7" width="34" height="20">
<path d="M0 7.08398H34V26.7999H0V7.08398Z" fill="white"/>
</mask>
<g mask="url(#mask29_1037_5026)">
<path d="M5.14186 10.9607L5.27243 11.361H5.69979L5.35359 11.6098L5.48618 12.01L5.14186 11.7642L4.7996 12.01L4.93219 11.6098L4.58594 11.361H5.01129L5.14186 10.9607Z" fill="#FFF5F5"/>
</g>
<mask id="mask30_1037_5026" style="mask-type:luminance" maskUnits="userSpaceOnUse" x="0" y="7" width="34" height="20">
<path d="M0 7.08398H34V26.7999H0V7.08398Z" fill="white"/>
</mask>
<g mask="url(#mask30_1037_5026)">
<path d="M5.14186 12.7329L5.27243 13.1341H5.69979L5.35359 13.3819L5.48618 13.7832L5.14186 13.5354L4.7996 13.7832L4.93219 13.3819L4.58594 13.1341H5.01129L5.14186 12.7329Z" fill="#FFF5F5"/>
</g>
<mask id="mask31_1037_5026" style="mask-type:luminance" maskUnits="userSpaceOnUse" x="0" y="7" width="34" height="20">
<path d="M0 7.08398H34V26.7999H0V7.08398Z" fill="white"/>
</mask>
<g mask="url(#mask31_1037_5026)">
<path d="M5.14186 14.5059L5.27243 14.9061H5.69979L5.35359 15.154L5.48618 15.5543L5.14186 15.3054L4.7996 15.5543L4.93219 15.154L4.58594 14.9061H5.01129L5.14186 14.5059Z" fill="#FFF5F5"/>
</g>
<mask id="mask32_1037_5026" style="mask-type:luminance" maskUnits="userSpaceOnUse" x="0" y="7" width="34" height="20">
<path d="M0 7.08398H34V26.7999H0V7.08398Z" fill="white"/>
</mask>
<g mask="url(#mask32_1037_5026)">
<path d="M6.40068 8.25415L6.53327 8.65639H6.95467L6.6104 8.9042L6.74693 9.30551L6.40068 9.0577L6.0565 9.30551L6.18707 8.9042L5.84668 8.65639H6.27011L6.40068 8.25415Z" fill="#FFF5F5"/>
</g>
<mask id="mask33_1037_5026" style="mask-type:luminance" maskUnits="userSpaceOnUse" x="0" y="7" width="34" height="20">
<path d="M0 7.08398H34V26.7999H0V7.08398Z" fill="white"/>
</mask>
<g mask="url(#mask33_1037_5026)">
<path d="M6.40068 10.0273L6.53327 10.4276H6.95467L6.6104 10.6744L6.74693 11.0776L6.40068 10.8289L6.0565 11.0776L6.18707 10.6744L5.84668 10.4276H6.27011L6.40068 10.0273Z" fill="#FFF5F5"/>
</g>
<mask id="mask34_1037_5026" style="mask-type:luminance" maskUnits="userSpaceOnUse" x="0" y="7" width="34" height="20">
<path d="M0 7.08398H34V26.7999H0V7.08398Z" fill="white"/>
</mask>
<g mask="url(#mask34_1037_5026)">
<path d="M6.40068 11.7996L6.53327 12.1998H6.95467L6.6104 12.4477L6.74693 12.8499L6.40068 12.6011L6.0565 12.8499L6.18707 12.4477L5.84668 12.1998H6.27011L6.40068 11.7996Z" fill="#FFF5F5"/>
</g>
<mask id="mask35_1037_5026" style="mask-type:luminance" maskUnits="userSpaceOnUse" x="0" y="7" width="34" height="20">
<path d="M0 7.08398H34V26.7999H0V7.08398Z" fill="white"/>
</mask>
<g mask="url(#mask35_1037_5026)">
<path d="M6.40068 13.5708L6.53327 13.973H6.95467L6.6104 14.2208L6.74693 14.6211L6.40068 14.3743L6.0565 14.6211L6.18707 14.2208L5.84668 13.973H6.27011L6.40068 13.5708Z" fill="#FFF5F5"/>
</g>
<mask id="mask36_1037_5026" style="mask-type:luminance" maskUnits="userSpaceOnUse" x="0" y="7" width="34" height="20">
<path d="M0 7.08398H34V26.7999H0V7.08398Z" fill="white"/>
</mask>
<g mask="url(#mask36_1037_5026)">
<path d="M6.40068 15.343L6.53327 15.7462H6.95467L6.6104 15.992L6.74693 16.3934L6.40068 16.1455L6.0565 16.3934L6.18707 15.992L5.84668 15.7462H6.27011L6.40068 15.343Z" fill="#FFF5F5"/>
</g>
<mask id="mask37_1037_5026" style="mask-type:luminance" maskUnits="userSpaceOnUse" x="0" y="7" width="34" height="20">
<path d="M0 7.08398H34V26.7999H0V7.08398Z" fill="white"/>
</mask>
<g mask="url(#mask37_1037_5026)">
<path d="M7.64298 9.1875L7.77355 9.58969H8.19683L7.85457 9.83853L7.98322 10.2387L7.64298 9.99189L7.30067 10.2387L7.42922 9.83853L7.08691 9.58969H7.51034L7.64298 9.1875Z" fill="#FFF5F5"/>
</g>
<mask id="mask38_1037_5026" style="mask-type:luminance" maskUnits="userSpaceOnUse" x="0" y="7" width="34" height="20">
<path d="M0 7.08398H34V26.7999H0V7.08398Z" fill="white"/>
</mask>
<g mask="url(#mask38_1037_5026)">
<path d="M7.64298 10.9607L7.77355 11.361H8.19683L7.85457 11.6098L7.98322 12.01L7.64298 11.7642L7.30067 12.01L7.42922 11.6098L7.08691 11.361H7.51034L7.64298 10.9607Z" fill="#FFF5F5"/>
</g>
<mask id="mask39_1037_5026" style="mask-type:luminance" maskUnits="userSpaceOnUse" x="0" y="7" width="34" height="20">
<path d="M0 7.08398H34V26.7999H0V7.08398Z" fill="white"/>
</mask>
<g mask="url(#mask39_1037_5026)">
<path d="M7.64298 12.7329L7.77355 13.1341H8.19683L7.85457 13.3819L7.98322 13.7832L7.64298 13.5354L7.30067 13.7832L7.42922 13.3819L7.08691 13.1341H7.51034L7.64298 12.7329Z" fill="#FFF5F5"/>
</g>
<mask id="mask40_1037_5026" style="mask-type:luminance" maskUnits="userSpaceOnUse" x="0" y="7" width="34" height="20">
<path d="M0 7.08398H34V26.7999H0V7.08398Z" fill="white"/>
</mask>
<g mask="url(#mask40_1037_5026)">
<path d="M7.64298 14.5059L7.77355 14.9061H8.19683L7.85457 15.154L7.98322 15.5543L7.64298 15.3054L7.30067 15.5543L7.42922 15.154L7.08691 14.9061H7.51034L7.64298 14.5059Z" fill="#FFF5F5"/>
</g>
<mask id="mask41_1037_5026" style="mask-type:luminance" maskUnits="userSpaceOnUse" x="0" y="7" width="34" height="20">
<path d="M0 7.08398H34V26.7999H0V7.08398Z" fill="white"/>
</mask>
<g mask="url(#mask41_1037_5026)">
<path d="M8.89667 8.25415L9.02926 8.65639H9.45269L9.11043 8.9042L9.24292 9.30551L8.89667 9.0577L8.55643 9.30551L8.68508 8.9042L8.34277 8.65639H8.7661L8.89667 8.25415Z" fill="#FFF5F5"/>
</g>
<mask id="mask42_1037_5026" style="mask-type:luminance" maskUnits="userSpaceOnUse" x="0" y="7" width="34" height="20">
<path d="M0 7.08398H34V26.7999H0V7.08398Z" fill="white"/>
</mask>
<g mask="url(#mask42_1037_5026)">
<path d="M8.89667 10.0273L9.02926 10.4276H9.45269L9.11043 10.6744L9.24292 11.0776L8.89667 10.8289L8.55643 11.0776L8.68508 10.6744L8.34277 10.4276H8.7661L8.89667 10.0273Z" fill="#FFF5F5"/>
</g>
<mask id="mask43_1037_5026" style="mask-type:luminance" maskUnits="userSpaceOnUse" x="0" y="7" width="34" height="20">
<path d="M0 7.08398H34V26.7999H0V7.08398Z" fill="white"/>
</mask>
<g mask="url(#mask43_1037_5026)">
<path d="M8.89667 11.7996L9.02926 12.1998H9.45269L9.11043 12.4477L9.24292 12.8499L8.89667 12.6011L8.55643 12.8499L8.68508 12.4477L8.34277 12.1998H8.7661L8.89667 11.7996Z" fill="#FFF5F5"/>
</g>
<mask id="mask44_1037_5026" style="mask-type:luminance" maskUnits="userSpaceOnUse" x="0" y="7" width="34" height="20">
<path d="M0 7.08398H34V26.7999H0V7.08398Z" fill="white"/>
</mask>
<g mask="url(#mask44_1037_5026)">
<path d="M8.89667 13.5708L9.02926 13.973H9.45269L9.11043 14.2208L9.24292 14.6211L8.89667 14.3743L8.55643 14.6211L8.68508 14.2208L8.34277 13.973H8.7661L8.89667 13.5708Z" fill="#FFF5F5"/>
</g>
<mask id="mask45_1037_5026" style="mask-type:luminance" maskUnits="userSpaceOnUse" x="0" y="7" width="34" height="20">
<path d="M0 7.08398H34V26.7999H0V7.08398Z" fill="white"/>
</mask>
<g mask="url(#mask45_1037_5026)">
<path d="M8.89667 15.343L9.02926 15.7462H9.45269L9.11043 15.992L9.24292 16.3934L8.89667 16.1455L8.55643 16.3934L8.68508 15.992L8.34277 15.7462H8.7661L8.89667 15.343Z" fill="#FFF5F5"/>
</g>
<mask id="mask46_1037_5026" style="mask-type:luminance" maskUnits="userSpaceOnUse" x="0" y="7" width="34" height="20">
<path d="M0 7.08398H34V26.7999H0V7.08398Z" fill="white"/>
</mask>
<g mask="url(#mask46_1037_5026)">
<path d="M10.1399 9.1875L10.2705 9.58969H10.6979L10.3535 9.83853L10.4842 10.2387L10.1399 9.99189L9.79763 10.2387L9.93022 9.83853L9.58594 9.58969H10.0114L10.1399 9.1875Z" fill="#FFF5F5"/>
</g>
<mask id="mask47_1037_5026" style="mask-type:luminance" maskUnits="userSpaceOnUse" x="0" y="7" width="34" height="20">
<path d="M0 7.08398H34V26.7999H0V7.08398Z" fill="white"/>
</mask>
<g mask="url(#mask47_1037_5026)">
<path d="M10.1399 10.9607L10.2705 11.361H10.6979L10.3535 11.6098L10.4842 12.01L10.1399 11.7642L9.79763 12.01L9.93022 11.6098L9.58594 11.361H10.0114L10.1399 10.9607Z" fill="#FFF5F5"/>
</g>
<mask id="mask48_1037_5026" style="mask-type:luminance" maskUnits="userSpaceOnUse" x="0" y="7" width="34" height="20">
<path d="M0 7.08398H34V26.7999H0V7.08398Z" fill="white"/>
</mask>
<g mask="url(#mask48_1037_5026)">
<path d="M10.1399 12.7329L10.2705 13.1341H10.6979L10.3535 13.3819L10.4842 13.7832L10.1399 13.5354L9.79763 13.7832L9.93022 13.3819L9.58594 13.1341H10.0114L10.1399 12.7329Z" fill="#FFF5F5"/>
</g>
<mask id="mask49_1037_5026" style="mask-type:luminance" maskUnits="userSpaceOnUse" x="0" y="7" width="34" height="20">
<path d="M0 7.08398H34V26.7999H0V7.08398Z" fill="white"/>
</mask>
<g mask="url(#mask49_1037_5026)">
<path d="M10.1399 14.5059L10.2705 14.9061H10.6979L10.3535 15.154L10.4842 15.5543L10.1399 15.3054L9.79763 15.5543L9.93022 15.154L9.58594 14.9061H10.0114L10.1399 14.5059Z" fill="#FFF5F5"/>
</g>
<mask id="mask50_1037_5026" style="mask-type:luminance" maskUnits="userSpaceOnUse" x="0" y="7" width="34" height="20">
<path d="M0 7.08398H34V26.7999H0V7.08398Z" fill="white"/>
</mask>
<g mask="url(#mask50_1037_5026)">
<path d="M11.3977 8.25415L11.5303 8.65639H11.9537L11.6114 8.9042L11.74 9.30551L11.3977 9.0577L11.0575 9.30551L11.186 8.9042L10.8438 8.65639H11.2671L11.3977 8.25415Z" fill="#FFF5F5"/>
</g>
<mask id="mask51_1037_5026" style="mask-type:luminance" maskUnits="userSpaceOnUse" x="0" y="7" width="34" height="20">
<path d="M0 7.08398H34V26.7999H0V7.08398Z" fill="white"/>
</mask>
<g mask="url(#mask51_1037_5026)">
<path d="M11.3977 10.0273L11.5303 10.4276H11.9537L11.6114 10.6744L11.74 11.0776L11.3977 10.8289L11.0575 11.0776L11.186 10.6744L10.8438 10.4276H11.2671L11.3977 10.0273Z" fill="#FFF5F5"/>
</g>
<mask id="mask52_1037_5026" style="mask-type:luminance" maskUnits="userSpaceOnUse" x="0" y="7" width="34" height="20">
<path d="M0 7.08398H34V26.7999H0V7.08398Z" fill="white"/>
</mask>
<g mask="url(#mask52_1037_5026)">
<path d="M11.3977 11.7996L11.5303 12.1998H11.9537L11.6114 12.4477L11.74 12.8499L11.3977 12.6011L11.0575 12.8499L11.186 12.4477L10.8438 12.1998H11.2671L11.3977 11.7996Z" fill="#FFF5F5"/>
</g>
<mask id="mask53_1037_5026" style="mask-type:luminance" maskUnits="userSpaceOnUse" x="0" y="7" width="34" height="20">
<path d="M0 7.08398H34V26.7999H0V7.08398Z" fill="white"/>
</mask>
<g mask="url(#mask53_1037_5026)">
<path d="M11.3977 13.5708L11.5303 13.973H11.9537L11.6114 14.2208L11.74 14.6211L11.3977 14.3743L11.0575 14.6211L11.186 14.2208L10.8438 13.973H11.2671L11.3977 13.5708Z" fill="#FFF5F5"/>
</g>
<mask id="mask54_1037_5026" style="mask-type:luminance" maskUnits="userSpaceOnUse" x="0" y="7" width="34" height="20">
<path d="M0 7.08398H34V26.7999H0V7.08398Z" fill="white"/>
</mask>
<g mask="url(#mask54_1037_5026)">
<path d="M11.3977 15.343L11.5303 15.7462H11.9537L11.6114 15.992L11.74 16.3934L11.3977 16.1455L11.0575 16.3934L11.186 15.992L10.8438 15.7462H11.2671L11.3977 15.343Z" fill="#FFF5F5"/>
</g>
<mask id="mask55_1037_5026" style="mask-type:luminance" maskUnits="userSpaceOnUse" x="0" y="7" width="34" height="20">
<path d="M0 7.08398H34V26.7999H0V7.08398Z" fill="white"/>
</mask>
<g mask="url(#mask55_1037_5026)">
<path d="M12.6399 9.1875L12.7685 9.58969H13.1938L12.8535 9.83853L12.9802 10.2387L12.6399 9.99189L12.2937 10.2387L12.4262 9.83853L12.0859 9.58969H12.5073L12.6399 9.1875Z" fill="#FFF5F5"/>
</g>
<mask id="mask56_1037_5026" style="mask-type:luminance" maskUnits="userSpaceOnUse" x="0" y="7" width="34" height="20">
<path d="M0 7.08398H34V26.7999H0V7.08398Z" fill="white"/>
</mask>
<g mask="url(#mask56_1037_5026)">
<path d="M12.6399 10.9607L12.7685 11.361H13.1938L12.8535 11.6098L12.9802 12.01L12.6399 11.7642L12.2937 12.01L12.4262 11.6098L12.0859 11.361H12.5073L12.6399 10.9607Z" fill="#FFF5F5"/>
</g>
<mask id="mask57_1037_5026" style="mask-type:luminance" maskUnits="userSpaceOnUse" x="0" y="7" width="34" height="20">
<path d="M0 7.08398H34V26.7999H0V7.08398Z" fill="white"/>
</mask>
<g mask="url(#mask57_1037_5026)">
<path d="M12.6399 12.7329L12.7685 13.1341H13.1938L12.8535 13.3819L12.9802 13.7832L12.6399 13.5354L12.2937 13.7832L12.4262 13.3819L12.0859 13.1341H12.5073L12.6399 12.7329Z" fill="#FFF5F5"/>
</g>
<mask id="mask58_1037_5026" style="mask-type:luminance" maskUnits="userSpaceOnUse" x="0" y="7" width="34" height="20">
<path d="M0 7.08398H34V26.7999H0V7.08398Z" fill="white"/>
</mask>
<g mask="url(#mask58_1037_5026)">
<path d="M12.6399 14.5059L12.7685 14.9061H13.1938L12.8535 15.154L12.9802 15.5543L12.6399 15.3054L12.2937 15.5543L12.4262 15.154L12.0859 14.9061H12.5073L12.6399 14.5059Z" fill="#FFF5F5"/>
</g>
<mask id="mask59_1037_5026" style="mask-type:luminance" maskUnits="userSpaceOnUse" x="0" y="7" width="34" height="20">
<path d="M0 7.08398H34V26.7999H0V7.08398Z" fill="white"/>
</mask>
<g mask="url(#mask59_1037_5026)">
<path d="M13.8947 8.25415L14.0293 8.65639H14.4507L14.1084 8.9042L14.2409 9.30551L13.8947 9.0577L13.5544 9.30551L13.6831 8.9042L13.3408 8.65639H13.7641L13.8947 8.25415Z" fill="#FFF5F5"/>
</g>
<mask id="mask60_1037_5026" style="mask-type:luminance" maskUnits="userSpaceOnUse" x="0" y="7" width="34" height="20">
<path d="M0 7.08398H34V26.7999H0V7.08398Z" fill="white"/>
</mask>
<g mask="url(#mask60_1037_5026)">
<path d="M13.8947 10.0273L14.0293 10.4276H14.4507L14.1084 10.6744L14.2409 11.0776L13.8947 10.8289L13.5544 11.0776L13.6831 10.6744L13.3408 10.4276H13.7641L13.8947 10.0273Z" fill="#FFF5F5"/>
</g>
<mask id="mask61_1037_5026" style="mask-type:luminance" maskUnits="userSpaceOnUse" x="0" y="7" width="34" height="20">
<path d="M0 7.08398H34V26.7999H0V7.08398Z" fill="white"/>
</mask>
<g mask="url(#mask61_1037_5026)">
<path d="M13.8947 11.7996L14.0293 12.1998H14.4507L14.1084 12.4477L14.2409 12.8499L13.8947 12.6011L13.5544 12.8499L13.6831 12.4477L13.3408 12.1998H13.7641L13.8947 11.7996Z" fill="#FFF5F5"/>
</g>
<mask id="mask62_1037_5026" style="mask-type:luminance" maskUnits="userSpaceOnUse" x="0" y="7" width="34" height="20">
<path d="M0 7.08398H34V26.7999H0V7.08398Z" fill="white"/>
</mask>
<g mask="url(#mask62_1037_5026)">
<path d="M13.8947 13.5708L14.0293 13.973H14.4507L14.1084 14.2208L14.2409 14.6211L13.8947 14.3743L13.5544 14.6211L13.6831 14.2208L13.3408 13.973H13.7641L13.8947 13.5708Z" fill="#FFF5F5"/>
</g>
<mask id="mask63_1037_5026" style="mask-type:luminance" maskUnits="userSpaceOnUse" x="0" y="7" width="34" height="20">
<path d="M0 7.08398H34V26.7999H0V7.08398Z" fill="white"/>
</mask>
<g mask="url(#mask63_1037_5026)">
<path d="M13.8947 15.343L14.0293 15.7462H14.4507L14.1084 15.992L14.2409 16.3934L13.8947 16.1455L13.5544 16.3934L13.6831 15.992L13.3408 15.7462H13.7641L13.8947 15.343Z" fill="#FFF5F5"/>
</g>
</g>
<defs>
<clipPath id="clip0_1037_5026">
<rect width="34" height="34" fill="white"/>
</clipPath>
</defs>
</svg>
