<svg width="39" height="50" viewBox="0 0 39 50" fill="none" xmlns="http://www.w3.org/2000/svg">
<path fill-rule="evenodd" clip-rule="evenodd" d="M26.5979 27.8788C26.3145 27.8788 26.0581 27.6899 25.9771 27.4065C25.4778 25.6251 23.8313 24.3836 21.9825 24.3836L20.7004 24.3835C18.8921 24.3835 17.2592 25.5846 16.7328 27.312C16.6249 27.6494 16.274 27.8383 15.9366 27.7439C15.5992 27.6359 15.4103 27.2851 15.5047 26.9477C16.2065 24.6535 18.2848 23.115 20.7004 23.115H21.9825C24.4116 23.115 26.5574 24.7479 27.2052 27.0691C27.2996 27.4065 27.0972 27.7574 26.7598 27.8653C26.7193 27.8788 26.6519 27.8788 26.5979 27.8788Z" fill="#652DBF"/>
<path fill-rule="evenodd" clip-rule="evenodd" d="M21.3468 22.7095C19.8353 22.7095 18.5938 21.4814 18.5938 19.9564C18.5938 18.4315 19.8218 17.2034 21.3468 17.2034C22.8718 17.2034 24.0999 18.4315 24.0999 19.9564C24.0999 21.4814 22.8583 22.7095 21.3468 22.7095ZM21.3468 18.4989C20.5371 18.4989 19.8758 19.1602 19.8758 19.9699C19.8758 20.7797 20.5371 21.4409 21.3468 21.4409C22.1565 21.4409 22.8178 20.7797 22.8178 19.9699C22.8178 19.1602 22.143 18.4989 21.3468 18.4989Z" fill="#652DBF"/>
<path fill-rule="evenodd" clip-rule="evenodd" d="M37.8656 50H4.96417C4.6133 50 4.31641 49.7166 4.31641 49.3522V44.1161C4.31641 43.7652 4.59979 43.4683 4.96417 43.4683L12.3056 43.4683V32.6721H4.96417C4.6133 32.6721 4.31641 32.3887 4.31641 32.0243V0.647761C4.31641 0.296893 4.59979 0 4.96417 0H37.8521C38.203 0 38.4999 0.283388 38.4999 0.647761V49.3657C38.4999 49.7166 38.2165 50 37.8656 50ZM5.61197 48.7179H37.2179V1.29552H5.61197V31.4035H12.9534C13.3043 31.4035 13.6012 31.6868 13.6012 32.0512V44.1295C13.6012 44.4804 13.3178 44.7773 12.9534 44.7773L5.61197 44.7773V48.7179Z" fill="white"/>
<path fill-rule="evenodd" clip-rule="evenodd" d="M34.5588 22.8212H28.6749C28.324 22.8212 28.0271 22.5378 28.0271 22.1734C28.0271 21.8091 28.3105 21.5257 28.6749 21.5257L33.9245 21.5256V5.68215H8.78282V21.5256H14.154C14.5048 21.5256 14.8017 21.809 14.8017 22.1734C14.8017 22.5378 14.5183 22.8212 14.154 22.8212L8.13507 22.8212C7.7842 22.8212 7.4873 22.5378 7.4873 22.1734V5.04795C7.4873 4.69708 7.77069 4.40018 8.13507 4.40018L34.5588 4.40015C34.9096 4.40015 35.2065 4.68353 35.2065 5.04791V22.1734C35.193 22.5378 34.9097 22.8212 34.5588 22.8212Z" fill="#652DBF"/>
<path fill-rule="evenodd" clip-rule="evenodd" d="M21.4143 30.0653C17.0688 30.0653 13.5195 26.5296 13.5195 22.1706C13.5195 17.8117 17.0553 14.2759 21.4143 14.2759C25.7732 14.2759 29.309 17.8117 29.309 22.1706C29.309 26.5296 25.7733 30.0653 21.4143 30.0653ZM21.4143 15.5714C17.7705 15.5714 14.8016 18.5403 14.8016 22.1841C14.8016 25.8278 17.7705 28.7967 21.4143 28.7967C25.058 28.7967 28.0269 25.8278 28.0269 22.1841C28.0269 18.5403 25.058 15.5714 21.4143 15.5714Z" fill="#652DBF"/>
<path fill-rule="evenodd" clip-rule="evenodd" d="M34.087 34.8717H12.9534C12.6026 34.8717 12.3057 34.5883 12.3057 34.224C12.3057 33.8596 12.5891 33.5762 12.9534 33.5762L34.1005 33.5762C34.4514 33.5762 34.7483 33.8596 34.7483 34.2239C34.7483 34.5883 34.4514 34.8717 34.087 34.8717Z" fill="white"/>
<path fill-rule="evenodd" clip-rule="evenodd" d="M34.087 38.7343H12.9534C12.6026 38.7343 12.3057 38.4509 12.3057 38.0865C12.3057 37.7221 12.5891 37.4388 12.9534 37.4388L34.1005 37.4387C34.4514 37.4387 34.7483 37.7221 34.7483 38.0865C34.7483 38.4509 34.4514 38.7343 34.087 38.7343Z" fill="white"/>
<path fill-rule="evenodd" clip-rule="evenodd" d="M34.087 42.5788H12.9534C12.6026 42.5788 12.3057 42.2954 12.3057 41.931C12.3057 41.5666 12.5891 41.2832 12.9534 41.2832L34.1005 41.2832C34.4514 41.2832 34.7483 41.5666 34.7483 41.931C34.7483 42.2953 34.4514 42.5788 34.087 42.5788Z" fill="white"/>
<path fill-rule="evenodd" clip-rule="evenodd" d="M34.0865 46.4354H8.36456C8.01369 46.4354 7.7168 46.152 7.7168 45.7877C7.7168 45.4233 8.00019 45.1399 8.36456 45.1399H34.1C34.4509 45.1399 34.7478 45.4233 34.7478 45.7877C34.7478 46.152 34.4509 46.4354 34.0865 46.4354Z" fill="#652DBF"/>
<path fill-rule="evenodd" clip-rule="evenodd" d="M11.5493 9.12515H10.888C10.5371 9.12515 10.2402 8.84176 10.2402 8.47739C10.2402 8.11302 10.5236 7.82963 10.888 7.82963L11.5493 7.82959C11.9001 7.82959 12.197 8.11298 12.197 8.47735C12.197 8.84172 11.9001 9.12515 11.5493 9.12515Z" fill="#652DBF"/>
<path fill-rule="evenodd" clip-rule="evenodd" d="M29.0533 9.12515H28.5944C28.4865 9.12515 28.3785 9.09814 28.2975 9.04417C28.2031 9.09814 28.1086 9.12515 28.0006 9.12515H27.3934C27.2854 9.12515 27.1774 9.09814 27.0965 9.04417C27.002 9.09814 26.9075 9.12515 26.7996 9.12515H26.1923C26.0843 9.12515 25.9764 9.09814 25.8954 9.04417C25.8009 9.09814 25.7065 9.12515 25.5985 9.12515H24.9912C24.8833 9.12515 24.7753 9.09814 24.6943 9.04417C24.5999 9.09814 24.5054 9.12515 24.3974 9.12515H23.7901C23.6822 9.12515 23.5742 9.09814 23.4932 9.04417C23.3988 9.09814 23.3043 9.12515 23.1963 9.12515H22.589C22.4811 9.12515 22.3731 9.09814 22.2921 9.04417C22.1977 9.09814 22.1032 9.12515 21.9952 9.12515H21.388C21.28 9.12515 21.1721 9.09814 21.0911 9.04417C20.9966 9.09814 20.9021 9.12515 20.7942 9.12515H20.1869C20.0789 9.12515 19.971 9.09814 19.89 9.04417C19.7956 9.09814 19.7011 9.12515 19.5931 9.12515H18.9858C18.8778 9.12515 18.7699 9.09814 18.6889 9.04417C18.5944 9.09814 18.5 9.12515 18.392 9.12515H17.7847C17.6768 9.12515 17.5688 9.09814 17.4878 9.04417C17.3934 9.09814 17.2989 9.12515 17.1909 9.12515H16.5836C16.4757 9.12515 16.3677 9.09814 16.2868 9.04417C16.1923 9.09814 16.0978 9.12515 15.9899 9.12515H15.3826C15.2746 9.12515 15.1667 9.09814 15.0857 9.04417C14.9912 9.09814 14.8967 9.12515 14.7888 9.12515H14.1545C14.0465 9.12515 13.9386 9.09814 13.8576 9.04417C13.7632 9.09814 13.6687 9.12515 13.5607 9.12515H12.9534C12.6026 9.12515 12.3057 8.84176 12.3057 8.47739C12.3057 8.11302 12.5891 7.82963 12.9534 7.82963L13.5607 7.82959C13.6687 7.82959 13.7766 7.8566 13.8576 7.91057C13.9521 7.8566 14.0465 7.82959 14.1545 7.82959H14.7618C14.8697 7.82959 14.9777 7.8566 15.0587 7.91057C15.1531 7.8566 15.2476 7.82959 15.3556 7.82959H15.9629C16.0708 7.82959 16.1788 7.8566 16.2597 7.91057C16.3542 7.8566 16.4487 7.82959 16.5566 7.82959H17.1639C17.2719 7.82959 17.3798 7.8566 17.4608 7.91057C17.5553 7.8566 17.6498 7.82959 17.7577 7.82959H18.365C18.473 7.82959 18.5809 7.8566 18.6619 7.91057C18.7564 7.8566 18.8509 7.82959 18.9588 7.82959H19.5661C19.6741 7.82959 19.782 7.8566 19.863 7.91057C19.9574 7.8566 20.0519 7.82959 20.1599 7.82959H20.7672C20.8751 7.82959 20.9831 7.8566 21.0641 7.91057C21.1585 7.8566 21.253 7.82959 21.361 7.82959H21.9682C22.0762 7.82959 22.1841 7.8566 22.2651 7.91057C22.3596 7.8566 22.4541 7.82959 22.562 7.82959H23.1693C23.2773 7.82959 23.3853 7.8566 23.4662 7.91057C23.5607 7.8566 23.6552 7.82959 23.7631 7.82959H24.3704C24.4784 7.82959 24.5863 7.8566 24.6673 7.91057C24.7618 7.8566 24.8563 7.82959 24.9642 7.82959H25.5715C25.6794 7.82959 25.7874 7.8566 25.8684 7.91057C25.9628 7.8566 26.0573 7.82959 26.1653 7.82959H26.7726C26.8805 7.82959 26.9885 7.8566 27.0695 7.91057C27.1639 7.8566 27.2584 7.82959 27.3663 7.82959H27.9736C28.0816 7.82959 28.1895 7.8566 28.2705 7.91057C28.365 7.8566 28.4595 7.82959 28.5674 7.82959H29.0398C29.3906 7.82959 29.6875 8.11298 29.6875 8.47735C29.6875 8.84172 29.4177 9.12515 29.0533 9.12515Z" fill="#652DBF"/>
<path fill-rule="evenodd" clip-rule="evenodd" d="M30.4291 9.12515H29.7679C29.417 9.12515 29.1201 8.84176 29.1201 8.47739C29.1201 8.11302 29.4035 7.82963 29.7679 7.82963L30.4291 7.82959C30.78 7.82959 31.0769 8.11298 31.0769 8.47735C31.0769 8.84172 30.78 9.12515 30.4291 9.12515Z" fill="#652DBF"/>
<path fill-rule="evenodd" clip-rule="evenodd" d="M4.96417 44.7784H0.861628C0.51076 44.7784 0.213867 44.495 0.213867 44.1306V32.0523C0.213867 31.7015 0.497256 31.4046 0.861628 31.4046L4.96417 31.4045C5.31504 31.4045 5.61193 31.6879 5.61193 32.0523C5.61193 32.4167 5.32854 32.7001 4.96417 32.7001H1.50938V43.4963L4.96417 43.4963C5.31504 43.4963 5.61193 43.7797 5.61193 44.1441C5.61193 44.5084 5.32854 44.7784 4.96417 44.7784Z" fill="white"/>
<path fill-rule="evenodd" clip-rule="evenodd" d="M5.3815 41.3895C5.36803 41.3895 5.36803 41.3895 5.3815 41.3895C5.17906 41.3895 5.01713 41.3085 4.89567 41.1601L2.54751 38.3936C2.3181 38.1236 2.34507 37.7188 2.62849 37.4894C2.89841 37.26 3.30326 37.2869 3.53267 37.5704L5.40851 39.7836L10.3612 34.4125C10.6042 34.1561 11.009 34.1426 11.2654 34.372C11.5218 34.6149 11.5354 35.0198 11.3059 35.2762L5.86733 41.1736C5.73241 41.322 5.55697 41.3895 5.3815 41.3895Z" fill="white"/>
</svg>
