<svg width="50" height="50" viewBox="0 0 50 50" fill="none" xmlns="http://www.w3.org/2000/svg">
<g clip-path="url(#clip0_1275_21355)">
<path d="M48.3334 26.6667H41.5134C41.6121 26.3998 41.6639 26.1179 41.6667 25.8333V24.2933L44.9375 13.4058C45.0565 12.98 45.0022 12.5243 44.7864 12.1384C44.5706 11.7524 44.211 11.4675 43.7859 11.3458L42.1867 10.8967C41.763 10.7776 41.3094 10.8301 40.924 11.0428C40.5387 11.2555 40.2526 11.6113 40.1275 12.0333L36.75 23.3333H29.1667C28.7247 23.3333 28.3007 23.5089 27.9882 23.8215C27.6756 24.134 27.5 24.558 27.5 25V26.6667H25.5409C25.731 26.2772 25.8309 25.85 25.8334 25.4167C25.8324 24.6431 25.526 23.9013 24.9809 23.3525C24.7103 23.0809 24.3885 22.8657 24.0342 22.7194C23.6799 22.5731 23.3 22.4985 22.9167 22.5H14.7059L13.3667 19.5183C13.0116 18.6223 12.3776 17.8644 11.5584 17.3567C12.3598 16.8249 13.0174 16.1032 13.4724 15.2559C13.9275 14.4085 14.166 13.4618 14.1667 12.5V10.8333C14.1667 9.28624 13.5521 7.80251 12.4582 6.70854C11.3642 5.61458 9.88046 5 8.33336 5C6.78627 5 5.30253 5.61458 4.20857 6.70854C3.11461 7.80251 2.50003 9.28624 2.50003 10.8333V12.5C2.50209 13.5055 2.76405 14.4935 3.26049 15.368C3.75692 16.2424 4.47098 16.9737 5.33336 17.4908C4.93179 17.8335 4.61757 18.2668 4.4167 18.755C3.97517 18.4863 3.46996 18.3401 2.95315 18.3317C2.43634 18.3233 1.92663 18.4529 1.47659 18.7071C1.02656 18.9613 0.652476 19.331 0.392925 19.778C0.133373 20.225 -0.00225395 20.7331 2.83354e-05 21.25V34.1667C0.00252758 36.0105 0.683405 37.789 1.91288 39.1631C3.14236 40.5372 4.83447 41.4108 6.6667 41.6175V47.5C6.6667 48.163 6.93009 48.7989 7.39893 49.2678C7.86777 49.7366 8.50365 50 9.1667 50H10.8334C11.4964 50 12.1323 49.7366 12.6011 49.2678C13.07 48.7989 13.3334 48.163 13.3334 47.5V41.6667H15V46.25C15.0011 47.2442 15.3966 48.1974 16.0996 48.9004C16.8026 49.6035 17.7558 49.9989 18.75 50C19.7405 49.9868 20.6867 49.5875 21.3871 48.8871C22.0876 48.1867 22.4869 47.2405 22.5 46.25V35C22.4997 33.7683 22.0424 32.5806 21.2167 31.6667H24.1667V48.3333C24.1667 48.7754 24.3423 49.1993 24.6549 49.5118C24.9674 49.8244 25.3913 50 25.8334 50H47.5C47.9421 50 48.366 49.8244 48.6785 49.5118C48.9911 49.1993 49.1667 48.7754 49.1667 48.3333V31.435C49.4192 31.2899 49.6292 31.0809 49.7754 30.829C49.9217 30.5772 49.9992 30.2913 50 30V28.3333C50 27.8913 49.8244 27.4674 49.5119 27.1548C49.1993 26.8423 48.7754 26.6667 48.3334 26.6667ZM41.7342 12.5L43.3334 12.9417L40.2142 23.3333H38.4867L41.7342 12.5ZM29.1667 25H40V25.8333C40 26.0543 39.9122 26.2663 39.756 26.4226C39.5997 26.5789 39.3877 26.6667 39.1667 26.6667H29.1667V25ZM4.1667 12.5V10.8333C4.1667 9.72826 4.60568 8.66846 5.38708 7.88705C6.16849 7.10565 7.22829 6.66667 8.33336 6.66667C9.43843 6.66667 10.4982 7.10565 11.2796 7.88705C12.061 8.66846 12.5 9.72826 12.5 10.8333V12.5C12.5 13.6051 12.061 14.6649 11.2796 15.4463C10.4982 16.2277 9.43843 16.6667 8.33336 16.6667C7.22829 16.6667 6.16849 16.2277 5.38708 15.4463C4.60568 14.6649 4.1667 13.6051 4.1667 12.5ZM11.6667 47.5C11.6667 47.721 11.5789 47.933 11.4226 48.0893C11.2663 48.2455 11.0544 48.3333 10.8334 48.3333H9.1667C8.94568 48.3333 8.73372 48.2455 8.57744 48.0893C8.42116 47.933 8.33336 47.721 8.33336 47.5V41.6667H11.6667V47.5ZM15 40H7.50003C5.95347 39.9982 4.47077 39.3831 3.37719 38.2895C2.28361 37.1959 1.66846 35.7132 1.6667 34.1667V21.25C1.6667 21.0858 1.69903 20.9233 1.76185 20.7716C1.82466 20.62 1.91674 20.4822 2.03281 20.3661C2.14889 20.25 2.28668 20.158 2.43834 20.0952C2.59 20.0323 2.75254 20 2.9167 20C3.08085 20 3.24339 20.0323 3.39505 20.0952C3.54671 20.158 3.68451 20.25 3.80058 20.3661C3.91665 20.4822 4.00873 20.62 4.07154 20.7716C4.13436 20.9233 4.1667 21.0858 4.1667 21.25V33.3333C4.16802 34.438 4.60743 35.497 5.38855 36.2781C6.16966 37.0593 7.2287 37.4987 8.33336 37.5H15V40ZM20.8334 46.25C20.826 46.8003 20.6042 47.3259 20.2151 47.715C19.8259 48.1041 19.3003 48.326 18.75 48.3333C18.1975 48.3333 17.6676 48.1138 17.2769 47.7231C16.8862 47.3324 16.6667 46.8025 16.6667 46.25V37.5C16.6667 37.058 16.4911 36.634 16.1785 36.3215C15.866 36.0089 15.4421 35.8333 15 35.8333H8.33336C7.67032 35.8333 7.03444 35.5699 6.5656 35.1011C6.09675 34.6323 5.83336 33.9964 5.83336 33.3333V20C5.83336 19.558 6.00896 19.134 6.32152 18.8215C6.63408 18.5089 7.058 18.3333 7.50003 18.3333H9.1667C9.7446 18.3327 10.3091 18.5077 10.7853 18.8351C11.2615 19.1625 11.627 19.6269 11.8334 20.1667L13.4084 23.675C13.4741 23.8212 13.5806 23.9454 13.7151 24.0326C13.8496 24.1198 14.0064 24.1663 14.1667 24.1667H22.9167C23.2482 24.1667 23.5662 24.2984 23.8006 24.5328C24.035 24.7672 24.1667 25.0851 24.1667 25.4167C24.1667 25.7482 24.035 26.0661 23.8006 26.3005C23.5662 26.535 23.2482 26.6667 22.9167 26.6667H12.5C12.3074 26.6672 12.1185 26.6139 11.9546 26.5128C11.7907 26.4116 11.6583 26.2666 11.5725 26.0942L9.59003 22.1275C9.54163 22.0287 9.47417 21.9405 9.39152 21.868C9.30887 21.7954 9.21268 21.7399 9.10849 21.7047C9.00429 21.6695 8.89416 21.6553 8.78444 21.6628C8.67472 21.6704 8.56758 21.6996 8.4692 21.7488C8.37082 21.7979 8.28314 21.8661 8.21122 21.9493C8.13931 22.0325 8.08457 22.1291 8.05018 22.2336C8.01578 22.338 8.0024 22.4483 8.01082 22.5579C8.01923 22.6676 8.04927 22.7745 8.0992 22.8725L10.0825 26.8392C10.2424 27.1601 10.4649 27.4457 10.737 27.6792C11.0091 27.9126 11.3252 28.0891 11.6667 28.1983V30C11.6667 30.442 11.8423 30.866 12.1549 31.1785C12.4674 31.4911 12.8913 31.6667 13.3334 31.6667H17.5C18.3841 31.6667 19.2319 32.0179 19.8571 32.643C20.4822 33.2681 20.8334 34.1159 20.8334 35V46.25ZM47.5 48.3333H25.8334V31.6667H47.5V48.3333ZM48.3334 30H13.3334V28.3333H48.3334V30Z" fill="white"/>
<path d="M24.1587 16.6667L28.4737 20.365C28.8206 20.666 29.2643 20.832 29.7237 20.8325C30.0055 20.832 30.2838 20.7703 30.5395 20.6517C30.8768 20.5002 31.1629 20.254 31.3631 19.9431C31.5632 19.6321 31.6688 19.2698 31.667 18.9V16.6667H33.3337C34.2177 16.6667 35.0656 16.3155 35.6907 15.6904C36.3158 15.0652 36.667 14.2174 36.667 13.3333V3.33333C36.667 2.44928 36.3158 1.60143 35.6907 0.976311C35.0656 0.35119 34.2177 0 33.3337 0L20.0003 0C19.1163 0 18.2684 0.35119 17.6433 0.976311C17.0182 1.60143 16.667 2.44928 16.667 3.33333V13.3333C16.667 14.2174 17.0182 15.0652 17.6433 15.6904C18.2684 16.3155 19.1163 16.6667 20.0003 16.6667H24.1587ZM18.3337 13.3333V3.33333C18.3337 2.89131 18.5093 2.46738 18.8218 2.15482C19.1344 1.84226 19.5583 1.66667 20.0003 1.66667H33.3337C33.7757 1.66667 34.1996 1.84226 34.5122 2.15482C34.8247 2.46738 35.0003 2.89131 35.0003 3.33333V13.3333C35.0003 13.7754 34.8247 14.1993 34.5122 14.5118C34.1996 14.8244 33.7757 15 33.3337 15H30.8337C30.6126 15 30.4007 15.0878 30.2444 15.2441C30.0881 15.4004 30.0003 15.6123 30.0003 15.8333V18.9C29.999 18.9505 29.9834 18.9995 29.9555 19.0416C29.9276 19.0837 29.8884 19.117 29.8425 19.1379C29.7965 19.1587 29.7456 19.1662 29.6955 19.1595C29.6455 19.1528 29.5984 19.1322 29.5595 19.1L25.0095 15.2C24.8583 15.0707 24.6659 14.9998 24.467 15H20.0003C19.5583 15 19.1344 14.8244 18.8218 14.5118C18.5093 14.1993 18.3337 13.7754 18.3337 13.3333Z" fill="#652DBF"/>
<path d="M21.6663 5.83341H31.6663C31.8874 5.83341 32.0993 5.74562 32.2556 5.58934C32.4119 5.43306 32.4997 5.2211 32.4997 5.00008C32.4997 4.77907 32.4119 4.56711 32.2556 4.41083C32.0993 4.25455 31.8874 4.16675 31.6663 4.16675H21.6663C21.4453 4.16675 21.2334 4.25455 21.0771 4.41083C20.9208 4.56711 20.833 4.77907 20.833 5.00008C20.833 5.2211 20.9208 5.43306 21.0771 5.58934C21.2334 5.74562 21.4453 5.83341 21.6663 5.83341Z" fill="#652DBF"/>
<path d="M21.6663 9.16667H31.6663C31.8874 9.16667 32.0993 9.07887 32.2556 8.92259C32.4119 8.76631 32.4997 8.55435 32.4997 8.33333C32.4997 8.11232 32.4119 7.90036 32.2556 7.74408C32.0993 7.5878 31.8874 7.5 31.6663 7.5H21.6663C21.4453 7.5 21.2334 7.5878 21.0771 7.74408C20.9208 7.90036 20.833 8.11232 20.833 8.33333C20.833 8.55435 20.9208 8.76631 21.0771 8.92259C21.2334 9.07887 21.4453 9.16667 21.6663 9.16667Z" fill="#652DBF"/>
<path d="M21.6663 12.4999H28.333C28.554 12.4999 28.766 12.4121 28.9223 12.2558C29.0785 12.0996 29.1663 11.8876 29.1663 11.6666C29.1663 11.4456 29.0785 11.2336 28.9223 11.0773C28.766 10.921 28.554 10.8333 28.333 10.8333H21.6663C21.4453 10.8333 21.2334 10.921 21.0771 11.0773C20.9208 11.2336 20.833 11.4456 20.833 11.6666C20.833 11.8876 20.9208 12.0996 21.0771 12.2558C21.2334 12.4121 21.4453 12.4999 21.6663 12.4999Z" fill="#652DBF"/>
</g>
<defs>
<clipPath id="clip0_1275_21355">
<rect width="50" height="50" fill="white"/>
</clipPath>
</defs>
</svg>
