<svg width="42" height="29" viewBox="0 0 42 29" fill="none" xmlns="http://www.w3.org/2000/svg">
<g clip-path="url(#clip0_361_1601)">
<g clip-path="url(#clip1_361_1601)">
<g clip-path="url(#clip2_361_1601)">
<mask id="mask0_361_1601" style="mask-type:luminance" maskUnits="userSpaceOnUse" x="0" y="0" width="42" height="29">
<path d="M41.6676 0.299988H0.971954V28.61H41.6676V0.299988Z" fill="white"/>
</mask>
<g mask="url(#mask0_361_1601)">
<path d="M38.1288 0.476929H4.51071C2.65403 0.476929 1.1489 1.98206 1.1489 3.83874V25.0712C1.1489 26.9279 2.65403 28.4331 4.51071 28.4331H38.1288C39.9855 28.4331 41.4904 26.9279 41.4904 25.0712V3.83874C41.4904 1.98206 39.9855 0.476929 38.1288 0.476929Z" fill="url(#paint0_linear_361_1601)" fill-opacity="0.5"/>
<path d="M38.1288 0.476929H4.51071C2.65403 0.476929 1.1489 1.98206 1.1489 3.83874V25.0712C1.1489 26.9279 2.65403 28.4331 4.51071 28.4331H38.1288C39.9855 28.4331 41.4904 26.9279 41.4904 25.0712V3.83874C41.4904 1.98206 39.9855 0.476929 38.1288 0.476929Z" stroke="#E8E8E8" stroke-width="0.404429"/>
<path d="M38.1288 0.476929H4.51071C2.65403 0.476929 1.1489 1.98206 1.1489 3.83874V25.0712C1.1489 26.9279 2.65403 28.4331 4.51071 28.4331H38.1288C39.9855 28.4331 41.4904 26.9279 41.4904 25.0712V3.83874C41.4904 1.98206 39.9855 0.476929 38.1288 0.476929Z" stroke="#EDEDED" stroke-width="0.404429"/>
<path d="M18.8189 19.4458H16.2103L17.842 9.33011H20.4504L18.8189 19.4458Z" fill="#00579F"/>
<path d="M28.2755 9.57753C27.7609 9.37285 26.9448 9.14685 25.9358 9.14685C23.3596 9.14685 21.5456 10.5243 21.5344 12.4935C21.513 13.9464 22.8333 14.7534 23.8207 15.2378C24.8299 15.7328 25.173 16.056 25.173 16.4972C25.1627 17.1749 24.3575 17.4873 23.6064 17.4873C22.5649 17.4873 22.0069 17.3262 21.1588 16.9492L20.8153 16.7876L20.4503 19.0583C21.0621 19.3378 22.1893 19.5858 23.3596 19.5967C26.0968 19.5967 27.8788 18.2406 27.8999 16.1421C27.9103 14.9905 27.2132 14.1082 25.7102 13.3872C24.7978 12.9243 24.2391 12.6122 24.2391 12.1386C24.2498 11.7081 24.7117 11.2671 25.7416 11.2671C26.5897 11.2456 27.2128 11.4499 27.6847 11.6545L27.9207 11.7619L28.2755 9.57753Z" fill="#00579F"/>
<path d="M31.7426 15.8622C31.9575 15.2811 32.7842 13.0319 32.7842 13.0319C32.7733 13.0535 32.9986 12.44 33.1274 12.0634L33.3097 12.9351C33.3097 12.9351 33.8037 15.3564 33.911 15.8622C33.5032 15.8622 32.2579 15.8622 31.7426 15.8622ZM34.9627 9.33011H32.9449C32.3227 9.33011 31.8499 9.51291 31.5815 10.1694L27.7067 19.4457H30.4438C30.4438 19.4457 30.8945 18.1972 30.9913 17.9283C31.2916 17.9283 33.9543 17.9283 34.3406 17.9283C34.4155 18.2834 34.6519 19.4457 34.6519 19.4457H37.0672L34.9627 9.33011Z" fill="#00579F"/>
<path d="M14.0316 9.33011L11.4769 16.2281L11.1977 14.8291C10.7254 13.2148 9.24415 11.461 7.59113 10.5889L9.93115 19.4351H12.6897L16.7901 9.33011H14.0316Z" fill="#00579F"/>
<path d="M9.10458 9.33011H4.9075L4.86459 9.53451C8.13852 10.3739 10.3068 12.3974 11.1977 14.8295L10.2853 10.1805C10.1351 9.53439 9.67345 9.35142 9.10458 9.33011Z" fill="#FAA61A"/>
</g>
</g>
</g>
</g>
<defs>
<linearGradient id="paint0_linear_361_1601" x1="21.1428" y1="2.06937" x2="21.1428" y2="28.61" gradientUnits="userSpaceOnUse">
<stop stop-color="#F5F5F5"/>
<stop offset="1" stop-color="white"/>
</linearGradient>
<clipPath id="clip0_361_1601">
<rect width="41.27" height="28.31" fill="white" transform="translate(0.710022 0.299988)"/>
</clipPath>
<clipPath id="clip1_361_1601">
<rect width="41.27" height="28.31" fill="white" transform="translate(0.710022 0.299988)"/>
</clipPath>
<clipPath id="clip2_361_1601">
<rect width="41.2517" height="28.31" fill="white" transform="translate(0.719177 0.299988)"/>
</clipPath>
</defs>
</svg>
