<svg width="51" height="50" viewBox="0 0 51 50" fill="none" xmlns="http://www.w3.org/2000/svg">
<path d="M38.7695 25.7618C39.1914 25.8564 39.6102 25.5962 39.7062 25.1759C40.0148 23.8353 40.1711 22.4274 40.1711 20.9931C40.1711 15.8985 38.1859 11.1134 34.5828 7.51885C31.0945 4.03057 26.45 2.05635 21.5266 1.96338C21.3656 1.95323 21.207 1.95088 21.0437 1.95323C20.9383 1.95479 20.8328 1.95635 20.7422 1.9626C20.7375 1.9626 20.7336 1.9626 20.7289 1.96338C20.7219 1.96338 20.7156 1.96338 20.7078 1.96338C20.7023 1.96338 20.6977 1.96495 20.6922 1.96495C15.7719 2.07198 11.1492 4.04229 7.67344 7.51807C4.07031 11.1134 2.08594 15.8985 2.08594 20.9923C2.08594 26.086 4.07109 30.8798 7.66484 34.4649C7.90078 34.7095 8.15312 34.9376 8.41484 35.1751C8.6625 35.3978 8.91875 35.6204 9.17422 35.8204C9.73125 36.2681 10.2969 36.6735 10.8102 36.9962C10.9187 37.0759 11.0375 37.1501 11.1547 37.2228L11.2781 37.2993C11.4906 37.4298 11.7117 37.5532 11.9602 37.6907C12.2242 37.8345 12.4883 37.9774 12.7797 38.1149C13.0398 38.2415 13.3008 38.3665 13.5461 38.4712C13.7164 38.5478 13.8938 38.6157 14.0492 38.6743C14.3094 38.7837 14.5773 38.8845 14.8336 38.9689C15.1055 39.0673 15.3687 39.1501 15.6398 39.2321C15.9062 39.3134 16.1734 39.386 16.4484 39.4587C16.5148 39.4759 16.582 39.4853 16.6484 39.4853C16.9945 39.4853 17.3109 39.2532 17.4031 38.9032C17.4914 38.5696 17.3445 38.2376 17.0711 38.0587C17.1289 38.0204 17.1906 37.9899 17.2383 37.9345C17.5211 37.6087 17.4859 37.1149 17.1602 36.8321C15.6773 35.5446 14.407 33.5821 13.4578 31.1407C14.5398 30.6118 15.6719 30.1899 16.8375 29.8985C17.2563 29.7939 17.5102 29.3696 17.4062 28.9509C17.3016 28.5321 16.8773 28.2782 16.4586 28.3821C15.2437 28.686 14.0633 29.1181 12.9312 29.6587C12.1742 27.2415 11.7469 24.5478 11.6789 21.772H20.343V24.9993C20.343 25.4306 20.693 25.7806 21.1242 25.7806C21.5555 25.7806 21.9055 25.4306 21.9055 24.9993V21.772H30.5688C30.543 22.8306 30.4789 23.8821 30.3492 24.9009C30.2953 25.329 30.5977 25.7204 31.0258 25.7751C31.4492 25.8267 31.8453 25.5274 31.9 25.0985C32.0375 24.0142 32.1055 22.897 32.132 21.772H38.5883C38.543 22.8181 38.4102 23.8423 38.1844 24.8243C38.0875 25.2454 38.35 25.6642 38.7703 25.761L38.7695 25.7618ZM3.68672 20.2103C3.86797 16.0806 5.47344 12.2196 8.27344 9.17979C9.27031 10.0939 10.3617 10.897 11.532 11.5798C10.6727 14.2173 10.1891 17.1712 10.118 20.2103H3.68672ZM20.3438 3.57901V12.5978C17.9477 12.4899 15.5953 11.8907 13.457 10.8446C15.0883 6.6712 17.6039 4.01338 20.3438 3.57901ZM21.9062 3.57667C24.6422 4.00323 27.1656 6.6626 28.8008 10.8439C26.6609 11.8915 24.3055 12.4907 21.9062 12.5978V3.57667ZM33.9844 9.17823C36.7844 12.2173 38.3898 16.079 38.5711 20.2095H32.1406C32.0695 17.1696 31.5852 14.2165 30.7266 11.579C31.8977 10.8954 32.9883 10.0915 33.9844 9.17823ZM32.8773 8.07588C32.0469 8.83135 31.1453 9.50479 30.1813 10.0884C29.2203 7.69698 27.9672 5.75557 26.5273 4.36885C28.8711 5.1251 31.0258 6.38838 32.8773 8.07667V8.07588ZM12.0766 10.0884C11.1133 9.50557 10.2117 8.83213 9.38047 8.07588C11.2258 6.39307 13.3742 5.1337 15.7187 4.37588C14.2844 5.76182 13.0352 7.70167 12.0766 10.0884ZM15.7125 37.6118C15.5945 37.5735 15.4812 37.5407 15.3539 37.4946C15.1203 37.4149 14.8797 37.3267 14.6297 37.2228C14.4797 37.1657 14.3297 37.1087 14.1719 37.0384C13.9344 36.9376 13.6977 36.8228 13.4258 36.6915C13.1813 36.5767 12.9445 36.447 12.6914 36.3087C12.4906 36.197 12.2891 36.0853 12.0617 35.9462L11.9742 35.8923C11.893 35.8423 11.8102 35.7923 11.6906 35.7071C11.182 35.3845 10.6641 35.0126 10.1445 34.5954C9.90859 34.411 9.68047 34.2118 9.45234 34.0071C9.42109 33.979 9.39063 33.9478 9.35938 33.9196C10.1977 33.154 11.1086 32.4782 12.0734 31.8915C13.018 34.2564 14.2602 36.2095 15.7117 37.6126L15.7125 37.6118ZM11.5312 30.4032C10.3648 31.0868 9.27422 31.8931 8.27344 32.8118C5.47266 29.772 3.86797 25.9071 3.68672 21.772H10.1172C10.1883 24.811 10.6719 27.7649 11.5312 30.4032ZM11.6797 20.2095C11.7477 17.436 12.175 14.7439 12.9312 12.3274C15.2391 13.429 17.7703 14.0532 20.3438 14.1603V20.2095H11.6797ZM21.9062 14.1603C24.4836 14.0548 27.0172 13.4298 29.3273 12.3274C30.0836 14.7439 30.5109 17.436 30.5789 20.2095H21.9062V14.1603Z" fill="white"/>
<path d="M48.7605 37.5625C48.7152 37.45 48.6793 37.3359 48.6145 37.2258L45.0199 31.3656C44.6277 30.7266 43.923 30.3289 43.1816 30.3289H38.6098V27.7445C38.6098 26.9547 37.9676 26.3125 37.1777 26.3125H19.6215C18.8316 26.3125 18.1895 26.9547 18.1895 27.7445V44.0695C18.1895 44.8594 18.8316 45.5016 19.6215 45.5016H21.9902C22.3441 46.9609 23.6527 48.0516 25.2191 48.0516C26.7855 48.0516 28.0941 46.9609 28.448 45.5016H39.3215C39.6754 46.9609 40.984 48.0516 42.5504 48.0516C44.1168 48.0516 45.4254 46.9609 45.7793 45.5016H46.7746C47.9668 45.5016 48.9363 44.532 48.9363 43.3398V38.3516C48.9363 38.1258 48.884 37.8977 48.8059 37.6711C48.7926 37.6328 48.7777 37.5984 48.759 37.5625H48.7605ZM46.7277 37.1383H41.4551V33.9156H44.7504L46.7277 37.1383ZM19.752 27.8742H37.048V43.9383H28.4496C28.0957 42.4781 26.7871 41.3867 25.2199 41.3867C23.6527 41.3867 22.3434 42.4781 21.9902 43.9383H19.7527L19.752 27.8742ZM25.2199 46.4883C24.2449 46.4883 23.452 45.6953 23.4512 44.7211C23.4512 44.7211 23.4512 44.7195 23.4512 44.7188C23.4512 43.7438 24.2449 42.95 25.2207 42.95C26.1965 42.95 26.9902 43.7438 26.9902 44.7195C26.9902 45.6953 26.1965 46.4891 25.2207 46.4891L25.2199 46.4883ZM42.552 46.4883C41.5801 46.4883 40.7895 45.7 40.784 44.7297C40.784 44.7266 40.7863 44.7234 40.7863 44.7195C40.7863 44.7156 40.784 44.7133 40.784 44.7094C40.7895 43.7383 41.5801 42.95 42.552 42.95C43.5238 42.95 44.309 43.7344 44.3191 44.7008C44.3191 44.7078 44.3152 44.7133 44.3152 44.7195C44.3152 44.7258 44.3191 44.7312 44.3191 44.7383C44.3082 45.7047 43.5207 46.4883 42.552 46.4883ZM46.777 43.9383H45.7816C45.4277 42.4781 44.1191 41.3867 42.552 41.3867C40.9848 41.3867 39.6754 42.4781 39.3223 43.9383H38.6105V31.8914H43.1824C43.3848 31.8914 43.5785 32.0031 43.6887 32.1828L43.7934 32.3531H40.9582C40.3715 32.3531 39.8941 32.8305 39.8941 33.4172V37.2984C39.8941 38.0719 40.523 38.7008 41.2965 38.7008H47.377V43.3391C47.377 43.6695 47.1074 43.9383 46.777 43.9383Z" fill="#652DBF"/>
</svg>
