<svg width="40" height="41" viewBox="0 0 40 41" fill="none" xmlns="http://www.w3.org/2000/svg">
<rect y="0.609985" width="40" height="40" rx="8" fill="white" fill-opacity="0.07"/>
<mask id="mask0_361_1760" style="mask-type:luminance" maskUnits="userSpaceOnUse" x="12" y="13" width="16" height="17">
<path d="M28 13.15H12V29.15H28V13.15Z" fill="white"/>
</mask>
<g mask="url(#mask0_361_1760)">
<path d="M20 14.4833C20.684 14.4833 21.3856 14.5009 22.0656 14.5297L22.8688 14.5681L23.6376 14.6137L24.3576 14.6625L25.0152 14.7137C25.7289 14.7683 26.4003 15.0728 26.9116 15.5737C27.4229 16.0746 27.7411 16.7397 27.8104 17.4521L27.8424 17.7921L27.9024 18.5201C27.9584 19.2745 28 20.0969 28 20.8833C28 21.6697 27.9584 22.4921 27.9024 23.2465L27.8424 23.9745C27.832 24.0913 27.8216 24.2041 27.8104 24.3145C27.7411 25.0269 27.4227 25.6922 26.9113 26.1931C26.3999 26.694 25.7282 26.9984 25.0144 27.0529L24.3584 27.1033L23.6384 27.1529L22.8688 27.1985L22.0656 27.2369C21.3775 27.2668 20.6888 27.2823 20 27.2833C19.3112 27.2823 18.6225 27.2668 17.9344 27.2369L17.1312 27.1985L16.3624 27.1529L15.6424 27.1033L14.9848 27.0529C14.2712 26.9983 13.5996 26.6937 13.0884 26.1929C12.5771 25.6919 12.2589 25.0269 12.1896 24.3145L12.1576 23.9745L12.0976 23.2465C12.0364 22.4602 12.0039 21.6719 12 20.8833C12 20.0969 12.0416 19.2745 12.0976 18.5201L12.1576 17.7921C12.168 17.6753 12.1784 17.5625 12.1896 17.4521C12.2588 16.7398 12.577 16.0748 13.0881 15.5739C13.5992 15.0731 14.2705 14.7685 14.984 14.7137L15.6408 14.6625L16.3608 14.6137L17.1304 14.5681L17.9336 14.5297C18.622 14.4998 19.3109 14.4843 20 14.4833ZM20 16.0833C19.34 16.0833 18.6608 16.1009 18 16.1281L17.2176 16.1657L16.4664 16.2097L15.7608 16.2577L15.1144 16.3081C14.7747 16.3322 14.4544 16.4758 14.2105 16.7135C13.9665 16.9511 13.8146 17.2675 13.7816 17.6065C13.688 18.5737 13.6 19.7777 13.6 20.8833C13.6 21.9889 13.688 23.1929 13.7816 24.1601C13.8496 24.8577 14.4032 25.4001 15.1144 25.4585L15.7608 25.5081L16.4664 25.5561L17.2176 25.6009L18 25.6385C18.6608 25.6657 19.34 25.6833 20 25.6833C20.66 25.6833 21.3392 25.6657 22 25.6385L22.7824 25.6009L23.5336 25.5569L24.2392 25.5089L24.8856 25.4585C25.2253 25.4343 25.5455 25.2907 25.7895 25.0531C26.0335 24.8154 26.1854 24.4991 26.2184 24.1601C26.312 23.1929 26.4 21.9889 26.4 20.8833C26.4 19.7777 26.312 18.5737 26.2184 17.6065C26.1854 17.2675 26.0335 16.9511 25.7895 16.7135C25.5455 16.4758 25.2253 16.3322 24.8856 16.3081L24.2392 16.2585L23.5336 16.2105L22.7824 16.1657L22 16.1281C21.3337 16.0994 20.6669 16.0845 20 16.0833ZM18.4 18.9433C18.3999 18.8651 18.419 18.7881 18.4555 18.7189C18.492 18.6498 18.5448 18.5906 18.6094 18.5465C18.674 18.5024 18.7483 18.4748 18.8261 18.466C18.9037 18.4572 18.9824 18.4675 19.0552 18.4961L19.12 18.5281L22.48 20.4673C22.5469 20.5059 22.6035 20.5601 22.645 20.6252C22.6865 20.6904 22.7117 20.7646 22.7183 20.8415C22.725 20.9185 22.713 20.9959 22.6833 21.0673C22.6537 21.1386 22.6073 21.2017 22.548 21.2513L22.48 21.2993L19.12 23.2393C19.0523 23.2785 18.976 23.3005 18.8979 23.3035C18.8197 23.3065 18.7419 23.2903 18.6714 23.2565C18.6009 23.2225 18.5397 23.1719 18.4933 23.1089C18.4468 23.046 18.4164 22.9727 18.4048 22.8953L18.4 22.8233V18.9433Z" fill="white"/>
</g>
</svg>
