<svg width="19" height="19" viewBox="0 0 19 19" fill="none" xmlns="http://www.w3.org/2000/svg">
<path d="M0 9.49957C0 8.72931 0.0138163 7.96769 0.0397219 7.21643C0.177021 3.32368 3.32368 0.177023 7.21642 0.0397224C7.96769 0.0129547 8.72931 1.90735e-06 9.49957 1.90735e-06C10.2698 1.90735e-06 11.0315 0.0138168 11.7827 0.0397224C15.6755 0.177023 18.8221 3.32368 18.9594 7.21643C18.9862 7.96769 18.9991 8.72931 18.9991 9.49957C18.9991 10.2698 18.9853 11.0315 18.9594 11.7827C18.8221 15.6763 15.6755 18.823 11.7818 18.9603C11.0306 18.987 10.269 19 9.4987 19C8.72845 19 7.96682 18.9862 7.21556 18.9603C3.32368 18.823 0.177021 15.6763 0.0405853 11.7827C0.0138162 11.0315 0 10.2698 0 9.49957ZM5.80371 13.489C6.1707 13.8293 6.74494 13.8077 7.08431 13.4398L11.9364 8.20343L12.2568 11.3337C12.2801 11.5617 12.3863 11.762 12.5426 11.9062C12.7265 12.0772 12.9813 12.1713 13.2516 12.1428C13.7489 12.0919 14.1116 11.6471 14.0598 11.1489L13.5624 6.31491C13.5529 6.00577 13.4234 5.71995 13.1963 5.51011C12.9709 5.30114 12.6765 5.1932 12.4304 5.20615L7.50829 5.07922C7.00745 5.0654 6.59124 5.46176 6.57829 5.96087C6.57138 6.23288 6.6845 6.47898 6.86843 6.64996C7.02386 6.79417 7.2311 6.88484 7.4608 6.89088L10.6066 6.97032L5.75449 12.2076C5.41426 12.5746 5.43671 13.1488 5.80371 13.489Z" fill="white"/>
</svg>
