<svg width="85" height="22" viewBox="0 0 85 22" fill="none" xmlns="http://www.w3.org/2000/svg">
<mask id="mask0_1150_6528" style="mask-type:luminance" maskUnits="userSpaceOnUse" x="0" y="0" width="85" height="22">
<path d="M0.0234375 0H84.7606V21.67H0.0234375V0Z" fill="white"/>
</mask>
<g mask="url(#mask0_1150_6528)">
<path fill-rule="evenodd" clip-rule="evenodd" d="M27.028 4.854H31.6658C33.2262 4.854 34.3965 5.2874 35.09 6.11086C35.6968 6.84764 35.8702 7.93114 35.6534 9.27468C35.22 12.3518 33.4429 13.9554 30.3222 13.9554H28.8485C28.5451 13.9554 28.2417 14.1721 28.1983 14.5188L27.7649 17.8993C27.7649 18.2461 27.4615 18.5061 27.1581 18.5061H24.9042C24.8472 18.5007 24.7918 18.484 24.7412 18.4571C24.6907 18.4301 24.646 18.3934 24.6097 18.3491C24.5734 18.3048 24.5463 18.2537 24.5299 18.1988C24.5135 18.1439 24.5081 18.0863 24.5141 18.0294L26.4212 5.46076C26.4646 5.0707 26.7246 4.854 27.0714 4.854H27.028ZM29.4553 11.225C30.7123 11.225 31.9692 11.225 32.2293 9.44804C32.316 8.84128 32.2293 8.36454 32.0126 8.06116C31.5791 7.58442 30.7989 7.58442 29.9754 7.58442H29.6287C29.5348 7.592 29.446 7.62994 29.3756 7.69249C29.3052 7.75505 29.2571 7.83882 29.2386 7.93114L28.7618 11.225H29.4553ZM43.4553 9.4047H45.7092C45.9693 9.4047 46.1426 9.6214 46.0993 9.8381L44.8857 17.8993C44.8423 18.2461 44.5823 18.5061 44.2355 18.5061H42.2417C41.9816 18.5061 41.8083 18.2461 41.8083 18.0294L41.9383 17.3793C41.9383 17.3793 40.8114 18.6795 38.8175 18.6795C37.6473 18.6795 36.6504 18.3327 36.0002 17.5093C35.6142 17.0025 35.3378 16.4211 35.1886 15.8018C35.0393 15.1825 35.0205 14.539 35.1333 13.9121C35.5668 11.1383 37.7339 9.14466 40.1612 9.14466C41.2448 9.14466 42.3284 9.4047 42.8485 10.1415L42.9785 10.4015L43.0652 9.75142C43.0855 9.65206 43.14 9.56294 43.2192 9.49959C43.2984 9.43624 43.3973 9.40266 43.4987 9.4047H43.4553ZM40.0745 16.2091C41.3748 16.2091 42.3717 15.3423 42.5885 13.9554C42.6751 13.3053 42.5885 12.7419 42.1984 12.3085C41.8516 11.8751 41.3315 11.6584 40.7247 11.6584C39.4244 11.6584 38.3841 12.6119 38.2107 13.9121C38.0807 14.5622 38.2107 15.1689 38.5575 15.559C38.8609 15.9924 39.4244 16.2091 40.0745 16.2091Z" fill="#253B80"/>
<path d="M57.6708 9.40479H55.4169C55.2002 9.40479 54.9835 9.49146 54.8968 9.70816L51.776 14.4756L50.4757 9.88152C50.3457 9.57814 50.0856 9.40479 49.8256 9.40479H47.615C47.3116 9.40479 47.1816 9.66482 47.2249 9.92486L49.6955 17.5527L47.3983 21.0199C47.1816 21.2799 47.3983 21.67 47.7017 21.67H49.9556C50.1723 21.67 50.389 21.54 50.4757 21.3666L57.9742 10.0115C58.1909 9.75151 57.9742 9.40479 57.6708 9.40479Z" fill="#253B80"/>
<path fill-rule="evenodd" clip-rule="evenodd" d="M60.4456 4.854H65.1267C66.7305 4.854 67.9008 5.2874 68.5943 6.11086C69.1577 6.84764 69.3744 7.93114 69.1577 9.27468C68.7243 12.3518 66.9038 13.9554 63.8264 13.9554H62.3527C62.006 13.9554 61.7459 14.1721 61.7026 14.5188L61.1391 18.0727C61.1391 18.3327 60.9224 18.5061 60.7057 18.5061H58.2784C58.0617 18.5061 57.845 18.2461 57.9317 18.0294L59.7955 5.46076C59.8388 5.0707 60.1422 4.854 60.4456 4.854ZM62.9162 11.225C64.1298 11.225 65.4302 11.225 65.6902 9.44804C65.7769 8.84128 65.6902 8.36454 65.4735 8.06116C65.0401 7.58442 64.2599 7.58442 63.393 7.58442H63.0896C62.9882 7.58238 62.8893 7.61596 62.8101 7.67931C62.7309 7.74266 62.6764 7.83178 62.6562 7.93114L62.2227 11.225H62.9162ZM76.9163 9.4047H79.1701C79.3869 9.4047 79.6036 9.6214 79.5602 9.8381L78.3466 17.8993C78.2599 18.2461 77.9999 18.5061 77.6964 18.5061H75.6593C75.3992 18.5061 75.2259 18.2461 75.2692 18.0294L75.3559 17.3793C75.3559 17.3793 74.2723 18.6795 72.2785 18.6795C71.1082 18.6795 70.1113 18.3327 69.4611 17.5093C69.0751 17.0025 68.7987 16.4211 68.6495 15.8018C68.5002 15.1825 68.4814 14.539 68.5943 13.9121C69.0277 11.1383 71.1515 9.14466 73.6221 9.14466C74.7057 9.14466 75.7893 9.4047 76.2661 10.1415L76.4395 10.4015L76.5262 9.75142C76.5447 9.6591 76.5928 9.57533 76.6632 9.51277C76.7336 9.45021 76.8224 9.41228 76.9163 9.4047ZM73.4921 16.2091C74.7924 16.2091 75.7893 15.3423 76.006 13.9554C76.1361 13.3053 76.006 12.7419 75.6593 12.3085C75.3125 11.8751 74.7924 11.6584 74.1423 11.6584C72.8419 11.6584 71.845 12.6119 71.6283 13.9121C71.5416 14.5622 71.6283 15.1689 71.9751 15.559C72.3218 15.9924 72.8419 16.2091 73.4921 16.2091Z" fill="#179BD7"/>
<path d="M81.8138 5.20081L79.8633 18.0295C79.8633 18.2462 80.0367 18.4629 80.2967 18.4629H82.2039C82.5073 18.4629 82.8107 18.2462 82.854 17.8994L84.7178 5.33083C84.7611 5.07079 84.5878 4.85409 84.371 4.85409H82.2039C82.1024 4.85205 82.0035 4.88562 81.9243 4.94898C81.8451 5.01233 81.7907 5.10144 81.7704 5.20081H81.8138Z" fill="#179BD7"/>
<path d="M5.00941 20.9334L5.35616 18.5497H0.761719L3.36235 0.866964C3.37316 0.837084 3.39042 0.809948 3.41289 0.787479C3.43536 0.76501 3.4625 0.747757 3.49238 0.736944C3.52989 0.708811 3.57552 0.693604 3.62241 0.693604H9.99395C12.1611 0.693604 13.5915 1.127 14.3717 2.08048C14.7385 2.4615 14.9804 2.94531 15.0652 3.46736C15.1774 4.0835 15.1774 4.71484 15.0652 5.33098V5.85106L15.4553 6.1111C15.7587 6.28446 15.9754 6.45782 16.1921 6.67452C16.4928 7.0825 16.6866 7.55931 16.7556 8.0614C16.8583 9.55752 16.559 11.0539 15.8887 12.3954C15.5745 12.9456 15.1509 13.4256 14.6439 13.8058C14.137 14.1859 13.5576 14.4582 12.9413 14.6057C12.3345 14.7791 11.641 14.8658 10.8608 14.8658H10.3407C9.99395 14.8658 9.6472 14.9958 9.38714 15.2558C9.10812 15.5035 8.92419 15.8407 8.86701 16.2093L8.82367 16.426L8.17351 20.63V20.76L8.13017 20.8467C8.12168 20.8617 8.10889 20.8739 8.09344 20.8816C8.078 20.8893 8.0606 20.8923 8.04348 20.89H4.96607L5.00941 20.9334Z" fill="#253B80"/>
<path d="M15.8439 5.50415L15.7573 5.93755C14.8904 10.4449 11.9863 12.0052 8.30212 12.0052H6.39499C5.96156 12.0052 5.57146 12.3952 5.52812 12.872L4.53121 19.2863L4.27115 21.0632C4.2278 21.4099 4.44452 21.67 4.74793 21.67H8.0854C8.51884 21.67 8.82225 21.3666 8.90893 20.9765V20.7598L9.55909 16.5992V16.3825C9.59044 16.1758 9.69544 15.9874 9.85474 15.852C10.014 15.7166 10.2169 15.6433 10.426 15.6457H10.8594C14.1102 15.6457 16.6675 14.2588 17.4043 10.2716C17.7077 8.62463 17.5777 7.23775 16.7542 6.24093C16.4985 5.94156 16.19 5.69181 15.8439 5.50415Z" fill="#179BD7"/>
<path d="M14.9349 5.11404C14.6644 5.03852 14.3893 4.98061 14.1114 4.94066C13.5669 4.85182 13.016 4.80833 12.4643 4.81063H7.39308C7.26305 4.81063 7.17636 4.81063 7.04633 4.89732C6.92823 4.9642 6.82749 5.05787 6.7522 5.17079C6.67692 5.28372 6.6292 5.41274 6.61289 5.54748L5.5293 12.6559V12.8292C5.55086 12.6147 5.65163 12.4158 5.81192 12.2716C5.97221 12.1273 6.18052 12.048 6.39617 12.049H8.3033C11.9875 12.049 14.8916 10.4453 15.7584 5.89423L15.8018 5.50413C15.5799 5.38297 15.3478 5.28145 15.1083 5.20073C15.0509 5.17097 14.9931 5.14207 14.9349 5.11404Z" fill="#222D65"/>
<path d="M6.61251 5.54752C6.62882 5.4128 6.67654 5.28378 6.75182 5.17087C6.82711 5.05795 6.92786 4.96429 7.04595 4.89742L7.3927 4.81074H12.4639C13.0274 4.81074 13.5909 4.85408 14.111 4.94076C14.4497 5.00094 14.783 5.08789 15.1079 5.2008L15.8447 5.50418C16.0615 3.81392 15.8447 2.68708 14.9779 1.60358C13.9376 0.52008 12.2039 0 9.99333 0H3.62179C3.18836 0 2.75492 0.34672 2.71157 0.82346L0.0242574 18.5929C-0.0190864 18.9396 0.240976 19.2863 0.587727 19.2863H4.53201L5.52892 12.6553L6.61251 5.54752Z" fill="#253B80"/>
</g>
</svg>
