<svg width="53" height="22" viewBox="0 0 53 22" fill="none" xmlns="http://www.w3.org/2000/svg">
<path fill-rule="evenodd" clip-rule="evenodd" d="M52.0782 11.1966C52.0782 7.4934 50.2845 4.57129 46.8561 4.57129C43.4132 4.57129 41.3301 7.4934 41.3301 11.1678C41.3301 15.522 43.7893 17.7208 47.3189 17.7208C49.0404 17.7208 50.3423 17.3302 51.326 16.7805V13.8873C50.3422 14.3791 49.214 14.6829 47.7818 14.6829C46.3786 14.6829 45.1345 14.1911 44.9754 12.4841H52.0492C52.0493 12.296 52.0782 11.5438 52.0782 11.1966ZM44.9321 9.82234C44.9321 8.18767 45.9303 7.50774 46.8416 7.50774C47.724 7.50774 48.6643 8.18767 48.6643 9.82234H44.9321Z" fill="#635BFF"/>
<path fill-rule="evenodd" clip-rule="evenodd" d="M35.745 4.57129C34.3273 4.57129 33.4159 5.23667 32.9096 5.69965L32.7216 4.80278H29.5391V21.6701L33.1555 20.9034L33.17 16.8096C33.6907 17.1857 34.4574 17.7209 35.7304 17.7209C38.3198 17.7209 40.6778 15.6378 40.6778 11.0521C40.6634 6.8569 38.2765 4.57129 35.745 4.57129ZM34.877 14.5383C34.0234 14.5383 33.5172 14.2345 33.17 13.8584L33.1555 8.49148C33.5317 8.07192 34.0524 7.78266 34.877 7.78266C36.1934 7.78266 37.1047 9.25816 37.1047 11.1532C37.1048 13.0917 36.2078 14.5383 34.877 14.5383Z" fill="#635BFF"/>
<path fill-rule="evenodd" clip-rule="evenodd" d="M24.5625 3.71768L28.1934 2.93656V0L24.5625 0.766687V3.71768Z" fill="#635BFF"/>
<path d="M28.1934 4.81714H24.5625V17.4748H28.1934V4.81714Z" fill="#635BFF"/>
<path fill-rule="evenodd" clip-rule="evenodd" d="M20.6725 5.88745L20.441 4.81695H17.3164V17.4746H20.9329V8.89632C21.7863 7.7824 23.2329 7.985 23.6814 8.14407V4.81695C23.2185 4.64344 21.526 4.32519 20.6725 5.88745Z" fill="#635BFF"/>
<path fill-rule="evenodd" clip-rule="evenodd" d="M13.4387 1.67798L9.90897 2.43022L9.89453 14.0174C9.89453 16.1584 11.5002 17.7352 13.6412 17.7352C14.8274 17.7352 15.6953 17.5181 16.1728 17.2577V14.3212C15.7099 14.5092 13.4243 15.1746 13.4243 13.0337V7.89832H16.1728V4.81714H13.4243L13.4387 1.67798Z" fill="#635BFF"/>
<path fill-rule="evenodd" clip-rule="evenodd" d="M3.65991 8.49148C3.65991 7.92729 4.12279 7.71035 4.88948 7.71035C5.98886 7.71035 7.3776 8.04304 8.47708 8.63621V5.23667C7.2764 4.75935 6.09016 4.57129 4.88948 4.57129C1.95292 4.57129 0 6.10466 0 8.66509C0 12.6577 5.49709 12.0212 5.49709 13.7426C5.49709 14.4081 4.91847 14.6251 4.10835 14.6251C2.90767 14.6251 1.3743 14.1332 0.159175 13.4678V16.9107C1.50449 17.4893 2.86434 17.7352 4.10835 17.7352C7.11722 17.7352 9.18589 16.2452 9.18589 13.6559C9.17145 9.34502 3.65991 10.1117 3.65991 8.49148Z" fill="#635BFF"/>
</svg>
