<svg width="112" height="43" viewBox="0 0 112 43" fill="none" xmlns="http://www.w3.org/2000/svg">
<g clip-path="url(#clip0_361_1416)">
<path d="M79.1221 14.4872C78.5608 14.4872 77.9969 14.2969 77.5387 13.9089L73.4327 10.4282C72.4236 9.57218 72.3146 8.07854 73.1899 7.09107C74.0658 6.10424 75.5911 5.99637 76.6027 6.85298L80.7081 10.3337C81.7171 11.1897 81.8268 12.6839 80.9516 13.6708C80.4725 14.2101 79.7996 14.4872 79.1221 14.4872Z" fill="#652DBF"/>
<path d="M86.9843 10.8485C85.7285 10.8485 84.6673 9.89932 84.5746 8.65525L84.1791 3.35281C84.0825 2.04938 85.0837 0.916382 86.4158 0.821274C87.7427 0.723613 88.9071 1.70533 89.005 3.00876L89.4005 8.31056C89.4978 9.61399 88.4959 10.747 87.1638 10.8421C87.1031 10.8466 87.043 10.8485 86.9843 10.8485Z" fill="#652DBF"/>
<path d="M0.409454 25.5108V8.43731L6.01859 5.66577V13.4034H10.8804V18.3311H6.01859V25.5108C6.01859 26.1268 6.16675 26.6457 6.46176 27.0689C6.75742 27.4928 7.12749 27.7819 7.57393 27.9351C7.92833 28.0641 8.30232 28.1285 8.69589 28.1285C8.78596 28.1285 8.88517 28.1221 8.9909 28.1094C9.48889 28.0698 9.94773 27.9358 10.3694 27.7041L12.298 31.9201C11.3791 33.0237 9.88899 33.5752 7.82978 33.5752C6.84619 33.5491 5.91743 33.3633 5.04414 33.0173C4.17085 32.6707 3.38307 32.1697 2.68274 31.5154C1.9798 30.8611 1.42502 30.0173 1.01971 28.9839C0.611785 27.9517 0.409454 26.7938 0.409454 25.5108Z" fill="#010E21"/>
<path d="M14.3057 27.8196C14.3057 26.8193 14.4591 25.9238 14.7678 25.1348C15.0745 24.3459 15.4466 23.705 15.8793 23.2097C16.3127 22.7176 16.9053 22.2899 17.6611 21.9299C18.415 21.5712 19.0872 21.3088 19.6785 21.1416C20.2686 20.9743 21.0387 20.8467 21.991 20.756C22.942 20.6667 23.6658 20.6156 24.1664 20.6022C24.6637 20.5894 25.353 20.5831 26.2328 20.5831C26.2837 20.5831 26.3215 20.5831 26.3411 20.5831C26.3607 20.5831 26.3907 20.5831 26.4299 20.5831C26.469 20.5831 26.5004 20.5831 26.5284 20.5831C26.3176 18.402 25.0834 17.3104 22.8277 17.3104C22.0804 17.3104 21.3723 17.4687 20.7026 17.7822C20.033 18.0968 19.5141 18.5558 19.1473 19.1584L15.4074 17.3104C15.7226 16.5023 16.2859 15.7747 17.1005 15.1262C17.9137 14.4783 18.864 13.9753 19.9546 13.6153C21.0433 13.2565 22.1587 13.0765 23.3009 13.0765C24.4151 13.0765 25.4854 13.247 26.5089 13.5865C27.5323 13.9274 28.4689 14.4406 29.3239 15.1262C30.1763 15.8136 30.8596 16.7436 31.3707 17.9175C31.8824 19.092 32.1382 20.4362 32.1382 21.9497V33.2669H27.6902L27.3756 31.5352C25.0253 32.8961 22.8747 33.5752 20.9199 33.5752C19.0024 33.5752 17.4216 33.0397 16.1763 31.968C14.9277 30.8969 14.3057 29.5137 14.3057 27.8196ZM19.9148 26.954C19.9148 27.8151 20.2098 28.4904 20.8005 28.9851C21.3912 29.4798 22.1307 29.7262 23.0248 29.7262C23.9947 29.7262 24.8347 29.4473 25.5435 28.8887C26.2523 28.3302 26.6068 27.5317 26.6068 26.4925L26.5669 23.894H25.4058C24.9587 23.894 24.5717 23.9035 24.244 23.9227C23.9158 23.9418 23.5163 23.9795 23.0438 24.0382C22.5719 24.0963 22.1705 24.1914 21.8435 24.3267C21.5152 24.4621 21.1941 24.6382 20.8788 24.8559C20.5636 25.0748 20.3234 25.3602 20.1596 25.7132C19.9951 26.0655 19.9148 26.4791 19.9148 26.954Z" fill="#010E21"/>
<path d="M35.345 41.3134V13.4034H40.9554V15.213C42.6602 13.7889 44.6365 13.0765 46.8798 13.0765C48.4658 13.0765 49.873 13.5674 51.1013 14.5485C52.3271 15.5289 53.2473 16.7851 53.8569 18.3171C54.4665 19.8496 54.7713 21.4933 54.7713 23.2493C54.7713 24.3274 54.6832 25.3563 54.5057 26.331C54.3275 27.3083 54.0332 28.2421 53.6207 29.1358C53.2075 30.0275 52.6945 30.7986 52.0849 31.4477C51.4747 32.0975 50.7025 32.6133 49.7718 32.9995C48.8391 33.385 47.8033 33.5765 46.6624 33.5765C44.4303 33.5765 42.529 32.8692 40.9547 31.4509V41.3141L35.345 41.3134ZM41.5356 19.0786C40.7407 20.1292 40.3451 21.5195 40.3451 23.2486C40.3451 24.9778 40.7407 26.3693 41.5356 27.4187C42.3286 28.4694 43.3684 28.9953 44.6554 28.9953C46.0058 28.9953 47.0958 28.47 47.9228 27.4187C48.7504 26.3687 49.1635 24.9778 49.1635 23.2486C49.1635 21.5201 48.7504 20.1299 47.9228 19.0786C47.0958 18.0285 46.0058 17.5032 44.6554 17.5032C43.3677 17.5032 42.3286 18.0285 41.5356 19.0786Z" fill="#010E21"/>
<path d="M56.7796 23.2582C56.7796 22.3097 56.9102 21.3605 57.1739 20.4101C57.4356 19.4609 57.8448 18.5469 58.4035 17.6673C58.9609 16.789 59.624 16.009 60.3922 15.3279C61.1598 14.6487 62.0964 14.103 63.2072 13.6919C64.3148 13.2821 65.5053 13.0759 66.78 13.0759C67.8935 13.0759 68.9169 13.1978 69.8489 13.4417C70.7816 13.6862 71.5674 14.0168 72.2116 14.433C72.8532 14.8511 73.4321 15.3413 73.9438 15.9056C74.4555 16.4705 74.8589 17.0609 75.1539 17.6762C75.4483 18.2916 75.6969 18.928 75.9019 19.5822C76.1042 20.2365 76.2465 20.8595 76.3248 21.4486C76.3907 22.0391 76.4292 22.6027 76.443 23.1427C76.443 23.271 76.443 23.3993 76.443 23.5276C76.443 23.887 76.4293 24.2074 76.4031 24.4895C76.364 24.8496 76.3111 25.1323 76.2465 25.3366H62.3901C62.6127 26.3509 63.1576 27.1564 64.0237 27.7526C64.8899 28.3488 65.9524 28.6475 67.2121 28.6475C68.0253 28.6475 68.7883 28.4937 69.505 28.1854C70.2203 27.8771 70.762 27.4673 71.1295 26.9528L75.4789 29.3981C74.5202 30.6556 73.2409 31.6654 71.6412 32.4295C70.0389 33.1935 68.4189 33.5746 66.78 33.5746C65.1777 33.5746 63.73 33.2829 62.4403 32.6988C61.1474 32.1161 60.0979 31.3361 59.2905 30.3607C58.4838 29.386 57.8631 28.2881 57.4297 27.0683C56.9963 25.8504 56.7796 24.5808 56.7796 23.2582ZM62.3105 21.2763H71.2072C70.9565 20.1088 70.4416 19.1884 69.6623 18.5143C68.881 17.8409 67.9209 17.5039 66.7794 17.5039C65.5445 17.5039 64.527 17.8479 63.7281 18.5335C62.9266 19.2203 62.4541 20.1344 62.3105 21.2763Z" fill="#010E21"/>
<path d="M78.4499 23.3451C78.4499 20.2627 79.3578 17.7809 81.1762 15.8985C82.9932 14.0168 85.3899 13.0759 88.37 13.0759C89.9841 13.0759 91.5185 13.4027 92.976 14.0576C94.4328 14.7119 95.5541 15.5851 96.3412 16.676L91.9134 19.0843C91.5446 18.6343 91.0564 18.2718 90.4468 17.9947C89.8359 17.7184 89.1963 17.5798 88.5273 17.5798C87.1763 17.5798 86.0935 18.1045 85.2789 19.152C84.465 20.2001 84.0597 21.5846 84.0597 23.3055C84.0597 25.0034 84.4689 26.3751 85.29 27.4226C86.1085 28.47 87.1887 28.9947 88.5273 28.9947C89.1963 28.9947 89.8366 28.8562 90.4468 28.5798C91.0571 28.3034 91.5446 27.9409 91.9134 27.4909L96.3412 29.8948C95.5142 30.9946 94.3721 31.8831 92.9166 32.5603C91.4605 33.2382 89.9443 33.5759 88.37 33.5759C85.3899 33.5759 82.9932 32.6369 81.1762 30.759C79.3578 28.8811 78.4499 26.4096 78.4499 23.3451Z" fill="#010E21"/>
<path d="M99.9631 25.5108V8.43731L105.574 5.66577V13.4034H110.434V18.3311H105.574V25.5108C105.574 26.1268 105.721 26.6457 106.017 27.0689C106.31 27.4928 106.681 27.7819 107.128 27.9351C107.482 28.0641 107.856 28.1285 108.25 28.1285C108.34 28.1285 108.439 28.1221 108.545 28.1094C109.043 28.0698 109.502 27.9358 109.922 27.7041L111.852 31.9201C110.933 33.0237 109.443 33.5752 107.383 33.5752C106.399 33.5491 105.47 33.3633 104.598 33.0173C103.725 32.6707 102.937 32.1697 102.236 31.5154C101.533 30.8611 100.978 30.0173 100.573 28.9839C100.167 27.9517 99.9631 26.7938 99.9631 25.5108Z" fill="#010E21"/>
</g>
<defs>
<clipPath id="clip0_361_1416">
<rect width="112" height="42.1284" fill="white"/>
</clipPath>
</defs>
</svg>
