<svg width="110" height="43" viewBox="0 0 110 43" fill="none" xmlns="http://www.w3.org/2000/svg">
<g clip-path="url(#clip0_361_1472)">
<mask id="mask0_361_1472" style="mask-type:luminance" maskUnits="userSpaceOnUse" x="0" y="0" width="110" height="43">
<path d="M109.99 0H0.00999451V42.3H109.99V0Z" fill="white"/>
</mask>
<g mask="url(#mask0_361_1472)">
<path d="M77.7052 14.5462C77.1539 14.5462 76.5998 14.3552 76.15 13.9655L72.1181 10.4706C71.1276 9.61117 71.0204 8.11143 71.8798 7.11999C72.7399 6.12912 74.2373 6.02081 75.2307 6.88091L79.2626 10.3758C80.2531 11.2352 80.361 12.7356 79.5016 13.7265C79.0306 14.2681 78.37 14.5462 77.7052 14.5462Z" fill="#652DBF"/>
<path d="M85.4243 10.8927C84.1912 10.8927 83.1493 9.93964 83.0583 8.69052L82.6699 3.36647C82.5754 2.05774 83.5582 0.92012 84.8666 0.824628C86.1695 0.726569 87.313 1.71229 87.4089 3.02102L87.7973 8.34444C87.8925 9.65313 86.909 10.7908 85.6012 10.8862C85.5413 10.8908 85.4821 10.8927 85.4243 10.8927Z" fill="#652DBF"/>
<path d="M0.411896 25.6148V8.47169L5.91986 5.68887V13.4579H10.694V18.4058H5.91986V25.6148C5.91986 26.2332 6.06535 26.7542 6.35505 27.1792C6.64537 27.6048 7.00877 27.8951 7.44718 28.0489C7.79517 28.1783 8.16241 28.2431 8.54889 28.2431C8.63729 28.2431 8.73472 28.2367 8.83857 28.2239C9.32756 28.1841 9.77812 28.0495 10.1922 27.8169L12.0861 32.0501C11.1837 33.1583 9.72046 33.712 7.69838 33.712C6.73254 33.6857 5.82053 33.4992 4.96299 33.1518C4.10546 32.8038 3.33188 32.3007 2.64418 31.6438C1.95392 30.9869 1.40915 30.1396 1.01115 29.1019C0.610577 28.0655 0.411896 26.9029 0.411896 25.6148Z" fill="white"/>
<path d="M14.0575 27.933C14.0575 26.9287 14.2081 26.0295 14.5113 25.2374C14.8125 24.4452 15.1778 23.8017 15.6028 23.3043C16.0283 22.8102 16.6102 22.3808 17.3524 22.0193C18.0927 21.6591 18.7528 21.3958 19.3335 21.2278C19.9129 21.0599 20.6691 20.9317 21.6042 20.8407C22.538 20.751 23.2488 20.6997 23.7404 20.6862C24.2287 20.6734 24.9055 20.667 25.7695 20.667C25.8195 20.667 25.8566 20.667 25.8759 20.667C25.8951 20.667 25.9246 20.667 25.963 20.667C26.0015 20.667 26.0323 20.667 26.0598 20.667C25.8528 18.4771 24.6409 17.3811 22.4258 17.3811C21.692 17.3811 20.9967 17.54 20.339 17.8547C19.6815 18.1707 19.172 18.6315 18.8118 19.2365L15.1394 17.3811C15.4489 16.5697 16.002 15.8391 16.8019 15.1879C17.6005 14.5374 18.5336 14.0323 19.6046 13.6709C20.6736 13.3107 21.7689 13.1299 22.8905 13.1299C23.9845 13.1299 25.0357 13.3011 26.0406 13.642C27.0456 13.9842 27.9652 14.4996 28.8048 15.1879C29.6419 15.8781 30.3129 16.812 30.8147 17.9906C31.3172 19.1699 31.5684 20.5196 31.5684 22.0392V33.4025H27.2007L26.8917 31.6637C24.5838 33.0302 22.472 33.7121 20.5525 33.7121C18.6695 33.7121 17.1172 33.1743 15.8944 32.0983C14.6683 31.0228 14.0575 29.634 14.0575 27.933ZM19.5655 27.064C19.5655 27.9285 19.8552 28.6066 20.4352 29.1033C21.0152 29.6 21.7413 29.8474 22.6194 29.8474C23.5718 29.8474 24.3967 29.5673 25.0927 29.0065C25.7887 28.4458 26.1367 27.644 26.1367 26.6006L26.0976 23.9914H24.9574C24.5184 23.9914 24.1383 24.001 23.8167 24.0203C23.4943 24.0395 23.102 24.0773 22.638 24.1362C22.1746 24.1946 21.7805 24.2901 21.4593 24.426C21.137 24.5618 20.8217 24.7387 20.5121 24.9573C20.2025 25.1771 19.9667 25.4636 19.8058 25.818C19.6443 26.1718 19.5655 26.5871 19.5655 27.064Z" fill="white"/>
<path d="M34.7178 41.4818V13.4581H40.2271V15.2751C41.9011 13.8452 43.8418 13.1299 46.0446 13.1299C47.602 13.1299 48.9838 13.6228 50.19 14.6079C51.3936 15.5923 52.2973 16.8536 52.8959 18.3918C53.4945 19.9306 53.7938 21.581 53.7938 23.3441C53.7938 24.4266 53.7073 25.4597 53.533 26.4384C53.358 27.4196 53.069 28.3573 52.6639 29.2545C52.2583 30.1499 51.7545 30.9241 51.1558 31.576C50.5566 32.2284 49.7984 32.7463 48.8845 33.134C47.9686 33.5211 46.9515 33.7134 45.8312 33.7134C43.6393 33.7134 41.7723 33.0032 40.2264 31.5791V41.4825L34.7178 41.4818ZM40.7969 19.1564C40.0162 20.2114 39.6278 21.6073 39.6278 23.3435C39.6278 25.0797 40.0162 26.4768 40.7969 27.5305C41.5755 28.5855 42.5965 29.1135 43.8604 29.1135C45.1864 29.1135 46.2567 28.5861 47.0688 27.5305C47.8815 26.4762 48.2871 25.0797 48.2871 23.3435C48.2871 21.6079 47.8815 20.212 47.0688 19.1564C46.2567 18.1021 45.1864 17.5747 43.8604 17.5747C42.5959 17.5747 41.5755 18.1021 40.7969 19.1564Z" fill="white"/>
<path d="M55.7659 23.3531C55.7659 22.4007 55.8941 21.4476 56.153 20.4933C56.4101 19.5403 56.8119 18.6225 57.3605 17.7393C57.9078 16.8574 58.559 16.0742 59.3133 15.3904C60.067 14.7084 60.9868 14.1605 62.0776 13.7477C63.1652 13.3363 64.3343 13.1292 65.5859 13.1292C66.6793 13.1292 67.6843 13.2517 68.5995 13.4965C69.5153 13.7419 70.287 14.0739 70.9196 14.4918C71.5499 14.9116 72.1181 15.4038 72.6208 15.9704C73.1227 16.5376 73.5189 17.1304 73.8087 17.7483C74.0977 18.3661 74.3424 19.0051 74.5433 19.662C74.7421 20.3189 74.8817 20.9445 74.9585 21.5361C75.0234 22.1289 75.0615 22.6948 75.0749 23.237C75.0749 23.3658 75.0749 23.4947 75.0749 23.6235C75.0749 23.9843 75.0615 24.3061 75.0354 24.5893C74.9973 24.9508 74.9452 25.2348 74.8817 25.4399H61.2752C61.4938 26.4582 62.0289 27.2671 62.8794 27.8657C63.7299 28.4643 64.7733 28.7642 66.0102 28.7642C66.8088 28.7642 67.558 28.6097 68.2618 28.3002C68.9641 27.9906 69.4961 27.5792 69.857 27.0626L74.1281 29.5179C73.1862 30.7805 71.9306 31.7944 70.3594 32.5616C68.786 33.3288 67.1952 33.7114 65.5859 33.7114C64.0125 33.7114 62.5909 33.4185 61.3246 32.8321C60.0549 32.2469 59.0243 31.4637 58.2315 30.4844C57.4394 29.5057 56.8298 28.4034 56.4043 27.1786C55.9787 25.9558 55.7659 24.681 55.7659 23.3531ZM61.197 21.363H69.9332C69.6871 20.1908 69.1814 19.2666 68.4162 18.5898C67.649 17.9136 66.7062 17.5752 65.5853 17.5752C64.3727 17.5752 63.3735 17.9207 62.589 18.609C61.802 19.2987 61.338 20.2164 61.197 21.363Z" fill="white"/>
<path d="M77.0453 23.4402C77.0453 20.3452 77.9372 17.8534 79.7222 15.9633C81.5066 14.0739 83.8599 13.1292 86.7863 13.1292C88.3712 13.1292 89.8785 13.4574 91.3096 14.1149C92.7401 14.7719 93.8413 15.6487 94.614 16.744L90.2662 19.1621C89.9038 18.7103 89.4244 18.3462 88.8259 18.0681C88.2259 17.7906 87.5978 17.6515 86.9407 17.6515C85.6146 17.6515 84.5508 18.1784 83.7513 19.2301C82.9518 20.2824 82.5542 21.6725 82.5542 23.4004C82.5542 25.1053 82.9561 26.4826 83.7619 27.5343C84.5656 28.5861 85.6266 29.1129 86.9407 29.1129C87.5978 29.1129 88.2267 28.9738 88.8259 28.6963C89.4252 28.4188 89.9038 28.0548 90.2662 27.6029L94.614 30.0166C93.8018 31.1208 92.6801 32.013 91.2511 32.693C89.8214 33.3736 88.3324 33.7127 86.7863 33.7127C83.8599 33.7127 81.5066 32.7699 79.7222 30.8844C77.9372 28.9988 77.0453 26.5172 77.0453 23.4402Z" fill="white"/>
<path d="M98.1707 25.6148V8.47169L103.68 5.68887V13.4579H108.452V18.4058H103.68V25.6148C103.68 26.2332 103.825 26.7542 104.115 27.1792C104.404 27.6048 104.767 27.8951 105.207 28.0489C105.553 28.1783 105.921 28.2431 106.308 28.2431C106.397 28.2431 106.493 28.2367 106.598 28.2239C107.087 28.1841 107.537 28.0495 107.95 27.8169L109.845 32.0501C108.942 33.1583 107.479 33.712 105.457 33.712C104.49 33.6857 103.579 33.4992 102.722 33.1518C101.864 32.8038 101.09 32.3007 100.403 31.6438C99.7125 30.9869 99.1668 30.1396 98.7699 29.1019C98.3702 28.0655 98.1707 26.9029 98.1707 25.6148Z" fill="white"/>
</g>
</g>
<defs>
<clipPath id="clip0_361_1472">
<rect width="109.98" height="42.3" fill="white" transform="translate(0.00999451)"/>
</clipPath>
</defs>
</svg>
