<svg width="48" height="35" viewBox="0 0 48 35" fill="none" xmlns="http://www.w3.org/2000/svg">
<path fill-rule="evenodd" clip-rule="evenodd" d="M37.8672 9.40397C39.6038 6.97096 42.8863 4.35176 47.3551 2.1713C48.5165 1.60466 47.9926 -0.151634 46.7106 0.0105247C37.3212 1.19821 31.2354 5.31041 27.912 11.4257C26.676 13.7002 25.8994 16.1211 25.4859 18.5925C25.2132 20.2219 25.1412 21.4447 25.1412 22.8571C25.1412 29.1685 30.2576 34.2849 36.569 34.2849C42.8804 34.2849 47.9968 29.1685 47.9968 22.8571C47.9968 16.5457 42.7987 11.4257 36.8254 11.4257C37.1405 10.5605 37.2162 10.316 37.8672 9.40397ZM12.726 9.40397C14.4626 6.97096 17.7451 4.35176 22.214 2.1713C23.3753 1.60466 22.8514 -0.151634 21.5694 0.0105247C12.18 1.19821 6.09421 5.31041 2.77086 11.4257C1.53482 13.7002 0.758247 16.1211 0.344685 18.5925C0.07201 20.2219 0 21.4447 0 22.8571C0 29.1685 5.1164 34.2849 11.4278 34.2849C17.7392 34.2849 22.8556 29.1685 22.8556 22.8571C22.8556 16.5457 17.6576 11.4257 11.6842 11.4257C11.9993 10.5605 12.075 10.316 12.726 9.40397Z" fill="#652DBF"/>
</svg>
